<svg id="Capa_1" data-name="Capa 1" xmlns="http://www.w3.org/2000/svg" viewBox="0 0 128 128"><defs><style>.cls-1{fill:#fff;}.cls-2{fill:none;}.cls-3{fill:gray;}</style></defs><title>128x128 px blanco</title><path class="cls-1" d="M23.37,114.43V94.54h2.72V111a2.51,2.51,0,0,0,.08.81c.06.11.25.17.56.17h6v2.49Z"/><path class="cls-1" d="M42.4,109v5.43H39.93V101.07a6.61,6.61,0,0,1,1.85-4.74,6.34,6.34,0,0,1,9.14,0A6.5,6.5,0,0,1,52.83,101v13.42H50.41v-5.71a2.54,2.54,0,0,0,0-.59.73.73,0,0,0-.27-.42,1,1,0,0,0-.66-.17H43.66a3,3,0,0,0-.53,0,1.15,1.15,0,0,0-.48.26,1,1,0,0,0-.25.81Zm7.9-5.39V100.9A4.16,4.16,0,0,0,49.21,98a3.78,3.78,0,0,0-2.9-1.19,3.37,3.37,0,0,0-2.77,1.34,5,5,0,0,0-1.06,3.17v3a1,1,0,0,0,.2.63.91.91,0,0,0,.5.31,4,4,0,0,0,.76.07h5.11a2.77,2.77,0,0,0,.53,0A.85.85,0,0,0,50,105a1,1,0,0,0,.2-.31,1.22,1.22,0,0,0,.08-.5Z"/><path class="cls-1" d="M60.06,97V94.54h13.2V97H68.53a.62.62,0,0,0-.47.17.78.78,0,0,0-.13.52v16.81H65.18V98A1.47,1.47,0,0,0,65,97.2a.61.61,0,0,0-.36-.22,2.57,2.57,0,0,0-.48,0Z"/><path class="cls-1" d="M80.32,114.46V94.4H83v20.06Z"/><path class="cls-1" d="M93.55,107.51v6.95H91.33V101A6.53,6.53,0,0,1,93,96.34a5.65,5.65,0,0,1,4.3-1.8,5.42,5.42,0,0,1,4.12,1.79,6,6,0,0,1,1.68,4.23,5.42,5.42,0,0,1-1.74,4.23,7.05,7.05,0,0,1-3.25,1.6.2.2,0,0,0-.22.22,1.18,1.18,0,0,0,.18.49c.12.21.31.49.55.83l4.75,6.49-2.71,0-5.8-7.65a5.11,5.11,0,0,0-.56-.73.67.67,0,0,0-.53-.14c-.1,0-.16.14-.2.35a4.07,4.07,0,0,0,0,.72Zm3.88-10.68A3.39,3.39,0,0,0,94.86,98a3.67,3.67,0,0,0-1.06,2.63,3.5,3.5,0,0,0,1,2.58,3.59,3.59,0,0,0,2.65,1,3,3,0,0,0,2.39-1.14,4.1,4.1,0,0,0,.93-2.68,3.57,3.57,0,0,0-1-2.49A3.16,3.16,0,0,0,97.43,96.83Z"/><path class="cls-1" d="M27.39,123.85H24v.07a1.81,1.81,0,0,0,.48,1.29,1.73,1.73,0,0,0,1.32.52,1.88,1.88,0,0,0,1.43-.57l.12.13a2.12,2.12,0,0,1-1.57.6,2,2,0,0,1-1.42-.54,1.91,1.91,0,0,1-.54-1.41,1.93,1.93,0,0,1,.53-1.41,1.8,1.8,0,0,1,1.37-.55,1.69,1.69,0,0,1,1.23.45,1.73,1.73,0,0,1,.46,1.29A.35.35,0,0,1,27.39,123.85Zm-1.68-1.69a1.67,1.67,0,0,0-1.16.42A1.65,1.65,0,0,0,24,123.7h3.22a1.57,1.57,0,0,0-.43-1.13A1.47,1.47,0,0,0,25.71,122.16Z"/><path class="cls-1" d="M31.82,122.1H32v5.72h-.19v-3a1.88,1.88,0,0,1-.66.81,1.78,1.78,0,0,1-1,.29,1.67,1.67,0,0,1-1.3-.56,1.94,1.94,0,0,1-.53-1.39,2,2,0,0,1,.53-1.4,1.8,1.8,0,0,1,2.3-.26,1.77,1.77,0,0,1,.66.81Zm-1.64,3.64a1.53,1.53,0,0,0,1.18-.52,1.81,1.81,0,0,0,.47-1.27,1.84,1.84,0,0,0-.47-1.29,1.6,1.6,0,0,0-1.19-.5,1.58,1.58,0,0,0-1.18.5,2,2,0,0,0,0,2.57A1.57,1.57,0,0,0,30.18,125.74Z"/><path class="cls-1" d="M36.62,124.13v-2h.18v2a1.85,1.85,0,0,1-.43,1.31,1.6,1.6,0,0,1-1.2.47,1.56,1.56,0,0,1-1.19-.47,1.81,1.81,0,0,1-.44-1.31v-2h.18v2a1.7,1.7,0,0,0,.39,1.18,1.52,1.52,0,0,0,2.12,0A1.7,1.7,0,0,0,36.62,124.13Z"/><path class="cls-1" d="M38.65,120.74a.19.19,0,0,1-.21-.21c0-.13.07-.19.21-.19s.2.06.2.19A.18.18,0,0,1,38.65,120.74Zm-.09,5.05V122.1h.18v3.69Z"/><path class="cls-1" d="M43.6,119.33h.19v6.46H43.6v-1a1.88,1.88,0,0,1-.66.81,1.78,1.78,0,0,1-1,.29,1.67,1.67,0,0,1-1.3-.56,1.94,1.94,0,0,1-.53-1.39,2,2,0,0,1,.53-1.4,1.8,1.8,0,0,1,2.3-.26,1.77,1.77,0,0,1,.66.81ZM42,125.74a1.57,1.57,0,0,0,1.19-.51,2,2,0,0,0,0-2.56,1.55,1.55,0,0,0-1.18-.51,1.6,1.6,0,0,0-1.19.5,2,2,0,0,0,0,2.57A1.55,1.55,0,0,0,42,125.74Z"/><path class="cls-1" d="M48.51,122.1h.18v3.69h-.18v-1a1.88,1.88,0,0,1-.66.81,1.8,1.8,0,0,1-1,.29,1.7,1.7,0,0,1-1.31-.56A2,2,0,0,1,45,124a2,2,0,0,1,.52-1.4,1.81,1.81,0,0,1,2.31-.26,1.77,1.77,0,0,1,.66.81Zm-1.65,3.64a1.54,1.54,0,0,0,1.18-.51,1.95,1.95,0,0,0,0-2.56,1.53,1.53,0,0,0-1.17-.51,1.58,1.58,0,0,0-1.19.5,2,2,0,0,0,0,2.57A1.55,1.55,0,0,0,46.86,125.74Z"/><path class="cls-1" d="M53.33,119.33h.19v6.46h-.19v-1a1.75,1.75,0,0,1-.66.81,1.78,1.78,0,0,1-1,.29,1.68,1.68,0,0,1-1.3-.56,1.93,1.93,0,0,1-.52-1.39,2,2,0,0,1,.52-1.4,1.8,1.8,0,0,1,2.3-.26,1.66,1.66,0,0,1,.66.81Zm-1.65,6.41a1.56,1.56,0,0,0,1.19-.51,2,2,0,0,0,0-2.56,1.63,1.63,0,0,0-2.36,0,2,2,0,0,0,0,2.57A1.53,1.53,0,0,0,51.68,125.74Z"/><path class="cls-1" d="M60.7,123.85H57.29v.07a1.77,1.77,0,0,0,.49,1.29,1.69,1.69,0,0,0,1.31.52,1.88,1.88,0,0,0,1.43-.57l.12.13a2.12,2.12,0,0,1-1.57.6,1.91,1.91,0,0,1-1.41-.54,1.88,1.88,0,0,1-.55-1.41,1.93,1.93,0,0,1,.53-1.41A1.8,1.8,0,0,1,59,122a1.68,1.68,0,0,1,1.23.45,1.73,1.73,0,0,1,.46,1.29ZM59,122.16a1.69,1.69,0,0,0-1.16.42,1.65,1.65,0,0,0-.55,1.12h3.22a1.53,1.53,0,0,0-.43-1.13A1.46,1.46,0,0,0,59,122.16Z"/><path class="cls-1" d="M62.12,123.77v2h-.19v-2a1.81,1.81,0,0,1,.46-1.3A1.6,1.6,0,0,1,63.6,122a1.57,1.57,0,0,1,1.2.49,1.85,1.85,0,0,1,.45,1.3v2h-.18v-2a1.69,1.69,0,0,0-.41-1.17,1.35,1.35,0,0,0-1.06-.44,1.37,1.37,0,0,0-1.08.44A1.68,1.68,0,0,0,62.12,123.77Z"/><path class="cls-1" d="M72.36,123.85H69v.07a1.77,1.77,0,0,0,.49,1.29,1.69,1.69,0,0,0,1.31.52,1.88,1.88,0,0,0,1.43-.57l.12.13a2.12,2.12,0,0,1-1.57.6,1.91,1.91,0,0,1-1.41-.54,1.88,1.88,0,0,1-.55-1.41,1.93,1.93,0,0,1,.53-1.41,1.8,1.8,0,0,1,1.37-.55,1.68,1.68,0,0,1,1.23.45,1.73,1.73,0,0,1,.47,1.29C72.37,123.79,72.36,123.83,72.36,123.85Zm-1.69-1.69a1.69,1.69,0,0,0-1.16.42A1.65,1.65,0,0,0,69,123.7h3.22a1.53,1.53,0,0,0-.43-1.13A1.46,1.46,0,0,0,70.67,122.16Z"/><path class="cls-1" d="M73.68,125.79v-6.46h.18v6.46Z"/><path class="cls-1" d="M82,122a1.25,1.25,0,0,1,1,.43,1.75,1.75,0,0,1,.36,1.18v2.2h-.18v-2.2a1.59,1.59,0,0,0-.32-1,1.07,1.07,0,0,0-.88-.38,1.19,1.19,0,0,0-.94.41,1.44,1.44,0,0,0-.37,1v2.2h-.19v-2.2a1.47,1.47,0,0,0-.35-1,1.1,1.1,0,0,0-.9-.41,1.12,1.12,0,0,0-.9.4,1.49,1.49,0,0,0-.36,1v2.2H77.8v-2.2a1.69,1.69,0,0,1,.41-1.16,1.31,1.31,0,0,1,1-.45,1.37,1.37,0,0,1,1.36,1.1,1.47,1.47,0,0,1,.53-.81A1.5,1.5,0,0,1,82,122Z"/><path class="cls-1" d="M87.9,124.13v-2h.18v2a1.85,1.85,0,0,1-.43,1.31,1.58,1.58,0,0,1-1.2.47,1.56,1.56,0,0,1-1.19-.47,1.81,1.81,0,0,1-.44-1.31v-2H85v2a1.7,1.7,0,0,0,.39,1.18,1.52,1.52,0,0,0,2.12,0A1.7,1.7,0,0,0,87.9,124.13Z"/><path class="cls-1" d="M89.72,123.77v2h-.19v-2a1.81,1.81,0,0,1,.46-1.3A1.6,1.6,0,0,1,91.2,122a1.57,1.57,0,0,1,1.2.49,1.85,1.85,0,0,1,.45,1.3v2h-.18v-2a1.69,1.69,0,0,0-.41-1.17,1.35,1.35,0,0,0-1.06-.44,1.37,1.37,0,0,0-1.08.44A1.68,1.68,0,0,0,89.72,123.77Z"/><path class="cls-1" d="M97.5,119.33h.19v6.46H97.5v-1a1.82,1.82,0,0,1-.66.81,1.78,1.78,0,0,1-1,.29,1.67,1.67,0,0,1-1.3-.56A1.93,1.93,0,0,1,94,124a2,2,0,0,1,.52-1.4,1.79,1.79,0,0,1,3,.55Zm-1.65,6.41a1.57,1.57,0,0,0,1.19-.51,2,2,0,0,0,0-2.56,1.63,1.63,0,0,0-2.36,0,2,2,0,0,0,0,2.57A1.52,1.52,0,0,0,95.85,125.74Z"/><path class="cls-1" d="M100.83,125.9a1.83,1.83,0,0,1-1.37-.55,1.9,1.9,0,0,1-.54-1.4,1.94,1.94,0,0,1,.54-1.41,2,2,0,0,1,2.75,0,2,2,0,0,1,.53,1.41,1.93,1.93,0,0,1-.53,1.4A1.84,1.84,0,0,1,100.83,125.9Zm-1.23-.67a1.63,1.63,0,0,0,1.23.51,1.65,1.65,0,0,0,1.24-.51,1.77,1.77,0,0,0,.49-1.29,1.73,1.73,0,0,0-.49-1.28,1.64,1.64,0,0,0-1.24-.5,1.62,1.62,0,0,0-1.23.5,1.73,1.73,0,0,0-.49,1.28A1.77,1.77,0,0,0,99.6,125.23Z"/><path class="cls-2" d="M66,52.71l-2.65-2.66-2.66,2.66c.89.8,1.77,1.55,2.66,2.25C64.27,54.26,65.15,53.51,66,52.71Z"/><path class="cls-2" d="M55.54,43.26c-.44.5-.88,1-1.32,1.54l-.43.53.21.25c.48.58,1,1.14,1.45,1.7l2.13-2.13c-.64-.65-1.28-1.33-1.92-2l-.12.14Z"/><path class="cls-2" d="M57.19,49.2c.55.6,1.11,1.17,1.66,1.72l4.54-4.53h0l4.53,4.53c.55-.55,1.11-1.12,1.66-1.72L63.39,43Z"/><path class="cls-2" d="M48.52,42.92l-.09.08c-.3.3-.61.59-.92.88l-.3.26-.44.39c-.21.17-.41.35-.63.52l-.38.29-.49.37-.33.24c-.26.18-.51.34-.77.5l-.27.16-.66.37L43,47.1c-.28.14-.57.27-.85.39l-.23.09c-.27.1-.53.19-.8.27l-.12,0a7.32,7.32,0,0,1-.9.21l-.22,0c-.32,0-.63.08-.94.1-2.55.11-5-1-7.2-3.23a9.8,9.8,0,0,1-.75-.84c-.08-.1-.16-.19-.23-.29s-.3-.4-.43-.6a2.92,2.92,0,0,1-.24-.37c-.12-.19-.23-.39-.34-.58a.41.41,0,0,0-.05-.09,13.41,13.41,0,0,0-.7,3.52c.09.14.18.29.28.42l2.05,2.06h0a12,12,0,0,0,8.25,3.11c3.87-.18,7.85-2.47,11.2-6.47l0,0c.23-.29.47-.57.7-.85-.62-.73-1.26-1.46-1.92-2.18C49.25,42.19,48.88,42.56,48.52,42.92Z"/><path class="cls-2" d="M79.16,64.55l5.37-5.38a19.11,19.11,0,0,1-10.29-5.31l-2.68-2.68-1.37-1.37a55.92,55.92,0,0,1-6.8,6.25h0a56.71,56.71,0,0,1-6.81-6.25l-.73.73h0l-3.32,3.32q-.64.64-1.35,1.23c-.25.2-.51.39-.77.58l-.65.49c-.38.25-.78.48-1.17.71l-.33.2c-.49.27-1,.52-1.5.74l0,0a19.3,19.3,0,0,1-4.47,1.34l5.37,5.38A22.27,22.27,0,0,0,79.16,64.55Z"/><path class="cls-2" d="M76.39,52.35a15.7,15.7,0,0,0,10.36,4.59l3.19-3.21c-.2,0-.41.06-.62.09s-.49.07-.74.09a11,11,0,0,1-1.52,0c-.29,0-.57,0-.85-.06l-.32,0-.54-.07-.44-.09-.4-.08L84,53.44l-.32-.09-.57-.19-.27-.09c-.21-.07-.41-.15-.62-.24L82,52.75l-.66-.3-.16-.08c-.24-.11-.47-.24-.7-.36L80.36,52l-.73-.43-.07-.05c-.25-.15-.5-.32-.75-.49l0,0L78,50.4l0,0c-.26-.19-.51-.4-.77-.61h0a24.76,24.76,0,0,1-3-2.93h0L74,46.53c-.14-.18-.28-.35-.43-.52l-.1.12c-.5.6-1,1.19-1.5,1.76l.85.85Z"/><path class="cls-2" d="M54.6,34.72h0l.24-.26L50.38,30A15.68,15.68,0,0,0,40,25.41l0,0-.1,0c-.23,0-.45,0-.69,0A15.76,15.76,0,0,0,24,45.29c.07.28.16.55.25.83l.06.19c.05.16.11.3.17.45.16.42.33.83.52,1.23-1.17-5.31-.36-10.9,3.31-14.58,3.5-3.5,7.35-5.17,11.44-5,4.61.21,9.26,2.83,13.09,7.41l.43.52.1-.12Z"/><path class="cls-2" d="M59,39.5h0c-.51.52-1,1.06-1.52,1.61h0l-.05.06c.67.74,1.34,1.46,2,2.15l2.14-2.15L59.41,39Z"/><path class="cls-2" d="M38.92,35c-2.3-.11-4.45.87-6.55,3a11,11,0,0,0-2.22,3.22l.21.44.21.39c.09.17.2.34.3.51l.22.34c.13.19.26.36.4.54s.13.18.2.26c.22.26.44.51.68.75,2.1,2.1,4.25,3.09,6.55,3a8.78,8.78,0,0,0,.88-.1l.19,0c.28-.06.57-.12.85-.21L41,47q.38-.12.75-.27l.17-.07a8.67,8.67,0,0,0,.82-.38l.2-.11c.25-.13.49-.26.73-.41l.12-.07c.27-.17.53-.35.79-.53L44.8,45l.75-.57.19-.15.6-.51.26-.23.69-.62.28-.28c.17-.15.33-.31.49-.47l.28-.28c.23-.23.45-.47.68-.71C45.94,37.92,42.51,35.13,38.92,35Z"/><path class="cls-2" d="M52.09,43.31l.15-.18c.56-.67,1.12-1.32,1.68-2-.61-.69-1.22-1.41-1.83-2.14-.61.72-1.24,1.44-1.89,2.14C50.85,41.88,51.48,42.6,52.09,43.31Z"/><path class="cls-2" d="M29.43,39.12l.15.57.14.41a11.53,11.53,0,0,1,2-2.76C34,35.08,36.41,34,39,34.11c3.87.17,7.46,3.06,10.65,6.43l.53-.58c.47-.54.94-1.07,1.39-1.61-.24-.29-.49-.58-.73-.88-3.35-4-7.33-6.3-11.2-6.47a12,12,0,0,0-8.25,3.11l-2,2c-.11.14-.21.28-.31.43a14.49,14.49,0,0,0,.29,2.11Z"/><path class="cls-2" d="M55.45,35.07l-.5.58h0l-1,1.12-.21.25c.63.75,1.25,1.49,1.87,2.21.64-.7,1.28-1.38,1.92-2Z"/><path class="cls-2" d="M60.73,29.64l2.66,2.61L66,29.64c-.89-.81-1.77-1.55-2.65-2.25C62.5,28.09,61.62,28.83,60.73,29.64Z"/><path class="cls-2" d="M47.62,17.79l-5.26,5.27a18.33,18.33,0,0,1,9.85,5.1l4.37,4.37q1.71-1.82,3.42-3.38l.3-.28c.41-.36.81-.72,1.21-1.06l.38-.32c.5-.42,1-.82,1.5-1.21h0c.51.4,1,.81,1.53,1.24l.36.3c.44.38.87.76,1.31,1.16l.22.2c1.13,1,2.25,2.15,3.38,3.35l4.37-4.37a18.33,18.33,0,0,1,9.85-5.1l-5.25-5.27A22.27,22.27,0,0,0,47.62,17.79Z"/><path class="cls-2" d="M47.64,14.19,39,22.79a21.25,21.25,0,0,1,2.26.13l6.34-6.35a22.25,22.25,0,0,1,31.53,0l6.34,6.35a21.21,21.21,0,0,1,2.25-.13L79.1,14.18A22.27,22.27,0,0,0,47.64,14.19Z"/><path class="cls-2" d="M69.23,32.77c-.44-.46-.87-.91-1.31-1.34L63.39,36h0l-4.54-4.53c-.42.42-.84.86-1.26,1.3l-.4.41,6.2,6.2,6.19-6.2-.35-.37Z"/><path class="cls-2" d="M87.86,35c-3.6.16-7,3-10.11,6.2l.07.07.51.53.29.3.6.59.21.19.8.74.22.19.61.51.3.23c.18.15.37.29.56.43l.3.22.62.41.24.16c.29.17.58.34.87.49l.15.07a6.89,6.89,0,0,0,.73.34l.29.12.61.22.31.09q.31.09.63.15l.28.06c.3,0,.6.08.91.1,2.3.11,4.44-.88,6.54-3h0a9.94,9.94,0,0,0,.8-.92,1.33,1.33,0,0,0,.14-.19,8.56,8.56,0,0,0,.59-.85,11.89,11.89,0,0,0,.68-1.27A11,11,0,0,0,94.4,38C92.3,35.84,90.16,34.86,87.86,35Z"/><path class="cls-2" d="M47.64,10.39l-13,13a20.19,20.19,0,0,1,3.08-.51L47.65,13a22.27,22.27,0,0,1,31.47,0L89,22.86a20,20,0,0,1,3.08.51l-13-13A22.26,22.26,0,0,0,47.64,10.39Z"/><path class="cls-2" d="M53.23,46l-.39.47,0,.05c-3.83,4.58-8.48,7.2-13.09,7.4a13.21,13.21,0,0,1-2.88-.2L40,56.94a15.68,15.68,0,0,0,10.36-4.59l4.46-4.46c-.5-.57-1-1.16-1.51-1.76Z"/><path class="cls-2" d="M75.8,44.66a2.31,2.31,0,0,1,.14.19l0,0c3.35,4,7.33,6.29,11.2,6.47a12,12,0,0,0,8.25-3.11h0l2-2h0c.11-.14.2-.28.3-.43a13.82,13.82,0,0,0-.71-3.53A11.54,11.54,0,0,1,95,45h0c-2.25,2.25-4.65,3.34-7.19,3.23a7.78,7.78,0,0,1-1-.11l-.3-.05-.66-.16-.33-.09-.66-.23-.28-.11c-.31-.12-.61-.26-.92-.41L83.61,47l-.81-.45-.32-.2L81.9,46l-.34-.24c-.19-.13-.38-.27-.56-.42l-.33-.25-.74-.61-.37-.33L79,43.67l-.4-.39-.41-.39-.43-.43-.34-.36-.29-.29c-.65.72-1.3,1.45-1.92,2.18l.56.67Z"/><path class="cls-2" d="M79.12,69.39a22.27,22.27,0,0,1-31.47,0l-10-10A18.16,18.16,0,0,1,35,59h-.07l-.31-.07,13,13a22.26,22.26,0,0,0,31.49,0l13-13a18.49,18.49,0,0,1-3,.48Z"/><path class="cls-2" d="M32.11,55.28a13.84,13.84,0,0,0,1.86.79h0l.54.19-4.93-4.93a20.17,20.17,0,0,0,1.11,3.14,13.45,13.45,0,0,0,1.43.81Z"/><path class="cls-2" d="M28,48.65c-.1-.11-.19-.22-.29-.32a21.34,21.34,0,0,0,.88,2.59,19.51,19.51,0,0,1-.34-2h0C28.18,48.84,28.1,48.74,28,48.65Z"/><path class="cls-2" d="M98.5,48.94a19.51,19.51,0,0,1-.34,2A19.29,19.29,0,0,0,99,48.36c-.17.2-.34.39-.52.57Z"/><path class="cls-2" d="M71.67,43.77l-.46-.53-.1-.12c-.64.7-1.28,1.38-1.91,2l2.12,2.13c.49-.56,1-1.12,1.46-1.7l.2-.25-.41-.51Z"/><path class="cls-2" d="M98.47,44.54a9.89,9.89,0,0,0,.5-1.16v0a13.5,13.5,0,0,0,.56-2.21,11.72,11.72,0,0,0-1.07-3.43,14,14,0,0,1-.9,3.4A13.4,13.4,0,0,1,98.47,44.54Z"/><path class="cls-2" d="M94.72,55.26c.47-.24.92-.5,1.36-.78a19.23,19.23,0,0,0,1.12-3.14l-4.9,4.89a15.43,15.43,0,0,0,2.43-1Z"/><path class="cls-2" d="M92.88,52.86c-.44.18-.88.35-1.33.49h0L88,57c.35,0,.69,0,1-.05a15.07,15.07,0,0,0,1.64-.24l6.47-6.45A16.78,16.78,0,0,1,93,52.81Z"/><path class="cls-2" d="M67.36,39l-2.14,2.14,2.14,2.15c.67-.69,1.34-1.41,2-2.14-.51-.57-1-1.13-1.55-1.66C67.67,39.36,67.52,39.19,67.36,39Z"/><path class="cls-2" d="M87.57,25.37A15.7,15.7,0,0,0,76.39,30l-4.45,4.46c.5.57,1,1.15,1.5,1.76l.1.12c.15-.17.29-.34.43-.52,3.84-4.58,8.48-7.2,13.09-7.41,4.09-.17,8,1.5,11.45,5,3.66,3.67,4.47,9.25,3.31,14.55l.08-.16A15.79,15.79,0,0,0,87.57,25.37Z"/><path class="cls-2" d="M76.58,41.17c-.32-.34-.63-.68-.93-1l0,0h0L74.68,39c-.61.73-1.22,1.45-1.82,2.14.6.7,1.21,1.41,1.82,2.14C75.29,42.6,75.93,41.88,76.58,41.17Z"/><path class="cls-2" d="M77,40.38a1.07,1.07,0,0,1,.14.16c3.19-3.37,6.79-6.26,10.66-6.43,2.54-.12,4.94,1,7.19,3.23a11.27,11.27,0,0,1,2,2.76,13.82,13.82,0,0,0,.71-3.53c-.1-.15-.21-.29-.31-.43l-2-2A12,12,0,0,0,87.17,31c-3.87.17-7.85,2.47-11.2,6.47l-.73.89c.49.57,1,1.16,1.52,1.73C76.84,40.19,76.93,40.28,77,40.38Z"/><path class="cls-2" d="M37.65,56.9q.59,0,1.17.06l-3.59-3.61a16,16,0,0,1-5.56-3.13l6.48,6.46a15.25,15.25,0,0,0,1.51.22Z"/><path class="cls-2" d="M71.32,35.07,69.2,37.2c.63.65,1.27,1.33,1.91,2,.62-.72,1.25-1.46,1.87-2.21l-.2-.25C72.29,36.19,71.81,35.62,71.32,35.07Z"/><path class="cls-2" d="M86.22,59.38h0l-.63-.05-6.44,6.45a22.27,22.27,0,0,1-31.53,0l-6.43-6.45a19.34,19.34,0,0,1-2.28.11l8.73,8.72a22.28,22.28,0,0,0,31.46,0l8.75-8.73c-.54,0-1.08,0-1.63-.06Z"/><path class="cls-2" d="M28.13,44.19a1.92,1.92,0,0,0,.12.25l.05.09a14.14,14.14,0,0,1,.91-3.36.61.61,0,0,0-.05-.12c-.08-.2-.15-.4-.22-.61l-.12-.38c-.07-.22-.14-.44-.19-.67a2.81,2.81,0,0,1-.08-.31c-.06-.25-.11-.49-.16-.74h0c0-.19-.06-.38-.08-.57a11.61,11.61,0,0,0-1,3.37,11.67,11.67,0,0,0,.49,2.06A8.43,8.43,0,0,0,28.13,44.19Z"/><path class="cls-3" d="M47.65,13l-9.92,9.9c.43,0,.86-.06,1.29-.07l8.62-8.6a22.27,22.27,0,0,1,31.46,0l8.64,8.61c.43,0,.87,0,1.3.07L79.12,13A22.27,22.27,0,0,0,47.65,13Z"/><path class="cls-3" d="M47.62,16.57l-6.34,6.35c.36,0,.73.08,1.08.14l5.26-5.27a22.27,22.27,0,0,1,31.54,0l5.25,5.27c.36-.06.72-.1,1.08-.14l-6.34-6.35A22.25,22.25,0,0,0,47.62,16.57Z"/><path class="cls-3" d="M40,25.41h-.13l.1,0Z"/><path class="cls-3" d="M88,57l-2.36,2.37.63.05h0c.55,0,1.09.06,1.63.06h0c.44,0,.87,0,1.3-.06l0,0a18.49,18.49,0,0,0,3-.48l2.25-2.25a15.69,15.69,0,0,0,1.47-1.74c.07-.14.13-.3.19-.45-.44.28-.89.54-1.36.78h0a15.43,15.43,0,0,1-2.43,1,13.67,13.67,0,0,1-1.67.44,15.07,15.07,0,0,1-1.64.24C88.64,56.94,88.3,57,88,57Z"/><path class="cls-3" d="M23.33,31.92A18.41,18.41,0,0,0,26.2,54.16,18.83,18.83,0,0,1,23.33,31.92Z"/><path class="cls-3" d="M66.81,29.18l-.22-.2c-.44-.4-.87-.78-1.31-1.16l-.36-.3c-.51-.43-1-.84-1.53-1.24h0c-.5.39-1,.79-1.5,1.21l-.38.32c-.4.34-.8.7-1.21,1.06l-.3.28q-1.71,1.56-3.42,3.38l.61.61.4-.41c.42-.44.84-.88,1.26-1.3L63.39,36h0l4.53-4.53c.44.43.87.88,1.31,1.34h0l.35.37.61-.61C69.06,31.33,67.94,30.21,66.81,29.18Zm-3.42,3.07-2.66-2.61c.89-.81,1.77-1.55,2.66-2.25.88.7,1.76,1.44,2.65,2.25Z"/><path class="cls-3" d="M30.1,35.25a9.27,9.27,0,0,0-.77.89l2-2C30.93,34.46,30.51,34.84,30.1,35.25Z"/><path class="cls-3" d="M47.64,10.39a22.26,22.26,0,0,1,31.49,0l13,13a18.26,18.26,0,0,1,8.68,5.05c-.08-.08-.14-.17-.22-.25l-4.33-4.33h0L79.13,6.72a22.27,22.27,0,0,0-31.49,0L30.52,23.84h0L26.2,28.17l-.23.25a18.26,18.26,0,0,1,8.68-5.05Z"/><path class="cls-3" d="M71.94,34.46l-6.72,6.71h0L67.36,39c.16.16.31.33.46.49.52.53,1,1.09,1.55,1.66s1.16,1.27,1.74,1.94l.1.12.46.53.9,1,.41.51,0,0,1.66-2c-.61-.73-1.22-1.44-1.82-2.14h0c-.59-.66-1.17-1.31-1.75-1.94h0c-.64-.7-1.28-1.38-1.91-2l2.12-2.13c.49.55,1,1.12,1.46,1.7L73,37c.19-.23.38-.45.56-.68l-.1-.12C72.94,35.61,72.44,35,71.94,34.46Z"/><path class="cls-3" d="M96.67,35.25c-.41-.41-.83-.79-1.25-1.14l2,2A9.37,9.37,0,0,0,96.67,35.25Z"/><path class="cls-3" d="M99,43.38a9.89,9.89,0,0,1-.5,1.16,9.24,9.24,0,0,1-.71,1.22c-.1.15-.19.29-.3.43h0a9.6,9.6,0,0,1-.79.9c-.41.41-.83.78-1.25,1.14h0a12,12,0,0,1-8.25,3.11c-3.87-.18-7.85-2.47-11.2-6.47l0,0a2.31,2.31,0,0,0-.14-.19h0L75.24,44l-1.55,1.84-.15.18c.15.17.29.34.43.52l.27.31h0a24.76,24.76,0,0,0,3,2.93h0c.26.21.51.42.77.61l0,0,.76.55,0,0c.25.17.5.34.75.49l.07.05.73.43.12.06c.23.12.46.25.7.36l.16.08.66.3.21.08c.21.09.41.17.62.24l.27.09.57.19.32.09.52.14.4.08.44.09.54.07.32,0c.28,0,.56.05.85.06a11,11,0,0,0,1.52,0c.25,0,.49-.06.74-.09s.42,0,.62-.09a11,11,0,0,0,1.6-.38h0c.45-.14.89-.31,1.33-.49l.11,0a16.78,16.78,0,0,0,4.11-2.59h0A18,18,0,0,0,98.48,49a1.71,1.71,0,0,1,.06-.43c0,.14,0,.28,0,.42h0c.18-.18.35-.37.52-.57a17.39,17.39,0,0,0,.5-7.17A13.5,13.5,0,0,1,99,43.4Z"/><path class="cls-3" d="M97.56,41.16a14,14,0,0,0,.9-3.4,9.51,9.51,0,0,0-.7-1.19,13.82,13.82,0,0,1-.71,3.53A10.32,10.32,0,0,1,97.56,41.16Z"/><path class="cls-3" d="M103.44,31.92a18.83,18.83,0,0,1-2.87,22.24A18.39,18.39,0,0,0,103.44,31.92Z"/><path class="cls-3" d="M101.82,48c0-.06.05-.12.08-.19l-.08.16Z"/><path class="cls-3" d="M41.16,59.3c.36,0,.72-.08,1.08-.14h0a19.3,19.3,0,0,0,4.47-1.34l0,0c.51-.22,1-.47,1.5-.74l.33-.2c.39-.23.79-.46,1.17-.71l.65-.49c.26-.19.52-.38.77-.58q.7-.59,1.35-1.23l3.32-3.32h0l.73-.73q-.87-.93-1.74-1.92l-4.46,4.46A15.68,15.68,0,0,1,40,56.94h0c-.28,0-.55,0-.83,0l-.38,0q-.59,0-1.17-.06h0a15.25,15.25,0,0,1-1.51-.22l2.76,2.76a19.34,19.34,0,0,0,2.28-.11Z"/><path class="cls-1" d="M30.1,47.1c.41.41.83.78,1.25,1.14L29.3,46.18A9.94,9.94,0,0,0,30.1,47.1Z"/><path class="cls-1" d="M35.23,53.35,38.82,57l.38,0c.28,0,.55,0,.83,0h0l-3.19-3.21A11.26,11.26,0,0,1,35.23,53.35Z"/><path class="cls-1" d="M53.79,45.33h0c-.19.22-.37.45-.56.68h0l.1.12c.51.6,1,1.19,1.51,1.76s1.16,1.3,1.74,1.92a56.71,56.71,0,0,0,6.81,6.25h0a55.92,55.92,0,0,0,6.8-6.25l-.61-.61c-.55.6-1.11,1.17-1.66,1.72l-4.53-4.53h0l-4.54,4.53c-.55-.55-1.11-1.12-1.66-1.72h0a22.43,22.43,0,0,1-1.74-1.92c-.48-.56-1-1.12-1.45-1.7Zm9.6,4.72L66,52.71c-.89.8-1.77,1.55-2.65,2.25-.89-.7-1.77-1.45-2.66-2.25Z"/><path class="cls-1" d="M84.53,59.17l-5.37,5.38a22.27,22.27,0,0,1-31.54,0l-5.37-5.38h0c-.36.06-.72.1-1.08.14l0,0,6.43,6.45a22.27,22.27,0,0,0,31.53,0l6.44-6.45L88,57l3.59-3.61a11,11,0,0,1-1.6.38l-3.19,3.21Z"/><path class="cls-1" d="M96.67,47.1a9.6,9.6,0,0,0,.79-.9h0l-2,2C95.84,47.88,96.26,47.51,96.67,47.1Z"/><polygon class="cls-1" points="95.42 48.24 95.42 48.24 95.42 48.24 95.42 48.24 95.42 48.24"/><path class="cls-1" d="M29.72,42.24c-.18-.35-.35-.71-.51-1.07a14.14,14.14,0,0,0-.91,3.36A9.42,9.42,0,0,0,29,45.76a13.41,13.41,0,0,1,.7-3.52Z"/><path class="cls-1" d="M98.47,44.54a13.4,13.4,0,0,0-.91-3.38,10.32,10.32,0,0,0-.51-1.06,11.27,11.27,0,0,0-2-2.76c-2.25-2.26-4.65-3.35-7.19-3.23-3.87.17-7.47,3.06-10.66,6.43h0l.59.63c3.08-3.25,6.51-6,10.11-6.2,2.3-.11,4.44.87,6.54,3a11,11,0,0,1,2.22,3.22c.16.35.3.7.43,1.06a13.82,13.82,0,0,1,.71,3.53A9.24,9.24,0,0,0,98.47,44.54Z"/><path class="cls-1" d="M49.61,40.54c-3.19-3.37-6.78-6.26-10.65-6.43-2.55-.12-5,1-7.2,3.23a11.53,11.53,0,0,0-2,2.76c.13.37.27.73.43,1.08h0A11,11,0,0,1,32.37,38c2.1-2.11,4.25-3.09,6.55-3,3.59.16,7,3,10.1,6.2l.59.64c.66.72,1.3,1.45,1.92,2.18.19-.23.37-.46.56-.68-.61-.71-1.24-1.43-1.89-2.14Z"/><path class="cls-1" d="M103.44,31.92c-.09-.16-.18-.32-.28-.48s-.38-.58-.58-.86-.34-.49-.53-.73-.37-.45-.56-.67-.27-.34-.42-.5-.18-.17-.27-.26a18.26,18.26,0,0,0-8.68-5.05A20,20,0,0,0,89,22.86c-.43,0-.87-.06-1.3-.07a21.21,21.21,0,0,0-2.25.13c-.36,0-.72.08-1.08.14a18.33,18.33,0,0,0-9.85,5.1l-4.37,4.37-.61.61-6.19,6.2-6.2-6.2-.61-.61-4.37-4.37a18.33,18.33,0,0,0-9.85-5.1c-.35-.06-.72-.1-1.08-.14A21.25,21.25,0,0,0,39,22.79c-.43,0-.86,0-1.29.07a20.19,20.19,0,0,0-3.08.51A18.26,18.26,0,0,0,26,28.42c-.09.09-.18.16-.27.26s-.27.33-.42.5-.38.44-.56.67l-.53.73c-.2.28-.4.56-.58.86s-.19.32-.28.48A18.83,18.83,0,0,0,26.2,54.16l.32.34,4,4h0L47.64,75.63a22.28,22.28,0,0,0,31.49,0L96.25,58.51h0l4-4c.11-.11.2-.23.31-.34A18.83,18.83,0,0,0,103.44,31.92ZM101.9,47.8c0,.07-.05.13-.08.19v0c1.16-5.3.35-10.88-3.31-14.55-3.5-3.5-7.36-5.17-11.45-5-4.61.21-9.25,2.83-13.09,7.41-.14.18-.28.35-.43.52s-.37.45-.56.68c-.62.75-1.25,1.49-1.87,2.21h0c.58.63,1.16,1.28,1.75,1.94h0c.6-.69,1.21-1.41,1.82-2.14l.56-.67.73-.89c3.35-4,7.33-6.3,11.2-6.47a12,12,0,0,1,8.25,3.11c.42.35.84.73,1.25,1.14a9.37,9.37,0,0,1,.78.89c.1.14.21.28.31.43a9.51,9.51,0,0,1,.7,1.19,11.72,11.72,0,0,1,1.07,3.43,17.39,17.39,0,0,1-.5,7.17,19.29,19.29,0,0,1-.87,2.56,19.51,19.51,0,0,0,.34-2c0-.14,0-.28,0-.42a1.71,1.71,0,0,0-.06.43,18,18,0,0,1-1.38,1.27h0l-6.47,6.45a13.67,13.67,0,0,0,1.67-.44l4.9-4.89a19.23,19.23,0,0,1-1.12,3.14c-.06.15-.12.31-.19.45a15.69,15.69,0,0,1-1.47,1.74l-2.25,2.25-13,13a22.26,22.26,0,0,1-31.49,0l-13-13-2.25-2.25a14.75,14.75,0,0,1-1.48-1.74c-.07-.14-.12-.3-.19-.45a20.17,20.17,0,0,1-1.11-3.14l4.93,4.93,3.14,3.13,10,10a22.27,22.27,0,0,0,31.47,0l10-10,0,0c-.43,0-.86.05-1.3.06h0L79.1,68.17a22.28,22.28,0,0,1-31.46,0l-8.73-8.72-2.76-2.76-6.48-6.46c-.47-.4-.94-.82-1.4-1.28a19.51,19.51,0,0,0,.34,2,21.34,21.34,0,0,1-.88-2.59,17.48,17.48,0,0,1-.47-7.19,11.61,11.61,0,0,1,1-3.37,8.05,8.05,0,0,1,.71-1.2c.1-.15.2-.29.31-.43a9.27,9.27,0,0,1,.77-.89c.41-.41.83-.79,1.25-1.14A12,12,0,0,1,39.6,31c3.87.17,7.85,2.47,11.2,6.47.24.3.49.59.73.88.53-.62,1.06-1.24,1.56-1.84l.14-.17-.43-.52c-3.83-4.58-8.48-7.2-13.09-7.41-4.09-.17-7.94,1.5-11.44,5C24.6,37.09,23.79,42.68,25,48c-.19-.4-.36-.81-.52-1.23-.06-.15-.12-.29-.17-.45l-.06-.19c-.09-.28-.18-.55-.25-.83A15.79,15.79,0,0,1,39.2,25.37c.24,0,.46,0,.69,0H40A15.68,15.68,0,0,1,50.38,30l4.46,4.46,6.71,6.71h0l-2.14,2.15c-.67-.69-1.34-1.41-2-2.15s-1.16-1.28-1.74-1.94S54.42,37.77,53.79,37l0,0c-.53.64-1.09,1.3-1.66,2h0c.61.73,1.22,1.45,1.83,2.14s1.16,1.32,1.74,1.95,1.28,1.38,1.92,2l-2.13,2.13,6.1-6.11c.43.41,1,1,1.84,1.84h0l1.83-1.84,6.72,6.72c.5-.57,1-1.16,1.5-1.76l.1-.12.15-.18L75.24,44c.62-.73,1.27-1.46,1.92-2.18h0c-.2-.21-.4-.42-.59-.64h0c-.65.71-1.29,1.43-1.9,2.14l-1.66,2,0,0-.2.25c-.49.58-1,1.14-1.46,1.7L69.2,45.15c.63-.65,1.27-1.33,1.91-2-.58-.67-1.16-1.31-1.74-1.94-.67.73-1.34,1.45-2,2.14l-2.14-2.15h0l6.72-6.71L76.39,30A15.79,15.79,0,0,1,101.9,47.8Z"/><path class="cls-3" d="M28.39,38.34c.05.25.1.49.16.74a2.81,2.81,0,0,0,.08.31c.05.23.12.45.19.67l.12.38c.07.21.14.41.22.61a.61.61,0,0,1,.05.12c.16.36.33.72.51,1.07h0a.41.41,0,0,1,.05.09c.11.19.22.39.34.58a2.92,2.92,0,0,0,.24.37c.13.2.28.4.43.6s.15.19.23.29a9.8,9.8,0,0,0,.75.84c2.25,2.25,4.65,3.34,7.2,3.23.31,0,.62-.05.94-.1l.22,0a7.32,7.32,0,0,0,.9-.21l.12,0c.27-.08.53-.17.8-.27l.23-.09c.28-.12.57-.25.85-.39l.22-.12.66-.37.27-.16c.26-.16.51-.32.77-.5l.33-.24.49-.37.38-.29c.22-.17.42-.35.63-.52l.44-.39.3-.26c.31-.29.62-.58.92-.88l.09-.08c.36-.36.73-.73,1.09-1.11L49,41.17c-.23.24-.45.48-.68.71l-.28.28c-.16.16-.32.32-.49.47l-.28.28-.69.62-.26.23-.6.51-.19.15L44.8,45l-.24.17c-.26.18-.52.36-.79.53l-.12.07c-.24.15-.48.28-.73.41l-.2.11a8.67,8.67,0,0,1-.82.38l-.17.07q-.37.15-.75.27l-.14,0c-.28.09-.57.15-.85.21l-.19,0a8.78,8.78,0,0,1-.88.1c-2.3.11-4.45-.88-6.55-3-.24-.24-.46-.49-.68-.75-.07-.08-.13-.17-.2-.26s-.27-.35-.4-.54l-.22-.34c-.1-.17-.21-.34-.3-.51l-.21-.39-.21-.44h0c-.16-.35-.3-.71-.43-1.08l-.14-.41-.15-.57-.12-.44A14.49,14.49,0,0,1,29,36.57a8.05,8.05,0,0,0-.71,1.2c0,.19.05.38.08.57Z"/><path class="cls-3" d="M36.83,53.73a13.21,13.21,0,0,0,2.88.2c4.61-.2,9.26-2.82,13.09-7.4l0-.05.39-.47h0c.19-.23.37-.46.56-.68h0l.43-.53c.44-.52.88-1,1.32-1.54h0l.12-.14q-.87-.94-1.74-1.95c-.56.64-1.12,1.29-1.68,2l-.15.18c-.19.22-.37.45-.56.68s-.47.56-.7.85l0,0c-3.35,4-7.33,6.29-11.2,6.47a12,12,0,0,1-8.25-3.11h0c-.42-.36-.84-.73-1.25-1.14a9.94,9.94,0,0,1-.8-.92c-.1-.13-.19-.28-.28-.42a9.42,9.42,0,0,1-.72-1.23l-.05-.09a1.92,1.92,0,0,1-.12-.25,8.43,8.43,0,0,1-.38-1,11.67,11.67,0,0,1-.49-2.06,17.48,17.48,0,0,0,.47,7.19c.1.1.19.21.29.32s.16.19.25.28h0c.46.46.93.88,1.4,1.28a16,16,0,0,0,5.56,3.13A11.26,11.26,0,0,0,36.83,53.73Z"/><path class="cls-3" d="M34.92,59H35a18.16,18.16,0,0,0,2.66.4l-3.14-3.13L34,56.08h0a13.84,13.84,0,0,1-1.86-.79h0a13.45,13.45,0,0,1-1.43-.81c.07.15.12.31.19.45a14.75,14.75,0,0,0,1.48,1.74l2.25,2.25.31.07Z"/><path class="cls-3" d="M57.19,49.2,63.39,43l6.19,6.19.61.61,1.37,1.37,2.68,2.68a19.11,19.11,0,0,0,10.29,5.31l2.22-2.23a15.7,15.7,0,0,1-10.36-4.59l-3.6-3.61-.85-.85-6.72-6.72L63.39,43h0c-.89-.86-1.41-1.43-1.84-1.84l-6.1,6.11a22.43,22.43,0,0,0,1.74,1.92Z"/><path class="cls-3" d="M75.62,40.12l0,0c.3.35.61.69.93,1h0c.19.22.39.43.59.64h0l.29.29.34.36.43.43.41.39.4.39.53.47.37.33.74.61.33.25c.18.15.37.29.56.42l.34.24.58.38.32.2.81.45.09.06c.31.15.61.29.92.41l.28.11.66.23.33.09.66.16.3.05a7.78,7.78,0,0,0,1,.11c2.54.11,4.94-1,7.19-3.23h0a11.54,11.54,0,0,0,2-2.77c-.13-.36-.27-.71-.43-1.06a11.89,11.89,0,0,1-.68,1.27,8.56,8.56,0,0,1-.59.85,1.33,1.33,0,0,1-.14.19,9.94,9.94,0,0,1-.8.92h0c-2.1,2.1-4.24,3.09-6.54,3-.31,0-.61-.06-.91-.1l-.28-.06q-.32-.06-.63-.15L85.73,47l-.61-.22-.29-.12a6.89,6.89,0,0,1-.73-.34L84,46.23c-.29-.15-.58-.32-.87-.49l-.24-.16-.62-.41-.3-.22c-.19-.14-.38-.28-.56-.43l-.3-.23-.61-.51-.22-.19-.8-.74-.21-.19-.6-.59-.29-.3-.51-.53-.07-.07-.59-.63h0a1.07,1.07,0,0,0-.14-.16c-.09-.1-.18-.19-.26-.29-.52-.57-1-1.16-1.52-1.73l-.56.67.94,1.09Z"/><path class="cls-3" d="M49.61,40.54l.59.63c.65-.7,1.28-1.42,1.89-2.14h0c.57-.66,1.13-1.32,1.66-2l0,0,.21-.25,1-1.12h0l.5-.58,2.13,2.13c-.64.65-1.28,1.33-1.92,2,.58.66,1.16,1.31,1.74,1.94l.05-.06h0c.51-.55,1-1.09,1.52-1.61h0l.45-.47,2.14,2.14h0l-6.71-6.71-.24.26h0l-1.27,1.5-.1.12-.14.17c-.5.6-1,1.22-1.56,1.84s-.92,1.07-1.39,1.61Z"/></svg>