<svg id="Capa_1" data-name="Capa 1" xmlns="http://www.w3.org/2000/svg" viewBox="0 0 128 128"><defs><style>.cls-1{fill:#1d1d1b;}.cls-2{fill:none;}.cls-3{fill:gray;}</style></defs><title>128x128 px </title><path class="cls-1" d="M25.38,114.42V94.67h2.7V111a2.51,2.51,0,0,0,.08.81c.06.11.24.17.56.17h6v2.47Z"/><path class="cls-1" d="M44.27,109.06v5.39H41.82v-13.3a6.53,6.53,0,0,1,1.84-4.7,6,6,0,0,1,4.53-1.92,6.09,6.09,0,0,1,4.54,2,6.41,6.41,0,0,1,1.89,4.64v13.33H52.23v-5.68a2.52,2.52,0,0,0-.06-.58.67.67,0,0,0-.26-.42,1.07,1.07,0,0,0-.66-.16H45.52l-.53,0a1.36,1.36,0,0,0-.47.27,1,1,0,0,0-.25.8Zm7.85-5.35V101A4.08,4.08,0,0,0,51,98.08a3.74,3.74,0,0,0-2.88-1.19,3.34,3.34,0,0,0-2.75,1.34,4.94,4.94,0,0,0-1,3.14v3a.92.92,0,0,0,.2.62.88.88,0,0,0,.5.31,3.18,3.18,0,0,0,.75.07h5.07a2.77,2.77,0,0,0,.53,0,.79.79,0,0,0,.44-.28.86.86,0,0,0,.19-.3,1.21,1.21,0,0,0,.09-.5Z"/><path class="cls-1" d="M61.8,97.06V94.67H74.91v2.39H70.22a.62.62,0,0,0-.47.17.78.78,0,0,0-.13.52v16.69H66.89V98.15a1.6,1.6,0,0,0-.13-.84.74.74,0,0,0-.37-.22,2.51,2.51,0,0,0-.47,0Z"/><path class="cls-1" d="M81.92,114.45V94.53h2.7v19.92Z"/><path class="cls-1" d="M95.05,107.55v6.9h-2.2V101.09a6.47,6.47,0,0,1,1.69-4.63,5.57,5.57,0,0,1,4.27-1.79,5.38,5.38,0,0,1,4.09,1.78,5.93,5.93,0,0,1,1.67,4.2,5.39,5.39,0,0,1-1.73,4.2,7,7,0,0,1-3.22,1.58c-.15,0-.23.09-.23.22a1.06,1.06,0,0,0,.19.49,9.25,9.25,0,0,0,.54.82l4.72,6.45-2.69,0-5.76-7.6a5.43,5.43,0,0,0-.56-.72.66.66,0,0,0-.53-.14c-.09,0-.16.14-.19.35a3.84,3.84,0,0,0-.06.71ZM98.91,97a3.38,3.38,0,0,0-2.55,1.11,3.67,3.67,0,0,0-1.06,2.62,3.47,3.47,0,0,0,1,2.56,3.57,3.57,0,0,0,2.63,1,3,3,0,0,0,2.37-1.13,4.05,4.05,0,0,0,.93-2.66,3.52,3.52,0,0,0-1-2.47A3.1,3.1,0,0,0,98.91,97Z"/><path class="cls-1" d="M29.37,123.78H26v.06a1.81,1.81,0,0,0,.48,1.29,1.71,1.71,0,0,0,1.31.5,1.9,1.9,0,0,0,1.42-.55l.12.12a2.11,2.11,0,0,1-1.56.6,1.94,1.94,0,0,1-1.41-.54,2.1,2.1,0,0,1,0-2.8,1.81,1.81,0,0,1,1.36-.54,1.56,1.56,0,0,1,1.68,1.72A.45.45,0,0,1,29.37,123.78Zm-1.67-1.69a1.66,1.66,0,0,0-1.7,1.53h3.2a1.55,1.55,0,0,0-.43-1.12A1.45,1.45,0,0,0,27.7,122.09Z"/><path class="cls-1" d="M33.77,122H34v5.67h-.18v-3a1.88,1.88,0,0,1-.66.81,1.77,1.77,0,0,1-1,.29,1.71,1.71,0,0,1-1.3-.55,2.15,2.15,0,0,1,0-2.78,1.82,1.82,0,0,1,2.29-.26,1.77,1.77,0,0,1,.66.81Zm-1.63,3.6a1.54,1.54,0,0,0,1.17-.5,2,2,0,0,0,0-2.55,1.58,1.58,0,0,0-1.18-.5,1.56,1.56,0,0,0-1.17.5,1.82,1.82,0,0,0-.47,1.28,1.8,1.8,0,0,0,.47,1.27A1.54,1.54,0,0,0,32.14,125.64Z"/><path class="cls-1" d="M38.53,124.05v-2h.18v2a1.82,1.82,0,0,1-.43,1.3,1.56,1.56,0,0,1-1.19.47,1.54,1.54,0,0,1-1.18-.47,1.83,1.83,0,0,1-.44-1.3v-2h.19v2a1.67,1.67,0,0,0,.38,1.17,1.54,1.54,0,0,0,2.11,0A1.71,1.71,0,0,0,38.53,124.05Z"/><path class="cls-1" d="M40.55,120.68a.18.18,0,0,1-.21-.2c0-.13.07-.19.21-.19s.2.06.2.19A.18.18,0,0,1,40.55,120.68Zm-.1,5V122h.19v3.66Z"/><path class="cls-1" d="M45.46,119.29h.19v6.41h-.19v-1a1.8,1.8,0,0,1-.65.81,1.77,1.77,0,0,1-1,.29,1.69,1.69,0,0,1-1.3-.55,2.12,2.12,0,0,1,0-2.78,1.77,1.77,0,0,1,2.94.55Zm-1.63,6.35a1.51,1.51,0,0,0,1.17-.5,2,2,0,0,0,0-2.54,1.52,1.52,0,0,0-1.17-.51,1.54,1.54,0,0,0-1.17.5,1.78,1.78,0,0,0-.47,1.28,1.75,1.75,0,0,0,.47,1.27A1.51,1.51,0,0,0,43.83,125.64Z"/><path class="cls-1" d="M50.34,122h.18v3.66h-.18v-1a1.88,1.88,0,0,1-.66.81,1.77,1.77,0,0,1-1,.29,1.71,1.71,0,0,1-1.3-.55,2.12,2.12,0,0,1,0-2.78,1.82,1.82,0,0,1,2.29-.26,1.77,1.77,0,0,1,.66.81Zm-1.64,3.6a1.51,1.51,0,0,0,1.17-.5,1.92,1.92,0,0,0,0-2.54,1.51,1.51,0,0,0-1.16-.51,1.56,1.56,0,0,0-1.18.5,1.82,1.82,0,0,0-.47,1.28,1.8,1.8,0,0,0,.47,1.27A1.51,1.51,0,0,0,48.7,125.64Z"/><path class="cls-1" d="M55.13,119.29h.18v6.41h-.18v-1a1.88,1.88,0,0,1-.66.81,1.77,1.77,0,0,1-1,.29,1.71,1.71,0,0,1-1.3-.55,2.15,2.15,0,0,1,0-2.78,1.82,1.82,0,0,1,2.29-.26,1.77,1.77,0,0,1,.66.81Zm-1.64,6.35a1.54,1.54,0,0,0,1.18-.5,2,2,0,0,0,0-2.54,1.55,1.55,0,0,0-1.17-.51,1.56,1.56,0,0,0-1.18.5,1.82,1.82,0,0,0-.47,1.28,1.8,1.8,0,0,0,.47,1.27A1.51,1.51,0,0,0,53.49,125.64Z"/><path class="cls-1" d="M62.44,123.78H59.06v.06a1.81,1.81,0,0,0,.48,1.29,1.69,1.69,0,0,0,1.3.5,1.88,1.88,0,0,0,1.42-.55l.12.12a2.09,2.09,0,0,1-1.56.6,1.87,1.87,0,0,1-2-1.94,1.93,1.93,0,0,1,.53-1.4,1.81,1.81,0,0,1,1.36-.54,1.56,1.56,0,0,1,1.69,1.72C62.45,123.71,62.44,123.75,62.44,123.78Zm-1.68-1.69a1.68,1.68,0,0,0-1.15.42,1.64,1.64,0,0,0-.54,1.11h3.19a1.54,1.54,0,0,0-.42-1.12A1.46,1.46,0,0,0,60.76,122.09Z"/><path class="cls-1" d="M63.85,123.69v2h-.19v-2a1.8,1.8,0,0,1,.46-1.29,1.57,1.57,0,0,1,1.2-.48,1.54,1.54,0,0,1,1.19.48,1.84,1.84,0,0,1,.45,1.29v2h-.18v-2a1.68,1.68,0,0,0-.4-1.16,1.38,1.38,0,0,0-1.06-.44,1.4,1.4,0,0,0-1.07.44A1.64,1.64,0,0,0,63.85,123.69Z"/><path class="cls-1" d="M74,123.78H70.63v.06a1.77,1.77,0,0,0,.49,1.29,1.69,1.69,0,0,0,1.3.5,1.88,1.88,0,0,0,1.42-.55l.12.12a2.11,2.11,0,0,1-1.56.6,1.9,1.9,0,0,1-1.4-.54,1.87,1.87,0,0,1-.55-1.4,1.93,1.93,0,0,1,.53-1.4,1.81,1.81,0,0,1,1.36-.54A1.55,1.55,0,0,1,74,123.65.45.45,0,0,1,74,123.78Zm-1.67-1.69a1.66,1.66,0,0,0-1.7,1.53h3.2a1.51,1.51,0,0,0-.43-1.12A1.45,1.45,0,0,0,72.34,122.09Z"/><path class="cls-1" d="M75.32,125.7v-6.41h.19v6.41Z"/><path class="cls-1" d="M83.59,121.92a1.24,1.24,0,0,1,1,.42,1.74,1.74,0,0,1,.36,1.17v2.19h-.18v-2.19a1.56,1.56,0,0,0-.32-1,1.08,1.08,0,0,0-.87-.38,1.19,1.19,0,0,0-.93.41,1.43,1.43,0,0,0-.37,1v2.19h-.19v-2.19a1.46,1.46,0,0,0-.35-1,1.12,1.12,0,0,0-.89-.41,1.15,1.15,0,0,0-.9.4,1.5,1.5,0,0,0-.35,1v2.19h-.18v-2.19a1.6,1.6,0,0,1,.41-1.14,1.29,1.29,0,0,1,1-.45,1.33,1.33,0,0,1,.85.29,1.37,1.37,0,0,1,.5.8,1.36,1.36,0,0,1,.53-.8A1.42,1.42,0,0,1,83.59,121.92Z"/><path class="cls-1" d="M89.45,124.05v-2h.18v2a1.82,1.82,0,0,1-.43,1.3,1.74,1.74,0,0,1-2.38,0,1.82,1.82,0,0,1-.43-1.3v-2h.18v2a1.67,1.67,0,0,0,.39,1.17,1.52,1.52,0,0,0,2.1,0A1.67,1.67,0,0,0,89.45,124.05Z"/><path class="cls-1" d="M91.25,123.69v2h-.18v-2a1.84,1.84,0,0,1,.45-1.29,1.59,1.59,0,0,1,1.21-.48,1.56,1.56,0,0,1,1.19.48,1.84,1.84,0,0,1,.45,1.29v2h-.19v-2a1.64,1.64,0,0,0-.4-1.16,1.37,1.37,0,0,0-1-.44,1.41,1.41,0,0,0-1.08.44A1.68,1.68,0,0,0,91.25,123.69Z"/><path class="cls-1" d="M99,119.29h.19v6.41H99v-1a1.73,1.73,0,0,1-1.65,1.1,1.67,1.67,0,0,1-1.29-.55,2.12,2.12,0,0,1,0-2.78,1.67,1.67,0,0,1,1.29-.55A1.73,1.73,0,0,1,99,123Zm-1.64,6.35a1.54,1.54,0,0,0,1.18-.5,2,2,0,0,0,0-2.54,1.53,1.53,0,0,0-1.17-.51,1.58,1.58,0,0,0-1.18.5,1.82,1.82,0,0,0-.47,1.28,1.8,1.8,0,0,0,.47,1.27A1.54,1.54,0,0,0,97.34,125.64Z"/><path class="cls-1" d="M102.29,125.81a1.81,1.81,0,0,1-1.36-.55,1.88,1.88,0,0,1-.54-1.39,1.9,1.9,0,0,1,.54-1.4,2,2,0,0,1,2.72,0,1.89,1.89,0,0,1,.53,1.4,1.87,1.87,0,0,1-.53,1.39A1.79,1.79,0,0,1,102.29,125.81Zm-1.23-.67a1.76,1.76,0,0,0,2.46,0,1.77,1.77,0,0,0,.48-1.28,1.74,1.74,0,0,0-.48-1.27,1.76,1.76,0,0,0-2.46,0,1.74,1.74,0,0,0-.48,1.27A1.77,1.77,0,0,0,101.06,125.14Z"/><path class="cls-2" d="M67.74,53.13,65.11,50.5l-2.64,2.63c.88.81,1.76,1.55,2.64,2.24C66,54.68,66.86,53.94,67.74,53.13Z"/><path class="cls-2" d="M57.32,43.75,56,45.29c-.14.17-.29.34-.43.52l.21.24c.48.59,1,1.14,1.44,1.69l2.11-2.11c-.63-.65-1.26-1.32-1.9-2l-.12.14Z"/><path class="cls-2" d="M59,49.66c.55.59,1.1,1.15,1.65,1.7l4.5-4.5h0l4.5,4.5c.55-.55,1.1-1.11,1.65-1.7L65.11,43.5Z"/><path class="cls-2" d="M50.34,43.42l-.08.08-.92.87-.29.26-.44.38c-.2.18-.41.35-.62.52l-.38.29-.49.37-.33.24c-.25.17-.5.34-.76.49l-.27.16-.65.37-.23.12c-.27.14-.55.26-.84.38l-.23.09c-.26.1-.52.2-.79.28l-.12,0a7.32,7.32,0,0,1-.9.21l-.22,0a9.13,9.13,0,0,1-.93.1c-2.53.11-4.91-1-7.14-3.21-.27-.27-.52-.55-.75-.83-.08-.1-.15-.2-.23-.29l-.43-.6c-.08-.12-.16-.24-.23-.36s-.23-.39-.34-.58a.41.41,0,0,0-.05-.09,14,14,0,0,0-.7,3.5c.1.14.18.28.28.42l2,2h0a11.88,11.88,0,0,0,8.19,3.08c3.85-.17,7.8-2.45,11.12-6.42l0,0c.23-.29.47-.57.7-.85-.62-.72-1.26-1.45-1.91-2.17C51.07,42.69,50.71,43.06,50.34,43.42Z"/><path class="cls-2" d="M80.77,64.9l5.33-5.35a19,19,0,0,1-10.21-5.27l-2.67-2.66-1.35-1.36a57.65,57.65,0,0,1-6.76,6.21h0a56.87,56.87,0,0,1-6.76-6.21l-.72.72h0l-3.3,3.3c-.43.43-.88.84-1.34,1.22-.25.2-.51.38-.77.57a7.89,7.89,0,0,1-.65.49c-.37.25-.76.48-1.15.71l-.33.2c-.49.27-1,.51-1.49.73l0,0a18.9,18.9,0,0,1-4.44,1.33l5.33,5.35A22.13,22.13,0,0,0,80.77,64.9Z"/><path class="cls-2" d="M78,52.78A15.58,15.58,0,0,0,88.3,57.34l3.18-3.19-.63.09c-.24,0-.48.07-.73.09a12.65,12.65,0,0,1-1.51,0l-.85-.06-.31,0-.53-.07-.44-.09-.4-.08-.51-.14-.33-.09c-.19-.05-.37-.12-.56-.18l-.27-.09-.61-.24-.21-.09-.66-.3-.16-.07-.69-.36L82,52.38,81.24,52l-.07,0c-.25-.16-.5-.32-.74-.49l-.05,0c-.26-.17-.51-.36-.76-.55h0l-.76-.61h0a25.18,25.18,0,0,1-2.94-2.91h0L75.62,47c-.14-.18-.29-.35-.43-.52l-.1.12c-.5.6-1,1.18-1.49,1.75l.84.85Z"/><path class="cls-2" d="M56.39,35.28h0l.23-.27-4.43-4.42A15.56,15.56,0,0,0,41.91,26l0,0-.1-.05c-.23,0-.45,0-.68,0A15.67,15.67,0,0,0,26,45.77c.07.28.16.55.25.82l.06.2c.05.15.11.3.17.44A13.07,13.07,0,0,0,27,48.45C25.8,43.18,26.59,37.62,30.24,34c3.47-3.48,7.3-5.13,11.36-5,4.58.2,9.19,2.81,13,7.36l.43.51.1-.12C55.55,36.26,56,35.76,56.39,35.28Z"/><path class="cls-2" d="M60.72,40h0c-.5.52-1,1-1.5,1.6h0l-.06.06c.67.73,1.34,1.45,2,2.13l2.13-2.13-2.13-2.13C61,39.71,60.87,39.87,60.72,40Z"/><path class="cls-2" d="M40.81,35.53c-2.28-.12-4.41.86-6.5,2.95a11.06,11.06,0,0,0-2.2,3.2l.21.44c.06.13.13.26.2.38s.2.34.31.51.14.23.22.34a6.55,6.55,0,0,0,.39.53c.07.09.13.18.2.26a9.51,9.51,0,0,0,.67.74c2.09,2.1,4.22,3.07,6.5,3a6.4,6.4,0,0,0,.88-.1l.19,0a8.52,8.52,0,0,0,.84-.2l.14,0,.75-.27.17-.07c.27-.11.54-.24.81-.38l.2-.1q.36-.19.72-.42l.12-.07c.27-.16.52-.34.78-.52l.24-.17c.25-.18.5-.36.75-.56l.18-.16.6-.5.26-.22.68-.62.29-.28.48-.47.28-.27.67-.71C47.79,38.45,44.38,35.68,40.81,35.53Z"/><path class="cls-2" d="M53.89,43.81l.15-.18c.56-.67,1.11-1.31,1.67-2-.61-.69-1.21-1.4-1.82-2.12-.6.71-1.23,1.42-1.88,2.12C52.66,42.38,53.29,43.1,53.89,43.81Z"/><path class="cls-2" d="M31.39,39.64c.05.2.1.39.16.57s.09.27.13.4a11.59,11.59,0,0,1,2-2.74c2.23-2.23,4.61-3.32,7.14-3.2,3.84.17,7.41,3,10.58,6.38l.52-.57c.47-.53.94-1.07,1.39-1.6-.24-.29-.49-.58-.73-.88-3.32-4-7.27-6.25-11.12-6.42a11.89,11.89,0,0,0-8.19,3.09l-2,2c-.11.14-.21.29-.31.43a14,14,0,0,0,.3,2.09C31.31,39.35,31.35,39.5,31.39,39.64Z"/><path class="cls-2" d="M57.23,35.62c-.17.19-.33.39-.49.58h0c-.32.37-.64.73-1,1.11l-.21.25q.93,1.13,1.86,2.19c.64-.69,1.27-1.37,1.9-2Z"/><path class="cls-2" d="M62.47,30.23l2.64,2.6,2.63-2.6c-.88-.8-1.75-1.54-2.63-2.24C64.23,28.69,63.35,29.43,62.47,30.23Z"/><path class="cls-2" d="M49.45,18.47,44.24,23.7A18.16,18.16,0,0,1,54,28.77l4.34,4.33q1.69-1.8,3.39-3.36l.3-.27c.41-.37.81-.72,1.21-1.06l.37-.32c.5-.41,1-.81,1.49-1.19h0c.51.39,1,.8,1.52,1.22l.36.31c.43.37.87.75,1.3,1.14l.22.2q1.68,1.55,3.36,3.33l4.33-4.33A18.22,18.22,0,0,1,86,23.7l-5.21-5.23A22.11,22.11,0,0,0,49.45,18.47Z"/><path class="cls-2" d="M49.48,14.89l-8.56,8.54a20.88,20.88,0,0,1,2.24.13l6.29-6.31a22.11,22.11,0,0,1,31.31,0l6.29,6.31a21,21,0,0,1,2.24-.13l-8.58-8.55A22.11,22.11,0,0,0,49.48,14.89Z"/><path class="cls-2" d="M70.91,33.34c-.44-.45-.87-.91-1.3-1.34l-4.5,4.51h0L60.61,32c-.42.42-.84.86-1.26,1.3l-.39.41,6.15,6.15,6.15-6.15-.35-.37Z"/><path class="cls-2" d="M89.4,35.53c-3.56.15-7,2.92-10,6.15l.07.07.51.53.28.29.6.59.2.19.81.73.21.19.61.51L83,45l.56.42.3.22.62.41.24.15c.28.18.57.35.86.5l.14.07c.24.12.49.23.73.33a2.52,2.52,0,0,0,.29.12q.3.12.6.21l.31.1c.21.06.41.1.62.14l.28.06a6.88,6.88,0,0,0,.9.1c2.29.11,4.41-.86,6.51-3h0a10,10,0,0,0,.8-.91l.14-.18c.2-.27.4-.56.58-.85a10.86,10.86,0,0,0,.68-1.26,11.06,11.06,0,0,0-2.2-3.2C93.81,36.39,91.69,35.41,89.4,35.53Z"/><path class="cls-2" d="M49.48,11.11,36.58,24a18.86,18.86,0,0,1,3.05-.51l9.86-9.83a22.1,22.1,0,0,1,31.24,0l9.85,9.83a18.79,18.79,0,0,1,3.06.51l-12.9-12.9A22.11,22.11,0,0,0,49.48,11.11Z"/><path class="cls-2" d="M55,46.48c-.14.16-.27.31-.4.48l0,0c-3.81,4.55-8.42,7.15-13,7.35a13,13,0,0,1-2.86-.2l3.17,3.19a15.56,15.56,0,0,0,10.28-4.56l4.43-4.43c-.5-.57-1-1.15-1.49-1.75Z"/><path class="cls-2" d="M77.43,45.15l.15.18,0,0c3.32,4,7.27,6.25,11.12,6.42a11.88,11.88,0,0,0,8.19-3.08h0l2-2v0a3.93,3.93,0,0,0,.29-.42,13.25,13.25,0,0,0-.7-3.51,11.55,11.55,0,0,1-2,2.75h0c-2.24,2.24-4.62,3.32-7.15,3.21a7.46,7.46,0,0,1-1-.11l-.3-.05-.66-.15-.33-.1-.65-.22L86.19,48c-.31-.13-.61-.26-.91-.42l-.09,0L84.38,47l-.31-.2-.58-.37-.34-.24-.56-.42-.32-.24L81.54,45l-.37-.33-.53-.47c-.13-.13-.26-.26-.4-.38l-.4-.39L79.41,43l-.34-.35-.28-.3c-.66.72-1.29,1.45-1.91,2.17.18.22.37.44.55.67Z"/><path class="cls-2" d="M80.73,69.7a22.1,22.1,0,0,1-31.24,0l-9.94-9.92a18.09,18.09,0,0,1-2.64-.4h-.07l-.31-.06L49.48,72.25a22.11,22.11,0,0,0,31.26,0l13-12.94a19.54,19.54,0,0,1-3,.47Z"/><path class="cls-2" d="M34.05,55.69a17.73,17.73,0,0,0,1.85.79h0l.54.19-4.9-4.89a20.27,20.27,0,0,0,1.1,3.12c.46.29.94.56,1.42.8Z"/><path class="cls-2" d="M30,49.11l-.28-.32a19.42,19.42,0,0,0,.87,2.57,16.53,16.53,0,0,1-.33-2h0C30.15,49.3,30.07,49.2,30,49.11Z"/><path class="cls-2" d="M100,49.39c-.08.66-.19,1.32-.33,2a20.51,20.51,0,0,0,.86-2.54l-.52.57Z"/><path class="cls-2" d="M73.33,44.26l-.45-.52a1.27,1.27,0,0,0-.1-.12c-.64.69-1.27,1.36-1.9,2L73,47.74c.48-.55,1-1.1,1.44-1.69l.21-.24-.42-.5C73.93,45,73.63,44.61,73.33,44.26Z"/><path class="cls-2" d="M100,45a11.85,11.85,0,0,0,.49-1.16v0a12.42,12.42,0,0,0,.55-2.2,11.71,11.71,0,0,0-1-3.4,14.2,14.2,0,0,1-.9,3.37A14,14,0,0,1,100,45Z"/><path class="cls-2" d="M96.22,55.67a15.1,15.1,0,0,0,1.35-.77,20.31,20.31,0,0,0,1.11-3.12l-4.87,4.86a15.91,15.91,0,0,0,2.42-1Z"/><path class="cls-2" d="M94.39,53.28a10.47,10.47,0,0,1-1.32.49h0l-3.58,3.58c.35,0,.7,0,1,0,.55-.05,1.09-.14,1.63-.24l6.42-6.41a16.53,16.53,0,0,1-4.07,2.58Z"/><path class="cls-2" d="M69.06,39.55l-2.13,2.13,2.13,2.13c.66-.68,1.32-1.39,2-2.12q-.76-.86-1.53-1.65C69.36,39.88,69.21,39.71,69.06,39.55Z"/><path class="cls-2" d="M89.12,26A15.59,15.59,0,0,0,78,30.59L73.6,35c.49.57,1,1.15,1.49,1.75l.1.12.43-.51c3.81-4.55,8.42-7.16,13-7.36,4.07-.16,7.89,1.49,11.37,5,3.64,3.64,4.44,9.18,3.29,14.44l.08-.15A15.69,15.69,0,0,0,89.12,26Z"/><path class="cls-2" d="M78.2,41.68l-.92-1,0,0h0c-.32-.35-.63-.71-.94-1.07-.6.72-1.21,1.43-1.81,2.12.6.69,1.21,1.4,1.81,2.13C76.93,43.1,77.56,42.38,78.2,41.68Z"/><path class="cls-2" d="M78.64,40.89l.15.16c3.17-3.34,6.73-6.21,10.57-6.38,2.53-.12,4.91,1,7.15,3.2a11.44,11.44,0,0,1,2,2.75,14.19,14.19,0,0,0,.7-3.51l-.31-.43-2-2a11.89,11.89,0,0,0-8.19-3.09c-3.85.17-7.8,2.45-11.12,6.42l-.73.89c.49.57,1,1.15,1.5,1.72Z"/><path class="cls-2" d="M39.56,57.29c.38,0,.77.05,1.16.07l-3.57-3.59a16,16,0,0,1-5.52-3.11l6.43,6.42a15.25,15.25,0,0,0,1.51.22Z"/><path class="cls-2" d="M73,35.62l-2.11,2.11c.63.65,1.26,1.33,1.9,2q.93-1.06,1.86-2.19l-.21-.25C74,36.73,73.47,36.17,73,35.62Z"/><path class="cls-2" d="M87.78,59.76h0l-.63,0-6.39,6.4a22.1,22.1,0,0,1-31.31,0l-6.38-6.4a19,19,0,0,1-2.26.11l8.67,8.66a22.12,22.12,0,0,0,31.23,0l8.69-8.67q-.81,0-1.62-.06Z"/><path class="cls-2" d="M30.1,44.68l.12.25a.41.41,0,0,1,.05.09,14.19,14.19,0,0,1,.91-3.35.37.37,0,0,1-.05-.11c-.08-.2-.15-.4-.22-.6s-.09-.25-.13-.38-.13-.44-.19-.67-.05-.2-.07-.3-.11-.49-.16-.74h0c0-.19-.06-.38-.08-.56a11.73,11.73,0,0,0-1.05,3.34,12.39,12.39,0,0,0,.49,2C29.83,44,30,44.36,30.1,44.68Z"/><path class="cls-3" d="M49.49,13.67,39.63,23.5c.43,0,.86-.06,1.29-.07l8.56-8.54a22.11,22.11,0,0,1,31.23,0l8.58,8.55c.43,0,.86,0,1.29.07l-9.85-9.83A22.1,22.1,0,0,0,49.49,13.67Z"/><path class="cls-3" d="M49.45,17.25l-6.29,6.31c.36,0,.72.08,1.08.14l5.21-5.23a22.11,22.11,0,0,1,31.32,0L86,23.7c.36-.06.72-.1,1.07-.14l-6.29-6.31A22.11,22.11,0,0,0,49.45,17.25Z"/><path class="cls-3" d="M41.91,26h-.13l.1.05Z"/><path class="cls-3" d="M89.49,57.36l-2.34,2.35.63,0h0q.81.06,1.62.06h0l1.29-.06,0,0a19.54,19.54,0,0,0,3-.47l2.23-2.24a15.22,15.22,0,0,0,1.46-1.72c.07-.15.13-.31.19-.45a15.1,15.1,0,0,1-1.35.77h0a15.91,15.91,0,0,1-2.42,1,15.37,15.37,0,0,1-1.65.43c-.54.1-1.08.19-1.63.24C90.19,57.34,89.84,57.35,89.49,57.36Z"/><path class="cls-3" d="M25.34,32.49a18.27,18.27,0,0,0,2.85,22.08A18.69,18.69,0,0,1,25.34,32.49Z"/><path class="cls-3" d="M68.51,29.77l-.22-.2c-.43-.39-.87-.77-1.3-1.14l-.36-.31c-.51-.42-1-.83-1.52-1.22h0c-.5.38-1,.78-1.49,1.19l-.37.32c-.4.34-.8.69-1.21,1.06l-.3.27Q60,31.3,58.35,33.1l.61.61.39-.41c.42-.44.84-.88,1.26-1.3l4.5,4.51h0L69.61,32c.43.43.86.89,1.3,1.34h0l.35.37.61-.61Q70.19,31.32,68.51,29.77Zm-3.4,3.06-2.64-2.6c.88-.8,1.76-1.54,2.64-2.24.88.7,1.75,1.44,2.63,2.24Z"/><path class="cls-3" d="M32.06,35.8a10.54,10.54,0,0,0-.77.88l2-2C32.88,35,32.47,35.39,32.06,35.8Z"/><path class="cls-3" d="M49.48,11.11a22.11,22.11,0,0,1,31.26,0L93.64,24a18.18,18.18,0,0,1,8.62,5l-.23-.25-4.29-4.3h0l-17-17a22.09,22.09,0,0,0-31.26,0l-17,17h0l-4.3,4.3c-.08.08-.14.17-.22.25a18.13,18.13,0,0,1,8.62-5Z"/><path class="cls-3" d="M73.6,35l-6.67,6.67h0l2.13-2.13c.15.16.3.33.46.49q.77.8,1.53,1.65c.58.62,1.15,1.26,1.73,1.93a1.27,1.27,0,0,1,.1.12l.45.52c.3.35.6.69.89,1.05l.42.5,0-.05,1.64-1.95c-.6-.73-1.21-1.44-1.81-2.13h0c-.58-.66-1.16-1.3-1.73-1.93h0c-.64-.69-1.27-1.37-1.9-2L73,35.62c.48.55,1,1.11,1.44,1.69l.21.25.55-.68-.1-.12C74.59,36.16,74.09,35.58,73.6,35Z"/><path class="cls-3" d="M98.16,35.8c-.41-.41-.82-.78-1.24-1.13l2,2A10.54,10.54,0,0,0,98.16,35.8Z"/><path class="cls-3" d="M100.44,43.87A11.85,11.85,0,0,1,100,45a9.89,9.89,0,0,1-.72,1.21,3.93,3.93,0,0,1-.29.42v0h0a9.18,9.18,0,0,1-.77.9c-.41.4-.82.78-1.24,1.13h0a11.88,11.88,0,0,1-8.19,3.08c-3.85-.17-7.8-2.45-11.12-6.42l0,0-.15-.18h0c-.18-.23-.37-.45-.55-.67l-1.55,1.83-.14.17c.14.17.29.34.43.52l.27.31h0a25.18,25.18,0,0,0,2.94,2.91h0l.76.61h0c.25.19.5.38.76.55l.05,0c.24.17.49.33.74.49l.07,0,.73.43.11.06.69.36.16.07.66.3.21.09.61.24.27.09c.19.06.37.13.56.18l.33.09.51.14.4.08.44.09.53.07.31,0,.85.06a12.65,12.65,0,0,0,1.51,0c.25,0,.49-.06.73-.09l.63-.09a13,13,0,0,0,1.59-.37h0a10.47,10.47,0,0,0,1.32-.49l.12,0a16.53,16.53,0,0,0,4.07-2.58h0c.47-.39.92-.8,1.38-1.25A1.3,1.3,0,0,1,100,49c0,.13,0,.27,0,.41h0l.52-.57A17.16,17.16,0,0,0,101,41.7a12.42,12.42,0,0,1-.55,2.2Z"/><path class="cls-3" d="M99,41.67a14.2,14.2,0,0,0,.9-3.37,10,10,0,0,0-.7-1.19,14.19,14.19,0,0,1-.7,3.51C98.72,41,98.89,41.31,99,41.67Z"/><path class="cls-3" d="M104.88,32.49A18.69,18.69,0,0,1,102,54.57,18.27,18.27,0,0,0,104.88,32.49Z"/><path class="cls-3" d="M103.27,48.45a1.42,1.42,0,0,1,.08-.18l-.08.15Z"/><path class="cls-3" d="M43,59.69c.36,0,.72-.09,1.07-.15h0a18.9,18.9,0,0,0,4.44-1.33l0,0c.51-.22,1-.46,1.49-.73l.33-.2c.39-.23.78-.46,1.15-.71a7.89,7.89,0,0,0,.65-.49c.26-.19.52-.37.77-.57.46-.38.91-.79,1.34-1.22l3.3-3.3h0l.72-.72c-.57-.61-1.15-1.25-1.73-1.91l-4.43,4.43a15.56,15.56,0,0,1-10.28,4.56h0c-.27,0-.54,0-.81,0l-.38,0c-.39,0-.78,0-1.16-.07h0a15.25,15.25,0,0,1-1.51-.22l2.75,2.74a19,19,0,0,0,2.26-.11Z"/><path d="M32.06,47.57c.41.4.82.78,1.24,1.13l-2-2A11.32,11.32,0,0,0,32.06,47.57Z"/><path d="M37.15,53.77l3.57,3.59.38,0c.27,0,.54,0,.81,0h0l-3.17-3.19A11.46,11.46,0,0,1,37.15,53.77Z"/><path d="M55.58,45.81h0c-.18.22-.37.44-.55.67h0l.1.12c.5.6,1,1.18,1.49,1.75s1.16,1.3,1.73,1.91a56.87,56.87,0,0,0,6.76,6.21h0a57.65,57.65,0,0,0,6.76-6.21l-.61-.6c-.55.59-1.1,1.15-1.65,1.7l-4.5-4.5h0l-4.5,4.5c-.55-.55-1.1-1.11-1.65-1.7h0a24.7,24.7,0,0,1-1.72-1.92c-.48-.55-1-1.1-1.44-1.69Zm9.53,4.69,2.63,2.63c-.88.81-1.75,1.55-2.63,2.24-.88-.69-1.76-1.43-2.64-2.24Z"/><path d="M86.1,59.55,80.77,64.9a22.13,22.13,0,0,1-31.32,0l-5.33-5.35h0c-.35.06-.71.11-1.07.15l0,0,6.38,6.4a22.1,22.1,0,0,0,31.31,0l6.39-6.4,2.34-2.35,3.58-3.58a13,13,0,0,1-1.59.37L88.3,57.34Z"/><path d="M98.16,47.57a9.18,9.18,0,0,0,.77-.9h0l-2,2C97.34,48.35,97.75,48,98.16,47.57Z"/><polygon points="96.92 48.7 96.92 48.7 96.92 48.7 96.92 48.7 96.92 48.7"/><path d="M31.69,42.74a10.48,10.48,0,0,1-.51-1.07A14.19,14.19,0,0,0,30.27,45,11.4,11.4,0,0,0,31,46.24a14,14,0,0,1,.7-3.5Z"/><path d="M100,45A14,14,0,0,0,99,41.67c-.15-.36-.32-.71-.5-1.05a11.44,11.44,0,0,0-2-2.75c-2.24-2.23-4.62-3.32-7.15-3.2-3.84.17-7.4,3-10.57,6.38h0l.58.63c3.06-3.23,6.47-6,10-6.15,2.29-.12,4.41.86,6.51,2.95a11.06,11.06,0,0,1,2.2,3.2q.23.51.42,1a13.25,13.25,0,0,1,.7,3.51A9.89,9.89,0,0,0,100,45Z"/><path d="M51.43,41.05c-3.17-3.34-6.74-6.21-10.58-6.38-2.53-.12-4.91,1-7.14,3.2a11.59,11.59,0,0,0-2,2.74c.13.37.27.73.43,1.08h0a11.06,11.06,0,0,1,2.2-3.2c2.09-2.09,4.22-3.07,6.5-2.95,3.57.15,7,2.92,10,6.15l.59.63c.65.72,1.29,1.45,1.91,2.17l.55-.67c-.6-.71-1.23-1.43-1.88-2.13Z"/><path d="M104.88,32.49c-.09-.16-.18-.32-.28-.47-.18-.3-.38-.58-.58-.86l-.52-.72c-.18-.23-.37-.45-.56-.67s-.27-.33-.42-.49a3.19,3.19,0,0,0-.26-.26,18.18,18.18,0,0,0-8.62-5,18.79,18.79,0,0,0-3.06-.51c-.43,0-.86-.06-1.29-.07a21,21,0,0,0-2.24.13c-.35,0-.71.08-1.07.14a18.22,18.22,0,0,0-9.78,5.07L71.87,33.1l-.61.61-6.15,6.15L59,33.71l-.61-.61L54,28.77a18.16,18.16,0,0,0-9.77-5.07c-.36-.06-.72-.1-1.08-.14a20.88,20.88,0,0,0-2.24-.13c-.43,0-.86,0-1.29.07a18.86,18.86,0,0,0-3.05.51A18.13,18.13,0,0,0,28,29c-.09.09-.18.16-.27.26s-.27.33-.41.49-.38.44-.56.67l-.53.72c-.19.28-.39.56-.57.86-.1.15-.19.31-.28.47a18.69,18.69,0,0,0,2.85,22.08c.11.11.2.23.31.34l4,4h0l17,17a22.11,22.11,0,0,0,31.26,0l17-17h0l4-4c.11-.11.2-.23.31-.34A18.69,18.69,0,0,0,104.88,32.49Zm-1.53,15.78a1.42,1.42,0,0,0-.08.18v0c1.15-5.26.35-10.8-3.29-14.44-3.48-3.48-7.3-5.13-11.37-5-4.57.2-9.18,2.81-13,7.36l-.43.51-.55.68q-.93,1.13-1.86,2.19h0c.57.63,1.15,1.27,1.73,1.93h0c.6-.69,1.21-1.4,1.81-2.12l.56-.67.73-.89c3.32-4,7.27-6.25,11.12-6.42a11.89,11.89,0,0,1,8.19,3.09c.42.35.83.72,1.24,1.13a10.54,10.54,0,0,1,.77.88l.31.43a10,10,0,0,1,.7,1.19,11.71,11.71,0,0,1,1,3.4,17.16,17.16,0,0,1-.49,7.12,20.51,20.51,0,0,1-.86,2.54c.14-.65.25-1.31.33-2,0-.14,0-.28,0-.41a1.3,1.3,0,0,0-.05.43c-.46.45-.91.86-1.38,1.25h0l-6.42,6.41a15.37,15.37,0,0,0,1.65-.43l4.87-4.86a20.31,20.31,0,0,1-1.11,3.12c-.06.14-.12.3-.19.45a15.22,15.22,0,0,1-1.46,1.72l-2.23,2.24-13,12.94a22.11,22.11,0,0,1-31.26,0L36.53,59.31,34.3,57.07a16.41,16.41,0,0,1-1.47-1.72c-.07-.15-.12-.31-.19-.45a20.27,20.27,0,0,1-1.1-3.12l4.9,4.89,3.11,3.11,9.94,9.92a22.1,22.1,0,0,0,31.24,0l9.94-9.92,0,0-1.29.06h0l-8.69,8.67a22.12,22.12,0,0,1-31.23,0l-8.67-8.66-2.75-2.74-6.43-6.42c-.46-.39-.93-.81-1.38-1.27a16.53,16.53,0,0,0,.33,2,19.42,19.42,0,0,1-.87-2.57,17.42,17.42,0,0,1-.48-7.14,11.73,11.73,0,0,1,1.05-3.34,9,9,0,0,1,.7-1.2c.1-.14.2-.29.31-.43a10.54,10.54,0,0,1,.77-.88c.41-.41.82-.78,1.24-1.13a11.89,11.89,0,0,1,8.19-3.09c3.85.17,7.8,2.45,11.12,6.42.24.3.49.59.73.88.53-.61,1-1.23,1.54-1.83l.15-.17-.43-.51c-3.81-4.55-8.42-7.16-13-7.36-4.06-.16-7.89,1.49-11.36,5-3.65,3.64-4.44,9.2-3.29,14.47a13.07,13.07,0,0,1-.51-1.22c-.06-.14-.12-.29-.17-.44l-.06-.2c-.09-.27-.18-.54-.25-.82A15.68,15.68,0,0,1,41.1,26c.23,0,.45,0,.68,0h.13a15.56,15.56,0,0,1,10.28,4.56L56.62,35l6.67,6.67h0l-2.13,2.13c-.66-.68-1.33-1.4-2-2.13S58,40.41,57.44,39.75s-1.24-1.44-1.86-2.19l0,0c-.53.63-1.08,1.29-1.65,1.94h0c.61.72,1.21,1.43,1.82,2.12s1.15,1.31,1.73,1.93,1.27,1.37,1.9,2l-2.11,2.11,6.06-6.06c.43.4.94,1,1.82,1.82h0l1.82-1.82,6.67,6.67c.49-.57,1-1.15,1.49-1.75l.1-.12.14-.17,1.55-1.83c.62-.72,1.25-1.45,1.91-2.17h0l-.59-.63h0c-.64.7-1.27,1.42-1.88,2.13l-1.64,1.95,0,.05-.21.24c-.48.59-1,1.14-1.44,1.69l-2.11-2.11c.63-.65,1.26-1.32,1.9-2-.58-.67-1.15-1.31-1.73-1.93-.67.73-1.33,1.44-2,2.12l-2.13-2.13h0L73.6,35,78,30.59a15.68,15.68,0,0,1,25.33,17.68Z"/><path class="cls-3" d="M30.36,38.87c.05.25.1.49.16.74s.05.2.07.3.12.45.19.67.09.25.13.38.14.4.22.6a.37.37,0,0,0,.05.11,10.48,10.48,0,0,0,.51,1.07h0a.41.41,0,0,1,.05.09c.11.19.22.39.34.58s.15.24.23.36l.43.6c.08.09.15.19.23.29.23.28.48.56.75.83,2.23,2.24,4.61,3.32,7.14,3.21a9.13,9.13,0,0,0,.93-.1l.22,0a7.32,7.32,0,0,0,.9-.21l.12,0c.27-.08.53-.18.79-.28L44,48c.29-.12.57-.24.84-.38l.23-.12.65-.37.27-.16c.26-.15.51-.32.76-.49l.33-.24.49-.37.38-.29c.21-.17.42-.34.62-.52l.44-.38.29-.26.92-.87.08-.08c.37-.36.73-.73,1.09-1.11l-.59-.63-.67.71-.28.27-.48.47-.29.28-.68.62-.26.22-.6.5-.18.16c-.25.2-.5.38-.75.56l-.24.17c-.26.18-.51.36-.78.52l-.12.07q-.36.23-.72.42l-.2.1c-.27.14-.54.27-.81.38l-.17.07-.75.27-.14,0a8.52,8.52,0,0,1-.84.2l-.19,0a6.4,6.4,0,0,1-.88.1c-2.28.11-4.41-.86-6.5-3a9.51,9.51,0,0,1-.67-.74c-.07-.08-.13-.17-.2-.26a6.55,6.55,0,0,1-.39-.53c-.08-.11-.15-.23-.22-.34s-.21-.33-.31-.51-.14-.25-.2-.38l-.21-.44h0c-.16-.35-.3-.71-.43-1.08,0-.13-.09-.26-.13-.4s-.11-.37-.16-.57-.08-.29-.11-.44a14,14,0,0,1-.3-2.09,9,9,0,0,0-.7,1.2c0,.18,0,.37.08.56Z"/><path class="cls-3" d="M38.74,54.15a13,13,0,0,0,2.86.2c4.58-.2,9.19-2.8,13-7.35l0,0c.13-.17.26-.32.4-.48h0c.18-.23.37-.45.55-.67h0c.14-.18.29-.35.43-.52l1.31-1.54h0l.12-.14c-.58-.62-1.15-1.27-1.73-1.93-.56.64-1.11,1.28-1.67,2l-.15.18-.55.67c-.23.28-.47.56-.7.85l0,0c-3.32,4-7.27,6.25-11.12,6.42A11.88,11.88,0,0,1,33.3,48.7h0c-.42-.35-.83-.73-1.24-1.13a11.32,11.32,0,0,1-.8-.91c-.1-.14-.18-.28-.28-.42A11.4,11.4,0,0,1,30.27,45a.41.41,0,0,0-.05-.09l-.12-.25c-.14-.32-.27-.65-.38-1a12.39,12.39,0,0,1-.49-2,17.42,17.42,0,0,0,.48,7.14l.28.32c.08.09.16.19.25.28h0c.45.46.92.88,1.38,1.27a16,16,0,0,0,5.52,3.11A11.46,11.46,0,0,0,38.74,54.15Z"/><path class="cls-3" d="M36.85,59.37h.06a18.09,18.09,0,0,0,2.64.4l-3.11-3.11-.54-.19h0a17.73,17.73,0,0,1-1.85-.79h0c-.48-.24-1-.51-1.42-.8.07.14.12.3.19.45a16.41,16.41,0,0,0,1.47,1.72l2.23,2.24.31.06Z"/><path class="cls-3" d="M59,49.66l6.15-6.16,6.15,6.16.61.6,1.35,1.36,2.67,2.66A19,19,0,0,0,86.1,59.55l2.2-2.21A15.58,15.58,0,0,1,78,52.78L74.44,49.2l-.84-.85-6.67-6.67L65.11,43.5h0c-.88-.85-1.39-1.42-1.82-1.82l-6.06,6.06A24.7,24.7,0,0,0,59,49.66Z"/><path class="cls-3" d="M77.26,40.63l0,0,.92,1h0l.59.63h0l.28.3.34.35.43.43.4.39c.14.12.27.25.4.38l.53.47.37.33.73.61.32.24.56.42.34.24.58.37.31.2.81.45.09,0c.3.16.6.29.91.42l.28.11.65.22.33.1.66.15.3.05a7.46,7.46,0,0,0,1,.11c2.53.11,4.91-1,7.15-3.21h0a11.55,11.55,0,0,0,2-2.75q-.19-.54-.42-1a10.86,10.86,0,0,1-.68,1.26c-.18.29-.38.58-.58.85l-.14.18a10,10,0,0,1-.8.91h0c-2.1,2.1-4.22,3.07-6.51,3a6.88,6.88,0,0,1-.9-.1l-.28-.06c-.21,0-.41-.08-.62-.14l-.31-.1q-.3-.09-.6-.21a2.52,2.52,0,0,1-.29-.12c-.24-.1-.49-.21-.73-.33l-.14-.07c-.29-.15-.58-.32-.86-.5l-.24-.15-.62-.41-.3-.22L83,45l-.29-.23-.61-.51-.21-.19L81,43.35l-.2-.19-.6-.59L80,42.28l-.51-.53-.07-.07-.58-.63h0l-.15-.16-.26-.28c-.51-.57-1-1.15-1.5-1.72l-.56.67c.31.36.62.72.94,1.07Z"/><path class="cls-3" d="M51.43,41.05l.58.63c.65-.7,1.28-1.41,1.88-2.12h0c.57-.65,1.12-1.31,1.65-1.94l0,0,.21-.25c.31-.38.63-.74,1-1.11h0c.16-.19.32-.39.49-.58l2.11,2.11c-.63.65-1.26,1.33-1.9,2,.58.66,1.15,1.31,1.72,1.93l.06-.06h0c.5-.55,1-1.08,1.5-1.6h0c.15-.15.29-.31.44-.47l2.13,2.13h0L56.62,35l-.23.27h0c-.42.48-.84,1-1.26,1.48l-.1.12-.15.17c-.5.6-1,1.22-1.54,1.83S52.42,40,52,40.48Z"/></svg>