<svg id="Capa_1" data-name="Capa 1" xmlns="http://www.w3.org/2000/svg" viewBox="0 0 256 256"><defs><style>.cls-1{fill:#fff;}.cls-2{fill:none;}.cls-3{fill:gray;}</style></defs><title>256x256 px blanco</title><path class="cls-1" d="M47.49,227.46V188h5.38v32.56a4.65,4.65,0,0,0,.17,1.61q.16.33,1.11.33H66.1v4.94Z"/><path class="cls-1" d="M85.21,216.75v10.77H80.32V201A13.1,13.1,0,0,1,84,191.57,12.07,12.07,0,0,1,93,187.74a12.2,12.2,0,0,1,9.06,3.89,12.87,12.87,0,0,1,3.77,9.28v26.61H101.1V216.18A5,5,0,0,0,101,215a1.45,1.45,0,0,0-.52-.84,2.12,2.12,0,0,0-1.31-.33H87.71a6.08,6.08,0,0,0-1.06.06,2.32,2.32,0,0,0-.94.53,2,2,0,0,0-.5,1.59Zm15.66-10.68v-5.44a8.26,8.26,0,0,0-2.17-5.81A7.44,7.44,0,0,0,93,192.46a6.66,6.66,0,0,0-5.5,2.67,9.9,9.9,0,0,0-2.09,6.28v6a1.91,1.91,0,0,0,.39,1.25,1.77,1.77,0,0,0,1,.61,6.92,6.92,0,0,0,1.49.14H98.38a5.48,5.48,0,0,0,1.06-.06,1.61,1.61,0,0,0,.88-.56,1.78,1.78,0,0,0,.39-.61,2.55,2.55,0,0,0,.16-1Z"/><path class="cls-1" d="M120.21,192.8V188h26.16v4.78h-8c-.44,0-.89,0-1.36,0a1.23,1.23,0,0,0-.94.34,1.59,1.59,0,0,0-.25,1v33.34h-5.45V195a3.11,3.11,0,0,0-.27-1.66,1.31,1.31,0,0,0-.72-.45,5.41,5.41,0,0,0-.95,0Z"/><path class="cls-1" d="M160.37,227.52V187.74h5.39v39.78Z"/><path class="cls-1" d="M186.6,213.74v13.78h-4.39V200.85a13,13,0,0,1,3.36-9.25A11.17,11.17,0,0,1,194.1,188a10.74,10.74,0,0,1,8.16,3.55A11.84,11.84,0,0,1,205.6,200a10.72,10.72,0,0,1-3.45,8.38,13.8,13.8,0,0,1-6.44,3.16q-.45.06-.45.45a2.2,2.2,0,0,0,.37,1,17.31,17.31,0,0,0,1.1,1.64l9.41,12.87-5.38.09-11.5-15.17a8.07,8.07,0,0,0-1.11-1.44,1.22,1.22,0,0,0-1.05-.28q-.28.06-.39.69a7.8,7.8,0,0,0-.11,1.42Zm7.69-21.17a6.75,6.75,0,0,0-5.09,2.22,7.39,7.39,0,0,0-2.1,5.23,7,7,0,0,0,2,5.11,7.11,7.11,0,0,0,5.26,2.05,5.85,5.85,0,0,0,4.73-2.25,8,8,0,0,0,1.86-5.3,7.1,7.1,0,0,0-1.94-4.95A6.23,6.23,0,0,0,194.29,192.57Z"/><path class="cls-1" d="M55.46,246.14H48.71v.13a3.57,3.57,0,0,0,1,2.57,3.41,3.41,0,0,0,2.61,1,3.74,3.74,0,0,0,2.83-1.12l.24.26a4.21,4.21,0,0,1-3.11,1.19,3.82,3.82,0,0,1-2.81-1.08,3.78,3.78,0,0,1-1.08-2.8,3.87,3.87,0,0,1,1-2.79,3.62,3.62,0,0,1,2.71-1.09,3.33,3.33,0,0,1,2.45.9,3.39,3.39,0,0,1,.92,2.54A1.42,1.42,0,0,1,55.46,246.14Zm-3.35-3.37a3.28,3.28,0,0,0-3.38,3.06l6.38,0a3.1,3.1,0,0,0-.85-2.24A3,3,0,0,0,52.11,242.77Z"/><path class="cls-1" d="M64.24,242.66h.36V254h-.36v-6a3.61,3.61,0,0,1-1.31,1.61,3.47,3.47,0,0,1-2,.59,3.39,3.39,0,0,1-2.59-1.11,4.21,4.21,0,0,1,0-5.54A3.39,3.39,0,0,1,61,242.44a3.47,3.47,0,0,1,2,.59,3.66,3.66,0,0,1,1.31,1.61ZM61,249.87a3,3,0,0,0,2.33-1,3.86,3.86,0,0,0,0-5.07,3.22,3.22,0,0,0-4.68,0,3.9,3.9,0,0,0,0,5.08A3.09,3.09,0,0,0,61,249.87Z"/><path class="cls-1" d="M73.75,246.69v-4h.36v4a3.65,3.65,0,0,1-.87,2.59,3.47,3.47,0,0,1-4.73,0,3.65,3.65,0,0,1-.87-2.59v-4H68v4a3.38,3.38,0,0,0,.77,2.33,2.74,2.74,0,0,0,2.11.85A2.7,2.7,0,0,0,73,249,3.38,3.38,0,0,0,73.75,246.69Z"/><path class="cls-1" d="M77.77,240a.36.36,0,0,1-.4-.41c0-.25.13-.38.4-.38s.4.13.4.38A.36.36,0,0,1,77.77,240Zm-.18,10v-7.32H78V250Z"/><path class="cls-1" d="M87.59,237.18H88V250h-.37v-2a3.54,3.54,0,0,1-1.31,1.61,3.47,3.47,0,0,1-2,.59,3.39,3.39,0,0,1-2.59-1.11,4.24,4.24,0,0,1,0-5.54,3.39,3.39,0,0,1,2.59-1.11,3.47,3.47,0,0,1,2,.59,3.6,3.6,0,0,1,1.31,1.61Zm-3.27,12.69a3.09,3.09,0,0,0,2.35-1,3.89,3.89,0,0,0,0-5.07,3.2,3.2,0,0,0-4.68,0,3.87,3.87,0,0,0,0,5.08A3.05,3.05,0,0,0,84.32,249.87Z"/><path class="cls-1" d="M97.32,242.66h.36V250h-.36v-2A3.54,3.54,0,0,1,96,249.61a3.47,3.47,0,0,1-2,.59,3.39,3.39,0,0,1-2.59-1.11,4.24,4.24,0,0,1,0-5.54A3.39,3.39,0,0,1,94,242.44a3.47,3.47,0,0,1,2,.59,3.6,3.6,0,0,1,1.31,1.61Zm-3.27,7.21a3.07,3.07,0,0,0,2.34-1,3.86,3.86,0,0,0,0-5.07,3,3,0,0,0-2.33-1,3.09,3.09,0,0,0-2.35,1,3.9,3.9,0,0,0,0,5.08A3.09,3.09,0,0,0,94.05,249.87Z"/><path class="cls-1" d="M106.88,237.18h.37V250h-.37v-2a3.59,3.59,0,0,1-1.3,1.61,3.48,3.48,0,0,1-2,.59,3.4,3.4,0,0,1-2.59-1.11,4.24,4.24,0,0,1,0-5.54,3.4,3.4,0,0,1,2.59-1.11,3.48,3.48,0,0,1,2,.59,3.64,3.64,0,0,1,1.3,1.61Zm-3.27,12.69a3.09,3.09,0,0,0,2.35-1,3.89,3.89,0,0,0,0-5.07,3.06,3.06,0,0,0-2.33-1,3.09,3.09,0,0,0-2.35,1,3.9,3.9,0,0,0,0,5.08A3.07,3.07,0,0,0,103.61,249.87Z"/><path class="cls-1" d="M121.48,246.14h-6.75v.13a3.57,3.57,0,0,0,1,2.57,3.41,3.41,0,0,0,2.61,1,3.74,3.74,0,0,0,2.83-1.12l.24.26a4.23,4.23,0,0,1-3.11,1.19,3.72,3.72,0,0,1-3.9-3.88,3.87,3.87,0,0,1,1-2.79,3.65,3.65,0,0,1,2.72-1.09,3.35,3.35,0,0,1,2.45.9,3.39,3.39,0,0,1,.92,2.54A1.42,1.42,0,0,1,121.48,246.14Zm-3.35-3.37a3.34,3.34,0,0,0-2.29.83,3.29,3.29,0,0,0-1.09,2.23l6.38,0a3.1,3.1,0,0,0-.85-2.24A3,3,0,0,0,118.13,242.77Z"/><path class="cls-1" d="M124.29,246v4h-.36v-4a3.65,3.65,0,0,1,.9-2.58,3.18,3.18,0,0,1,2.41-1,3.09,3.09,0,0,1,2.37,1,3.65,3.65,0,0,1,.9,2.58v4h-.37v-4a3.27,3.27,0,0,0-.8-2.32,2.71,2.71,0,0,0-2.1-.88,2.74,2.74,0,0,0-2.14.88A3.28,3.28,0,0,0,124.29,246Z"/><path class="cls-1" d="M144.59,246.14h-6.75v.13a3.57,3.57,0,0,0,1,2.57,3.41,3.41,0,0,0,2.61,1,3.76,3.76,0,0,0,2.84-1.12l.23.26a4.21,4.21,0,0,1-3.11,1.19,3.8,3.8,0,0,1-2.8-1.08,3.75,3.75,0,0,1-1.09-2.8,3.87,3.87,0,0,1,1.05-2.79,3.64,3.64,0,0,1,2.72-1.09,3.35,3.35,0,0,1,2.45.9,3.39,3.39,0,0,1,.91,2.54A1.42,1.42,0,0,1,144.59,246.14Zm-3.34-3.37a3.37,3.37,0,0,0-2.3.83,3.33,3.33,0,0,0-1.09,2.23l6.39,0a3.11,3.11,0,0,0-.86-2.24A2.92,2.92,0,0,0,141.25,242.77Z"/><path class="cls-1" d="M147.21,250v-12.8h.36V250Z"/><path class="cls-1" d="M163.72,242.42a2.48,2.48,0,0,1,2,.85,3.44,3.44,0,0,1,.73,2.34V250h-.37v-4.37a3.16,3.16,0,0,0-.63-2.09,2.16,2.16,0,0,0-1.75-.75,2.37,2.37,0,0,0-1.85.82,2.85,2.85,0,0,0-.74,2V250h-.37v-4.37a3,3,0,0,0-.69-2,2.24,2.24,0,0,0-1.8-.82,2.28,2.28,0,0,0-1.78.8,3,3,0,0,0-.7,2V250h-.37v-4.37a3.25,3.25,0,0,1,.82-2.29,2.6,2.6,0,0,1,2-.9,2.75,2.75,0,0,1,1.7.58,2.78,2.78,0,0,1,1,1.6A2.71,2.71,0,0,1,162,243,3,3,0,0,1,163.72,242.42Z"/><path class="cls-1" d="M175.41,246.69v-4h.36v4a3.65,3.65,0,0,1-.87,2.59,3.47,3.47,0,0,1-4.73,0,3.65,3.65,0,0,1-.87-2.59v-4h.36v4a3.38,3.38,0,0,0,.77,2.33,3,3,0,0,0,4.21,0A3.38,3.38,0,0,0,175.41,246.69Z"/><path class="cls-1" d="M179,246v4h-.37v-4a3.61,3.61,0,0,1,.91-2.58,3.43,3.43,0,0,1,4.78,0,3.65,3.65,0,0,1,.9,2.58v4h-.37v-4a3.32,3.32,0,0,0-.8-2.32,2.72,2.72,0,0,0-2.11-.88,2.75,2.75,0,0,0-2.14.88A3.32,3.32,0,0,0,179,246Z"/><path class="cls-1" d="M194.44,237.18h.37V250h-.37v-2a3.59,3.59,0,0,1-1.3,1.61,3.48,3.48,0,0,1-2,.59,3.4,3.4,0,0,1-2.59-1.11,4.24,4.24,0,0,1,0-5.54,3.4,3.4,0,0,1,2.59-1.11,3.48,3.48,0,0,1,2,.59,3.64,3.64,0,0,1,1.3,1.61Zm-3.27,12.69a3.09,3.09,0,0,0,2.35-1,3.89,3.89,0,0,0,0-5.07,3.06,3.06,0,0,0-2.33-1,3.09,3.09,0,0,0-2.35,1,3.9,3.9,0,0,0,0,5.08A3.07,3.07,0,0,0,191.17,249.87Z"/><path class="cls-1" d="M201.05,250.2a3.67,3.67,0,0,1-2.72-1.09,4.17,4.17,0,0,1,0-5.58,3.94,3.94,0,0,1,5.44,0,4.2,4.2,0,0,1,0,5.58A3.65,3.65,0,0,1,201.05,250.2Zm-2.45-1.34a3.48,3.48,0,0,0,4.9,0,3.56,3.56,0,0,0,1-2.56,3.49,3.49,0,0,0-1-2.54,3.53,3.53,0,0,0-4.9,0,3.45,3.45,0,0,0-1,2.54A3.52,3.52,0,0,0,198.6,248.86Z"/><path class="cls-2" d="M132.07,105.09l-5.26-5.25-5.26,5.25c1.76,1.6,3.51,3.08,5.26,4.47C128.56,108.17,130.32,106.69,132.07,105.09Z"/><path class="cls-2" d="M111.26,86.36c-.87,1-1.74,2-2.62,3.06l-.85,1,.41.5c1,1.16,1.92,2.27,2.88,3.37l4.21-4.22c-1.25-1.29-2.52-2.64-3.79-4l-.24.27Z"/><path class="cls-2" d="M114.53,98.15c1.1,1.17,2.2,2.31,3.29,3.4l9-9h0l9,9c1.1-1.09,2.2-2.23,3.3-3.4L126.81,85.86Z"/><path class="cls-2" d="M97.33,85.69c0,.06-.11.11-.16.16-.61.59-1.22,1.17-1.84,1.73-.19.18-.38.36-.58.53s-.58.52-.88.77l-1.24,1-.75.58c-.33.25-.66.5-1,.73l-.66.48c-.5.34-1,.68-1.51,1l-.54.32c-.43.26-.87.5-1.3.73l-.45.24c-.56.28-1.11.53-1.68.76-.15.07-.3.12-.46.18-.52.21-1.05.39-1.58.55l-.24.08c-.59.17-1.19.3-1.79.41l-.44.07a14.3,14.3,0,0,1-1.86.2c-5,.23-9.8-1.93-14.27-6.4-.53-.53-1-1.09-1.49-1.66-.16-.19-.3-.39-.45-.58-.3-.39-.59-.79-.86-1.19-.16-.24-.32-.48-.47-.72-.24-.39-.45-.78-.67-1.17l-.09-.17a26.77,26.77,0,0,0-1.4,7c.19.27.36.56.56.83l4.06,4.07h0c5.18,4.33,10.68,6.39,16.36,6.16,7.68-.34,15.56-4.89,22.2-12.81l.06-.08c.46-.57.93-1.13,1.39-1.69-1.23-1.44-2.51-2.9-3.81-4.32C98.79,84.24,98.06,85,97.33,85.69Z"/><path class="cls-2" d="M158.07,128.58l10.65-10.68a37.8,37.8,0,0,1-20.39-10.52L143,102.06l-2.71-2.71a113.12,113.12,0,0,1-13.49,12.39h0a113.12,113.12,0,0,1-13.49-12.39l-1.44,1.45h0l-6.59,6.58q-1.29,1.29-2.67,2.43c-.5.41-1,.77-1.54,1.15s-.85.67-1.29,1c-.75.51-1.53,1-2.32,1.42-.21.13-.42.27-.64.39-1,.54-2,1-3,1.47l-.09,0a37.62,37.62,0,0,1-8.86,2.65l10.65,10.68A44.14,44.14,0,0,0,158.07,128.58Z"/><path class="cls-2" d="M152.6,104.38a31.1,31.1,0,0,0,20.52,9.1l6.34-6.35c-.41.07-.83.11-1.24.16s-1,.15-1.46.19a27.63,27.63,0,0,1-3,0c-.56,0-1.13-.07-1.69-.13l-.63-.09c-.35,0-.71-.09-1.06-.15s-.58-.12-.87-.18-.54-.1-.81-.17l-1-.27-.64-.17c-.37-.11-.75-.24-1.13-.37l-.53-.18c-.41-.15-.81-.31-1.22-.48l-.42-.17c-.44-.19-.88-.39-1.31-.6l-.32-.15c-.47-.22-.93-.47-1.39-.72l-.22-.12c-.49-.27-1-.55-1.45-.85l-.15-.09c-.49-.3-1-.63-1.48-1l-.09-.07c-.51-.35-1-.71-1.51-1.09l0,0c-.51-.39-1-.8-1.52-1.21h0a50.87,50.87,0,0,1-5.87-5.8h0l-.55-.62c-.28-.35-.56-.69-.85-1l-.2.24c-1,1.2-2,2.36-3,3.49l1.69,1.7Z"/><path class="cls-2" d="M109.4,69.44h0l.46-.53L101,60.07A31.14,31.14,0,0,0,80.5,51l-.07.08a1.63,1.63,0,0,0-.19-.09c-.46,0-.91-.06-1.37-.06A31.24,31.24,0,0,0,48.65,90.39c.14.55.31,1.1.49,1.64,0,.13.08.26.13.39.1.3.22.59.33.89.31.82.65,1.63,1,2.43-2.31-10.52-.72-21.61,6.56-28.89,6.94-6.94,14.57-10.25,22.69-9.92,9.14.4,18.34,5.61,26,14.69.28.35.57.68.85,1l.2-.25C107.72,71.39,108.56,70.4,109.4,69.44Z"/><path class="cls-2" d="M118.05,78.91h0c-1,1-2,2.1-3,3.2h0l-.11.12c1.34,1.46,2.67,2.89,4,4.25l4.25-4.25L118.93,78Z"/><path class="cls-2" d="M78.31,69.93c-4.57-.22-8.81,1.73-13,5.9a21.9,21.9,0,0,0-4.39,6.4c.13.29.27.58.41.87l.41.76c.19.35.4.69.61,1l.43.68c.25.36.52.71.79,1.06.14.17.26.35.41.52.42.51.86,1,1.33,1.48,4.18,4.17,8.42,6.12,13,5.9a14.69,14.69,0,0,0,1.74-.19l.38-.06c.56-.11,1.12-.24,1.68-.4l.28-.09c.5-.16,1-.34,1.5-.53l.33-.14c.55-.23,1.09-.48,1.63-.76.13-.06.26-.14.39-.21.49-.26,1-.53,1.45-.82l.24-.14c.52-.33,1-.68,1.55-1.05L90,89.8c.5-.36,1-.74,1.49-1.13l.37-.31c.4-.32.8-.66,1.19-1l.53-.45,1.36-1.24.57-.55c.32-.31.64-.62,1-.94l.56-.55,1.35-1.4C92.23,75.77,85.42,70.25,78.31,69.93Z"/><path class="cls-2" d="M104.42,86.47l.29-.36c1.11-1.32,2.22-2.62,3.33-3.88-1.21-1.38-2.41-2.8-3.62-4.24-1.21,1.41-2.47,2.84-3.75,4.24C102,83.63,103.2,85.05,104.42,86.47Z"/><path class="cls-2" d="M59.49,78.16c.1.38.2.76.31,1.13s.18.54.27.8a23.31,23.31,0,0,1,4-5.47c4.47-4.47,9.22-6.63,14.27-6.4,7.67.34,14.8,6.07,21.12,12.75l1-1.15c.95-1.06,1.87-2.12,2.77-3.18-.48-.59-1-1.16-1.45-1.76C95.22,67,87.34,62.4,79.66,62.06,74,61.83,68.47,63.9,63.3,68.23l-4,4c-.21.27-.42.56-.62.85a28.05,28.05,0,0,0,.6,4.18C59.33,77.58,59.42,77.86,59.49,78.16Z"/><path class="cls-2" d="M111.08,70.13c-.33.37-.66.77-1,1.15h0c-.63.73-1.26,1.46-1.89,2.22l-.41.49c1.24,1.5,2.47,3,3.71,4.38,1.27-1.38,2.54-2.73,3.79-4Z"/><path class="cls-2" d="M121.55,59.36l5.26,5.19,5.26-5.19c-1.75-1.6-3.51-3.08-5.26-4.46C125.06,56.28,123.31,57.76,121.55,59.36Z"/><path class="cls-2" d="M95.55,35.88,85.14,46.32a36.29,36.29,0,0,1,19.52,10.12l8.66,8.66q3.39-3.61,6.77-6.72l.6-.54c.81-.73,1.61-1.43,2.41-2.11l.74-.63c1-.83,2-1.63,3-2.39h0c1,.78,2,1.6,3,2.45l.71.6c.87.74,1.74,1.5,2.6,2.29l.44.4q3.35,3.07,6.7,6.65L149,56.44a36.32,36.32,0,0,1,19.53-10.12L158.07,35.88A44.14,44.14,0,0,0,95.55,35.88Z"/><path class="cls-2" d="M95.6,28.73,78.52,45.79a37.39,37.39,0,0,1,4.48.26l12.55-12.6a44.14,44.14,0,0,1,62.52,0l12.56,12.6a36.94,36.94,0,0,1,4.46-.26L158,28.71A44.15,44.15,0,0,0,95.6,28.73Z"/><path class="cls-2" d="M138.39,65.58c-.86-.91-1.73-1.82-2.59-2.68l-9,9h0l-9-9c-.83.84-1.67,1.72-2.51,2.6l-.78.81,12.28,12.28L139.1,66.31c-.24-.26-.47-.49-.71-.73Z"/><path class="cls-2" d="M175.32,69.93c-7.12.32-13.93,5.84-20,12.3a1.85,1.85,0,0,1,.14.14l1,1L157,84c.4.4.8.78,1.2,1.17l.4.39c.53.5,1.06,1,1.6,1.46l.43.37,1.21,1,.59.46q.56.43,1.11.84l.6.43c.41.29.82.56,1.23.82.16.11.32.22.48.31.57.36,1.14.69,1.72,1l.29.14c.48.24,1,.47,1.45.67a5.83,5.83,0,0,0,.58.23c.4.16.8.3,1.2.43l.62.19c.41.11.83.21,1.24.29l.56.11a13.77,13.77,0,0,0,1.8.2c4.56.22,8.81-1.73,13-5.9h0a21.17,21.17,0,0,0,1.61-1.82l.27-.37c.41-.54.81-1.11,1.17-1.69a22.36,22.36,0,0,0,1.35-2.51,22.13,22.13,0,0,0-4.4-6.4C184.13,71.66,179.88,69.71,175.32,69.93Z"/><path class="cls-2" d="M95.6,21.2,69.85,46.94a37.33,37.33,0,0,1,6.1-1L95.62,26.29a44.16,44.16,0,0,1,62.38,0l19.67,19.64a37.15,37.15,0,0,1,6.1,1L158,21.2A44.13,44.13,0,0,0,95.6,21.2Z"/><path class="cls-2" d="M106.68,91.81c-.26.32-.52.62-.78,1a.27.27,0,0,0-.07.08c-7.61,9.08-16.81,14.28-25.95,14.69a26.51,26.51,0,0,1-5.71-.4l6.33,6.35a31.14,31.14,0,0,0,20.53-9.1l8.83-8.84q-1.48-1.7-3-3.49Z"/><path class="cls-2" d="M151.41,89.15l.3.36,0,.07c6.64,7.92,14.53,12.47,22.21,12.81,5.67.23,11.18-1.83,16.35-6.16h0l4-4,0,0c.21-.27.39-.56.59-.84a26.84,26.84,0,0,0-1.41-7,23.08,23.08,0,0,1-4,5.49l0,0c-4.47,4.47-9.22,6.63-14.27,6.4a15.27,15.27,0,0,1-1.91-.2c-.2,0-.39-.08-.59-.12q-.66-.12-1.32-.3l-.65-.19c-.44-.13-.87-.28-1.3-.45l-.57-.21c-.61-.26-1.21-.53-1.81-.83l-.19-.1c-.54-.28-1.07-.58-1.6-.9l-.64-.4q-.57-.36-1.14-.75l-.69-.48-1.11-.82-.64-.5c-.49-.39-1-.8-1.46-1.21l-.74-.65-1-1-.8-.76-.8-.78c-.29-.28-.58-.57-.86-.86l-.68-.69-.57-.59c-1.3,1.42-2.58,2.88-3.81,4.32l1.1,1.34Z"/><path class="cls-2" d="M158,138.17a44.16,44.16,0,0,1-62.38,0L75.78,118.36a37.66,37.66,0,0,1-5.27-.79l-.13,0h0c-.21-.05-.42-.07-.62-.12L95.6,143.26a44.13,44.13,0,0,0,62.42,0l25.85-25.84a37.26,37.26,0,0,1-6,.94Z"/><path class="cls-2" d="M64.8,110.19a31.64,31.64,0,0,0,3.7,1.58h0c.36.13.71.27,1.07.38l-9.78-9.76a38.94,38.94,0,0,0,2.2,6.22,31.84,31.84,0,0,0,2.84,1.61Z"/><path class="cls-2" d="M56.69,97.05l-.56-.64a42,42,0,0,0,1.74,5.14c-.29-1.3-.51-2.62-.67-3.93h0C57,97.43,56.86,97.24,56.69,97.05Z"/><path class="cls-2" d="M196.42,97.62c-.16,1.31-.38,2.63-.67,3.93a40.92,40.92,0,0,0,1.73-5.07c-.34.38-.68.76-1,1.13Z"/><path class="cls-2" d="M143.24,87.37l-.91-1-.21-.24c-1.27,1.38-2.53,2.73-3.79,4l4.22,4.22c.95-1.1,1.91-2.21,2.87-3.37l.42-.5-.83-1Z"/><path class="cls-2" d="M196.37,88.9a20.31,20.31,0,0,0,1-2.3.08.08,0,0,1,0,0,25.31,25.31,0,0,0,1.11-4.38,23.37,23.37,0,0,0-2.11-6.79,27.09,27.09,0,0,1-1.8,6.73A27.21,27.21,0,0,1,196.37,88.9Z"/><path class="cls-2" d="M188.93,110.16c.92-.47,1.82-1,2.7-1.55a40,40,0,0,0,2.21-6.22l-9.72,9.7a32.14,32.14,0,0,0,4.83-2Z"/><path class="cls-2" d="M185.28,105.39c-.87.37-1.75.7-2.64,1h0l-7.13,7.15c.69,0,1.38,0,2.07-.1a27.08,27.08,0,0,0,3.25-.48l12.82-12.78a33.09,33.09,0,0,1-8.13,5.14Z"/><path class="cls-2" d="M134.7,78l-4.25,4.25,4.25,4.25c1.32-1.36,2.65-2.79,4-4.25q-1.55-1.68-3.07-3.29Z"/><path class="cls-2" d="M174.75,50.9a31.14,31.14,0,0,0-22.15,9.17l-8.84,8.84c1,1.14,2,2.29,3,3.49l.2.25c.29-.35.57-.68.85-1,7.61-9.08,16.81-14.29,26-14.69,8.12-.33,15.75,3,22.69,9.92,7.27,7.26,8.86,18.33,6.58,28.83l.15-.31A31.3,31.3,0,0,0,174.75,50.9Z"/><path class="cls-2" d="M153,82.23c-.63-.68-1.24-1.36-1.84-2l-.05-.05h0c-.63-.71-1.25-1.43-1.87-2.14-1.2,1.44-2.41,2.86-3.62,4.24,1.21,1.37,2.42,2.79,3.62,4.24C150.42,85.05,151.67,83.63,153,82.23Z"/><path class="cls-2" d="M153.83,80.65c.1.11.2.21.29.32,6.33-6.68,13.45-12.41,21.12-12.75,5-.23,9.8,1.93,14.27,6.4a23.16,23.16,0,0,1,4,5.48,26.76,26.76,0,0,0,1.4-7c-.2-.29-.4-.58-.62-.85l-4-4c-5.17-4.33-10.68-6.4-16.35-6.17-7.68.34-15.57,4.89-22.21,12.82-.48.6-1,1.17-1.45,1.76q1.47,1.73,3,3.44Z"/><path class="cls-2" d="M75.79,113.4c.77.07,1.55.1,2.33.12L71,106.37a31.81,31.81,0,0,1-11-6.21L72.81,113a30.11,30.11,0,0,0,3,.44Z"/><path class="cls-2" d="M142.55,70.13l-4.22,4.21c1.26,1.3,2.52,2.65,3.79,4Q144,76.24,145.84,74l-.42-.49Q144,71.76,142.55,70.13Z"/><path class="cls-2" d="M172.08,118.32h0c-.42,0-.84,0-1.26-.1L158.07,131a44.14,44.14,0,0,1-62.52,0L82.8,118.22a37.73,37.73,0,0,1-4.51.22L95.6,135.72a44.14,44.14,0,0,0,62.36,0l17.35-17.3c-1.08,0-2.15,0-3.22-.12Z"/><path class="cls-2" d="M56.91,88.21c.07.17.17.33.25.5l.1.18a26.73,26.73,0,0,1,1.81-6.68c0-.07-.07-.15-.1-.23-.16-.39-.3-.8-.44-1.2-.08-.25-.17-.5-.25-.75-.14-.44-.26-.89-.38-1.34l-.15-.61c-.11-.49-.22-1-.31-1.48h0c-.07-.37-.12-.74-.17-1.12a23.23,23.23,0,0,0-2.09,6.68,24.78,24.78,0,0,0,1,4.08C56.38,86.91,56.63,87.57,56.91,88.21Z"/><path class="cls-3" d="M95.62,26.29,76,45.93c.85-.07,1.71-.13,2.57-.14L95.6,28.73a44.15,44.15,0,0,1,62.36,0l17.13,17.08c.86,0,1.72.07,2.58.14L158,26.29A44.16,44.16,0,0,0,95.62,26.29Z"/><path class="cls-3" d="M95.55,33.45,83,46.05c.71.08,1.43.15,2.14.27L95.55,35.88a44.14,44.14,0,0,1,62.52,0l10.42,10.44c.71-.12,1.42-.19,2.14-.27l-12.56-12.6A44.14,44.14,0,0,0,95.55,33.45Z"/><path class="cls-3" d="M80.5,51h-.26a1.63,1.63,0,0,1,.19.09Z"/><path class="cls-3" d="M175.5,113.52l-4.68,4.7c.42,0,.84.07,1.26.1h0c1.07.09,2.14.13,3.22.12l0,0c.85,0,1.71,0,2.56-.12l-.06.06a37.26,37.26,0,0,0,6-.94l4.46-4.46a31.63,31.63,0,0,0,2.92-3.45c.14-.3.25-.6.38-.9-.88.56-1.78,1.08-2.7,1.55l0,0a32.14,32.14,0,0,1-4.83,2,30.7,30.7,0,0,1-3.3.85,27.08,27.08,0,0,1-3.25.48C176.88,113.48,176.19,113.51,175.5,113.52Z"/><path class="cls-3" d="M47.41,63.88A36.45,36.45,0,0,0,53.1,108C41.62,95.91,39.4,77.79,47.41,63.88Z"/><path class="cls-3" d="M133.6,58.45l-.44-.4c-.86-.79-1.73-1.55-2.6-2.29l-.71-.6c-1-.85-2-1.67-3-2.45h0c-1,.76-2,1.56-3,2.39l-.74.63c-.8.68-1.6,1.38-2.41,2.11l-.6.54q-3.37,3.1-6.77,6.72l1.21,1.21.78-.81c.84-.88,1.68-1.76,2.51-2.6l9,9h0l9-9c.86.86,1.73,1.77,2.59,2.68h0c.24.24.47.47.71.73l1.2-1.21Q137,61.53,133.6,58.45Zm-6.79,6.1-5.26-5.19c1.76-1.6,3.51-3.08,5.26-4.46,1.75,1.38,3.51,2.86,5.26,4.46Z"/><path class="cls-3" d="M60.83,70.48a18.42,18.42,0,0,0-1.54,1.77l4-4C62.47,68.92,61.64,69.67,60.83,70.48Z"/><path class="cls-3" d="M95.6,21.2a44.13,44.13,0,0,1,62.42,0l25.75,25.74a36.25,36.25,0,0,1,17.22,10c-.16-.16-.29-.34-.45-.5L192,47.87h0L158,13.93a44.13,44.13,0,0,0-62.42,0L61.66,47.86h0l-8.57,8.57c-.16.16-.3.34-.45.5a36.22,36.22,0,0,1,17.21-10Z"/><path class="cls-3" d="M143.76,68.91,130.44,82.23h0L134.7,78l.91,1q1.53,1.61,3.07,3.29,1.71,1.88,3.44,3.86l.21.24.91,1L145,89.46l.83,1,.07-.09,3.29-3.9c-1.2-1.45-2.41-2.87-3.62-4.24v0c-1.16-1.32-2.31-2.6-3.47-3.86l0,0c-1.27-1.38-2.53-2.73-3.79-4l4.22-4.21q1.42,1.64,2.87,3.37l.42.49c.37-.44.73-.89,1.1-1.34l-.2-.25C145.75,71.2,144.75,70.05,143.76,68.91Z"/><path class="cls-3" d="M192.8,70.48c-.82-.81-1.64-1.56-2.48-2.25l4,4A18.31,18.31,0,0,0,192.8,70.48Z"/><path class="cls-3" d="M197.34,86.6A20.48,20.48,0,0,1,195,91.33c-.2.28-.38.57-.59.84l0,0h0A20.07,20.07,0,0,1,192.8,94c-.82.81-1.64,1.55-2.48,2.25h0c-5.17,4.33-10.68,6.39-16.35,6.16-7.68-.34-15.57-4.89-22.21-12.81l0-.07-.3-.36h0l-1.1-1.34c-1.06,1.24-2.09,2.47-3.08,3.66l-.29.34c.29.34.57.68.85,1l.55.62h0a50.87,50.87,0,0,0,5.87,5.8h0c.51.41,1,.82,1.52,1.21l0,0c.5.38,1,.74,1.51,1.09l.09.07c.49.33,1,.66,1.48,1l.15.09c.48.3,1,.58,1.45.85l.22.12c.46.25.92.5,1.39.72l.32.15c.43.21.87.41,1.31.6l.42.17c.41.17.81.33,1.22.48l.53.18c.38.13.76.26,1.13.37l.64.17,1,.27c.27.07.54.12.81.17s.58.13.87.18.71.1,1.06.15l.63.09c.56.06,1.13.1,1.69.13a27.63,27.63,0,0,0,3,0c.49,0,1-.13,1.46-.19s.83-.09,1.24-.16a25.61,25.61,0,0,0,3.17-.76h0c.89-.28,1.77-.61,2.64-1l.23-.09a33.09,33.09,0,0,0,8.13-5.14h0c.93-.78,1.85-1.61,2.75-2.51a2.64,2.64,0,0,1,.11-.86c0,.28-.05.55-.08.83h0c.37-.37.71-.75,1-1.13a34.72,34.72,0,0,0,1-14.22,25.31,25.31,0,0,1-1.11,4.38A.08.08,0,0,0,197.34,86.6Z"/><path class="cls-3" d="M194.55,82.2a27.09,27.09,0,0,0,1.8-6.73A19.41,19.41,0,0,0,195,73.1a26.76,26.76,0,0,1-1.4,7A22.45,22.45,0,0,1,194.55,82.2Z"/><path class="cls-3" d="M206.22,63.88c8,13.91,5.78,32-5.7,44.08A36.45,36.45,0,0,0,206.22,63.88Z"/><path class="cls-3" d="M203,95.74c.05-.12.1-.25.16-.37l-.15.31A.13.13,0,0,0,203,95.74Z"/><path class="cls-3" d="M82.76,118.17c.71-.08,1.42-.17,2.12-.29l0,0a37.62,37.62,0,0,0,8.86-2.65l.09,0c1-.44,2-.93,3-1.47.22-.12.43-.26.64-.39.79-.45,1.57-.91,2.32-1.42.44-.3.86-.65,1.29-1s1-.74,1.54-1.15q1.38-1.14,2.67-2.43l6.59-6.58h0l1.44-1.45q-1.72-1.83-3.46-3.81L101,104.38a31.14,31.14,0,0,1-20.53,9.1h0c-.54,0-1.08.08-1.63.08-.25,0-.5,0-.75,0-.78,0-1.56,0-2.33-.12h0a30.11,30.11,0,0,1-3-.44l5.48,5.47a37.73,37.73,0,0,0,4.51-.22Z"/><path class="cls-1" d="M60.83,94c.81.81,1.64,1.55,2.47,2.25l-4.06-4.07A18,18,0,0,0,60.83,94Z"/><path class="cls-1" d="M71,106.37l7.13,7.15c.25,0,.5,0,.75,0,.55,0,1.09,0,1.63-.08h0l-6.33-6.35A27.21,27.21,0,0,1,71,106.37Z"/><path class="cls-1" d="M107.79,90.46h0c-.37.45-.74.89-1.11,1.35h0l.2.24q1.5,1.8,3,3.49,1.74,2,3.46,3.81a113.12,113.12,0,0,0,13.49,12.39h0A113.12,113.12,0,0,0,140.3,99.35l-1.2-1.2c-1.1,1.17-2.2,2.31-3.3,3.4l-9-9h0l-9,9c-1.09-1.09-2.19-2.23-3.29-3.4h0a48.12,48.12,0,0,1-3.44-3.82c-1-1.1-1.92-2.21-2.88-3.37Zm19,9.38,5.26,5.25c-1.75,1.6-3.51,3.08-5.26,4.47-1.75-1.39-3.5-2.87-5.26-4.47Z"/><path class="cls-1" d="M168.72,117.9l-10.65,10.68a44.14,44.14,0,0,1-62.52,0L84.9,117.9l0,0c-.7.12-1.41.21-2.12.29l0,0L95.55,131a44.14,44.14,0,0,0,62.52,0l12.75-12.78,4.68-4.7,7.13-7.15a25.61,25.61,0,0,1-3.17.76l-6.34,6.35Z"/><path class="cls-1" d="M192.8,94a20.07,20.07,0,0,0,1.55-1.79h0l-4,4C191.16,95.53,192,94.79,192.8,94Z"/><polygon class="cls-1" points="190.32 96.23 190.32 96.23 190.32 96.23 190.32 96.23 190.32 96.23"/><path class="cls-1" d="M60.08,84.34c-.37-.7-.71-1.4-1-2.13a26.73,26.73,0,0,0-1.81,6.68,19.15,19.15,0,0,0,1.42,2.44,26.77,26.77,0,0,1,1.4-7Z"/><path class="cls-1" d="M196.37,88.9a27.21,27.21,0,0,0-1.82-6.7,22.45,22.45,0,0,0-1-2.1,23.16,23.16,0,0,0-4-5.48c-4.47-4.47-9.22-6.63-14.27-6.4-7.67.34-14.79,6.07-21.12,12.75h0l1.17,1.26c6.1-6.46,12.91-12,20-12.3,4.56-.22,8.81,1.73,13,5.9a22.13,22.13,0,0,1,4.4,6.4c.31.68.59,1.37.84,2.09a26.84,26.84,0,0,1,1.41,7A20.29,20.29,0,0,0,196.37,88.9Z"/><path class="cls-1" d="M99.5,81c-6.32-6.68-13.45-12.41-21.12-12.75-5-.23-9.8,1.93-14.27,6.4a23.31,23.31,0,0,0-4,5.47c.26.74.54,1.45.85,2.15h0a21.9,21.9,0,0,1,4.39-6.4c4.18-4.17,8.42-6.12,13-5.9,7.11.32,13.92,5.84,20,12.3.39.41.78.84,1.17,1.26,1.3,1.42,2.58,2.88,3.81,4.32l1.11-1.34c-1.22-1.42-2.47-2.84-3.75-4.24C100.28,81.81,99.89,81.38,99.5,81Z"/><path class="cls-1" d="M206.22,63.88c-.19-.32-.36-.64-.56-1-.36-.58-.76-1.15-1.15-1.71s-.68-1-1-1.44-.73-.89-1.11-1.33-.54-.67-.83-1-.36-.34-.53-.52a36.25,36.25,0,0,0-17.22-10,37.15,37.15,0,0,0-6.1-1c-.86-.07-1.72-.13-2.58-.14a36.94,36.94,0,0,0-4.46.26c-.72.08-1.43.15-2.14.27A36.32,36.32,0,0,0,149,56.44L140.3,65.1l-1.2,1.21L126.81,78.59,114.53,66.31l-1.21-1.21-8.66-8.66A36.29,36.29,0,0,0,85.14,46.32c-.71-.12-1.43-.19-2.14-.27a37.39,37.39,0,0,0-4.48-.26c-.86,0-1.72.07-2.57.14a37.33,37.33,0,0,0-6.1,1,36.22,36.22,0,0,0-17.21,10c-.18.18-.36.33-.53.52s-.55.66-.83,1-.76.88-1.12,1.33-.71.95-1,1.44-.79,1.13-1.15,1.71c-.19.31-.37.63-.55,1-8,13.91-5.79,32,5.69,44.08.21.23.4.47.62.69l7.94,7.94h0L95.6,150.53a44.14,44.14,0,0,0,62.42,0L192,116.59h0l7.94-7.94c.22-.22.41-.46.62-.69C212,95.91,214.22,77.79,206.22,63.88Zm-3.06,31.49c-.06.12-.11.25-.16.37a.13.13,0,0,1,0-.06c2.28-10.5.69-21.57-6.58-28.83-6.94-6.94-14.57-10.25-22.69-9.92-9.14.4-18.34,5.61-26,14.69-.28.35-.56.68-.85,1s-.73.9-1.1,1.34q-1.86,2.25-3.72,4.38l0,0c1.16,1.26,2.31,2.54,3.47,3.86v0c1.21-1.38,2.42-2.8,3.62-4.24l1.11-1.35c.48-.59,1-1.16,1.45-1.76C158.4,67,166.29,62.4,174,62.06c5.67-.23,11.18,1.84,16.35,6.17.84.69,1.66,1.44,2.48,2.25a18.31,18.31,0,0,1,1.53,1.77c.22.27.42.56.62.85a19.41,19.41,0,0,1,1.4,2.37,23.37,23.37,0,0,1,2.11,6.79,34.72,34.72,0,0,1-1,14.22,40.92,40.92,0,0,1-1.73,5.07c.29-1.3.51-2.62.67-3.93,0-.28.06-.55.08-.83a2.64,2.64,0,0,0-.11.86c-.9.9-1.82,1.73-2.75,2.51h0l-12.82,12.78a30.7,30.7,0,0,0,3.3-.85l9.72-9.7a40,40,0,0,1-2.21,6.22c-.13.3-.24.6-.38.9a31.63,31.63,0,0,1-2.92,3.45l-4.46,4.46L158,143.26a44.13,44.13,0,0,1-62.42,0L69.76,117.42,65.3,113a31.71,31.71,0,0,1-2.93-3.45c-.14-.3-.24-.6-.38-.9a38.94,38.94,0,0,1-2.2-6.22l9.78,9.76,6.21,6.21,19.84,19.81a44.16,44.16,0,0,0,62.38,0l19.84-19.81.06-.06c-.85.07-1.71.11-2.56.12l0,0L158,135.74a44.14,44.14,0,0,1-62.36,0L78.29,118.44,72.81,113,60,100.16c-.94-.79-1.86-1.63-2.78-2.54.16,1.31.38,2.63.67,3.93a42,42,0,0,1-1.74-5.14,34.5,34.5,0,0,1-1-14.25,23.23,23.23,0,0,1,2.09-6.68,19.53,19.53,0,0,1,1.4-2.38c.2-.29.41-.58.62-.85a18.42,18.42,0,0,1,1.54-1.77c.81-.81,1.64-1.56,2.47-2.25,5.17-4.33,10.68-6.4,16.36-6.17,7.68.34,15.56,4.89,22.2,12.82.48.6,1,1.17,1.45,1.76q1.59-1.86,3.09-3.65l.28-.34c-.28-.35-.57-.68-.85-1C98.22,62.54,89,57.33,79.88,56.93c-8.12-.33-15.75,3-22.69,9.92-7.28,7.28-8.87,18.37-6.56,28.89-.38-.8-.72-1.61-1-2.43-.11-.3-.23-.59-.33-.89-.05-.13-.09-.26-.13-.39-.18-.54-.35-1.09-.49-1.64A31.29,31.29,0,0,1,78.87,50.9c.46,0,.91,0,1.37.06h.26A31.14,31.14,0,0,1,101,60.07l8.83,8.84,13.32,13.32h0l-4.25,4.25c-1.32-1.36-2.65-2.79-4-4.25q-1.71-1.87-3.44-3.86C110.26,77,109,75.49,107.79,74l-.08.1c-1.06,1.26-2.17,2.57-3.3,3.89h0c1.21,1.44,2.41,2.86,3.62,4.24s2.31,2.6,3.46,3.86,2.54,2.73,3.79,4l-4.21,4.22,12.1-12.1c.85.8,1.87,1.93,3.63,3.63h0l3.63-3.63,13.32,13.31c1-1.13,2-2.29,3-3.49l.2-.24.29-.34c1-1.19,2-2.42,3.08-3.66,1.23-1.44,2.51-2.9,3.81-4.32h0c-.4-.41-.79-.83-1.17-1.25h0c-1.29,1.4-2.54,2.82-3.76,4.24l-3.29,3.9-.07.09-.42.5c-1,1.16-1.92,2.27-2.87,3.37l-4.22-4.22c1.26-1.29,2.52-2.64,3.79-4q-1.73-2-3.44-3.86c-1.33,1.46-2.66,2.89-4,4.25l-4.25-4.25h0l13.32-13.32,8.84-8.84a31.31,31.31,0,0,1,50.56,35.3Z"/><path class="cls-3" d="M57.44,76.6c.09.5.2,1,.31,1.48l.15.61c.12.45.24.9.38,1.34.08.25.17.5.25.75.14.4.28.81.44,1.2,0,.08.07.16.1.23.3.73.64,1.43,1,2.13h0l.09.17c.22.39.43.78.67,1.17.15.24.31.48.47.72.27.4.56.8.86,1.19.15.19.29.39.45.58.47.57,1,1.13,1.49,1.66,4.47,4.47,9.22,6.63,14.27,6.4a14.3,14.3,0,0,0,1.86-.2l.44-.07c.6-.11,1.2-.24,1.79-.41l.24-.08c.53-.16,1.06-.34,1.58-.55.16-.06.31-.11.46-.18.57-.23,1.12-.48,1.68-.76l.45-.24c.43-.23.87-.47,1.3-.73l.54-.32c.51-.31,1-.65,1.51-1l.66-.48c.33-.23.66-.48,1-.73l.75-.58,1.24-1c.3-.25.59-.51.88-.77s.39-.35.58-.53c.62-.56,1.23-1.14,1.84-1.73,0,0,.11-.1.16-.16.73-.72,1.46-1.45,2.17-2.2-.39-.42-.78-.85-1.17-1.26L97,83.63l-.56.55c-.31.32-.63.63-1,.94l-.57.55-1.36,1.24-.53.45c-.39.34-.79.68-1.19,1l-.37.31c-.5.39-1,.77-1.49,1.13l-.48.33c-.51.37-1,.72-1.55,1.05l-.24.14c-.48.29-1,.56-1.45.82-.13.07-.26.15-.39.21-.54.28-1.08.53-1.63.76l-.33.14c-.5.19-1,.37-1.5.53l-.28.09c-.56.16-1.12.29-1.68.4l-.38.06a14.69,14.69,0,0,1-1.74.19c-4.57.22-8.81-1.73-13-5.9-.47-.47-.91-1-1.33-1.48-.15-.17-.27-.35-.41-.52-.27-.35-.54-.7-.79-1.06l-.43-.68c-.21-.33-.42-.67-.61-1l-.41-.76c-.14-.29-.28-.58-.41-.87h0c-.31-.7-.59-1.41-.85-2.15-.09-.26-.19-.52-.27-.8s-.21-.75-.31-1.13-.16-.58-.22-.88a28.05,28.05,0,0,1-.6-4.18,19.53,19.53,0,0,0-1.4,2.38c0,.38.1.75.17,1.12Z"/><path class="cls-3" d="M74.17,107.13a26.51,26.51,0,0,0,5.71.4c9.14-.41,18.34-5.61,26-14.69a.27.27,0,0,1,.07-.08c.26-.33.52-.63.78-1h0c.37-.46.74-.9,1.11-1.35h0l.85-1c.88-1,1.75-2.06,2.62-3.06h0l.24-.27c-1.15-1.26-2.3-2.54-3.46-3.86-1.11,1.26-2.22,2.56-3.33,3.88l-.29.36-1.11,1.34c-.46.56-.93,1.12-1.39,1.69l-.06.08c-6.64,7.92-14.52,12.47-22.2,12.81-5.68.23-11.18-1.83-16.36-6.16h0c-.83-.7-1.66-1.44-2.47-2.25a18,18,0,0,1-1.59-1.82c-.2-.27-.37-.56-.56-.83a19.15,19.15,0,0,1-1.42-2.44l-.1-.18c-.08-.17-.18-.33-.25-.5-.28-.64-.53-1.3-.75-2a24.78,24.78,0,0,1-1-4.08,34.5,34.5,0,0,0,1,14.25l.56.64c.17.19.32.38.5.56h0c.92.91,1.84,1.75,2.78,2.54a31.81,31.81,0,0,0,11,6.21A27.21,27.21,0,0,0,74.17,107.13Z"/><path class="cls-3" d="M70.38,117.54l.13,0a37.66,37.66,0,0,0,5.27.79l-6.21-6.21c-.36-.11-.71-.25-1.07-.38h0a31.64,31.64,0,0,1-3.7-1.58l0,0A31.84,31.84,0,0,1,62,108.61c.14.3.24.6.38.9A31.71,31.71,0,0,0,65.3,113l4.46,4.46c.2,0,.41.07.62.12Z"/><path class="cls-3" d="M114.53,98.15l12.28-12.29L139.1,98.15l1.2,1.2,2.71,2.71,5.32,5.32a37.8,37.8,0,0,0,20.39,10.52l4.4-4.42a31.1,31.1,0,0,1-20.52-9.1l-7.15-7.14-1.69-1.7L130.44,82.23l-3.63,3.63h0c-1.76-1.7-2.78-2.83-3.63-3.63l-12.1,12.1a48.12,48.12,0,0,0,3.44,3.82Z"/><path class="cls-3" d="M151.07,80.13l.05.05c.6.69,1.21,1.37,1.84,2h0c.38.42.77.84,1.17,1.25h0l.57.59.68.69c.28.29.57.58.86.86l.8.78.8.76,1,1,.74.65c.48.41,1,.82,1.46,1.21l.64.5,1.11.82.69.48q.57.39,1.14.75l.64.4c.53.32,1.06.62,1.6.9l.19.1c.6.3,1.2.57,1.81.83l.57.21c.43.17.86.32,1.3.45l.65.19q.66.18,1.32.3c.2,0,.39.09.59.12a15.27,15.27,0,0,0,1.91.2c5,.23,9.8-1.93,14.27-6.4l0,0a23.08,23.08,0,0,0,4-5.49c-.25-.72-.53-1.41-.84-2.09a22.36,22.36,0,0,1-1.35,2.51c-.36.58-.76,1.15-1.17,1.69l-.27.37a21.17,21.17,0,0,1-1.61,1.82h0c-4.17,4.17-8.42,6.12-13,5.9a13.77,13.77,0,0,1-1.8-.2l-.56-.11c-.41-.08-.83-.18-1.24-.29l-.62-.19c-.4-.13-.8-.27-1.2-.43a5.83,5.83,0,0,1-.58-.23c-.49-.2-1-.43-1.45-.67l-.29-.14c-.58-.3-1.15-.63-1.72-1-.16-.09-.32-.2-.48-.31-.41-.26-.82-.53-1.23-.82l-.6-.43q-.56-.4-1.11-.84l-.59-.46-1.21-1-.43-.37c-.54-.48-1.07-1-1.6-1.46l-.4-.39c-.4-.39-.8-.77-1.2-1.17l-.57-.58-1-1a1.85,1.85,0,0,0-.14-.14L154.12,81h0c-.09-.11-.19-.21-.29-.32l-.51-.57q-1.55-1.71-3-3.44L149.2,78c.62.71,1.24,1.43,1.87,2.14Z"/><path class="cls-3" d="M99.5,81c.39.41.78.84,1.17,1.26,1.28-1.4,2.54-2.83,3.75-4.24h0c1.13-1.32,2.24-2.63,3.3-3.89l.08-.1.41-.49c.63-.76,1.26-1.49,1.89-2.22h0c.33-.38.66-.78,1-1.15l4.21,4.21c-1.25,1.3-2.52,2.65-3.79,4q1.73,2,3.44,3.86l.11-.12h0c1-1.1,2-2.16,3-3.2h0l.88-.93,4.25,4.25h0L109.86,68.91c-.15.18-.31.35-.46.52h0c-.84,1-1.68,2-2.52,3l-.2.25-.28.34q-1.5,1.79-3.09,3.65c-.9,1.06-1.82,2.12-2.77,3.18Z"/></svg>