<svg id="Capa_1" data-name="Capa 1" xmlns="http://www.w3.org/2000/svg" viewBox="0 0 256 256"><defs><style>.cls-1{fill:#1d1d1b;}.cls-2{fill:none;}.cls-3{fill:gray;}</style></defs><title>256x256 px</title><path class="cls-1" d="M52.2,228.11v-39.6h5.41V221.2a4.72,4.72,0,0,0,.17,1.62q.16.33,1.11.33h12v5Z"/><path class="cls-1" d="M90.07,217.36v10.81H85.16V201.51a13.15,13.15,0,0,1,3.68-9.43,12.09,12.09,0,0,1,9.09-3.85,12.25,12.25,0,0,1,9.09,3.91,12.89,12.89,0,0,1,3.79,9.31v26.72H106V216.79a5.67,5.67,0,0,0-.11-1.17,1.52,1.52,0,0,0-.53-.84,2.12,2.12,0,0,0-1.31-.33H92.58a7.71,7.71,0,0,0-1.06.05,2.51,2.51,0,0,0-1,.54,2,2,0,0,0-.5,1.59Zm15.72-10.72v-5.47a8.25,8.25,0,0,0-2.18-5.82A7.46,7.46,0,0,0,97.85,193a6.68,6.68,0,0,0-5.52,2.67,9.94,9.94,0,0,0-2.1,6.31v6a1.89,1.89,0,0,0,.39,1.25,1.76,1.76,0,0,0,1,.62,7.08,7.08,0,0,0,1.5.14h10.17a5.48,5.48,0,0,0,1.06-.06,1.63,1.63,0,0,0,.89-.56,1.89,1.89,0,0,0,.39-.61,2.62,2.62,0,0,0,.16-1Z"/><path class="cls-1" d="M125.2,193.31v-4.8h26.27v4.8h-8l-1.37,0a1.25,1.25,0,0,0-.94.33,1.64,1.64,0,0,0-.25,1v33.47h-5.47V195.49a3.06,3.06,0,0,0-.28-1.68,1.35,1.35,0,0,0-.72-.44,5.23,5.23,0,0,0-.95-.06Z"/><path class="cls-1" d="M165.53,228.17V188.23h5.41v39.94Z"/><path class="cls-1" d="M191.85,214.34v13.83h-4.41V201.4a13,13,0,0,1,3.38-9.29,11.22,11.22,0,0,1,8.56-3.6,10.81,10.81,0,0,1,8.2,3.57,11.91,11.91,0,0,1,3.34,8.42,10.81,10.81,0,0,1-3.45,8.42,14,14,0,0,1-6.47,3.17q-.45.06-.45.45a2.23,2.23,0,0,0,.37,1,18.7,18.7,0,0,0,1.1,1.64l9.45,12.92-5.4.09-11.54-15.23a8.69,8.69,0,0,0-1.12-1.45,1.28,1.28,0,0,0-1.06-.28c-.18,0-.32.27-.39.7a8.81,8.81,0,0,0-.11,1.42Zm7.72-21.25a6.77,6.77,0,0,0-5.11,2.23,7.4,7.4,0,0,0-2.11,5.24,7,7,0,0,0,2.06,5.13,7.11,7.11,0,0,0,5.27,2.07,5.9,5.9,0,0,0,4.75-2.26,8.14,8.14,0,0,0,1.87-5.33,7.08,7.08,0,0,0-2-5A6.22,6.22,0,0,0,199.57,193.09Z"/><path class="cls-1" d="M60.2,246.86l-6.77,0V247a3.62,3.62,0,0,0,1,2.58,3.48,3.48,0,0,0,2.62,1,3.83,3.83,0,0,0,2.85-1.11l.23.25A4.18,4.18,0,0,1,57,250.93,3.73,3.73,0,0,1,53.06,247a3.86,3.86,0,0,1,1.06-2.8,3.64,3.64,0,0,1,2.72-1.09,3.15,3.15,0,0,1,3.38,3.45A.87.87,0,0,1,60.2,246.86Zm-3.36-3.38a3.35,3.35,0,0,0-2.3.84,3.31,3.31,0,0,0-1.09,2.23l6.41,0a3.12,3.12,0,0,0-.86-2.25A3,3,0,0,0,56.84,243.48Z"/><path class="cls-1" d="M69,243.37h.36v11.38H69v-6a3.66,3.66,0,0,1-1.32,1.62,3.47,3.47,0,0,1-2,.58,3.38,3.38,0,0,1-2.6-1.11,4.27,4.27,0,0,1,0-5.56,3.41,3.41,0,0,1,2.6-1.11,3.48,3.48,0,0,1,2,.59A3.68,3.68,0,0,1,69,245.35Zm-3.27,7.23a3.09,3.09,0,0,0,2.34-1,3.93,3.93,0,0,0,0-5.1,3.24,3.24,0,0,0-4.7,0,3.9,3.9,0,0,0,0,5.1A3.08,3.08,0,0,0,65.75,250.6Z"/><path class="cls-1" d="M78.56,247.41v-4h.37v4a3.71,3.71,0,0,1-.87,2.61,3.51,3.51,0,0,1-4.76,0,3.71,3.71,0,0,1-.87-2.61v-4h.37v4a3.34,3.34,0,0,0,.77,2.34,3,3,0,0,0,4.22,0A3.34,3.34,0,0,0,78.56,247.41Z"/><path class="cls-1" d="M82.6,240.65a.35.35,0,0,1-.4-.4c0-.26.13-.38.4-.38s.4.12.4.38A.35.35,0,0,1,82.6,240.65Zm-.18,10.06v-7.34h.36v7.34Z"/><path class="cls-1" d="M92.46,237.86h.37v12.85h-.37v-2a3.57,3.57,0,0,1-1.31,1.62,3.49,3.49,0,0,1-2,.58,3.36,3.36,0,0,1-2.6-1.11,4.24,4.24,0,0,1,0-5.56,3.39,3.39,0,0,1,2.6-1.11,3.5,3.5,0,0,1,2,.59,3.6,3.6,0,0,1,1.31,1.61ZM89.17,250.6a3.07,3.07,0,0,0,2.36-1,3.88,3.88,0,0,0,0-5.09,3.06,3.06,0,0,0-2.34-1,3.11,3.11,0,0,0-2.36,1,3.93,3.93,0,0,0,0,5.1A3.05,3.05,0,0,0,89.17,250.6Z"/><path class="cls-1" d="M102.23,243.37h.36v7.34h-.36v-2a3.66,3.66,0,0,1-1.32,1.62,3.47,3.47,0,0,1-2,.58,3.38,3.38,0,0,1-2.6-1.11,4.27,4.27,0,0,1,0-5.56,3.41,3.41,0,0,1,2.6-1.11,3.48,3.48,0,0,1,2,.59,3.68,3.68,0,0,1,1.32,1.61Zm-3.29,7.23a3.08,3.08,0,0,0,2.36-1,3.92,3.92,0,0,0,0-5.09,3.06,3.06,0,0,0-2.34-1,3.11,3.11,0,0,0-2.36,1,3.9,3.9,0,0,0,0,5.1A3.05,3.05,0,0,0,98.94,250.6Z"/><path class="cls-1" d="M111.83,237.86h.36v12.85h-.36v-2a3.59,3.59,0,0,1-1.32,1.62,3.47,3.47,0,0,1-2,.58,3.35,3.35,0,0,1-2.59-1.11,4.24,4.24,0,0,1,0-5.56,3.39,3.39,0,0,1,2.59-1.11,3.48,3.48,0,0,1,2,.59,3.62,3.62,0,0,1,1.32,1.61Zm-3.29,12.74a3.08,3.08,0,0,0,2.36-1,3.88,3.88,0,0,0,0-5.09,3.06,3.06,0,0,0-2.34-1,3.11,3.11,0,0,0-2.36,1,3.93,3.93,0,0,0,0,5.1A3.05,3.05,0,0,0,108.54,250.6Z"/><path class="cls-1" d="M126.48,246.86l-6.78,0V247a3.58,3.58,0,0,0,1,2.58,3.44,3.44,0,0,0,2.61,1,3.8,3.8,0,0,0,2.85-1.11l.24.25a4.21,4.21,0,0,1-3.12,1.19,3.85,3.85,0,0,1-2.82-1.08,3.77,3.77,0,0,1-1.09-2.81,3.89,3.89,0,0,1,1-2.8,3.66,3.66,0,0,1,2.73-1.09,3.36,3.36,0,0,1,2.46.9,3.42,3.42,0,0,1,.92,2.55A1.42,1.42,0,0,1,126.48,246.86Zm-3.36-3.38a3.35,3.35,0,0,0-2.31.84,3.31,3.31,0,0,0-1.09,2.23l6.41,0a3.15,3.15,0,0,0-.85-2.25A3,3,0,0,0,123.12,243.48Z"/><path class="cls-1" d="M129.3,246.69v4h-.36v-4a3.6,3.6,0,0,1,.91-2.58,3.43,3.43,0,0,1,4.8,0,3.64,3.64,0,0,1,.9,2.58v4h-.37v-4a3.32,3.32,0,0,0-.81-2.33,2.72,2.72,0,0,0-2.11-.88,2.78,2.78,0,0,0-2.15.88A3.32,3.32,0,0,0,129.3,246.69Z"/><path class="cls-1" d="M149.68,246.86l-6.77,0V247a3.62,3.62,0,0,0,1,2.58,3.46,3.46,0,0,0,2.62,1,3.79,3.79,0,0,0,2.84-1.11l.24.25a4.18,4.18,0,0,1-3.12,1.19,4,4,0,0,1-2.85-6.69,3.64,3.64,0,0,1,2.72-1.09,3.15,3.15,0,0,1,3.38,3.45A.87.87,0,0,1,149.68,246.86Zm-3.36-3.38a3.35,3.35,0,0,0-2.3.84,3.27,3.27,0,0,0-1.09,2.23l6.4,0a3.07,3.07,0,0,0-.85-2.25A3,3,0,0,0,146.32,243.48Z"/><path class="cls-1" d="M152.31,250.71V237.86h.36v12.85Z"/><path class="cls-1" d="M168.89,243.13a2.48,2.48,0,0,1,2,.85,3.49,3.49,0,0,1,.72,2.35v4.38h-.37v-4.38a3.19,3.19,0,0,0-.63-2.1,2.17,2.17,0,0,0-1.75-.75,2.41,2.41,0,0,0-1.87.82,2.92,2.92,0,0,0-.74,2v4.38h-.37v-4.38a3,3,0,0,0-.69-2,2.26,2.26,0,0,0-1.8-.82,2.3,2.3,0,0,0-1.79.8,3,3,0,0,0-.71,2.05v4.38h-.37v-4.38a3.32,3.32,0,0,1,.82-2.3,2.62,2.62,0,0,1,2-.9,2.78,2.78,0,0,1,1.71.58,2.87,2.87,0,0,1,1,1.61,2.73,2.73,0,0,1,1-1.61A3,3,0,0,1,168.89,243.13Z"/><path class="cls-1" d="M180.62,247.41v-4H181v4a3.71,3.71,0,0,1-.87,2.61,3.5,3.5,0,0,1-4.75,0,3.71,3.71,0,0,1-.88-2.61v-4h.37v4a3.38,3.38,0,0,0,.77,2.34,3.06,3.06,0,0,0,4.23,0A3.38,3.38,0,0,0,180.62,247.41Z"/><path class="cls-1" d="M184.23,246.69v4h-.36v-4a3.64,3.64,0,0,1,.9-2.58,3.16,3.16,0,0,1,2.42-1,3.07,3.07,0,0,1,2.38,1,3.64,3.64,0,0,1,.9,2.58v4h-.36v-4a3.32,3.32,0,0,0-.81-2.33,2.72,2.72,0,0,0-2.11-.88,2.76,2.76,0,0,0-2.15.88A3.32,3.32,0,0,0,184.23,246.69Z"/><path class="cls-1" d="M199.73,237.86h.36v12.85h-.36v-2a3.59,3.59,0,0,1-1.32,1.62,3.47,3.47,0,0,1-2,.58,3.39,3.39,0,0,1-2.6-1.11,4.27,4.27,0,0,1,0-5.56,3.43,3.43,0,0,1,2.6-1.11,3.48,3.48,0,0,1,2,.59,3.62,3.62,0,0,1,1.32,1.61Zm-3.29,12.74a3.08,3.08,0,0,0,2.36-1,3.88,3.88,0,0,0,0-5.09,3.06,3.06,0,0,0-2.34-1,3.11,3.11,0,0,0-2.36,1,3.9,3.9,0,0,0,0,5.1A3.05,3.05,0,0,0,196.44,250.6Z"/><path class="cls-1" d="M206.36,250.93a3.64,3.64,0,0,1-2.73-1.09,4.17,4.17,0,0,1,0-5.6,4,4,0,0,1,5.46,0,4.2,4.2,0,0,1,0,5.6A3.64,3.64,0,0,1,206.36,250.93Zm-2.46-1.34a3.5,3.5,0,0,0,4.92,0,3.57,3.57,0,0,0,1-2.56,3.52,3.52,0,0,0-1-2.56,3.55,3.55,0,0,0-4.92,0,3.49,3.49,0,0,0-1,2.56A3.54,3.54,0,0,0,203.9,249.59Z"/><path class="cls-2" d="M137.11,105.27,131.83,100l-5.28,5.28q2.65,2.4,5.28,4.48Q134.47,107.67,137.11,105.27Z"/><path class="cls-2" d="M116.22,86.47c-.87,1-1.75,2-2.63,3.07l-.85,1,.41.5c1,1.16,1.93,2.28,2.89,3.38l4.23-4.23c-1.26-1.3-2.53-2.66-3.81-4l-.24.28Z"/><path class="cls-2" d="M119.5,98.3c1.1,1.18,2.21,2.32,3.31,3.41l9-9h0l9,9q1.65-1.63,3.31-3.41L131.83,86Z"/><path class="cls-2" d="M102.24,85.79l-.17.16c-.6.6-1.22,1.18-1.84,1.74-.19.18-.38.36-.58.53l-.88.77c-.42.35-.83.7-1.25,1-.25.21-.51.4-.76.59l-1,.74c-.22.16-.44.32-.67.47-.5.35-1,.68-1.51,1l-.55.32c-.43.26-.87.5-1.31.73l-.45.24c-.55.28-1.11.53-1.68.77l-.46.18c-.53.2-1.06.39-1.59.55l-.24.08c-.59.17-1.2.3-1.8.41l-.44.07a14.68,14.68,0,0,1-1.86.2c-5.08.24-9.84-1.93-14.33-6.42-.53-.54-1-1.1-1.5-1.67-.16-.19-.3-.39-.45-.58-.3-.39-.59-.79-.86-1.2-.16-.24-.32-.48-.47-.72-.24-.39-.46-.78-.68-1.17l-.09-.17a26.84,26.84,0,0,0-1.41,7c.19.28.36.56.57.83l4.07,4.09h0c5.19,4.35,10.72,6.42,16.41,6.19,7.71-.34,15.63-4.91,22.29-12.87l.06-.07,1.4-1.7c-1.23-1.45-2.51-2.91-3.83-4.34C103.7,84.33,103,85.07,102.24,85.79Z"/><path class="cls-2" d="M163.21,128.85l10.69-10.73a38,38,0,0,1-20.47-10.55l-5.34-5.35-2.71-2.71A114.92,114.92,0,0,1,131.83,112h0a114.87,114.87,0,0,1-13.54-12.44L116.84,101h0l-6.61,6.61c-.86.86-1.76,1.67-2.68,2.43-.5.42-1,.78-1.55,1.16s-.85.67-1.3,1c-.75.51-1.53,1-2.32,1.43-.22.12-.43.27-.65.39-1,.54-2,1-3,1.48l-.08,0a38.08,38.08,0,0,1-8.9,2.65l10.69,10.73A44.33,44.33,0,0,0,163.21,128.85Z"/><path class="cls-2" d="M157.72,104.56a31.21,31.21,0,0,0,20.61,9.13l6.35-6.38c-.41.08-.83.11-1.24.16s-1,.16-1.47.2a27.78,27.78,0,0,1-3,0c-.56,0-1.13-.07-1.7-.13-.21,0-.42-.06-.63-.09l-1.06-.15c-.29,0-.58-.12-.87-.18l-.81-.16c-.35-.08-.69-.18-1-.28l-.64-.17c-.38-.11-.76-.24-1.13-.37l-.54-.18c-.41-.15-.82-.32-1.22-.48l-.43-.17c-.44-.19-.87-.39-1.31-.6l-.32-.15c-.47-.23-.93-.48-1.39-.73l-.23-.12c-.49-.27-1-.55-1.45-.85l-.15-.09c-.5-.31-1-.63-1.49-1l-.09-.07c-.51-.35-1-.72-1.52-1.1l0,0c-.52-.39-1-.79-1.53-1.21h0a51.22,51.22,0,0,1-5.89-5.82h0L152.9,93l-.86-1-.2.25c-1,1.2-2,2.36-3,3.5l1.69,1.7Z"/><path class="cls-2" d="M114.35,69.47h0l.47-.52L106,60.07a31.23,31.23,0,0,0-20.61-9.13l-.07.07-.19-.08c-.46,0-.91-.07-1.37-.07A31.41,31.41,0,0,0,53.36,90.51c.15.55.32,1.1.5,1.64,0,.13.08.27.13.4.1.3.22.59.33.89.32.83.65,1.64,1,2.43-2.31-10.55-.71-21.69,6.59-29,7-7,14.63-10.29,22.78-10,9.17.4,18.41,5.63,26.05,14.74.28.36.57.69.85,1l.21-.25C112.67,71.44,113.51,70.44,114.35,69.47Z"/><path class="cls-2" d="M123,79h0q-1.5,1.58-3,3.21h0l-.12.12c1.35,1.47,2.68,2.9,4,4.27l4.27-4.27-4.27-4.26C123.62,78.35,123.33,78.68,123,79Z"/><path class="cls-2" d="M83.14,70c-4.58-.22-8.84,1.74-13,5.93a22,22,0,0,0-4.42,6.41c.14.3.27.59.42.88s.27.51.41.77.4.68.61,1,.28.45.44.68.51.71.79,1.06c.13.18.26.36.4.53.43.51.87,1,1.35,1.48,4.19,4.19,8.45,6.15,13,5.93a14.88,14.88,0,0,0,1.75-.2l.38-.06c.57-.11,1.13-.24,1.69-.4l.28-.09c.5-.16,1-.33,1.5-.53l.34-.14c.54-.23,1.09-.48,1.63-.76l.4-.21c.48-.26,1-.54,1.45-.83l.24-.14q.78-.49,1.56-1c.16-.11.32-.22.47-.34.51-.36,1-.74,1.5-1.13l.38-.31c.4-.32.8-.66,1.19-1l.53-.46c.46-.4.91-.82,1.36-1.24l.58-.55,1-.94.55-.56c.46-.46.91-.93,1.36-1.41C97.12,75.83,90.28,70.29,83.14,70Z"/><path class="cls-2" d="M109.35,86.57l.3-.36c1.11-1.33,2.23-2.63,3.34-3.9q-1.81-2.07-3.64-4.25c-1.21,1.42-2.47,2.85-3.76,4.25C106.88,83.72,108.13,85.15,109.35,86.57Z"/><path class="cls-2" d="M64.25,78.23c.1.38.2.77.31,1.14s.18.54.28.8a23.46,23.46,0,0,1,4-5.49c4.49-4.49,9.25-6.66,14.33-6.43,7.69.34,14.85,6.1,21.19,12.8.36-.38.71-.77,1-1.16,1-1,1.87-2.12,2.78-3.18-.48-.6-1-1.17-1.46-1.77-6.66-8-14.58-12.53-22.29-12.87-5.69-.23-11.22,1.84-16.42,6.19l-4,4c-.21.28-.42.57-.62.86a29.71,29.71,0,0,0,.59,4.2C64.09,77.65,64.18,77.94,64.25,78.23Z"/><path class="cls-2" d="M116,70.17c-.33.37-.66.77-1,1.15h0c-.63.74-1.27,1.47-1.9,2.23l-.41.5c1.24,1.5,2.48,3,3.72,4.39,1.28-1.38,2.55-2.74,3.81-4Z"/><path class="cls-2" d="M126.55,59.36l5.28,5.21,5.28-5.21q-2.64-2.4-5.28-4.48Q129.21,57,126.55,59.36Z"/><path class="cls-2" d="M100.45,35.78,90,46.27a36.32,36.32,0,0,1,19.59,10.16l8.7,8.69q3.4-3.63,6.8-6.74l.6-.55c.81-.73,1.61-1.43,2.42-2.12l.74-.63c1-.83,2-1.63,3-2.4h0c1,.78,2,1.61,3,2.46l.72.61c.87.74,1.74,1.5,2.61,2.3l.44.39q3.36,3.09,6.73,6.68l8.69-8.69a36.38,36.38,0,0,1,19.6-10.16L163.21,35.78A44.33,44.33,0,0,0,100.45,35.78Z"/><path class="cls-2" d="M100.5,28.61,83.35,45.74a35.73,35.73,0,0,1,4.5.25l12.6-12.64a44.31,44.31,0,0,1,62.76,0L175.82,46a35.25,35.25,0,0,1,4.47-.25L163.1,28.59A44.32,44.32,0,0,0,100.5,28.61Z"/><path class="cls-2" d="M143.45,65.6c-.86-.91-1.73-1.82-2.59-2.68l-9,9h0l-9-9c-.84.83-1.68,1.71-2.52,2.6-.26.27-.53.53-.79.81l12.33,12.33,12.34-12.33-.72-.73Z"/><path class="cls-2" d="M180.53,70c-7.15.32-14,5.86-20.1,12.34l.13.15,1,1.05c.2.19.39.39.58.58l1.2,1.18.4.39c.53.5,1.07,1,1.61,1.46l.43.37c.41.35.81.7,1.22,1l.59.46,1.12.85.6.43c.41.29.82.56,1.23.82l.48.32c.58.35,1.15.68,1.73,1l.29.15c.48.24,1,.47,1.45.67.2.09.39.16.59.23.4.16.8.3,1.2.43l.63.19c.41.12.83.21,1.24.29.19,0,.38.09.57.12a15.24,15.24,0,0,0,1.8.2c4.58.22,8.84-1.74,13-5.93h0a21.17,21.17,0,0,0,1.61-1.82c.1-.12.18-.25.28-.37.41-.55.81-1.12,1.17-1.7A22.64,22.64,0,0,0,198,82.31a22,22,0,0,0-4.41-6.41C189.37,71.71,185.11,69.75,180.53,70Z"/><path class="cls-2" d="M100.5,21.05,74.65,46.89a36.52,36.52,0,0,1,6.12-1l19.75-19.72a44.32,44.32,0,0,1,62.62,0l19.75,19.72a36.35,36.35,0,0,1,6.12,1L163.17,21.05A44.31,44.31,0,0,0,100.5,21.05Z"/><path class="cls-2" d="M111.62,91.93l-.78.95-.07.09c-7.64,9.11-16.88,14.34-26,14.74a26.2,26.2,0,0,1-5.74-.4l6.36,6.38A31.23,31.23,0,0,0,106,104.56l8.87-8.88c-1-1.14-2-2.3-3-3.5Z"/><path class="cls-2" d="M156.53,89.26l.29.36.06.07c6.67,8,14.58,12.53,22.29,12.87,5.7.23,11.23-1.84,16.42-6.19h0l4-4,0,0c.21-.27.39-.56.58-.84a27.15,27.15,0,0,0-1.41-7,23.05,23.05,0,0,1-4,5.52v0c-4.49,4.49-9.26,6.66-14.33,6.42a15.63,15.63,0,0,1-1.92-.2c-.2,0-.39-.08-.59-.12-.44-.08-.89-.18-1.32-.3l-.66-.19c-.44-.13-.87-.29-1.31-.45l-.57-.22c-.61-.25-1.21-.52-1.81-.83l-.2-.1c-.54-.28-1.07-.58-1.6-.9l-.64-.4c-.38-.24-.77-.49-1.15-.75l-.69-.49-1.11-.82-.64-.5c-.5-.39-1-.8-1.47-1.22l-.74-.65-1.06-1-.8-.77-.81-.78-.86-.86-.68-.7-.57-.59c-1.31,1.43-2.59,2.89-3.83,4.34l1.11,1.34Z"/><path class="cls-2" d="M163.14,138.47a44.32,44.32,0,0,1-62.62,0L80.6,118.58a36.37,36.37,0,0,1-5.28-.79l-.14,0h0l-.62-.13,25.94,25.94a44.31,44.31,0,0,0,62.67,0l25.94-25.94a36.43,36.43,0,0,1-6.05.94Z"/><path class="cls-2" d="M69.58,110.39A31.93,31.93,0,0,0,73.3,112h0c.35.13.7.27,1.07.39l-9.82-9.81a39.31,39.31,0,0,0,2.21,6.25,28.53,28.53,0,0,0,2.85,1.61Z"/><path class="cls-2" d="M61.44,97.19c-.19-.21-.38-.42-.56-.64a40.16,40.16,0,0,0,1.75,5.16A38.65,38.65,0,0,1,62,97.77h0C61.76,97.58,61.61,97.38,61.44,97.19Z"/><path class="cls-2" d="M201.71,97.76a38.33,38.33,0,0,1-.67,3.95,41.21,41.21,0,0,0,1.73-5.09c-.34.39-.68.77-1.05,1.14Z"/><path class="cls-2" d="M148.32,87.48l-.91-1-.21-.24c-1.27,1.38-2.54,2.74-3.8,4l4.23,4.23c1-1.1,1.92-2.22,2.89-3.38l.41-.5-.83-1C149.51,88.87,148.91,88.17,148.32,87.48Z"/><path class="cls-2" d="M201.66,89a21.33,21.33,0,0,0,1-2.31v0a24.76,24.76,0,0,0,1.11-4.41,23.29,23.29,0,0,0-2.11-6.81,27.14,27.14,0,0,1-1.81,6.75A27.1,27.1,0,0,1,201.66,89Z"/><path class="cls-2" d="M194.19,110.35c.93-.47,1.83-1,2.71-1.55a39.35,39.35,0,0,0,2.22-6.25l-9.75,9.74a32.8,32.8,0,0,0,4.85-2Z"/><path class="cls-2" d="M190.53,105.56a27.47,27.47,0,0,1-2.65,1h0l-7.16,7.18c.69,0,1.39,0,2.07-.1a31.78,31.78,0,0,0,3.27-.48l12.87-12.83a33.64,33.64,0,0,1-8.16,5.16Z"/><path class="cls-2" d="M139.75,78.05l-4.27,4.26,4.27,4.27c1.32-1.36,2.66-2.8,4-4.26q-1.55-1.69-3.08-3.3Z"/><path class="cls-2" d="M180,50.86a31.25,31.25,0,0,0-22.24,9.21L148.85,69c1,1.14,2,2.3,3,3.5l.2.25.86-1c7.63-9.11,16.87-14.34,26-14.74,8.15-.34,15.82,3,22.78,10,7.3,7.3,8.9,18.41,6.6,28.95a3,3,0,0,0,.15-.31A31.42,31.42,0,0,0,180,50.86Z"/><path class="cls-2" d="M158.08,82.31c-.63-.67-1.24-1.36-1.85-2l0-.05h0c-.64-.72-1.26-1.44-1.88-2.15q-1.81,2.18-3.63,4.25,1.81,2.09,3.63,4.26C155.53,85.15,156.79,83.72,158.08,82.31Z"/><path class="cls-2" d="M159,80.73c.09.11.19.21.29.32,6.35-6.7,13.5-12.46,21.2-12.8,5.07-.23,9.84,1.94,14.33,6.43a23.31,23.31,0,0,1,4.05,5.5,26.58,26.58,0,0,0,1.4-7c-.2-.29-.4-.58-.62-.86l-4-4c-5.19-4.35-10.72-6.42-16.42-6.19-7.71.34-15.62,4.91-22.29,12.87-.48.6-1,1.18-1.46,1.77,1,1.15,2,2.31,3,3.45Z"/><path class="cls-2" d="M80.62,113.6c.77.08,1.55.11,2.33.13l-7.15-7.18a31.69,31.69,0,0,1-11.06-6.24l12.89,12.87c1,.19,2,.34,3,.44Z"/><path class="cls-2" d="M147.63,70.17,143.4,74.4c1.26,1.3,2.53,2.66,3.8,4,1.24-1.42,2.49-2.89,3.73-4.39l-.41-.5C149.55,72.39,148.59,71.27,147.63,70.17Z"/><path class="cls-2" d="M177.28,118.55h0c-.42,0-.85-.06-1.27-.11l-12.8,12.84a44.31,44.31,0,0,1-62.76,0l-12.8-12.84a36,36,0,0,1-4.53.23L100.5,136a44.32,44.32,0,0,0,62.6,0l17.42-17.37q-1.62,0-3.24-.12Z"/><path class="cls-2" d="M61.66,88.32c.07.17.17.33.25.5L62,89a27.33,27.33,0,0,1,1.82-6.7l-.11-.23c-.16-.4-.29-.8-.43-1.21-.09-.25-.18-.5-.26-.75-.14-.45-.26-.89-.38-1.34,0-.21-.1-.41-.14-.62-.12-.49-.23-1-.32-1.48h0c-.07-.37-.12-.75-.17-1.13a23.33,23.33,0,0,0-2.09,6.71,25.24,25.24,0,0,0,1,4.1C61.13,87,61.37,87.68,61.66,88.32Z"/><path class="cls-3" d="M100.52,26.16,80.77,45.88c.86-.07,1.72-.14,2.58-.14L100.5,28.61a44.32,44.32,0,0,1,62.6,0l17.19,17.15c.87,0,1.74.07,2.6.14L163.14,26.16A44.32,44.32,0,0,0,100.52,26.16Z"/><path class="cls-3" d="M100.45,33.35,87.85,46c.71.08,1.43.16,2.15.28l10.45-10.49a44.33,44.33,0,0,1,62.76,0l10.46,10.49c.71-.12,1.43-.2,2.15-.28L163.21,33.35A44.31,44.31,0,0,0,100.45,33.35Z"/><path class="cls-3" d="M85.34,50.94h-.26l.19.08Z"/><path class="cls-3" d="M180.71,113.73l-4.7,4.71c.42,0,.85.07,1.27.11h0q1.62.14,3.24.12l0,0c.86,0,1.71,0,2.57-.12l-.06.06a36.43,36.43,0,0,0,6.05-.94l4.48-4.48a30.91,30.91,0,0,0,2.93-3.46c.15-.29.25-.6.38-.9-.88.56-1.78,1.08-2.71,1.55l0,0a32.8,32.8,0,0,1-4.85,2,31.09,31.09,0,0,1-3.32.86,31.78,31.78,0,0,1-3.27.48C182.1,113.69,181.4,113.72,180.71,113.73Z"/><path class="cls-3" d="M52.12,63.9a36.6,36.6,0,0,0,5.71,44.25C46.31,96.05,44.08,77.86,52.12,63.9Z"/><path class="cls-3" d="M138.65,58.44l-.44-.39c-.87-.8-1.74-1.56-2.61-2.3l-.72-.61c-1-.85-2-1.68-3-2.46h0c-1,.77-2,1.57-3,2.4l-.74.63c-.81.69-1.61,1.39-2.42,2.12l-.6.55q-3.39,3.1-6.8,6.74l1.21,1.21c.26-.28.53-.54.79-.81.84-.89,1.68-1.77,2.52-2.6l9,9h0l9-9c.86.86,1.73,1.77,2.59,2.68h0l.72.73,1.21-1.21Q142,61.54,138.65,58.44Zm-6.82,6.13-5.28-5.21q2.65-2.4,5.28-4.48,2.64,2.09,5.28,4.48Z"/><path class="cls-3" d="M65.59,70.52a19.71,19.71,0,0,0-1.54,1.77l4-4C67.24,69,66.41,69.7,65.59,70.52Z"/><path class="cls-3" d="M100.5,21.05a44.31,44.31,0,0,1,62.67,0L189,46.89a36.37,36.37,0,0,1,17.29,10c-.16-.16-.29-.34-.45-.5l-8.62-8.61h0L163.17,13.75a44.32,44.32,0,0,0-62.67,0L66.43,47.82h0l-8.61,8.61c-.16.16-.29.34-.45.5a36.43,36.43,0,0,1,17.28-10Z"/><path class="cls-3" d="M148.85,69,135.48,82.31h0l4.27-4.26.92,1q1.53,1.61,3.08,3.3c1.14,1.26,2.3,2.54,3.45,3.87l.21.24.91,1c.59.69,1.19,1.39,1.78,2.1l.83,1,.08-.09q1.61-1.92,3.3-3.92-1.81-2.17-3.63-4.26l0,0q-1.74-2-3.48-3.86l0,0c-1.27-1.38-2.54-2.74-3.8-4l4.23-4.23c1,1.1,1.92,2.22,2.89,3.38l.41.5L152,72.7l-.2-.25C150.84,71.25,149.84,70.09,148.85,69Z"/><path class="cls-3" d="M198.08,70.52c-.82-.82-1.65-1.56-2.49-2.26l4,4A19.59,19.59,0,0,0,198.08,70.52Z"/><path class="cls-3" d="M202.64,86.71a21.33,21.33,0,0,1-1,2.31,19.82,19.82,0,0,1-1.43,2.43c-.19.28-.37.57-.58.84l0,0h0a20.07,20.07,0,0,1-1.55,1.79c-.82.82-1.65,1.56-2.49,2.26h0c-5.19,4.35-10.72,6.42-16.42,6.19-7.71-.34-15.62-4.91-22.29-12.87l-.06-.07-.29-.36h0l-1.11-1.34c-1.06,1.24-2.09,2.48-3.09,3.67l-.29.34.86,1,.54.62h0a51.22,51.22,0,0,0,5.89,5.82h0c.51.42,1,.82,1.53,1.21l0,0c.5.38,1,.75,1.52,1.1l.09.07c.5.34,1,.66,1.49,1l.15.09c.48.3,1,.58,1.45.85l.23.12c.46.25.92.5,1.39.73l.32.15c.44.21.87.41,1.31.6l.43.17c.4.16.81.33,1.22.48l.54.18c.37.13.75.26,1.13.37l.64.17c.35.1.69.2,1,.28l.81.16c.29.06.58.13.87.18l1.06.15c.21,0,.42.07.63.09.57.06,1.14.11,1.7.13a27.78,27.78,0,0,0,3,0c.5,0,1-.13,1.47-.2s.83-.08,1.24-.16a25.48,25.48,0,0,0,3.19-.76h0a27.47,27.47,0,0,0,2.65-1l.23-.08a33.64,33.64,0,0,0,8.16-5.16h0c.93-.79,1.85-1.62,2.76-2.53a2.44,2.44,0,0,1,.12-.86c0,.28-.05.56-.09.83h0c.37-.37.71-.75,1.05-1.14a34.66,34.66,0,0,0,1-14.28,24.76,24.76,0,0,1-1.11,4.41Z"/><path class="cls-3" d="M199.83,82.28a27.14,27.14,0,0,0,1.81-6.75,18.39,18.39,0,0,0-1.41-2.38,26.58,26.58,0,0,1-1.4,7A22.45,22.45,0,0,1,199.83,82.28Z"/><path class="cls-3" d="M211.55,63.9c8,14,5.8,32.15-5.72,44.25A36.61,36.61,0,0,0,211.55,63.9Z"/><path class="cls-3" d="M208.31,95.87a3.92,3.92,0,0,0,.16-.36,3,3,0,0,1-.15.31A.07.07,0,0,1,208.31,95.87Z"/><path class="cls-3" d="M87.61,118.4q1.06-.12,2.13-.3l0,0a38.08,38.08,0,0,0,8.9-2.65l.08,0c1-.45,2-.94,3-1.48.22-.12.43-.27.65-.39.79-.46,1.57-.92,2.32-1.43.45-.3.87-.65,1.3-1s1-.74,1.55-1.16c.92-.76,1.82-1.57,2.68-2.43l6.61-6.61h0l1.45-1.45c-1.16-1.23-2.31-2.51-3.47-3.83L106,104.56a31.23,31.23,0,0,1-20.61,9.13h0c-.54,0-1.08.08-1.63.08-.26,0-.5,0-.76,0-.78,0-1.56,0-2.33-.13v0c-1-.1-2-.25-3-.44l5.49,5.49a36,36,0,0,0,4.53-.23Z"/><path d="M65.59,94.11c.82.82,1.65,1.56,2.48,2.26L64,92.28A18.28,18.28,0,0,0,65.59,94.11Z"/><path d="M75.8,106.55,83,113.73c.26,0,.5,0,.76,0,.55,0,1.09,0,1.63-.08h0L79,107.31A25.33,25.33,0,0,1,75.8,106.55Z"/><path d="M112.74,90.58h0l-1.11,1.35h0l.21.25c1,1.2,2,2.36,3,3.5,1.16,1.32,2.31,2.6,3.47,3.83A114.87,114.87,0,0,0,131.83,112h0a114.92,114.92,0,0,0,13.55-12.44l-1.21-1.21q-1.66,1.77-3.31,3.41l-9-9h0l-9,9c-1.1-1.09-2.21-2.23-3.31-3.41h0A48.59,48.59,0,0,1,116,94.46c-1-1.1-1.93-2.22-2.89-3.38ZM131.83,100l5.28,5.28q-2.64,2.4-5.28,4.48-2.62-2.09-5.28-4.48Z"/><path d="M173.9,118.12l-10.69,10.73a44.33,44.33,0,0,1-62.76,0L89.76,118.12l0,0q-1.06.18-2.13.3l0,0,12.8,12.84a44.31,44.31,0,0,0,62.76,0L176,118.44l4.7-4.71,7.16-7.18a25.48,25.48,0,0,1-3.19.76l-6.35,6.38Z"/><path d="M198.08,94.11a20.07,20.07,0,0,0,1.55-1.79h0l-4,4C196.43,95.67,197.26,94.93,198.08,94.11Z"/><polygon points="195.59 96.37 195.59 96.37 195.59 96.37 195.59 96.37 195.59 96.37"/><path d="M64.84,84.43a23.06,23.06,0,0,1-1-2.13A27.33,27.33,0,0,0,62,89a19.27,19.27,0,0,0,1.42,2.45,26.84,26.84,0,0,1,1.41-7Z"/><path d="M201.66,89a27.1,27.1,0,0,0-1.83-6.74,22.45,22.45,0,0,0-1-2.1,23.31,23.31,0,0,0-4.05-5.5c-4.49-4.49-9.26-6.66-14.33-6.43-7.7.34-14.85,6.1-21.2,12.8h0c.39.43.78.85,1.18,1.26,6.12-6.48,12.95-12,20.1-12.34,4.58-.22,8.84,1.74,13,5.93A22,22,0,0,1,198,82.31a22.48,22.48,0,0,1,.85,2.1,27.15,27.15,0,0,1,1.41,7A19.82,19.82,0,0,0,201.66,89Z"/><path d="M104.41,81.05c-6.34-6.7-13.5-12.46-21.19-12.8-5.08-.23-9.84,1.94-14.33,6.43a23.46,23.46,0,0,0-4,5.49,21.36,21.36,0,0,0,.85,2.15h0a22,22,0,0,1,4.42-6.41c4.19-4.19,8.45-6.15,13-5.93,7.14.32,14,5.86,20.1,12.34.4.42.79.85,1.17,1.27,1.32,1.43,2.6,2.89,3.83,4.34l1.11-1.35c-1.22-1.42-2.47-2.85-3.76-4.26Z"/><path d="M211.55,63.9c-.19-.32-.37-.65-.56-1-.36-.58-.76-1.15-1.16-1.72s-.68-1-1.05-1.44-.74-.89-1.12-1.33-.53-.68-.83-1-.36-.34-.53-.52a36.5,36.5,0,0,0-23.41-11c-.86-.07-1.73-.14-2.6-.14a35.25,35.25,0,0,0-4.47.25c-.72.08-1.44.16-2.15.28a36.38,36.38,0,0,0-19.6,10.16l-8.69,8.69-1.21,1.21L131.83,78.66,119.5,66.33l-1.21-1.21-8.7-8.69A36.32,36.32,0,0,0,90,46.27c-.72-.12-1.44-.2-2.15-.28a35.73,35.73,0,0,0-4.5-.25c-.86,0-1.72.07-2.58.14a36.46,36.46,0,0,0-23.4,11c-.17.18-.36.33-.53.52s-.55.67-.84,1-.76.88-1.11,1.33-.71,1-1.06,1.44-.79,1.14-1.15,1.72c-.2.31-.38.64-.56,1-8,14-5.81,32.15,5.71,44.25.22.23.41.47.63.69l8,8h0l34.07,34.07a44.32,44.32,0,0,0,62.67,0l34.06-34.07h0l8-8c.22-.22.41-.46.62-.69C217.35,96.05,219.59,77.86,211.55,63.9Zm-3.08,31.61a3.92,3.92,0,0,1-.16.36.07.07,0,0,0,0-.05c2.3-10.54.7-21.65-6.6-28.95-7-7-14.63-10.29-22.78-10-9.17.4-18.41,5.63-26,14.74l-.86,1-1.11,1.35c-1.24,1.5-2.49,3-3.73,4.39l0,0q1.74,1.88,3.48,3.86l0,0q1.81-2.07,3.63-4.25l1.11-1.35c.49-.59,1-1.17,1.46-1.77,6.67-8,14.58-12.53,22.29-12.87,5.7-.23,11.23,1.84,16.42,6.19.84.7,1.67,1.44,2.49,2.26a19.59,19.59,0,0,1,1.53,1.77c.22.28.42.57.62.86a18.39,18.39,0,0,1,1.41,2.38,23.29,23.29,0,0,1,2.11,6.81,34.66,34.66,0,0,1-1,14.28,41.21,41.21,0,0,1-1.73,5.09,38.33,38.33,0,0,0,.67-3.95c0-.27.06-.55.09-.83a2.44,2.44,0,0,0-.12.86c-.91.91-1.83,1.74-2.76,2.53h0l-12.87,12.83a31.09,31.09,0,0,0,3.32-.86l9.75-9.74a39.35,39.35,0,0,1-2.22,6.25c-.13.3-.23.61-.38.9a30.91,30.91,0,0,1-2.93,3.46l-4.48,4.48-25.94,25.94a44.31,44.31,0,0,1-62.67,0L74.56,117.64l-4.48-4.48a31,31,0,0,1-2.94-3.46c-.14-.29-.24-.6-.38-.9a39.31,39.31,0,0,1-2.21-6.25l9.82,9.81,6.23,6.22,19.92,19.89a44.32,44.32,0,0,0,62.62,0l19.92-19.89.06-.06c-.86.07-1.71.11-2.57.12l0,0L163.1,136a44.32,44.32,0,0,1-62.6,0L83.12,118.67l-5.49-5.49L64.74,100.31c-.94-.79-1.87-1.63-2.79-2.54a38.65,38.65,0,0,0,.68,3.94,40.16,40.16,0,0,1-1.75-5.16,34.41,34.41,0,0,1-1-14.3A23.33,23.33,0,0,1,62,75.54a20.52,20.52,0,0,1,1.41-2.39c.2-.29.41-.58.62-.86a19.71,19.71,0,0,1,1.54-1.77c.82-.82,1.65-1.56,2.48-2.26,5.2-4.35,10.73-6.42,16.42-6.19,7.71.34,15.63,4.91,22.29,12.87.49.6,1,1.17,1.46,1.77l3.1-3.67.28-.34c-.28-.35-.57-.68-.85-1-7.64-9.11-16.88-14.34-26-14.74-8.15-.34-15.81,3-22.78,10-7.3,7.31-8.9,18.45-6.59,29-.38-.79-.71-1.6-1-2.43-.11-.3-.23-.59-.33-.89-.05-.13-.09-.27-.13-.4-.18-.54-.35-1.09-.5-1.64A31.43,31.43,0,0,1,83.71,50.86c.46,0,.91,0,1.37.07h.26A31.23,31.23,0,0,1,106,60.07L114.82,69l13.37,13.36h0l-4.27,4.27c-1.33-1.37-2.66-2.8-4-4.27q-1.71-1.87-3.45-3.87c-1.24-1.42-2.48-2.89-3.72-4.39l-.08.09c-1.07,1.27-2.18,2.59-3.31,3.91h0q1.83,2.18,3.64,4.25t3.47,3.88c1.28,1.38,2.55,2.74,3.81,4L116,94.46l12.15-12.14c.85.8,1.87,1.93,3.64,3.64h0l3.65-3.64,13.37,13.36c1-1.14,2-2.3,3-3.5l.2-.25.29-.34c1-1.19,2-2.43,3.09-3.67,1.24-1.45,2.52-2.91,3.83-4.34h0c-.4-.42-.79-.84-1.18-1.27h0c-1.29,1.41-2.55,2.84-3.77,4.26s-2.23,2.64-3.3,3.92l-.08.09-.41.5c-1,1.16-1.93,2.28-2.89,3.38l-4.23-4.23c1.26-1.3,2.53-2.66,3.8-4-1.15-1.33-2.31-2.61-3.45-3.87-1.34,1.46-2.68,2.9-4,4.26l-4.27-4.27h0L148.85,69l8.87-8.88a31.42,31.42,0,0,1,50.75,35.44Z"/><path class="cls-3" d="M62.19,76.67c.09.5.2,1,.32,1.48,0,.21.09.41.14.62.12.45.24.89.38,1.34.08.25.17.5.26.75.14.41.27.81.43,1.21l.11.23a23.06,23.06,0,0,0,1,2.13h0l.09.17c.22.39.44.78.68,1.17.15.24.31.48.47.72.27.41.56.81.86,1.2.15.19.29.39.45.58.47.57,1,1.13,1.5,1.67,4.49,4.49,9.25,6.66,14.33,6.42a14.68,14.68,0,0,0,1.86-.2l.44-.07c.6-.11,1.21-.24,1.8-.41l.24-.08c.53-.16,1.06-.35,1.59-.55l.46-.18c.57-.24,1.13-.49,1.68-.77l.45-.24c.44-.23.88-.47,1.31-.73l.55-.32c.5-.32,1-.65,1.51-1,.23-.15.45-.31.67-.47l1-.74c.25-.19.51-.38.76-.59.42-.33.83-.68,1.25-1l.88-.77c.2-.17.39-.35.58-.53.62-.56,1.24-1.14,1.84-1.74l.17-.16c.73-.72,1.46-1.46,2.17-2.21-.38-.42-.77-.85-1.17-1.27-.45.48-.9,1-1.36,1.41l-.55.56-1,.94-.58.55c-.45.42-.9.84-1.36,1.24l-.53.46c-.39.34-.79.68-1.19,1l-.38.31c-.49.39-1,.77-1.5,1.13-.15.12-.31.23-.47.34q-.78.56-1.56,1l-.24.14c-.48.29-1,.57-1.45.83l-.4.21c-.54.28-1.09.53-1.63.76l-.34.14c-.5.2-1,.37-1.5.53L87,94c-.56.16-1.12.29-1.69.4l-.38.06a14.88,14.88,0,0,1-1.75.2c-4.58.22-8.84-1.74-13-5.93-.48-.47-.92-1-1.35-1.48-.14-.17-.27-.35-.4-.53-.28-.35-.54-.7-.79-1.06s-.3-.46-.44-.68-.42-.68-.61-1-.28-.51-.41-.77-.28-.58-.42-.88h0a21.36,21.36,0,0,1-.85-2.15c-.1-.26-.19-.53-.28-.8s-.21-.76-.31-1.14-.16-.58-.23-.88a29.71,29.71,0,0,1-.59-4.2A20.52,20.52,0,0,0,62,75.54c0,.38.1.76.17,1.13Z"/><path class="cls-3" d="M79,107.31a26.2,26.2,0,0,0,5.74.4c9.17-.4,18.41-5.63,26.05-14.74l.07-.09.78-.95h0l1.11-1.35h0l.85-1c.88-1,1.76-2.07,2.63-3.07h0l.24-.28q-1.72-1.89-3.47-3.88c-1.11,1.27-2.23,2.57-3.34,3.9l-.3.36-1.11,1.35-1.4,1.7-.06.07c-6.66,8-14.58,12.53-22.29,12.87-5.69.23-11.22-1.84-16.41-6.19h0c-.84-.7-1.67-1.44-2.49-2.26A18.28,18.28,0,0,1,64,92.28c-.21-.27-.38-.55-.57-.83A19.27,19.27,0,0,1,62,89l-.1-.18c-.08-.17-.18-.33-.25-.5-.29-.64-.53-1.3-.76-2a25.24,25.24,0,0,1-1-4.1,34.41,34.41,0,0,0,1,14.3c.18.22.37.43.56.64s.32.39.5.57h0c.92.91,1.85,1.75,2.79,2.54a31.69,31.69,0,0,0,11.06,6.24A25.33,25.33,0,0,0,79,107.31Z"/><path class="cls-3" d="M75.18,117.77l.14,0a36.37,36.37,0,0,0,5.28.79l-6.23-6.22c-.37-.12-.72-.26-1.07-.39h0a31.93,31.93,0,0,1-3.72-1.58l0,0a28.53,28.53,0,0,1-2.85-1.61c.14.3.24.61.38.9a31,31,0,0,0,2.94,3.46l4.48,4.48.62.13Z"/><path class="cls-3" d="M119.5,98.3,131.83,86,144.17,98.3l1.21,1.21,2.71,2.71,5.34,5.35a38,38,0,0,0,20.47,10.55l4.43-4.43a31.21,31.21,0,0,1-20.61-9.13l-7.18-7.18-1.69-1.7L135.48,82.32,131.83,86h0c-1.77-1.71-2.79-2.84-3.64-3.64L116,94.46a48.59,48.59,0,0,0,3.46,3.84Z"/><path class="cls-3" d="M156.19,80.21l0,.05c.61.69,1.22,1.38,1.85,2h0c.39.43.78.85,1.18,1.27h0l.57.59.68.7.86.86.81.78.8.77,1.06,1,.74.65c.48.42,1,.83,1.47,1.22l.64.5,1.11.82.69.49c.38.26.77.51,1.15.75l.64.4c.53.32,1.06.62,1.6.9l.2.1c.6.31,1.2.58,1.81.83l.57.22c.44.16.87.32,1.31.45l.66.19c.43.12.88.22,1.32.3.2,0,.39.09.59.12a15.63,15.63,0,0,0,1.92.2c5.07.24,9.84-1.93,14.33-6.42v0a23.05,23.05,0,0,0,4-5.52,22.48,22.48,0,0,0-.85-2.1,22.64,22.64,0,0,1-1.35,2.53c-.36.58-.76,1.15-1.17,1.7-.1.12-.18.25-.28.37a21.17,21.17,0,0,1-1.61,1.82h0c-4.19,4.19-8.45,6.15-13,5.93a15.24,15.24,0,0,1-1.8-.2c-.19,0-.38-.08-.57-.12-.41-.08-.83-.17-1.24-.29l-.63-.19c-.4-.13-.8-.27-1.2-.43-.2-.07-.39-.14-.59-.23-.48-.2-1-.43-1.45-.67l-.29-.15c-.58-.3-1.15-.63-1.73-1l-.48-.32c-.41-.26-.82-.53-1.23-.82l-.6-.43L167.6,89l-.59-.46c-.41-.33-.81-.68-1.22-1l-.43-.37c-.54-.47-1.08-1-1.61-1.46l-.4-.39-1.2-1.18c-.19-.19-.38-.39-.58-.58l-1-1.05-.13-.15c-.4-.41-.79-.83-1.18-1.26h0c-.1-.11-.2-.21-.29-.32l-.52-.57c-1-1.14-2-2.3-3-3.45l-1.11,1.35c.62.71,1.24,1.43,1.88,2.15Z"/><path class="cls-3" d="M104.41,81.05l1.18,1.26c1.29-1.4,2.55-2.83,3.76-4.25h0c1.13-1.32,2.24-2.64,3.31-3.91l.08-.09.41-.5c.63-.76,1.27-1.49,1.9-2.23h0c.33-.38.66-.78,1-1.15l4.23,4.23c-1.26,1.3-2.53,2.66-3.81,4q1.74,2,3.45,3.87l.12-.12h0q1.5-1.64,3-3.21h0c.3-.3.59-.63.89-.93l4.27,4.26h0L114.82,69l-.47.52h0c-.84,1-1.68,2-2.52,3l-.21.25-.28.34-3.1,3.67c-.91,1.06-1.83,2.13-2.78,3.18C105.12,80.28,104.77,80.67,104.41,81.05Z"/></svg>