<svg id="Capa_1" data-name="Capa 1" xmlns="http://www.w3.org/2000/svg" viewBox="0 0 512 512"><defs><style>.cls-1{fill:#1d1d1b;}.cls-2{fill:none;}.cls-3{fill:gray;}</style></defs><title>512x512 px</title><path class="cls-1" d="M95.8,457.42V378.1h10.84v65.47a9.11,9.11,0,0,0,.34,3.24c.22.45,1,.67,2.23.67h24v9.94Z"/><path class="cls-1" d="M171.66,435.88v21.65h-9.83v-53.4a26.29,26.29,0,0,1,7.37-18.88,24.17,24.17,0,0,1,18.21-7.71,24.53,24.53,0,0,1,18.22,7.82A25.85,25.85,0,0,1,213.22,404v53.51h-9.61V434.74a10.85,10.85,0,0,0-.22-2.35,2.93,2.93,0,0,0-1.06-1.67,4.19,4.19,0,0,0-2.63-.67h-23a13.5,13.5,0,0,0-2.12.11,4.93,4.93,0,0,0-1.9,1.07c-.68.56-1,1.62-1,3.19Zm31.51-21.47v-11a16.6,16.6,0,0,0-4.38-11.68A15,15,0,0,0,187.25,387a13.36,13.36,0,0,0-11.05,5.37A19.8,19.8,0,0,0,172,405v12.07a3.77,3.77,0,0,0,.79,2.51,3.47,3.47,0,0,0,2,1.23,13.51,13.51,0,0,0,3,.28h20.37a12.36,12.36,0,0,0,2.12-.11,3.26,3.26,0,0,0,1.77-1.12,3.83,3.83,0,0,0,.78-1.23,5,5,0,0,0,.34-2Z"/><path class="cls-1" d="M242.05,387.71V378.1h52.62v9.61H278.58c-.89,0-1.8,0-2.73.05a2.49,2.49,0,0,0-1.9.67,3.28,3.28,0,0,0-.5,2.07v67h-11V392.06c0-1.79-.18-2.9-.55-3.35a2.7,2.7,0,0,0-1.46-.89,10.48,10.48,0,0,0-1.9-.11Z"/><path class="cls-1" d="M322.83,457.53v-80h10.83v80Z"/><path class="cls-1" d="M375.56,429.83v27.7h-8.83V403.9q0-11.38,6.76-18.6a22.52,22.52,0,0,1,17.15-7.2,21.67,21.67,0,0,1,16.43,7.14,23.88,23.88,0,0,1,6.7,16.86q0,10.62-6.93,16.87a27.93,27.93,0,0,1-13,6.36c-.59.08-.89.37-.89.9a4.51,4.51,0,0,0,.73,1.95,37.06,37.06,0,0,0,2.21,3.29l18.93,25.89-10.81.17L380.92,427a18.17,18.17,0,0,0-2.23-2.9,2.53,2.53,0,0,0-2.12-.56c-.38.07-.64.54-.79,1.4a16.46,16.46,0,0,0-.22,2.84ZM391,387.26a13.62,13.62,0,0,0-10.24,4.46,14.81,14.81,0,0,0-4.22,10.51,14,14,0,0,0,4.11,10.28,14.31,14.31,0,0,0,10.57,4.13,11.8,11.8,0,0,0,9.52-4.53,16.25,16.25,0,0,0,3.73-10.67,14.23,14.23,0,0,0-3.9-9.94A12.49,12.49,0,0,0,391,387.26Z"/><path class="cls-1" d="M111.84,495l-13.57,0v.26a7.22,7.22,0,0,0,1.93,5.17,6.85,6.85,0,0,0,5.24,2,7.6,7.6,0,0,0,5.7-2.24l.48.51a8.48,8.48,0,0,1-6.25,2.39A7.67,7.67,0,0,1,99.72,501a7.58,7.58,0,0,1-2.19-5.63,7.76,7.76,0,0,1,2.12-5.61,7.28,7.28,0,0,1,5.46-2.18,6.75,6.75,0,0,1,4.93,1.8,6.84,6.84,0,0,1,1.83,5.11A3,3,0,0,1,111.84,495Zm-6.73-6.77a6.6,6.6,0,0,0-6.81,6.14l12.84,0a6.26,6.26,0,0,0-1.71-4.5A5.9,5.9,0,0,0,105.11,488.21Z"/><path class="cls-1" d="M129.49,488h.74v22.8h-.74V498.73a7.25,7.25,0,0,1-2.63,3.23,6.92,6.92,0,0,1-4,1.18,6.82,6.82,0,0,1-5.2-2.22,8.51,8.51,0,0,1,0-11.15,6.82,6.82,0,0,1,5.2-2.22,6.92,6.92,0,0,1,4,1.18,7.25,7.25,0,0,1,2.63,3.23Zm-6.55,14.49a6.13,6.13,0,0,0,4.69-2,7.81,7.81,0,0,0,0-10.21,6.49,6.49,0,0,0-9.41,0,7.84,7.84,0,0,0,0,10.23A6.23,6.23,0,0,0,122.94,502.48Z"/><path class="cls-1" d="M148.61,496.08V488h.74v8.09a7.34,7.34,0,0,1-1.75,5.22,7,7,0,0,1-9.52,0,7.34,7.34,0,0,1-1.75-5.22V488h.74v8.09a6.75,6.75,0,0,0,1.54,4.69,6.09,6.09,0,0,0,8.46,0A6.75,6.75,0,0,0,148.61,496.08Z"/><path class="cls-1" d="M156.7,482.55a.72.72,0,0,1-.81-.81c0-.52.27-.77.81-.77s.81.25.81.77A.72.72,0,0,1,156.7,482.55Zm-.36,20.15V488h.73V502.7Z"/><path class="cls-1" d="M176.45,477h.74V502.7h-.74v-4a7.12,7.12,0,0,1-2.63,3.23,6.92,6.92,0,0,1-4,1.18,6.82,6.82,0,0,1-5.2-2.22,8.51,8.51,0,0,1,0-11.15,6.82,6.82,0,0,1,5.2-2.22,6.92,6.92,0,0,1,4,1.18,7.12,7.12,0,0,1,2.63,3.23Zm-6.58,25.52a6.25,6.25,0,0,0,4.73-2,7.84,7.84,0,0,0,0-10.21,6.48,6.48,0,0,0-9.42,0,7.87,7.87,0,0,0,0,10.23A6.2,6.2,0,0,0,169.87,502.48Z"/><path class="cls-1" d="M196,488h.73V502.7H196v-4a7.25,7.25,0,0,1-2.63,3.23,7,7,0,0,1-4,1.18,6.84,6.84,0,0,1-5.21-2.22,8.54,8.54,0,0,1,0-11.15,6.84,6.84,0,0,1,5.21-2.22,7,7,0,0,1,4,1.18A7.25,7.25,0,0,1,196,492Zm-6.58,14.49a6.23,6.23,0,0,0,4.72-2,7.84,7.84,0,0,0,0-10.21,6.47,6.47,0,0,0-9.41,0,7.84,7.84,0,0,0,0,10.23A6.18,6.18,0,0,0,189.44,502.48Z"/><path class="cls-1" d="M215.25,477H216V502.7h-.74v-4a7.12,7.12,0,0,1-2.63,3.23,6.92,6.92,0,0,1-4,1.18,6.82,6.82,0,0,1-5.2-2.22,8.51,8.51,0,0,1,0-11.15,6.82,6.82,0,0,1,5.2-2.22,6.92,6.92,0,0,1,4,1.18,7.12,7.12,0,0,1,2.63,3.23Zm-6.58,25.52a6.25,6.25,0,0,0,4.73-2,7.84,7.84,0,0,0,0-10.21,6.48,6.48,0,0,0-9.42,0,7.87,7.87,0,0,0,0,10.23A6.2,6.2,0,0,0,208.67,502.48Z"/><path class="cls-1" d="M244.6,495,231,495v.26a7.22,7.22,0,0,0,1.93,5.17,6.88,6.88,0,0,0,5.24,2,7.57,7.57,0,0,0,5.7-2.24l.48.51a8.47,8.47,0,0,1-6.25,2.39,7.67,7.67,0,0,1-5.65-2.17,7.57,7.57,0,0,1-2.18-5.63,7.75,7.75,0,0,1,2.11-5.61,7.28,7.28,0,0,1,5.46-2.18,6.3,6.3,0,0,1,6.77,6.91A2.1,2.1,0,0,1,244.6,495Zm-6.73-6.77a6.74,6.74,0,0,0-4.61,1.67,6.61,6.61,0,0,0-2.19,4.47l12.83,0a6.26,6.26,0,0,0-1.71-4.5A5.9,5.9,0,0,0,237.87,488.21Z"/><path class="cls-1" d="M250.26,494.65v8.05h-.73v-8.05a7.27,7.27,0,0,1,1.82-5.19,6.28,6.28,0,0,1,4.83-1.95,6.21,6.21,0,0,1,4.79,1.95,7.35,7.35,0,0,1,1.8,5.19v8.05H262v-8.05a6.66,6.66,0,0,0-1.62-4.68,5.48,5.48,0,0,0-4.23-1.76,5.57,5.57,0,0,0-4.3,1.76A6.66,6.66,0,0,0,250.26,494.65Z"/><path class="cls-1" d="M291.09,495l-13.57,0v.26a7.22,7.22,0,0,0,1.93,5.17,6.85,6.85,0,0,0,5.24,2,7.6,7.6,0,0,0,5.7-2.24l.48.51a8.49,8.49,0,0,1-6.26,2.39A7.66,7.66,0,0,1,279,501a7.58,7.58,0,0,1-2.19-5.63,7.76,7.76,0,0,1,2.12-5.61,7.28,7.28,0,0,1,5.46-2.18,6.75,6.75,0,0,1,4.93,1.8,6.84,6.84,0,0,1,1.83,5.11A3,3,0,0,1,291.09,495Zm-6.73-6.77a6.6,6.6,0,0,0-6.81,6.14l12.84,0a6.26,6.26,0,0,0-1.71-4.5A5.9,5.9,0,0,0,284.36,488.21Z"/><path class="cls-1" d="M296.35,502.7V477h.73V502.7Z"/><path class="cls-1" d="M329.55,487.51a5,5,0,0,1,4,1.69,7,7,0,0,1,1.46,4.71v8.79h-.74v-8.79a6.28,6.28,0,0,0-1.27-4.19,4.31,4.31,0,0,0-3.51-1.51,4.84,4.84,0,0,0-3.73,1.64,5.77,5.77,0,0,0-1.49,4.06v8.79h-.74v-8.79a6,6,0,0,0-1.39-4.06,4.81,4.81,0,0,0-7.2,0,6,6,0,0,0-1.41,4.1v8.79h-.74v-8.79a6.61,6.61,0,0,1,1.64-4.6,5.27,5.27,0,0,1,4.06-1.8,5.46,5.46,0,0,1,3.42,1.16,5.66,5.66,0,0,1,2,3.22,5.43,5.43,0,0,1,2.11-3.22A5.89,5.89,0,0,1,329.55,487.51Z"/><path class="cls-1" d="M353.05,496.08V488h.74v8.09A7.34,7.34,0,0,1,352,501.3a7,7,0,0,1-9.52,0,7.34,7.34,0,0,1-1.75-5.22V488h.74v8.09a6.75,6.75,0,0,0,1.54,4.69,6.09,6.09,0,0,0,8.46,0A6.75,6.75,0,0,0,353.05,496.08Z"/><path class="cls-1" d="M360.3,494.65v8.05h-.74v-8.05a7.32,7.32,0,0,1,1.82-5.19,6.32,6.32,0,0,1,4.84-1.95,6.19,6.19,0,0,1,4.78,1.95,7.35,7.35,0,0,1,1.8,5.19v8.05h-.73v-8.05a6.66,6.66,0,0,0-1.62-4.68,5.49,5.49,0,0,0-4.23-1.76,5.57,5.57,0,0,0-4.3,1.76A6.66,6.66,0,0,0,360.3,494.65Z"/><path class="cls-1" d="M391.34,477h.73V502.7h-.73v-4a7.25,7.25,0,0,1-2.63,3.23,7,7,0,0,1-4,1.18,6.82,6.82,0,0,1-5.2-2.22,8.51,8.51,0,0,1,0-11.15,6.82,6.82,0,0,1,5.2-2.22,7,7,0,0,1,4,1.18,7.25,7.25,0,0,1,2.63,3.23Zm-6.58,25.52a6.23,6.23,0,0,0,4.72-2,7.84,7.84,0,0,0,0-10.21,6.47,6.47,0,0,0-9.41,0,7.84,7.84,0,0,0,0,10.23A6.18,6.18,0,0,0,384.76,502.48Z"/><path class="cls-1" d="M404.62,503.14a7.35,7.35,0,0,1-5.47-2.19,8.39,8.39,0,0,1,0-11.22,8,8,0,0,1,11,0,8.45,8.45,0,0,1,0,11.22A7.33,7.33,0,0,1,404.62,503.14Zm-4.93-2.68a7,7,0,0,0,9.85,0,7.13,7.13,0,0,0,1.95-5.15,7,7,0,0,0-1.95-5.11,7.09,7.09,0,0,0-9.85,0,7,7,0,0,0-1.95,5.11A7.13,7.13,0,0,0,399.69,500.46Z"/><path class="cls-2" d="M265.91,211.33l-10.58-10.57-10.58,10.57c3.53,3.22,7.06,6.2,10.58,9C258.85,217.53,262.38,214.55,265.91,211.33Z"/><path class="cls-2" d="M224.06,173.67c-1.76,2-3.51,4.06-5.27,6.15l-1.72,2.09.83,1c1.93,2.34,3.86,4.58,5.79,6.79l8.48-8.48c-2.53-2.61-5.08-5.32-7.63-8.1l-.48.56Z"/><path class="cls-2" d="M230.62,197.37c2.22,2.36,4.43,4.65,6.63,6.84l18.08-18.07h0l18.07,18.07c2.21-2.19,4.42-4.48,6.64-6.84l-24.71-24.71Z"/><path class="cls-2" d="M196,172.32c-.1.11-.22.21-.33.32q-1.82,1.79-3.68,3.48l-1.17,1.06c-.59.52-1.18,1-1.77,1.54-.83.71-1.66,1.4-2.5,2.08-.5.4-1,.78-1.52,1.17s-1.31,1-2,1.47c-.44.32-.88.65-1.33,1-1,.69-2,1.36-3,2l-1.09.65c-.87.51-1.74,1-2.62,1.46-.3.16-.6.33-.9.48-1.12.56-2.24,1.07-3.37,1.54l-.93.36c-1,.41-2.11.79-3.18,1.11-.16,0-.32.1-.47.15-1.2.34-2.41.61-3.62.83l-.87.14a33.67,33.67,0,0,1-3.74.41c-10.16.46-19.72-3.89-28.7-12.88a44.77,44.77,0,0,1-3-3.34c-.32-.38-.61-.78-.91-1.17-.6-.78-1.18-1.58-1.73-2.39-.32-.48-.64-1-.94-1.46-.48-.76-.92-1.55-1.34-2.34-.07-.11-.14-.22-.2-.33a54.24,54.24,0,0,0-2.81,14c.38.55.72,1.13,1.13,1.67l8.17,8.19h0c10.4,8.7,21.48,12.85,32.89,12.39,15.44-.68,31.3-9.83,44.65-25.77l.12-.15c.93-1.15,1.87-2.27,2.8-3.4-2.48-2.91-5-5.83-7.67-8.69Q198.26,170.14,196,172.32Z"/><path class="cls-2" d="M318.19,258.56l21.42-21.47a76.12,76.12,0,0,1-41-21.15l-10.7-10.7-5.44-5.45a228,228,0,0,1-27.13,24.92h0a228,228,0,0,1-27.13-24.92l-2.9,2.9h0l-13.24,13.25c-1.73,1.72-3.53,3.35-5.38,4.88-1,.82-2.06,1.55-3.09,2.32-.87.64-1.71,1.34-2.61,1.94-1.51,1-3.08,1.95-4.65,2.86-.44.25-.86.54-1.3.79-2,1.08-4,2.06-6,3l-.17.08a76.22,76.22,0,0,1-17.82,5.32l21.42,21.47A88.75,88.75,0,0,0,318.19,258.56Z"/><path class="cls-2" d="M307.19,209.91a62.46,62.46,0,0,0,41.28,18.29l12.73-12.77c-.83.15-1.66.22-2.5.32s-1.94.31-2.93.38a53.17,53.17,0,0,1-6.06.1c-1.14,0-2.28-.14-3.41-.26l-1.26-.18c-.71-.1-1.42-.18-2.13-.3s-1.17-.24-1.76-.36l-1.62-.33c-.69-.17-1.38-.36-2.06-.55-.43-.12-.86-.22-1.29-.35-.76-.23-1.52-.49-2.27-.75l-1.08-.36c-.82-.29-1.63-.63-2.45-1l-.85-.34c-.88-.37-1.76-.78-2.63-1.2l-.65-.3c-.93-.46-1.86-1-2.78-1.45l-.46-.24c-1-.54-1.94-1.12-2.9-1.71l-.3-.18c-1-.62-2-1.27-3-1.95l-.2-.13c-1-.7-2-1.44-3-2.2l-.09-.06c-1-.78-2-1.59-3.06-2.44h0A101.3,101.3,0,0,1,298.63,188h0c-.36-.42-.73-.82-1.09-1.25-.57-.71-1.13-1.38-1.7-2.07l-.42.49c-2,2.41-4,4.74-6,7l3.4,3.4Z"/><path class="cls-2" d="M220.31,139.63h0c.32-.35.63-.69.94-1.05L203.47,120.8a62.52,62.52,0,0,0-41.28-18.3l-.14.15c-.12-.07-.26-.11-.39-.17-.91,0-1.82-.14-2.74-.14a62.87,62.87,0,0,0-60.78,79.43c.29,1.11.63,2.2,1,3.29.09.26.16.53.25.79.21.6.45,1.19.67,1.79.63,1.65,1.31,3.28,2.07,4.88-4.63-21.15-1.43-43.46,13.2-58.1,14-13.95,29.31-20.61,45.63-19.94,18.38.81,36.89,11.27,52.18,29.53.57.71,1.14,1.38,1.71,2.08l.41-.49Q217.79,142.54,220.31,139.63Z"/><path class="cls-2" d="M237.7,158.68h0q-3,3.13-6,6.43h0l-.23.25c2.69,2.94,5.37,5.81,8,8.55l8.55-8.55-8.55-8.55Z"/><path class="cls-2" d="M157.78,140.63c-9.18-.45-17.71,3.47-26.11,11.86a44.2,44.2,0,0,0-8.84,12.86c.27.59.55,1.17.84,1.75s.53,1,.82,1.54c.39.7.8,1.37,1.22,2,.29.46.57.92.88,1.36.5.73,1,1.44,1.58,2.14.27.35.53.71.81,1.06.86,1,1.75,2,2.69,3,8.4,8.39,16.93,12.31,26.11,11.87a31.66,31.66,0,0,0,3.51-.39l.76-.13a33.34,33.34,0,0,0,3.39-.8l.55-.18c1-.31,2-.67,3-1.07.22-.09.45-.17.67-.27,1.1-.46,2.18-1,3.27-1.52l.8-.43c1-.52,1.94-1.07,2.9-1.66l.48-.29c1.05-.65,2.1-1.36,3.13-2.09l1-.67q1.51-1.1,3-2.28l.76-.62c.8-.65,1.6-1.32,2.39-2l1-.92c.92-.81,1.83-1.64,2.74-2.49l1.14-1.1c.65-.62,1.29-1.25,1.93-1.89l1.11-1.1c.92-.93,1.82-1.88,2.72-2.83C185.79,152.37,172.1,141.26,157.78,140.63Z"/><path class="cls-2" d="M210.29,173.88l.6-.72q3.35-4,6.69-7.81-3.65-4.15-7.28-8.53c-2.44,2.85-5,5.72-7.55,8.53C205.34,168.17,207.86,171,210.29,173.88Z"/><path class="cls-2" d="M120,157.17c.19.76.39,1.53.62,2.28.17.55.36,1.08.55,1.61a46,46,0,0,1,8.12-11c9-9,18.54-13.34,28.7-12.87,15.42.68,29.75,12.2,42.46,25.63.71-.77,1.41-1.54,2.1-2.32,1.9-2.12,3.75-4.26,5.57-6.39-1-1.18-1.95-2.33-2.92-3.54-13.35-15.93-29.21-25.09-44.65-25.77-11.41-.46-22.49,3.69-32.9,12.39l-8,8.09c-.44.56-.85,1.13-1.25,1.72a56.83,56.83,0,0,0,1.19,8.4C119.62,156,119.79,156.58,120,157.17Z"/><path class="cls-2" d="M223.69,141c-.66.75-1.32,1.55-2,2.31h0c-1.27,1.48-2.54,2.93-3.81,4.47l-.83,1q3.74,4.52,7.47,8.8c2.55-2.77,5.1-5.49,7.63-8.1Z"/><path class="cls-2" d="M244.75,119.37l10.58,10.43,10.58-10.43c-3.54-3.22-7.06-6.2-10.58-9C251.81,113.17,248.28,116.15,244.75,119.37Z"/><path class="cls-2" d="M192.47,72.14l-20.95,21a72.89,72.89,0,0,1,39.26,20.34l17.42,17.42q6.83-7.27,13.62-13.51l1.21-1.09q2.41-2.19,4.84-4.25l1.49-1.27c2-1.66,4-3.27,6-4.8h0c2,1.56,4.07,3.22,6.1,4.92l1.44,1.22c1.74,1.48,3.49,3,5.23,4.6l.88.8q6.74,6.18,13.48,13.38l17.42-17.42a72.89,72.89,0,0,1,39.26-20.34l-20.95-21A88.75,88.75,0,0,0,192.47,72.14Z"/><path class="cls-2" d="M192.57,57.77,158.2,92.07a73.34,73.34,0,0,1,9,.52l25.25-25.33a88.78,88.78,0,0,1,125.73,0l25.25,25.33a74.7,74.7,0,0,1,9-.52L318,57.73A88.77,88.77,0,0,0,192.57,57.77Z"/><path class="cls-2" d="M278.61,131.86c-1.74-1.83-3.47-3.65-5.21-5.37l-18.07,18.07h0l-18.08-18.07c-1.68,1.67-3.36,3.44-5.05,5.21-.52.56-1,1.07-1.58,1.63L255.33,158,280,133.33l-1.43-1.47Z"/><path class="cls-2" d="M352.88,140.63c-14.32.63-28,11.74-40.27,24.72l.27.28c.67.71,1.35,1.42,2,2.11l1.15,1.17c.8.8,1.6,1.58,2.4,2.35l.81.79q1.61,1.5,3.22,2.94l.87.73c.81.7,1.62,1.39,2.44,2.06l1.17.92c.75.59,1.5,1.15,2.25,1.7q.6.45,1.2.87c.82.58,1.65,1.12,2.47,1.65.32.21.64.43,1,.63,1.14.7,2.3,1.36,3.46,2l.59.29c1,.48,1.93.94,2.9,1.35.39.17.78.31,1.17.46.8.32,1.6.61,2.41.86.42.14.84.26,1.26.38.82.23,1.65.42,2.48.59.38.08.76.17,1.14.23a31.38,31.38,0,0,0,3.61.4c9.18.44,17.71-3.48,26.1-11.87h0a41.31,41.31,0,0,0,3.23-3.65c.19-.24.36-.5.54-.74.83-1.1,1.63-2.23,2.35-3.41a45.27,45.27,0,0,0,2.72-5.05A44,44,0,0,0,379,152.49C370.59,144.1,362.06,140.18,352.88,140.63Z"/><path class="cls-2" d="M192.56,42.61,140.78,94.39a73.12,73.12,0,0,1,12.26-2l39.57-39.5a88.76,88.76,0,0,1,125.43,0l39.57,39.5a73,73,0,0,1,12.26,2L318.1,42.61A88.78,88.78,0,0,0,192.56,42.61Z"/><path class="cls-2" d="M214.84,184.62c-.52.64-1.05,1.25-1.57,1.9l-.14.17C197.84,205,179.33,215.42,161,216.23a53,53,0,0,1-11.49-.8l12.73,12.77a62.46,62.46,0,0,0,41.28-18.29l17.78-17.78c-2-2.28-4-4.61-6-7Z"/><path class="cls-2" d="M304.8,179.27l.59.72.12.14c13.35,15.94,29.21,25.09,44.65,25.77,11.41.46,22.48-3.69,32.89-12.39h0l8.08-8.1.05-.07c.42-.54.78-1.12,1.17-1.69a54.3,54.3,0,0,0-2.83-14.09,46.37,46.37,0,0,1-8.06,11l0,0c-9,9-18.54,13.34-28.7,12.88a32.91,32.91,0,0,1-3.84-.42c-.4-.06-.79-.15-1.19-.23-.89-.17-1.77-.37-2.65-.61l-1.31-.37c-.88-.27-1.75-.58-2.62-.91-.38-.15-.77-.28-1.15-.44-1.22-.5-2.43-1-3.63-1.65l-.39-.21c-1.08-.57-2.15-1.17-3.22-1.81-.42-.25-.85-.53-1.27-.79-.77-.49-1.54-1-2.3-1.52-.47-.31-.93-.63-1.39-1-.74-.54-1.48-1.09-2.22-1.66l-1.29-1c-1-.79-2-1.61-2.95-2.45-.5-.42-1-.86-1.48-1.3-.71-.63-1.41-1.26-2.11-1.91-.54-.5-1.08-1-1.61-1.53l-1.62-1.57c-.57-.57-1.15-1.14-1.72-1.72l-1.36-1.4-1.14-1.18c-2.63,2.86-5.2,5.79-7.68,8.69.74.9,1.48,1.78,2.22,2.69Z"/><path class="cls-2" d="M318,277.85a88.78,88.78,0,0,1-125.43,0L152.71,238a74.5,74.5,0,0,1-10.6-1.59l-.26,0h0c-.42-.1-.84-.15-1.25-.25l52,52a88.78,88.78,0,0,0,125.54,0l52-52A74.17,74.17,0,0,1,358,238Z"/><path class="cls-2" d="M130.63,221.59a63,63,0,0,0,7.43,3.16h0c.72.25,1.42.55,2.15.77l-19.67-19.64A78.92,78.92,0,0,0,125,218.41a64,64,0,0,0,5.69,3.23Z"/><path class="cls-2" d="M114.32,195.15c-.39-.42-.76-.85-1.14-1.28a82.76,82.76,0,0,0,3.51,10.34,79.19,79.19,0,0,1-1.35-7.91l0,0C115,195.92,114.65,195.53,114.32,195.15Z"/><path class="cls-2" d="M395.32,196.3a76.46,76.46,0,0,1-1.36,7.91,81.16,81.16,0,0,0,3.48-10.2c-.68.77-1.37,1.54-2.1,2.27Z"/><path class="cls-2" d="M288.36,175.7l-1.82-2.11-.42-.48c-2.55,2.78-5.1,5.49-7.63,8.1l8.48,8.48c1.93-2.21,3.86-4.45,5.79-6.79l.83-1-1.66-2C290.74,178.48,289.55,177.09,288.36,175.7Z"/><path class="cls-2" d="M395.21,178.78a44,44,0,0,0,2-4.63.25.25,0,0,1,0,.08,49.54,49.54,0,0,0,2.23-8.82,47.1,47.1,0,0,0-4.24-13.65,55.06,55.06,0,0,1-3.62,13.53A54.71,54.71,0,0,1,395.21,178.78Z"/><path class="cls-2" d="M380.25,221.52c1.86-1,3.67-2,5.43-3.11a79.93,79.93,0,0,0,4.44-12.52L370.58,225.4a64,64,0,0,0,9.72-3.93Z"/><path class="cls-2" d="M372.91,211.92c-1.75.75-3.52,1.42-5.3,2h0l-14.34,14.39c1.39,0,2.78-.08,4.16-.21a59.21,59.21,0,0,0,6.54-1l25.79-25.7a67.23,67.23,0,0,1-16.36,10.33C373.22,211.82,373.06,211.86,372.91,211.92Z"/><path class="cls-2" d="M271.18,156.8l-8.54,8.55,8.54,8.55c2.66-2.74,5.33-5.61,8-8.54-2.06-2.25-4.12-4.47-6.17-6.61C272.41,158.11,271.79,157.43,271.18,156.8Z"/><path class="cls-2" d="M351.74,102.34a62.59,62.59,0,0,0-44.55,18.46l-17.78,17.77c2,2.28,4,4.61,6,7l.42.49c.57-.7,1.13-1.37,1.7-2.08,15.3-18.26,33.81-28.72,52.19-29.53,16.32-.67,31.67,6,45.63,19.94,14.61,14.61,17.82,36.87,13.22,58l.3-.62a63,63,0,0,0-57.12-89.45Z"/><path class="cls-2" d="M307.91,165.35q-1.87-2-3.71-4.11l-.08-.1h0c-1.27-1.44-2.53-2.88-3.76-4.32q-3.64,4.37-7.28,8.53,3.63,4.16,7.28,8.53C302.8,171,305.32,168.17,307.91,165.35Z"/><path class="cls-2" d="M309.67,162.18l.59.64c12.71-13.43,27-24.95,42.46-25.63,10.16-.47,19.72,3.88,28.7,12.87a46.52,46.52,0,0,1,8.13,11,54.22,54.22,0,0,0,2.8-14.07c-.39-.59-.8-1.16-1.24-1.72l-8.06-8.09c-10.4-8.7-21.48-12.85-32.89-12.39-15.44.68-31.3,9.84-44.65,25.77-1,1.21-1.95,2.37-2.93,3.55,2,2.31,4,4.63,6.05,6.92Z"/><path class="cls-2" d="M152.73,228c1.54.15,3.11.21,4.68.25L143.08,213.9a63.91,63.91,0,0,1-22.16-12.49l25.82,25.77q3,.58,6,.88Z"/><path class="cls-2" d="M287,141l-8.48,8.47c2.53,2.61,5.08,5.33,7.63,8.1,2.49-2.85,5-5.79,7.47-8.8l-.83-1C290.83,145.47,288.9,143.22,287,141Z"/><path class="cls-2" d="M346.37,237.94h0c-.85-.07-1.7-.12-2.54-.21l-25.64,25.71a88.78,88.78,0,0,1-125.73,0l-25.63-25.71a76.58,76.58,0,0,1-9.08.45l34.82,34.76A88.78,88.78,0,0,0,318,273l34.89-34.79c-2.17,0-4.32-.07-6.48-.24Z"/><path class="cls-2" d="M114.75,177.38c.15.34.35.66.51,1,.06.13.13.25.19.37a54.77,54.77,0,0,1,3.64-13.43c-.06-.16-.14-.3-.2-.46-.32-.8-.59-1.61-.87-2.42-.18-.51-.36-1-.51-1.51-.28-.89-.53-1.78-.76-2.68-.11-.41-.2-.82-.3-1.24-.23-1-.45-2-.63-3h0c-.13-.75-.24-1.5-.35-2.25a47.26,47.26,0,0,0-4.19,13.43,50.64,50.64,0,0,0,2,8.21C113.69,174.77,114.18,176.1,114.75,177.38Z"/><path class="cls-3" d="M192.61,52.86,153,92.36c1.72-.14,3.44-.27,5.16-.29l34.37-34.3a88.77,88.77,0,0,1,125.4,0l34.44,34.34c1.74,0,3.47.15,5.2.29L318,52.86A88.76,88.76,0,0,0,192.61,52.86Z"/><path class="cls-3" d="M192.46,67.26,167.21,92.59c1.44.16,2.88.31,4.31.56l20.95-21a88.75,88.75,0,0,1,125.72,0l20.95,21c1.43-.25,2.87-.4,4.3-.56L318.19,67.26A88.78,88.78,0,0,0,192.46,67.26Z"/><path class="cls-3" d="M162.19,102.5l-.53,0c.13.06.27.1.39.17Z"/><path class="cls-3" d="M353.24,228.29l-9.41,9.44c.84.09,1.69.14,2.54.21h0c2.16.17,4.31.25,6.48.24l.05-.05q2.58,0,5.16-.24L358,238a74.17,74.17,0,0,0,12.12-1.89l9-9a62.19,62.19,0,0,0,5.88-6.94c.29-.59.49-1.21.76-1.8-1.76,1.13-3.57,2.16-5.43,3.11l.05-.05a64,64,0,0,1-9.72,3.93,61.57,61.57,0,0,1-6.64,1.72,59.21,59.21,0,0,1-6.54,1C356,228.21,354.63,228.25,353.24,228.29Z"/><path class="cls-3" d="M95.64,128.45a73.36,73.36,0,0,0,11.45,88.66C84,192.87,79.54,156.43,95.64,128.45Z"/><path class="cls-3" d="M269,117.53l-.88-.8c-1.74-1.58-3.49-3.12-5.23-4.6l-1.44-1.22c-2-1.7-4.07-3.36-6.1-4.92h0c-2,1.53-4,3.14-6,4.8l-1.49,1.27q-2.43,2.06-4.84,4.25l-1.21,1.09q-6.8,6.24-13.62,13.51l2.42,2.42c.53-.56,1.06-1.07,1.58-1.63,1.69-1.77,3.37-3.54,5.05-5.21l18.08,18.07h0l18.07-18.07c1.74,1.72,3.47,3.54,5.21,5.37h0l1.43,1.47,2.42-2.42Q275.71,123.71,269,117.53ZM255.33,129.8l-10.58-10.43c3.53-3.22,7.06-6.2,10.58-9,3.52,2.78,7,5.76,10.58,9Z"/><path class="cls-3" d="M122.63,141.73a35.6,35.6,0,0,0-3.08,3.55l8-8.09C125.93,138.6,124.27,140.09,122.63,141.73Z"/><path class="cls-3" d="M192.56,42.61a88.78,88.78,0,0,1,125.54,0l51.77,51.78A72.83,72.83,0,0,1,404.5,114.5c-.32-.33-.58-.68-.91-1L386.35,96.25h0L318.1,28a88.76,88.76,0,0,0-125.54,0L124.32,96.24h0L107.06,113.5c-.32.32-.58.67-.9,1a72.8,72.8,0,0,1,34.62-20.11Z"/><path class="cls-3" d="M289.41,138.57l-26.78,26.78h0l8.54-8.55c.61.63,1.23,1.31,1.84,1.95,2.05,2.14,4.11,4.36,6.17,6.61,2.31,2.52,4.61,5.1,6.93,7.75l.42.48,1.82,2.11c1.19,1.39,2.38,2.78,3.57,4.2l1.66,2,.15-.19c2.14-2.55,4.35-5.18,6.62-7.84q-3.64-4.37-7.28-8.53l0,0q-3.48-4-7-7.75l0,0c-2.55-2.77-5.1-5.49-7.63-8.1L287,141c1.93,2.2,3.86,4.45,5.79,6.78l.83,1,2.23-2.7-.42-.49C293.41,143.18,291.41,140.85,289.41,138.57Z"/><path class="cls-3" d="M388,141.73c-1.64-1.64-3.3-3.13-5-4.54l8.06,8.09A35.6,35.6,0,0,0,388,141.73Z"/><path class="cls-3" d="M397.17,174.15a44,44,0,0,1-2,4.63,39.54,39.54,0,0,1-2.86,4.87c-.39.57-.75,1.15-1.17,1.69l-.05.07,0,0A37.65,37.65,0,0,1,388,189c-1.64,1.64-3.3,3.13-5,4.53h0c-10.41,8.7-21.48,12.85-32.89,12.39-15.44-.68-31.3-9.83-44.65-25.77l-.12-.14-.59-.72h0c-.74-.91-1.48-1.79-2.22-2.69-2.12,2.49-4.19,5-6.19,7.35l-.57.69c.57.69,1.13,1.36,1.7,2.07.36.43.73.83,1.09,1.25h0a101.3,101.3,0,0,0,11.8,11.67h0c1,.85,2,1.66,3.06,2.44l.09.06c1,.76,2,1.5,3,2.2l.2.13c1,.68,2,1.33,3,1.95l.3.18c1,.59,1.93,1.17,2.9,1.71l.46.24c.92.5,1.85,1,2.78,1.45l.65.3c.87.42,1.75.83,2.63,1.2l.85.34c.82.33,1.63.67,2.45,1l1.08.36c.75.26,1.51.52,2.27.75.43.13.86.23,1.29.35.68.19,1.37.38,2.06.55l1.62.33c.59.12,1.17.26,1.76.36s1.42.2,2.13.3l1.26.18c1.13.12,2.27.21,3.41.26a53.17,53.17,0,0,0,6.06-.1c1-.07,2-.25,2.93-.38s1.67-.17,2.5-.32a50.59,50.59,0,0,0,6.38-1.53h0c1.78-.56,3.55-1.23,5.3-2,.15-.06.31-.1.46-.17a67.23,67.23,0,0,0,16.36-10.33h0c1.86-1.56,3.71-3.24,5.52-5a5.43,5.43,0,0,1,.23-1.73c-.05.56-.1,1.12-.16,1.67l0,0c.73-.73,1.42-1.5,2.1-2.27a69.53,69.53,0,0,0,2-28.6,49.54,49.54,0,0,1-2.23,8.82A.25.25,0,0,0,397.17,174.15Z"/><path class="cls-3" d="M391.55,165.29a55.06,55.06,0,0,0,3.62-13.53,38,38,0,0,0-2.82-4.76,54.22,54.22,0,0,1-2.8,14.07Q390.65,163.13,391.55,165.29Z"/><path class="cls-3" d="M415,128.45c16.1,28,11.63,64.42-11.45,88.66A73.36,73.36,0,0,0,415,128.45Z"/><path class="cls-3" d="M408.54,192.52c.11-.24.21-.49.32-.73l-.3.62A.36.36,0,0,0,408.54,192.52Z"/><path class="cls-3" d="M166.74,237.64c1.43-.16,2.85-.35,4.27-.6l0,.05a76.22,76.22,0,0,0,17.82-5.32l.17-.08c2-.9,4-1.88,6-3,.44-.25.86-.54,1.3-.79,1.57-.91,3.14-1.83,4.65-2.86.9-.6,1.74-1.3,2.61-1.94,1-.77,2.09-1.5,3.09-2.32,1.85-1.53,3.65-3.16,5.38-4.88l13.24-13.25h0l2.9-2.9c-2.32-2.47-4.63-5-6.95-7.66l-17.78,17.78a62.46,62.46,0,0,1-41.28,18.29h0c-1.09.06-2.17.16-3.27.16-.51,0-1-.07-1.51-.08-1.57,0-3.14-.1-4.68-.25l0,0q-3.06-.3-6-.88l11,11a76.58,76.58,0,0,0,9.08-.45Z"/><path d="M122.63,189c1.64,1.64,3.3,3.13,5,4.53l-8.17-8.19A37.82,37.82,0,0,0,122.63,189Z"/><path d="M143.08,213.9l14.33,14.38c.51,0,1,.08,1.51.08,1.1,0,2.18-.1,3.27-.16h0l-12.73-12.77A50.59,50.59,0,0,1,143.08,213.9Z"/><path d="M217.07,181.91h0l-2.23,2.7h0l.41.49c2,2.41,4,4.74,6,7,2.32,2.65,4.63,5.19,6.95,7.66a228,228,0,0,0,27.13,24.92h0a228,228,0,0,0,27.13-24.92L280,197.37c-2.22,2.36-4.43,4.65-6.64,6.84l-18.07-18.07h0l-18.08,18.07c-2.2-2.19-4.41-4.48-6.63-6.84h0a97,97,0,0,1-6.93-7.68c-1.93-2.21-3.86-4.45-5.79-6.79Zm38.26,18.85,10.58,10.57c-3.53,3.22-7.06,6.2-10.58,9-3.52-2.79-7.05-5.77-10.58-9Z"/><path d="M339.61,237.09l-21.42,21.47a88.75,88.75,0,0,1-125.72,0l-21.42-21.47,0-.05c-1.42.25-2.84.44-4.27.6l.09.09,25.63,25.71a88.78,88.78,0,0,0,125.73,0l25.64-25.71,9.41-9.44,14.34-14.39a50.59,50.59,0,0,1-6.38,1.53L348.47,228.2Z"/><path d="M388,189a37.65,37.65,0,0,0,3.12-3.59l0,0-8.08,8.1C384.73,192.11,386.39,190.62,388,189Z"/><polygon points="383.05 193.51 383.05 193.51 383.05 193.51 383.05 193.51 383.05 193.51"/><path d="M121.13,169.6c-.75-1.4-1.43-2.82-2-4.28a54.77,54.77,0,0,0-3.64,13.43,38,38,0,0,0,2.86,4.9,54.24,54.24,0,0,1,2.81-14Z"/><path d="M395.21,178.78a54.71,54.71,0,0,0-3.66-13.49q-.9-2.16-2-4.22a46.52,46.52,0,0,0-8.13-11c-9-9-18.54-13.34-28.7-12.87-15.42.68-29.75,12.2-42.46,25.63h0c.78.85,1.57,1.69,2.36,2.53,12.27-13,25.95-24.09,40.27-24.72,9.18-.45,17.71,3.47,26.1,11.86a44,44,0,0,1,8.85,12.86c.62,1.37,1.19,2.77,1.69,4.21a54.3,54.3,0,0,1,2.83,14.09A39.54,39.54,0,0,0,395.21,178.78Z"/><path d="M200.4,162.82c-12.71-13.43-27-24.95-42.46-25.63-10.16-.47-19.72,3.88-28.7,12.87a46,46,0,0,0-8.12,11,46,46,0,0,0,1.71,4.31v0a44.2,44.2,0,0,1,8.84-12.86c8.4-8.39,16.93-12.31,26.11-11.86,14.32.63,28,11.74,40.27,24.72.8.84,1.57,1.69,2.35,2.54,2.63,2.86,5.19,5.78,7.67,8.69.74-.9,1.48-1.82,2.22-2.7-2.43-2.85-4.95-5.71-7.54-8.53C202,164.5,201.19,163.65,200.4,162.82Z"/><path d="M415,128.45c-.37-.64-.73-1.28-1.12-1.92-.72-1.16-1.52-2.29-2.32-3.43-.68-1-1.37-1.94-2.11-2.89s-1.47-1.79-2.23-2.67c-.57-.67-1.08-1.36-1.68-2-.34-.37-.72-.67-1.06-1a73.21,73.21,0,0,0-46.89-22.14c-1.73-.14-3.46-.27-5.2-.29a74.7,74.7,0,0,0-9,.52c-1.43.16-2.87.31-4.3.56a72.89,72.89,0,0,0-39.26,20.34l-17.42,17.42L280,133.33,255.33,158l-24.71-24.71-2.42-2.42-17.42-17.42a72.89,72.89,0,0,0-39.26-20.34c-1.43-.25-2.87-.4-4.31-.56a73.34,73.34,0,0,0-9-.52c-1.72,0-3.44.15-5.16.29a73.17,73.17,0,0,0-46.88,22.14c-.35.36-.72.67-1.06,1-.6.65-1.11,1.34-1.68,2-.76.89-1.52,1.77-2.23,2.68s-1.43,1.92-2.11,2.89c-.8,1.14-1.6,2.27-2.32,3.43-.39.64-.75,1.28-1.12,1.92-16.1,28-11.63,64.42,11.45,88.66.43.45.81.93,1.25,1.37l16,16h0l68.24,68.24a88.76,88.76,0,0,0,125.54,0l68.24-68.24h0l16-16c.44-.44.82-.92,1.25-1.37C426.65,192.87,431.12,156.43,415,128.45Zm-6.16,63.34c-.11.24-.21.49-.32.73a.36.36,0,0,1,0-.11c4.6-21.12,1.39-43.38-13.22-58-14-13.95-29.31-20.61-45.63-19.94-18.38.81-36.89,11.27-52.19,29.53-.57.71-1.13,1.38-1.7,2.08l-2.23,2.7c-2.5,3-5,6-7.47,8.8l0,0q3.48,3.78,7,7.75l0,0q3.63-4.15,7.28-8.53c.74-.89,1.48-1.8,2.22-2.7,1-1.18,1.95-2.34,2.93-3.55,13.35-15.93,29.21-25.09,44.65-25.77,11.41-.46,22.49,3.69,32.89,12.39,1.68,1.41,3.34,2.9,5,4.54a35.6,35.6,0,0,1,3.08,3.55c.44.56.85,1.13,1.24,1.72a38,38,0,0,1,2.82,4.76,47.1,47.1,0,0,1,4.24,13.65,69.53,69.53,0,0,1-2,28.6,81.16,81.16,0,0,1-3.48,10.2,76.46,76.46,0,0,0,1.36-7.91c.06-.55.11-1.11.16-1.67a5.43,5.43,0,0,0-.23,1.73c-1.81,1.81-3.66,3.49-5.52,5h0l-25.79,25.7a61.57,61.57,0,0,0,6.64-1.72l19.54-19.51a79.93,79.93,0,0,1-4.44,12.52c-.27.59-.47,1.21-.76,1.8a62.19,62.19,0,0,1-5.88,6.94l-9,9-52,52a88.78,88.78,0,0,1-125.54,0l-52-52-9-9a62.19,62.19,0,0,1-5.88-6.94c-.29-.59-.49-1.21-.76-1.8a78.92,78.92,0,0,1-4.44-12.52l19.67,19.64L152.71,238l39.9,39.84a88.78,88.78,0,0,0,125.43,0L358,238l.12-.12q-2.58.21-5.16.24l-.05.05L318,273a88.78,88.78,0,0,1-125.4,0l-34.82-34.76-11-11-25.82-25.77c-1.88-1.58-3.74-3.27-5.58-5.11a79.19,79.19,0,0,0,1.35,7.91,82.76,82.76,0,0,1-3.51-10.34,69.38,69.38,0,0,1-1.9-28.65,47.26,47.26,0,0,1,4.19-13.43A39.64,39.64,0,0,1,118.3,147c.4-.59.81-1.16,1.25-1.72a35.6,35.6,0,0,1,3.08-3.55c1.64-1.64,3.3-3.13,5-4.54,10.41-8.7,21.49-12.85,32.9-12.39,15.44.68,31.3,9.84,44.65,25.77,1,1.21,1.95,2.36,2.92,3.54,2.12-2.48,4.2-5,6.2-7.34l.57-.68c-.57-.7-1.14-1.37-1.71-2.08-15.29-18.26-33.8-28.72-52.18-29.53-16.32-.67-31.67,6-45.63,19.94-14.63,14.64-17.83,37-13.2,58.1-.76-1.6-1.44-3.23-2.07-4.88-.22-.6-.46-1.19-.67-1.79-.09-.26-.16-.53-.25-.79-.36-1.09-.7-2.18-1-3.29a63,63,0,0,1,60.78-79.43c.92,0,1.83.1,2.74.14l.53,0a62.52,62.52,0,0,1,41.28,18.3l17.78,17.77L248,165.35h0l-8.55,8.55c-2.65-2.74-5.33-5.61-8-8.55q-3.44-3.76-6.91-7.76-3.73-4.28-7.47-8.8l-.16.19c-2.13,2.55-4.35,5.18-6.62,7.83h0q3.64,4.37,7.28,8.53,3.48,4,7,7.76c2.55,2.78,5.1,5.49,7.63,8.1l-8.48,8.48L248,165.35c1.72,1.61,3.76,3.88,7.31,7.31h0l7.3-7.31,26.78,26.78c2-2.28,4-4.61,6-7l.42-.49.57-.69c2-2.39,4.07-4.86,6.19-7.35,2.48-2.9,5.05-5.83,7.68-8.69h0c-.79-.84-1.57-1.68-2.35-2.53h0c-2.59,2.82-5.11,5.68-7.55,8.53-2.27,2.66-4.48,5.29-6.62,7.84l-.15.19-.83,1c-1.93,2.34-3.86,4.58-5.79,6.79l-8.48-8.48c2.53-2.61,5.08-5.32,7.63-8.1-2.32-2.65-4.62-5.23-6.93-7.75-2.68,2.93-5.35,5.8-8,8.54l-8.54-8.55h0l26.78-26.78,17.78-17.77a62.95,62.95,0,0,1,101.67,71Z"/><path class="cls-3" d="M115.82,154c.18,1,.4,2,.63,3,.1.42.19.83.3,1.24.23.9.48,1.79.76,2.68.15.5.33,1,.51,1.51.28.81.55,1.62.87,2.42.06.16.14.3.2.46.61,1.46,1.29,2.88,2,4.28h0c.06.11.13.22.2.33.42.79.86,1.58,1.34,2.34.3.5.62,1,.94,1.46.55.81,1.13,1.61,1.73,2.39.3.39.59.79.91,1.17a44.77,44.77,0,0,0,3,3.34c9,9,18.54,13.34,28.7,12.88a33.67,33.67,0,0,0,3.74-.41l.87-.14c1.21-.22,2.42-.49,3.62-.83.15,0,.31-.11.47-.15,1.07-.32,2.13-.7,3.18-1.11l.93-.36c1.13-.47,2.25-1,3.37-1.54.3-.15.6-.32.9-.48.88-.46,1.75-.95,2.62-1.46l1.09-.65c1-.63,2-1.3,3-2,.45-.31.89-.64,1.33-1,.66-.47,1.32-1,2-1.47s1-.77,1.52-1.17c.84-.68,1.67-1.37,2.5-2.08.59-.5,1.18-1,1.77-1.54l1.17-1.06q1.86-1.69,3.68-3.48c.11-.11.23-.21.33-.32q2.22-2.17,4.36-4.43c-.78-.85-1.55-1.7-2.35-2.54-.9,1-1.8,1.9-2.72,2.83l-1.11,1.1c-.64.64-1.28,1.27-1.93,1.89l-1.14,1.1c-.91.85-1.82,1.68-2.74,2.49l-1,.92c-.79.68-1.59,1.35-2.39,2l-.76.62q-1.49,1.19-3,2.28l-1,.67c-1,.73-2.08,1.44-3.13,2.09l-.48.29c-1,.59-1.93,1.14-2.9,1.66l-.8.43c-1.09.55-2.17,1.06-3.27,1.52-.22.1-.45.18-.67.27-1,.4-2,.76-3,1.07l-.55.18a33.34,33.34,0,0,1-3.39.8l-.76.13a31.66,31.66,0,0,1-3.51.39c-9.18.44-17.71-3.48-26.11-11.87-.94-1-1.83-2-2.69-3-.28-.35-.54-.71-.81-1.06-.55-.7-1.08-1.41-1.58-2.14-.31-.44-.59-.9-.88-1.36-.42-.67-.83-1.34-1.22-2-.29-.51-.56-1-.82-1.54s-.57-1.16-.84-1.75v0a46,46,0,0,1-1.71-4.31c-.19-.53-.38-1.06-.55-1.61-.23-.75-.43-1.52-.62-2.28-.16-.59-.33-1.17-.46-1.77a56.83,56.83,0,0,1-1.19-8.4,39.64,39.64,0,0,0-2.83,4.79c.11.75.22,1.5.35,2.25Z"/><path class="cls-3" d="M149.46,215.43a53,53,0,0,0,11.49.8c18.38-.81,36.89-11.28,52.18-29.54l.14-.17c.52-.65,1-1.26,1.57-1.9h0l2.23-2.7h0l1.72-2.09c1.76-2.09,3.51-4.14,5.27-6.15h0l.48-.56q-3.48-3.78-7-7.76-3.35,3.83-6.69,7.81l-.6.72c-.74.88-1.48,1.8-2.22,2.7-.93,1.13-1.87,2.25-2.8,3.4l-.12.15c-13.35,15.94-29.21,25.09-44.65,25.77-11.41.46-22.49-3.69-32.89-12.39h0c-1.68-1.4-3.34-2.89-5-4.53a37.82,37.82,0,0,1-3.19-3.66c-.41-.54-.75-1.12-1.13-1.67a38,38,0,0,1-2.86-4.9c-.06-.12-.13-.24-.19-.37-.16-.34-.36-.66-.51-1-.57-1.28-1.06-2.61-1.51-3.95a50.64,50.64,0,0,1-2-8.21,69.38,69.38,0,0,0,1.9,28.65c.38.43.75.86,1.14,1.28s.64.77,1,1.13l0,0c1.84,1.84,3.7,3.53,5.58,5.11a63.91,63.91,0,0,0,22.16,12.49A50.59,50.59,0,0,0,149.46,215.43Z"/><path class="cls-3" d="M141.85,236.37l.26,0a74.5,74.5,0,0,0,10.6,1.59l-12.5-12.48c-.73-.22-1.43-.52-2.15-.77h0a63,63,0,0,1-7.43-3.16l0,0a64,64,0,0,1-5.69-3.23c.27.59.47,1.21.76,1.8a62.19,62.19,0,0,0,5.88,6.94l9,9c.41.1.83.15,1.25.25Z"/><path class="cls-3" d="M230.62,197.37l24.71-24.71L280,197.37l2.42,2.42,5.44,5.45,10.7,10.7a76.12,76.12,0,0,0,41,21.15l8.86-8.89a62.46,62.46,0,0,1-41.28-18.29l-14.38-14.38-3.4-3.4-26.78-26.78-7.3,7.31h0c-3.55-3.43-5.59-5.7-7.31-7.31l-24.33,24.34a97,97,0,0,0,6.93,7.68Z"/><path class="cls-3" d="M304.12,161.14l.08.1q1.83,2.07,3.71,4.11h0c.78.85,1.56,1.69,2.35,2.53h0l1.14,1.18,1.36,1.4c.57.58,1.15,1.15,1.72,1.72l1.62,1.57c.53.51,1.07,1,1.61,1.53.7.65,1.4,1.28,2.11,1.91.49.44,1,.88,1.48,1.3,1,.84,2,1.66,2.95,2.45l1.29,1c.74.57,1.48,1.12,2.22,1.66.46.33.92.65,1.39,1,.76.53,1.53,1,2.3,1.52.42.26.85.54,1.27.79,1.07.64,2.14,1.24,3.22,1.81l.39.21c1.2.61,2.41,1.15,3.63,1.65.38.16.77.29,1.15.44.87.33,1.74.64,2.62.91l1.31.37c.88.24,1.76.44,2.65.61.4.08.79.17,1.19.23a32.91,32.91,0,0,0,3.84.42c10.16.46,19.72-3.89,28.7-12.88l0,0a46.37,46.37,0,0,0,8.06-11c-.5-1.44-1.07-2.84-1.69-4.21a45.27,45.27,0,0,1-2.72,5.05c-.72,1.18-1.52,2.31-2.35,3.41-.18.24-.35.5-.54.74A41.31,41.31,0,0,1,379,178.2h0c-8.39,8.39-16.92,12.31-26.1,11.87a31.38,31.38,0,0,1-3.61-.4c-.38-.06-.76-.15-1.14-.23-.83-.17-1.66-.36-2.48-.59-.42-.12-.84-.24-1.26-.38-.81-.25-1.61-.54-2.41-.86-.39-.15-.78-.29-1.17-.46-1-.41-1.94-.87-2.9-1.35l-.59-.29c-1.16-.61-2.32-1.27-3.46-2-.33-.2-.65-.42-1-.63-.82-.53-1.65-1.07-2.47-1.65q-.6-.42-1.2-.87c-.75-.55-1.5-1.11-2.25-1.7l-1.17-.92c-.82-.67-1.63-1.36-2.44-2.06l-.87-.73q-1.62-1.44-3.22-2.94l-.81-.79c-.8-.77-1.6-1.55-2.4-2.35l-1.15-1.17c-.68-.69-1.36-1.4-2-2.11l-.27-.28c-.79-.84-1.58-1.68-2.36-2.53h0l-.59-.64-1-1.14c-2.06-2.29-4.08-4.61-6.05-6.92-.74.9-1.48,1.81-2.22,2.7,1.23,1.44,2.49,2.88,3.76,4.32Z"/><path class="cls-3" d="M200.4,162.82c.79.83,1.57,1.68,2.35,2.53,2.59-2.81,5.11-5.68,7.55-8.53h0c2.27-2.65,4.49-5.28,6.62-7.83l.16-.19.83-1c1.27-1.54,2.54-3,3.81-4.47h0c.66-.76,1.32-1.56,2-2.31l8.48,8.47c-2.53,2.61-5.08,5.33-7.63,8.1q3.47,4,6.91,7.76l.23-.25h0q3-3.3,6-6.43h0l1.77-1.88,8.55,8.55h0l-26.77-26.78c-.31.36-.62.7-.94,1.05h0q-2.52,2.91-5.06,6l-.41.49-.57.68c-2,2.39-4.08,4.86-6.2,7.34-1.82,2.13-3.67,4.27-5.57,6.39C201.81,161.28,201.11,162.05,200.4,162.82Z"/></svg>