<svg id="Capa_1" data-name="Capa 1" xmlns="http://www.w3.org/2000/svg" viewBox="0 0 512 512"><defs><style>.cls-1{fill:#fff;}.cls-2{fill:none;}.cls-3{fill:gray;}</style></defs><title>512x512 px blanco</title><path class="cls-1" d="M89.87,456.54V377.37h10.82v65.35A9.39,9.39,0,0,0,101,446c.23.45,1,.67,2.23.67h24v9.92Z"/><path class="cls-1" d="M165.59,435v21.61h-9.82v-53.3a26.24,26.24,0,0,1,7.36-18.84,24.13,24.13,0,0,1,18.18-7.7,24.45,24.45,0,0,1,18.17,7.81,25.77,25.77,0,0,1,7.59,18.62v53.41h-9.6V433.9a10.82,10.82,0,0,0-.22-2.34,2.93,2.93,0,0,0-1.06-1.67,4.13,4.13,0,0,0-2.62-.67h-23a13.43,13.43,0,0,0-2.11.11,4.93,4.93,0,0,0-1.9,1.07c-.67.56-1,1.62-1,3.19ZM197,413.61V402.68A16.51,16.51,0,0,0,192.66,391a14.9,14.9,0,0,0-11.52-4.74,13.35,13.35,0,0,0-11,5.35,19.81,19.81,0,0,0-4.19,12.6v12.05a3.84,3.84,0,0,0,.78,2.51,3.46,3.46,0,0,0,2,1.22,13.41,13.41,0,0,0,3,.28H192a11.22,11.22,0,0,0,2.11-.11,3.28,3.28,0,0,0,1.78-1.12,3.82,3.82,0,0,0,.77-1.22,5,5,0,0,0,.34-2Z"/><path class="cls-1" d="M235.84,387v-9.59h52.52V387H272.3q-1.33,0-2.73.06a2.49,2.49,0,0,0-1.9.66,3.36,3.36,0,0,0-.5,2.07v66.9H256.24V391.31c0-1.79-.18-2.9-.55-3.35a2.71,2.71,0,0,0-1.45-.89,11.69,11.69,0,0,0-1.9-.11Z"/><path class="cls-1" d="M316.46,456.65V376.81h10.81v79.84Z"/><path class="cls-1" d="M369.09,429v27.65h-8.81V403.13q0-11.37,6.75-18.57a22.45,22.45,0,0,1,17.11-7.19,21.61,21.61,0,0,1,16.39,7.13,23.81,23.81,0,0,1,6.7,16.83q0,10.59-6.92,16.83a28,28,0,0,1-12.93,6.35c-.6.08-.9.37-.9.9a4.56,4.56,0,0,0,.74,1.95,36.68,36.68,0,0,0,2.2,3.28l18.89,25.84-10.79.17-23.08-30.44a18.7,18.7,0,0,0-2.23-2.9,2.56,2.56,0,0,0-2.12-.56c-.37.08-.63.55-.78,1.4a16.46,16.46,0,0,0-.22,2.84Zm15.44-42.49A13.57,13.57,0,0,0,374.31,391a14.78,14.78,0,0,0-4.22,10.48,13.94,13.94,0,0,0,4.11,10.26,14.22,14.22,0,0,0,10.55,4.13,11.75,11.75,0,0,0,9.5-4.52A16.21,16.21,0,0,0,398,400.67a14.22,14.22,0,0,0-3.89-9.92A12.47,12.47,0,0,0,384.53,386.51Z"/><path class="cls-1" d="M105.88,494l-13.55,0v.26a7.24,7.24,0,0,0,1.93,5.16,6.88,6.88,0,0,0,5.23,2,7.52,7.52,0,0,0,5.69-2.24l.48.52a8.45,8.45,0,0,1-6.24,2.38A7.69,7.69,0,0,1,93.78,500a7.6,7.6,0,0,1-2.18-5.62,7.73,7.73,0,0,1,2.11-5.6,7.26,7.26,0,0,1,5.45-2.18,6.74,6.74,0,0,1,4.92,1.8,6.83,6.83,0,0,1,1.83,5.1A2.81,2.81,0,0,1,105.88,494Zm-6.72-6.75a6.74,6.74,0,0,0-4.61,1.67,6.62,6.62,0,0,0-2.18,4.46l12.81,0a6.22,6.22,0,0,0-1.71-4.49A5.87,5.87,0,0,0,99.16,487.27Z"/><path class="cls-1" d="M123.5,487.05h.73v22.76h-.73v-12a7.31,7.31,0,0,1-2.63,3.23,7,7,0,0,1-4,1.17,6.83,6.83,0,0,1-5.2-2.22,8.5,8.5,0,0,1,0-11.12,6.83,6.83,0,0,1,5.2-2.22,6.91,6.91,0,0,1,4,1.18A7.25,7.25,0,0,1,123.5,491ZM117,501.51a6.15,6.15,0,0,0,4.68-2,7.81,7.81,0,0,0,0-10.19,6.48,6.48,0,0,0-9.4,0,7.83,7.83,0,0,0,0,10.2A6.19,6.19,0,0,0,117,501.51Z"/><path class="cls-1" d="M142.58,495.13v-8.08h.74v8.08a7.33,7.33,0,0,1-1.75,5.21,7,7,0,0,1-9.5,0,7.33,7.33,0,0,1-1.75-5.21v-8.08h.74v8.08a6.72,6.72,0,0,0,1.54,4.68,6.09,6.09,0,0,0,8.44,0A6.72,6.72,0,0,0,142.58,495.13Z"/><path class="cls-1" d="M150.66,481.62a.72.72,0,0,1-.81-.81c0-.51.27-.77.81-.77a.7.7,0,0,1,.8.77A.71.71,0,0,1,150.66,481.62Zm-.37,20.11V487.05H151v14.68Z"/><path class="cls-1" d="M170.37,476h.73v25.69h-.73v-4a7.31,7.31,0,0,1-2.63,3.23,7,7,0,0,1-4,1.17,6.8,6.8,0,0,1-5.19-2.22,8.47,8.47,0,0,1,0-11.12,6.8,6.8,0,0,1,5.19-2.22,6.91,6.91,0,0,1,4,1.18,7.25,7.25,0,0,1,2.63,3.23Zm-6.57,25.47a6.17,6.17,0,0,0,4.71-2,7.8,7.8,0,0,0,0-10.18,6.44,6.44,0,0,0-9.39,0,7.83,7.83,0,0,0,0,10.2A6.14,6.14,0,0,0,163.8,501.51Z"/><path class="cls-1" d="M189.9,487.05h.73v14.68h-.73v-4a7.31,7.31,0,0,1-2.63,3.23,7,7,0,0,1-4,1.17,6.83,6.83,0,0,1-5.2-2.22,8.5,8.5,0,0,1,0-11.12,6.83,6.83,0,0,1,5.2-2.22,6.91,6.91,0,0,1,4,1.18A7.25,7.25,0,0,1,189.9,491Zm-6.58,14.46a6.18,6.18,0,0,0,4.72-2,7.8,7.8,0,0,0,0-10.18,6.12,6.12,0,0,0-4.68-2,6.19,6.19,0,0,0-4.72,2,7.83,7.83,0,0,0,0,10.2A6.14,6.14,0,0,0,183.32,501.51Z"/><path class="cls-1" d="M209.09,476h.74v25.69h-.74v-4a7.22,7.22,0,0,1-2.62,3.23,7,7,0,0,1-4,1.17,6.82,6.82,0,0,1-5.2-2.22,8.5,8.5,0,0,1,0-11.12,6.82,6.82,0,0,1,5.2-2.22,6.91,6.91,0,0,1,4,1.18,7.17,7.17,0,0,1,2.62,3.23Zm-6.57,25.47a6.18,6.18,0,0,0,4.72-2,7.8,7.8,0,0,0,0-10.18,6.46,6.46,0,0,0-9.4,0,7.83,7.83,0,0,0,0,10.2A6.14,6.14,0,0,0,202.52,501.51Z"/><path class="cls-1" d="M238.38,494l-13.54,0v.26a7.2,7.2,0,0,0,1.93,5.16,6.86,6.86,0,0,0,5.23,2,7.54,7.54,0,0,0,5.69-2.24l.47.52a8.44,8.44,0,0,1-6.24,2.38,7.65,7.65,0,0,1-5.63-2.16,7.56,7.56,0,0,1-2.18-5.62,7.73,7.73,0,0,1,2.11-5.6,7.25,7.25,0,0,1,5.45-2.18,6.74,6.74,0,0,1,4.92,1.8,6.83,6.83,0,0,1,1.83,5.1A2,2,0,0,1,238.38,494Zm-6.71-6.75a6.74,6.74,0,0,0-4.61,1.67,6.62,6.62,0,0,0-2.18,4.46l12.81,0a6.22,6.22,0,0,0-1.71-4.49A5.89,5.89,0,0,0,231.67,487.27Z"/><path class="cls-1" d="M244,493.69v8h-.74v-8a7.28,7.28,0,0,1,1.82-5.17,6.28,6.28,0,0,1,4.82-1.95,6.19,6.19,0,0,1,4.78,1.95,7.31,7.31,0,0,1,1.79,5.17v8h-.73v-8a6.67,6.67,0,0,0-1.61-4.66,5.49,5.49,0,0,0-4.23-1.76,5.56,5.56,0,0,0-4.29,1.76A6.62,6.62,0,0,0,244,493.69Z"/><path class="cls-1" d="M284.78,494l-13.54,0v.26a7.23,7.23,0,0,0,1.92,5.16,6.89,6.89,0,0,0,5.23,2,7.52,7.52,0,0,0,5.69-2.24l.48.52a8.44,8.44,0,0,1-6.24,2.38,7.65,7.65,0,0,1-5.63-2.16,7.57,7.57,0,0,1-2.19-5.62,7.73,7.73,0,0,1,2.11-5.6,7.26,7.26,0,0,1,5.45-2.18,6.71,6.71,0,0,1,4.92,1.8,6.84,6.84,0,0,1,1.84,5.1A2.55,2.55,0,0,1,284.78,494Zm-6.72-6.75a6.6,6.6,0,0,0-6.79,6.13l12.81,0a6.25,6.25,0,0,0-1.7-4.49A5.9,5.9,0,0,0,278.06,487.27Z"/><path class="cls-1" d="M290,501.73V476h.73v25.69Z"/><path class="cls-1" d="M323.17,486.57a5,5,0,0,1,4,1.69,7,7,0,0,1,1.46,4.7v8.77h-.74V493a6.25,6.25,0,0,0-1.27-4.18,4.3,4.3,0,0,0-3.5-1.51,4.86,4.86,0,0,0-3.73,1.63,5.8,5.8,0,0,0-1.48,4.06v8.77h-.74V493a6,6,0,0,0-1.39-4.06,4.8,4.8,0,0,0-7.18,0,5.93,5.93,0,0,0-1.41,4.09v8.77h-.74V493a6.57,6.57,0,0,1,1.64-4.59,5.25,5.25,0,0,1,4.05-1.8,5.48,5.48,0,0,1,3.42,1.16,5.67,5.67,0,0,1,2,3.21,5.41,5.41,0,0,1,2.11-3.21A5.84,5.84,0,0,1,323.17,486.57Z"/><path class="cls-1" d="M346.63,495.13v-8.08h.73v8.08a7.37,7.37,0,0,1-1.74,5.21,7,7,0,0,1-9.51,0,7.37,7.37,0,0,1-1.74-5.21v-8.08h.73v8.08a6.77,6.77,0,0,0,1.54,4.68,6.1,6.1,0,0,0,8.45,0A6.77,6.77,0,0,0,346.63,495.13Z"/><path class="cls-1" d="M353.86,493.69v8h-.74v-8a7.28,7.28,0,0,1,1.82-5.17,6.28,6.28,0,0,1,4.83-1.95,6.18,6.18,0,0,1,4.77,1.95,7.32,7.32,0,0,1,1.8,5.17v8h-.74v-8A6.67,6.67,0,0,0,364,489a5.49,5.49,0,0,0-4.22-1.76,5.57,5.57,0,0,0-4.3,1.76A6.62,6.62,0,0,0,353.86,493.69Z"/><path class="cls-1" d="M384.84,476h.73v25.69h-.73v-4a7.31,7.31,0,0,1-2.63,3.23,7,7,0,0,1-4,1.17A6.8,6.8,0,0,1,373,500a8.47,8.47,0,0,1,0-11.12,6.8,6.8,0,0,1,5.19-2.22,6.91,6.91,0,0,1,4,1.18,7.25,7.25,0,0,1,2.63,3.23Zm-6.57,25.47a6.17,6.17,0,0,0,4.71-2,7.8,7.8,0,0,0,0-10.18,6.44,6.44,0,0,0-9.39,0,7.83,7.83,0,0,0,0,10.2A6.14,6.14,0,0,0,378.27,501.51Z"/><path class="cls-1" d="M398.09,502.17a7.34,7.34,0,0,1-5.45-2.18,8.37,8.37,0,0,1,0-11.2,7.93,7.93,0,0,1,10.92,0,8.43,8.43,0,0,1,0,11.2A7.32,7.32,0,0,1,398.09,502.17Zm-4.92-2.68a7,7,0,0,0,9.84,0,7.11,7.11,0,0,0,1.94-5.13,7,7,0,0,0-1.94-5.11,7.1,7.1,0,0,0-9.84,0,7,7,0,0,0-1.94,5.11A7.07,7.07,0,0,0,393.17,499.49Z"/><path class="cls-2" d="M259.65,210.93l-10.56-10.55-10.56,10.55c3.53,3.21,7.05,6.18,10.56,9C252.6,217.11,256.12,214.14,259.65,210.93Z"/><path class="cls-2" d="M217.88,173.33q-2.62,3-5.26,6.15c-.57.68-1.14,1.39-1.71,2.08l.82,1c1.93,2.33,3.86,4.57,5.78,6.77l8.46-8.46c-2.52-2.6-5.06-5.31-7.61-8.08l-.48.55Z"/><path class="cls-2" d="M224.43,197q3.31,3.54,6.62,6.83l18-18h0l18,18q3.3-3.28,6.62-6.83l-24.66-24.66Z"/><path class="cls-2" d="M189.92,172l-.33.32q-1.82,1.78-3.68,3.48l-1.17,1.05c-.58.52-1.17,1-1.76,1.54-.83.71-1.66,1.4-2.5,2.07L179,181.63c-.65.5-1.31,1-2,1.46-.44.32-.88.65-1.33.95-1,.7-2,1.36-3,2-.36.23-.72.44-1.09.65-.86.51-1.74,1-2.61,1.46-.3.16-.6.33-.9.48-1.12.56-2.24,1.07-3.37,1.54l-.92.36c-1.05.41-2.11.78-3.18,1.1l-.47.15c-1.19.34-2.4.61-3.61.83l-.87.15a36,36,0,0,1-3.73.4c-10.14.46-19.68-3.88-28.65-12.85a44.62,44.62,0,0,1-3-3.34c-.32-.38-.61-.77-.91-1.16-.6-.79-1.17-1.58-1.72-2.39-.32-.48-.64-1-.94-1.45-.48-.77-.92-1.55-1.34-2.34a3.79,3.79,0,0,1-.2-.34,54.17,54.17,0,0,0-2.8,14c.37.55.71,1.13,1.12,1.66l8.15,8.18h0c10.38,8.69,21.44,12.83,32.82,12.37,15.42-.68,31.24-9.82,44.57-25.72l.12-.15c.93-1.16,1.86-2.27,2.8-3.4-2.48-2.9-5-5.81-7.66-8.68C192.84,169.07,191.39,170.54,189.92,172Z"/><path class="cls-2" d="M311.83,258.07l21.38-21.44a75.93,75.93,0,0,1-40.93-21.11L281.6,204.84l-5.43-5.43a227.13,227.13,0,0,1-27.08,24.87h0A227.9,227.9,0,0,1,222,199.41l-2.89,2.9h0L205.9,215.52c-1.72,1.73-3.52,3.35-5.37,4.88-1,.82-2.05,1.54-3.08,2.31-.87.64-1.71,1.34-2.6,1.94-1.51,1-3.07,1.94-4.64,2.85-.44.25-.86.55-1.3.79-2,1.08-3.95,2.05-6,3l-.17.09a75.93,75.93,0,0,1-17.79,5.3l21.38,21.44A88.6,88.6,0,0,0,311.83,258.07Z"/><path class="cls-2" d="M300.85,209.5a62.35,62.35,0,0,0,41.2,18.26L354.76,215c-.83.14-1.66.21-2.49.32s-1.95.31-2.93.38a50.94,50.94,0,0,1-6.06.09c-1.13-.05-2.26-.13-3.4-.26-.42,0-.84-.12-1.26-.17-.7-.1-1.41-.18-2.12-.31s-1.17-.23-1.75-.35l-1.62-.33c-.69-.17-1.37-.36-2.06-.55-.43-.12-.86-.22-1.29-.35-.76-.23-1.51-.49-2.26-.75-.36-.12-.72-.22-1.07-.35-.82-.3-1.64-.63-2.45-1-.29-.11-.57-.21-.85-.33-.88-.38-1.76-.79-2.63-1.2-.21-.11-.43-.2-.64-.3-.93-.46-1.86-1-2.78-1.45l-.46-.24c-1-.54-1.94-1.11-2.9-1.71-.1-.06-.2-.11-.3-.18-1-.61-2-1.27-3-1.94l-.19-.13c-1-.7-2-1.44-3-2.19l-.09-.07c-1-.78-2-1.59-3.05-2.43l0,0a99.36,99.36,0,0,1-11.79-11.64h0c-.36-.42-.73-.82-1.09-1.25-.56-.7-1.13-1.37-1.7-2.07l-.41.49q-3,3.62-6,7l3.39,3.4Z"/><path class="cls-2" d="M214.14,139.36h0c.31-.36.62-.7.94-1.05l-17.75-17.74a62.35,62.35,0,0,0-41.2-18.26l-.14.14c-.12-.07-.26-.11-.39-.17-.91,0-1.81-.13-2.73-.13A62.76,62.76,0,0,0,92.2,181.42c.3,1.11.64,2.2,1,3.28.09.26.16.53.25.79.21.61.45,1.2.68,1.79.62,1.65,1.3,3.28,2.06,4.87-4.62-21.11-1.43-43.38,13.17-58,13.93-13.92,29.25-20.57,45.55-19.9,18.34.81,36.81,11.25,52.08,29.48l1.7,2.07.41-.49C210.78,143.28,212.46,141.3,214.14,139.36Z"/><path class="cls-2" d="M231.5,158.37h0q-3,3.13-6,6.42h0l-.22.25c2.68,2.93,5.35,5.79,8,8.53L241.8,165l-8.53-8.54C232.68,157.11,232.09,157.76,231.5,158.37Z"/><path class="cls-2" d="M151.73,140.36c-9.16-.44-17.68,3.47-26.06,11.84A43.85,43.85,0,0,0,116.85,165c.27.58.54,1.17.83,1.74s.54,1,.82,1.54c.39.69.8,1.37,1.22,2,.29.45.57.91.88,1.36.5.72,1,1.43,1.57,2.13.28.35.53.71.82,1.05.85,1,1.74,2,2.68,3,8.38,8.37,16.9,12.29,26.06,11.84a31.73,31.73,0,0,0,3.5-.38l.77-.13a34.46,34.46,0,0,0,3.38-.8l.55-.18c1-.31,2-.67,3-1.07.22-.09.45-.17.67-.27,1.09-.45,2.18-1,3.26-1.52l.8-.42c1-.52,1.93-1.07,2.9-1.66L171,183c1.05-.65,2.09-1.36,3.13-2.08l1-.68c1-.73,2-1.48,3-2.27l.75-.62c.8-.65,1.6-1.32,2.39-2l1.05-.91q1.38-1.22,2.73-2.49l1.15-1.1c.64-.62,1.28-1.24,1.92-1.88l1.11-1.1c.91-.93,1.82-1.87,2.72-2.82C179.68,152.08,166,141,151.73,140.36Z"/><path class="cls-2" d="M204.14,173.55l.6-.72q3.33-4,6.68-7.79-3.64-4.15-7.27-8.52c-2.44,2.85-5,5.71-7.54,8.52C199.19,167.84,201.71,170.7,204.14,173.55Z"/><path class="cls-2" d="M114,156.87c.2.76.39,1.53.62,2.28.17.54.36,1.07.55,1.6a46.24,46.24,0,0,1,8.1-11c9-9,18.51-13.31,28.65-12.85,15.39.68,29.69,12.19,42.38,25.59l2.1-2.31c1.89-2.12,3.74-4.26,5.55-6.38-1-1.18-1.94-2.33-2.91-3.53-13.33-15.91-29.15-25-44.57-25.73-11.38-.46-22.44,3.68-32.83,12.37l-8,8.07c-.43.56-.84,1.13-1.24,1.72a56.56,56.56,0,0,0,1.19,8.38C113.65,155.7,113.82,156.28,114,156.87Z"/><path class="cls-2" d="M217.51,140.75c-.66.75-1.32,1.55-2,2.31h0c-1.27,1.47-2.54,2.93-3.81,4.46l-.82,1c2.48,3,5,5.94,7.45,8.78,2.55-2.77,5.09-5.48,7.61-8.08Z"/><path class="cls-2" d="M238.53,119.15l10.56,10.4,10.56-10.4c-3.53-3.22-7-6.19-10.56-9C245.58,113,242.06,115.93,238.53,119.15Z"/><path class="cls-2" d="M186.35,72,165.44,93a72.8,72.8,0,0,1,39.19,20.3L222,130.66q6.81-7.26,13.6-13.48l1.2-1.09q2.41-2.19,4.83-4.24l1.5-1.27c2-1.65,4-3.26,6-4.79h0c2,1.56,4.06,3.21,6.09,4.91l1.44,1.22q2.61,2.22,5.22,4.59l.88.8q6.7,6.16,13.45,13.35l17.38-17.39A72.8,72.8,0,0,1,332.74,93L311.83,72A88.6,88.6,0,0,0,186.35,72Z"/><path class="cls-2" d="M186.45,57.66,152.15,91.9a74.91,74.91,0,0,1,9,.51l25.21-25.27a88.59,88.59,0,0,1,125.48,0L337,92.41A74.2,74.2,0,0,1,346,91.9L311.61,57.62A88.6,88.6,0,0,0,186.45,57.66Z"/><path class="cls-2" d="M272.33,131.61c-1.74-1.82-3.47-3.64-5.2-5.36l-18,18h0l-18-18c-1.68,1.67-3.36,3.44-5,5.2-.53.56-1,1.07-1.58,1.63l24.66,24.66,24.66-24.66c-.47-.51-.95-1-1.42-1.47Z"/><path class="cls-2" d="M346.45,140.36c-14.29.63-27.95,11.72-40.19,24.67l.27.29c.67.71,1.35,1.41,2,2.1.38.39.76.79,1.15,1.17.79.8,1.59,1.58,2.39,2.35l.81.78q1.59,1.5,3.21,2.93l.87.74c.81.7,1.62,1.38,2.44,2.05l1.17.92c.74.58,1.49,1.15,2.24,1.7l1.2.86c.82.58,1.64,1.12,2.46,1.65.32.21.65.43,1,.62q1.71,1.06,3.45,2l.59.28c1,.49,1.92.94,2.89,1.36l1.17.46c.8.31,1.6.6,2.41.85.42.14.84.26,1.26.38.82.23,1.65.42,2.48.59l1.13.23a31,31,0,0,0,3.6.39c9.16.45,17.68-3.47,26.06-11.84h0a39.53,39.53,0,0,0,3.22-3.64c.19-.24.36-.5.55-.74.83-1.1,1.62-2.23,2.34-3.4a45.19,45.19,0,0,0,2.71-5,43.85,43.85,0,0,0-8.82-12.84C364.13,143.83,355.61,139.92,346.45,140.36Z"/><path class="cls-2" d="M186.44,42.53,134.77,94.21a73.8,73.8,0,0,1,12.23-2l39.49-39.42a88.61,88.61,0,0,1,125.2,0l39.49,39.42a73.63,73.63,0,0,1,12.23,2L311.74,42.53A88.62,88.62,0,0,0,186.44,42.53Z"/><path class="cls-2" d="M208.68,184.26c-.52.65-1,1.26-1.57,1.91l-.13.16c-15.27,18.23-33.74,28.67-52.08,29.48a52.8,52.8,0,0,1-11.47-.79l12.7,12.74a62.35,62.35,0,0,0,41.2-18.26l17.75-17.74q-3-3.4-6-7Z"/><path class="cls-2" d="M298.47,178.93l.59.72a.76.76,0,0,1,.11.14c13.33,15.9,29.15,25,44.57,25.72,11.38.46,22.44-3.68,32.83-12.37h0l8.06-8.09.05-.06c.42-.55.78-1.12,1.17-1.69A54.56,54.56,0,0,0,383,169.23a46.28,46.28,0,0,1-8,11l0,0c-9,9-18.5,13.31-28.64,12.85a35.2,35.2,0,0,1-3.84-.41l-1.19-.23c-.88-.18-1.76-.38-2.64-.61l-1.31-.38c-.88-.27-1.75-.58-2.61-.91-.39-.14-.77-.27-1.15-.43-1.22-.5-2.43-1.05-3.63-1.66-.13-.06-.25-.14-.38-.21-1.08-.55-2.15-1.16-3.22-1.79l-1.26-.8c-.78-.49-1.54-1-2.31-1.51-.46-.31-.92-.64-1.38-1-.74-.53-1.48-1.08-2.21-1.65l-1.29-1c-1-.79-2-1.6-2.94-2.44-.5-.42-1-.86-1.48-1.3-.71-.63-1.41-1.26-2.11-1.91l-1.61-1.52c-.54-.52-1.08-1-1.61-1.57l-1.72-1.72-1.35-1.4c-.38-.39-.77-.78-1.15-1.18-2.62,2.87-5.18,5.78-7.66,8.68.74.9,1.48,1.78,2.22,2.69Z"/><path class="cls-2" d="M311.69,277.31a88.61,88.61,0,0,1-125.2,0l-39.82-39.76A72.8,72.8,0,0,1,136.09,236l-.26-.05h0c-.41-.1-.84-.15-1.25-.26l51.87,51.88a88.6,88.6,0,0,0,125.3,0l51.87-51.88a72.92,72.92,0,0,1-12.09,1.89Z"/><path class="cls-2" d="M124.63,221.16a61.22,61.22,0,0,0,7.42,3.16h0c.72.25,1.42.54,2.14.77l-19.63-19.6A78.55,78.55,0,0,0,119,218a62.56,62.56,0,0,0,5.69,3.23Z"/><path class="cls-2" d="M108.36,194.78c-.4-.42-.76-.85-1.14-1.28a83,83,0,0,0,3.5,10.32,76.46,76.46,0,0,1-1.34-7.89l0,0C109,195.55,108.68,195.16,108.36,194.78Z"/><path class="cls-2" d="M388.81,195.93a79.3,79.3,0,0,1-1.35,7.89,82.41,82.41,0,0,0,3.46-10.18c-.67.77-1.36,1.53-2.09,2.27Z"/><path class="cls-2" d="M282.06,175.37l-1.82-2.11-.42-.48c-2.55,2.77-5.09,5.48-7.61,8.08l8.46,8.46c1.93-2.2,3.85-4.44,5.78-6.77l.83-1c-.56-.66-1.11-1.34-1.66-2C284.43,178.14,283.24,176.75,282.06,175.37Z"/><path class="cls-2" d="M388.7,178.43a42.81,42.81,0,0,0,2-4.61.22.22,0,0,0,0,.08,49.41,49.41,0,0,0,2.22-8.81,46.9,46.9,0,0,0-4.23-13.62,54.81,54.81,0,0,1-3.61,13.5A54.58,54.58,0,0,1,388.7,178.43Z"/><path class="cls-2" d="M373.77,221.09a60.6,60.6,0,0,0,5.42-3.1,78.55,78.55,0,0,0,4.43-12.49L364.12,225a63.65,63.65,0,0,0,9.7-3.91Z"/><path class="cls-2" d="M366.45,211.52c-1.75.74-3.52,1.42-5.3,2h0l-14.32,14.35c1.39,0,2.78-.08,4.15-.2a62.07,62.07,0,0,0,6.54-1L383.23,201a67,67,0,0,1-16.33,10.32C366.75,211.41,366.6,211.45,366.45,211.52Z"/><path class="cls-2" d="M264.92,156.5,256.38,165l8.54,8.53c2.64-2.73,5.31-5.6,8-8.52q-3.09-3.39-6.16-6.61Z"/><path class="cls-2" d="M345.31,102.15a62.47,62.47,0,0,0-44.46,18.42l-17.74,17.74c2,2.28,4,4.6,6,7l.41.49c.57-.7,1.14-1.37,1.7-2.07,15.27-18.23,33.75-28.67,52.08-29.48,16.3-.67,31.62,6,45.55,19.9C403.41,148.75,406.61,171,402,192c.1-.21.21-.41.31-.62a62.83,62.83,0,0,0-57-89.27Z"/><path class="cls-2" d="M301.57,165q-1.87-2-3.7-4.11l-.09-.1h0c-1.26-1.43-2.52-2.87-3.74-4.31q-3.65,4.36-7.27,8.52,3.63,4.14,7.27,8.51C296.47,170.7,299,167.85,301.57,165Z"/><path class="cls-2" d="M303.32,161.87c.2.21.4.42.59.64,12.69-13.4,27-24.91,42.39-25.59,10.14-.46,19.67,3.88,28.64,12.85a46.61,46.61,0,0,1,8.11,11,54,54,0,0,0,2.8-14c-.4-.59-.81-1.16-1.24-1.72l-8-8.07c-10.39-8.69-21.45-12.83-32.83-12.37-15.42.68-31.24,9.82-44.57,25.73-1,1.2-1.94,2.35-2.92,3.54,2,2.3,4,4.61,6,6.9Z"/><path class="cls-2" d="M146.69,227.59c1.54.16,3.1.21,4.67.25l-14.31-14.35A63.74,63.74,0,0,1,114.94,201l25.77,25.73c2,.38,4,.68,6,.87Z"/><path class="cls-2" d="M280.67,140.75l-8.46,8.46c2.52,2.6,5.07,5.31,7.61,8.08,2.48-2.84,5-5.78,7.46-8.78l-.83-1C284.52,145.19,282.6,143,280.67,140.75Z"/><path class="cls-2" d="M340,237.48h0c-.84-.07-1.69-.11-2.53-.21l-25.59,25.67a88.6,88.6,0,0,1-125.48,0l-25.59-25.67a74.09,74.09,0,0,1-9.06.45l34.75,34.69a88.6,88.6,0,0,0,125.16,0l34.82-34.73c-2.16,0-4.31-.06-6.47-.24Z"/><path class="cls-2" d="M108.79,177c.15.34.34.66.5,1,.06.12.13.24.19.37A54.62,54.62,0,0,1,113.12,165c-.07-.15-.14-.3-.2-.45-.32-.8-.6-1.61-.88-2.42-.17-.5-.35-1-.51-1.51-.27-.88-.52-1.78-.75-2.68q-.16-.6-.3-1.23c-.23-1-.45-2-.63-3h0c-.13-.74-.24-1.49-.34-2.24a46.85,46.85,0,0,0-4.19,13.4,50.52,50.52,0,0,0,2,8.2A41.57,41.57,0,0,0,108.79,177Z"/><path class="cls-3" d="M186.49,52.76,147,92.18c1.72-.13,3.43-.26,5.15-.28l34.3-34.24a88.6,88.6,0,0,1,125.16,0L346,91.9c1.74,0,3.47.15,5.2.28L311.69,52.76A88.61,88.61,0,0,0,186.49,52.76Z"/><path class="cls-3" d="M186.35,67.14,161.14,92.41c1.44.17,2.88.31,4.3.56l20.91-21a88.6,88.6,0,0,1,125.48,0l20.91,21c1.42-.25,2.86-.39,4.3-.56L311.83,67.13A88.59,88.59,0,0,0,186.35,67.14Z"/><path class="cls-3" d="M156.13,102.31l-.53,0c.13.06.27.1.39.17Z"/><path class="cls-3" d="M346.81,227.85l-9.39,9.42c.84.1,1.69.14,2.53.21h0c2.16.18,4.31.26,6.47.24l.06-.05c1.71,0,3.43-.1,5.14-.24l-.11.12a72.92,72.92,0,0,0,12.09-1.89l8.95-8.94a61.84,61.84,0,0,0,5.87-6.93c.29-.59.49-1.21.76-1.8a60.6,60.6,0,0,1-5.42,3.1l.05,0a63.65,63.65,0,0,1-9.7,3.91A61.25,61.25,0,0,1,351,227.65C349.59,227.77,348.2,227.82,346.81,227.85Z"/><path class="cls-3" d="M89.71,128.21a73.19,73.19,0,0,0,11.43,88.48C78.1,192.51,73.64,156.13,89.71,128.21Z"/><path class="cls-3" d="M262.72,117.31l-.88-.8q-2.61-2.37-5.22-4.59l-1.44-1.22c-2-1.7-4.06-3.35-6.09-4.91h0c-2,1.53-4,3.14-6,4.79l-1.5,1.27q-2.41,2.06-4.83,4.24l-1.2,1.09q-6.8,6.21-13.6,13.48l2.42,2.42c.53-.56,1-1.07,1.58-1.63,1.68-1.76,3.36-3.53,5-5.2l18,18h0l18-18c1.73,1.72,3.46,3.54,5.2,5.36h0c.47.5.95,1,1.42,1.47l2.42-2.42Q269.44,123.48,262.72,117.31Zm-13.63,12.24-10.56-10.4c3.53-3.22,7.05-6.19,10.56-9,3.51,2.78,7,5.75,10.56,9Z"/><path class="cls-3" d="M116.65,141.46a35.49,35.49,0,0,0-3.08,3.54l8-8.07C119.94,138.33,118.28,139.82,116.65,141.46Z"/><path class="cls-3" d="M186.44,42.53a88.62,88.62,0,0,1,125.3,0l51.67,51.68A72.62,72.62,0,0,1,398,114.28c-.31-.33-.58-.68-.9-1L379.85,96.07h0L311.74,28a88.6,88.6,0,0,0-125.3,0L118.33,96.06h0l-17.22,17.21c-.32.32-.59.68-.9,1a72.71,72.71,0,0,1,34.56-20.07Z"/><path class="cls-3" d="M283.11,138.31,256.38,165h0l8.54-8.54,1.83,1.94q3.06,3.21,6.16,6.61,3.45,3.76,6.91,7.73l.42.48,1.82,2.11c1.18,1.38,2.37,2.77,3.56,4.19.55.66,1.1,1.34,1.66,2l.15-.18c2.13-2.55,4.34-5.18,6.61-7.83q-3.65-4.37-7.27-8.51l0,0q-3.48-4-7-7.73l0-.05c-2.54-2.77-5.09-5.48-7.61-8.08l8.46-8.46c1.93,2.2,3.85,4.44,5.78,6.77l.83,1,2.22-2.7-.41-.49C287.09,142.91,285.1,140.59,283.11,138.31Z"/><path class="cls-3" d="M381.54,141.46c-1.64-1.64-3.3-3.13-5-4.53l8,8.07A36.72,36.72,0,0,0,381.54,141.46Z"/><path class="cls-3" d="M390.66,173.82a42.81,42.81,0,0,1-2,4.61,39.47,39.47,0,0,1-2.85,4.87c-.39.57-.75,1.14-1.17,1.69l-.05.06,0,0a36.36,36.36,0,0,1-3.11,3.59c-1.64,1.63-3.3,3.12-5,4.52h0c-10.39,8.69-21.45,12.83-32.83,12.37-15.42-.68-31.24-9.82-44.57-25.72a.76.76,0,0,0-.11-.14l-.59-.72h0c-.74-.91-1.48-1.79-2.22-2.69-2.12,2.49-4.18,4.95-6.18,7.34l-.57.68c.57.7,1.14,1.37,1.7,2.07.36.43.73.83,1.09,1.25h0a99.36,99.36,0,0,0,11.79,11.64l0,0c1,.84,2,1.65,3.05,2.43l.09.07c1,.75,2,1.49,3,2.19l.19.13c1,.67,2,1.33,3,1.94.1.07.2.12.3.18,1,.6,1.93,1.17,2.9,1.71l.46.24c.92.5,1.85,1,2.78,1.45.21.1.43.19.64.3.87.41,1.75.82,2.63,1.2.28.12.56.22.85.33.81.34,1.63.67,2.45,1,.35.13.71.23,1.07.35.75.26,1.5.52,2.26.75.43.13.86.23,1.29.35.69.19,1.37.38,2.06.55l1.62.33c.58.12,1.17.25,1.75.35s1.42.21,2.12.31c.42.05.84.13,1.26.17,1.14.13,2.27.21,3.4.26a50.94,50.94,0,0,0,6.06-.09c1-.07,2-.25,2.93-.38s1.66-.18,2.49-.32a53.08,53.08,0,0,0,6.37-1.52h0c1.78-.55,3.55-1.23,5.3-2,.15-.07.3-.11.45-.17A67,67,0,0,0,383.23,201h0c1.86-1.57,3.7-3.24,5.51-5.05a5.37,5.37,0,0,1,.23-1.72c-.05.56-.1,1.11-.16,1.67l0,0c.73-.74,1.42-1.5,2.09-2.27a69.11,69.11,0,0,0,2-28.55,49.41,49.41,0,0,1-2.22,8.81A.22.22,0,0,1,390.66,173.82Z"/><path class="cls-3" d="M385.05,165a54.81,54.81,0,0,0,3.61-13.5,37.76,37.76,0,0,0-2.81-4.75,54,54,0,0,1-2.8,14C383.78,162.13,384.45,163.54,385.05,165Z"/><path class="cls-3" d="M408.47,128.21c16.07,27.92,11.61,64.3-11.43,88.48A73.19,73.19,0,0,0,408.47,128.21Z"/><path class="cls-3" d="M402,192.15c.12-.24.21-.49.33-.73-.1.21-.21.41-.31.62A.43.43,0,0,1,402,192.15Z"/><path class="cls-3" d="M160.67,237.18c1.43-.16,2.85-.35,4.26-.59l0,0a75.93,75.93,0,0,0,17.79-5.3l.17-.09c2-.9,4-1.87,6-3,.44-.24.86-.54,1.3-.79,1.57-.91,3.13-1.82,4.64-2.85.89-.6,1.73-1.3,2.6-1.94,1-.77,2.08-1.49,3.08-2.31,1.85-1.53,3.65-3.15,5.37-4.88l13.22-13.21h0l2.89-2.9c-2.31-2.46-4.62-5-6.93-7.65L197.33,209.5a62.35,62.35,0,0,1-41.2,18.26h0c-1.09.06-2.17.16-3.27.16-.51,0-1-.06-1.51-.08-1.57,0-3.13-.09-4.67-.25l0,0c-2-.19-4-.49-6-.87l11,11a74.09,74.09,0,0,0,9.06-.45Z"/><path class="cls-1" d="M116.65,188.62c1.63,1.63,3.29,3.12,5,4.52L113.46,185A36.66,36.66,0,0,0,116.65,188.62Z"/><path class="cls-1" d="M137.05,213.49l14.31,14.35c.51,0,1,.08,1.51.08,1.1,0,2.18-.1,3.27-.16h0L143.43,215A52.82,52.82,0,0,1,137.05,213.49Z"/><path class="cls-1" d="M210.91,181.56h0q-1.11,1.33-2.22,2.7h0l.41.49q3,3.62,6,7c2.31,2.65,4.62,5.19,6.93,7.65a227.9,227.9,0,0,0,27.08,24.87h0a227.13,227.13,0,0,0,27.08-24.87L273.75,197q-3.31,3.54-6.62,6.83l-18-18h0l-18,18q-3.3-3.28-6.62-6.83h0a93.09,93.09,0,0,1-6.92-7.67c-1.92-2.2-3.85-4.44-5.78-6.77Zm38.18,18.82,10.56,10.55c-3.53,3.21-7,6.18-10.56,9-3.51-2.78-7-5.75-10.56-9Z"/><path class="cls-1" d="M333.21,236.63l-21.38,21.44a88.6,88.6,0,0,1-125.48,0L165,236.63l0,0c-1.41.24-2.83.43-4.26.59l.09.09,25.59,25.67a88.6,88.6,0,0,0,125.48,0l25.59-25.67,9.39-9.42,14.32-14.35a53.08,53.08,0,0,1-6.37,1.52l-12.71,12.74Z"/><path class="cls-1" d="M381.54,188.62a36.36,36.36,0,0,0,3.11-3.59l0,0-8.06,8.09C378.24,191.74,379.9,190.25,381.54,188.62Z"/><polygon class="cls-1" points="376.57 193.14 376.57 193.14 376.57 193.14 376.57 193.14 376.57 193.14"/><path class="cls-1" d="M115.15,169.27c-.74-1.39-1.43-2.81-2-4.27a54.62,54.62,0,0,0-3.64,13.41,38.55,38.55,0,0,0,2.86,4.89,54.17,54.17,0,0,1,2.8-14Z"/><path class="cls-1" d="M388.7,178.43A54.58,54.58,0,0,0,385.05,165c-.6-1.43-1.27-2.84-2-4.21a46.61,46.61,0,0,0-8.11-11c-9-9-18.5-13.31-28.64-12.85-15.39.68-29.7,12.19-42.39,25.59h0c.78.85,1.56,1.69,2.35,2.52,12.24-12.95,25.9-24,40.19-24.67,9.16-.44,17.68,3.47,26.06,11.84A43.85,43.85,0,0,1,381.33,165c.62,1.36,1.19,2.75,1.69,4.19a54.56,54.56,0,0,1,2.83,14.07A39.47,39.47,0,0,0,388.7,178.43Z"/><path class="cls-1" d="M194.27,162.51c-12.69-13.4-27-24.91-42.38-25.59-10.14-.46-19.68,3.88-28.65,12.85a46.24,46.24,0,0,0-8.1,11c.5,1.47,1.07,2.91,1.7,4.3h0a43.85,43.85,0,0,1,8.82-12.84c8.38-8.37,16.9-12.28,26.06-11.84,14.29.63,28,11.72,40.2,24.68.79.83,1.56,1.68,2.34,2.52,2.62,2.87,5.18,5.78,7.66,8.68.73-.9,1.47-1.81,2.21-2.69-2.43-2.85-4.95-5.71-7.53-8.51C195.84,164.19,195.06,163.34,194.27,162.51Z"/><path class="cls-1" d="M408.47,128.21c-.37-.64-.73-1.28-1.12-1.92-.72-1.16-1.52-2.29-2.31-3.42s-1.37-1.94-2.1-2.89-1.48-1.79-2.24-2.67c-.56-.66-1.07-1.35-1.67-2-.34-.36-.71-.67-1.06-1a72.62,72.62,0,0,0-34.56-20.07,73.63,73.63,0,0,0-12.23-2c-1.73-.13-3.46-.26-5.2-.28a74.2,74.2,0,0,0-8.94.51c-1.44.17-2.88.31-4.3.56a72.8,72.8,0,0,0-39.19,20.3l-17.38,17.39-2.42,2.42-24.66,24.66-24.66-24.66L222,130.66l-17.38-17.39A72.8,72.8,0,0,0,165.44,93c-1.42-.25-2.86-.39-4.3-.56a74.91,74.91,0,0,0-9-.51c-1.72,0-3.43.15-5.15.28a73.8,73.8,0,0,0-12.23,2,72.71,72.71,0,0,0-34.56,20.07c-.35.36-.72.67-1.06,1-.6.65-1.1,1.34-1.67,2-.76.88-1.53,1.76-2.23,2.67s-1.43,1.91-2.11,2.89-1.59,2.26-2.31,3.42c-.39.64-.75,1.28-1.12,1.92-16.07,27.92-11.61,64.3,11.43,88.48.43.45.8.93,1.24,1.37l16,15.95h0l68.11,68.11a88.6,88.6,0,0,0,125.3,0L379.85,234h0l15.95-15.95c.44-.44.82-.92,1.24-1.37C420.08,192.51,424.54,156.13,408.47,128.21Zm-6.14,63.21c-.12.24-.21.49-.33.73a.43.43,0,0,0,0-.11c4.59-21.07,1.39-43.29-13.19-57.88-13.93-13.92-29.25-20.57-45.55-19.9-18.33.81-36.81,11.25-52.08,29.48-.56.7-1.13,1.37-1.7,2.07l-2.22,2.7c-2.49,3-5,5.94-7.46,8.78l0,.05q3.48,3.76,7,7.73l0,0q3.63-4.15,7.27-8.52c.74-.89,1.47-1.79,2.21-2.69,1-1.19,1.95-2.34,2.92-3.54,13.33-15.91,29.15-25,44.57-25.73,11.38-.46,22.44,3.68,32.83,12.37,1.67,1.4,3.33,2.89,5,4.53a36.72,36.72,0,0,1,3.07,3.54c.43.56.84,1.13,1.24,1.72a37.76,37.76,0,0,1,2.81,4.75,46.9,46.9,0,0,1,4.23,13.62,69.11,69.11,0,0,1-2,28.55,82.41,82.41,0,0,1-3.46,10.18,79.3,79.3,0,0,0,1.35-7.89c.06-.56.11-1.11.16-1.67a5.37,5.37,0,0,0-.23,1.72c-1.81,1.81-3.65,3.48-5.51,5.05h0L357.5,226.69a61.87,61.87,0,0,0,6.62-1.73l19.5-19.46A78.55,78.55,0,0,1,379.19,218c-.27.59-.47,1.21-.76,1.8a61.84,61.84,0,0,1-5.87,6.93l-8.95,8.94-51.87,51.88a88.6,88.6,0,0,1-125.3,0l-51.87-51.88-8.95-8.94a62.91,62.91,0,0,1-5.87-6.93c-.28-.59-.49-1.21-.76-1.8a78.55,78.55,0,0,1-4.43-12.49l19.63,19.6,12.48,12.45,39.82,39.76a88.61,88.61,0,0,0,125.2,0l39.83-39.76.11-.12c-1.71.14-3.43.22-5.14.24l-.06.05-34.82,34.73a88.6,88.6,0,0,1-125.16,0L151.7,237.72l-11-11L114.94,201c-1.87-1.57-3.73-3.26-5.56-5.09a76.46,76.46,0,0,0,1.34,7.89,83,83,0,0,1-3.5-10.32,69.32,69.32,0,0,1-1.9-28.6,46.85,46.85,0,0,1,4.19-13.4,38.18,38.18,0,0,1,2.82-4.78c.4-.59.81-1.16,1.24-1.72a35.49,35.49,0,0,1,3.08-3.54c1.63-1.64,3.29-3.13,5-4.53,10.39-8.69,21.45-12.83,32.83-12.37,15.42.68,31.24,9.82,44.57,25.73,1,1.2,1.94,2.35,2.91,3.53,2.12-2.48,4.19-4.94,6.19-7.33l.57-.68-1.7-2.07c-15.27-18.23-33.74-28.67-52.08-29.48-16.3-.67-31.62,6-45.55,19.9-14.6,14.61-17.79,36.88-13.17,58-.76-1.59-1.44-3.22-2.06-4.87-.23-.59-.47-1.18-.68-1.79-.09-.26-.16-.53-.25-.79-.35-1.08-.69-2.17-1-3.28a62.83,62.83,0,0,1,60.67-79.27c.92,0,1.82.09,2.73.13l.53,0a62.35,62.35,0,0,1,41.2,18.26l17.75,17.74L241.8,165h0l-8.53,8.53c-2.66-2.74-5.33-5.6-8-8.53q-3.44-3.76-6.9-7.75c-2.48-2.84-5-5.78-7.45-8.78l-.16.19c-2.13,2.54-4.35,5.17-6.61,7.81h0q3.63,4.36,7.27,8.52c2.31,2.64,4.63,5.23,6.94,7.74,2.55,2.77,5.09,5.48,7.61,8.08l-8.46,8.46L241.8,165c1.71,1.6,3.75,3.87,7.29,7.29h0l7.29-7.29,26.73,26.72q3-3.4,6-7l.41-.49.57-.68c2-2.39,4.06-4.85,6.18-7.34,2.48-2.9,5-5.81,7.66-8.68h0c-.79-.84-1.57-1.68-2.35-2.53h0c-2.58,2.81-5.1,5.66-7.53,8.51-2.27,2.65-4.48,5.28-6.61,7.83l-.15.18-.83,1c-1.93,2.33-3.85,4.57-5.78,6.77l-8.46-8.46c2.52-2.6,5.06-5.31,7.61-8.08q-3.46-4-6.91-7.73c-2.68,2.92-5.35,5.79-8,8.52L256.38,165h0l26.73-26.72,17.74-17.74a62.83,62.83,0,0,1,101.48,70.85Z"/><path class="cls-3" d="M109.85,153.75c.18,1,.4,2,.63,3q.13.63.3,1.23c.23.9.48,1.8.75,2.68.16.51.34,1,.51,1.51.28.81.56,1.62.88,2.42.06.15.13.3.2.45.6,1.46,1.29,2.88,2,4.27h0a3.79,3.79,0,0,0,.2.34c.42.79.86,1.57,1.34,2.34.3.49.62,1,.94,1.45.55.81,1.12,1.6,1.72,2.39.3.39.59.78.91,1.16a44.62,44.62,0,0,0,3,3.34c9,9,18.51,13.31,28.65,12.85a36,36,0,0,0,3.73-.4l.87-.15c1.21-.22,2.42-.49,3.61-.83l.47-.15c1.07-.32,2.13-.69,3.18-1.1l.92-.36c1.13-.47,2.25-1,3.37-1.54.3-.15.6-.32.9-.48.87-.46,1.75-.95,2.61-1.46.37-.21.73-.42,1.09-.65,1-.63,2-1.29,3-2,.45-.3.89-.63,1.33-.95.66-.47,1.32-1,2-1.46l1.51-1.18c.84-.67,1.67-1.36,2.5-2.07.59-.5,1.18-1,1.76-1.54l1.17-1.05q1.86-1.69,3.68-3.48l.33-.32c1.47-1.45,2.92-2.92,4.35-4.43-.78-.84-1.55-1.69-2.34-2.52-.9,1-1.81,1.89-2.72,2.82L188.1,169c-.64.64-1.28,1.26-1.92,1.88l-1.15,1.1q-1.35,1.27-2.73,2.49l-1.05.91c-.79.68-1.59,1.35-2.39,2l-.75.62c-1,.79-2,1.54-3,2.27l-1,.68c-1,.72-2.08,1.43-3.13,2.08l-.47.29c-1,.59-1.93,1.14-2.9,1.66l-.8.42c-1.08.55-2.17,1.07-3.26,1.52-.22.1-.45.18-.67.27-1,.4-2,.76-3,1.07l-.55.18a34.46,34.46,0,0,1-3.38.8l-.77.13a31.73,31.73,0,0,1-3.5.38c-9.16.45-17.68-3.47-26.06-11.84-.94-1-1.83-1.94-2.68-3-.29-.34-.54-.7-.82-1.05-.54-.7-1.07-1.41-1.57-2.13-.31-.45-.59-.91-.88-1.36-.42-.67-.83-1.35-1.22-2-.28-.51-.55-1-.82-1.54s-.56-1.16-.83-1.74h0c-.63-1.39-1.2-2.83-1.7-4.3-.19-.53-.38-1.06-.55-1.6-.23-.75-.42-1.52-.62-2.28-.15-.59-.32-1.17-.45-1.77a56.56,56.56,0,0,1-1.19-8.38,38.18,38.18,0,0,0-2.82,4.78c.1.75.21,1.5.34,2.24Z"/><path class="cls-3" d="M143.43,215a52.8,52.8,0,0,0,11.47.79c18.34-.81,36.81-11.25,52.08-29.48l.13-.16c.53-.65,1-1.26,1.57-1.91h0q1.11-1.37,2.22-2.7h0c.57-.69,1.14-1.4,1.71-2.08q2.64-3.12,5.26-6.15h0l.48-.55c-2.31-2.51-4.63-5.1-6.94-7.74q-3.34,3.81-6.68,7.79l-.6.72c-.74.88-1.48,1.79-2.21,2.69-.94,1.13-1.87,2.24-2.8,3.4l-.12.15c-13.33,15.9-29.15,25-44.57,25.72-11.38.46-22.44-3.68-32.82-12.37h0c-1.67-1.4-3.33-2.89-5-4.52a36.66,36.66,0,0,1-3.19-3.66c-.41-.53-.75-1.11-1.12-1.66a38.55,38.55,0,0,1-2.86-4.89c-.06-.13-.13-.25-.19-.37-.16-.34-.35-.66-.5-1a41.57,41.57,0,0,1-1.51-3.94,50.52,50.52,0,0,1-2-8.2,69.32,69.32,0,0,0,1.9,28.6c.38.43.74.86,1.14,1.28s.64.77,1,1.13l0,0c1.83,1.83,3.69,3.52,5.56,5.09a63.74,63.74,0,0,0,22.11,12.47A52.82,52.82,0,0,0,143.43,215Z"/><path class="cls-3" d="M135.83,235.92l.26.05a72.8,72.8,0,0,0,10.58,1.58L134.19,225.1c-.72-.23-1.42-.52-2.14-.77h0a61.22,61.22,0,0,1-7.42-3.16l.05.06A62.56,62.56,0,0,1,119,218c.27.59.48,1.21.76,1.8a62.91,62.91,0,0,0,5.87,6.93l8.95,8.94c.41.11.84.16,1.25.26Z"/><path class="cls-3" d="M224.43,197l24.66-24.66L273.75,197l2.42,2.42,5.43,5.43,10.68,10.68a75.93,75.93,0,0,0,40.93,21.11l8.84-8.87a62.35,62.35,0,0,1-41.2-18.26L286.5,195.16l-3.39-3.4L256.38,165l-7.29,7.29h0c-3.54-3.42-5.58-5.69-7.29-7.29l-24.29,24.28a93.09,93.09,0,0,0,6.92,7.67Z"/><path class="cls-3" d="M297.78,160.83l.09.1q1.83,2.07,3.7,4.11h0c.78.85,1.56,1.69,2.35,2.53h0c.38.4.77.79,1.15,1.18l1.35,1.4,1.72,1.72c.53.53,1.07,1,1.61,1.57l1.61,1.52c.7.65,1.4,1.28,2.11,1.91.49.44,1,.88,1.48,1.3,1,.84,1.95,1.65,2.94,2.44l1.29,1c.73.57,1.47,1.12,2.21,1.65.46.33.92.66,1.38,1,.77.53,1.53,1,2.31,1.51l1.26.8c1.07.63,2.14,1.24,3.22,1.79.13.07.25.15.38.21,1.2.61,2.41,1.16,3.63,1.66.38.16.76.29,1.15.43.86.33,1.73.64,2.61.91l1.31.38c.88.23,1.76.43,2.64.61l1.19.23a35.2,35.2,0,0,0,3.84.41c10.14.46,19.67-3.88,28.64-12.85l0,0a46.28,46.28,0,0,0,8-11c-.5-1.44-1.07-2.83-1.69-4.19a45.19,45.19,0,0,1-2.71,5c-.72,1.17-1.51,2.3-2.34,3.4-.19.24-.36.5-.55.74a39.53,39.53,0,0,1-3.22,3.64h0c-8.38,8.37-16.9,12.29-26.06,11.84a31,31,0,0,1-3.6-.39l-1.13-.23c-.83-.17-1.66-.36-2.48-.59-.42-.12-.84-.24-1.26-.38-.81-.25-1.61-.54-2.41-.85l-1.17-.46c-1-.42-1.93-.87-2.89-1.36l-.59-.28q-1.74-.91-3.45-2c-.32-.19-.65-.41-1-.62-.82-.53-1.64-1.07-2.46-1.65l-1.2-.86c-.75-.55-1.5-1.12-2.24-1.7l-1.17-.92c-.82-.67-1.63-1.35-2.44-2.05l-.87-.74q-1.62-1.43-3.21-2.93l-.81-.78c-.8-.77-1.6-1.55-2.39-2.35-.39-.38-.77-.78-1.15-1.17-.68-.69-1.36-1.39-2-2.1l-.27-.29c-.79-.83-1.57-1.67-2.35-2.52h0c-.19-.22-.39-.43-.59-.64l-1-1.14c-2.06-2.29-4.07-4.6-6-6.9-.74.9-1.47,1.8-2.21,2.69,1.22,1.44,2.48,2.88,3.74,4.31Z"/><path class="cls-3" d="M194.27,162.51c.79.83,1.57,1.68,2.34,2.53,2.59-2.81,5.1-5.67,7.54-8.52h0c2.26-2.64,4.48-5.27,6.61-7.81l.16-.19.82-1c1.27-1.53,2.54-3,3.81-4.46h0c.65-.76,1.31-1.56,2-2.31l8.46,8.46c-2.52,2.6-5.06,5.31-7.61,8.08q3.46,4,6.9,7.75l.22-.25h0q3-3.28,6-6.42h0c.59-.61,1.18-1.26,1.77-1.87L241.8,165h0l-26.72-26.72c-.32.35-.63.69-.94,1.05h0c-1.68,1.94-3.36,3.92-5,6l-.41.49-.57.68c-2,2.39-4.07,4.85-6.19,7.33-1.81,2.12-3.66,4.26-5.55,6.38Z"/></svg>