<svg id="Capa_1" data-name="Capa 1" xmlns="http://www.w3.org/2000/svg" viewBox="0 0 64 64"><defs><style>.cls-1{fill:#fff;}.cls-2{fill:none;}.cls-3{fill:gray;}</style></defs><title>64x64 px blanco</title><path class="cls-1" d="M11.27,56.92V47.18H12.6v8a1,1,0,0,0,.05.4c0,.06.11.08.27.08h2.95v1.22Z"/><path class="cls-1" d="M20.59,54.28v2.66H19.38V50.38a3.2,3.2,0,0,1,.91-2.32,3,3,0,0,1,2.23-1,3,3,0,0,1,2.24,1,3.19,3.19,0,0,1,.93,2.3v6.57H24.51v-2.8a2.33,2.33,0,0,0,0-.29.46.46,0,0,0-.13-.21.57.57,0,0,0-.33-.08H21.21l-.26,0a.48.48,0,0,0-.24.13.5.5,0,0,0-.12.39Zm3.87-2.64V50.3a2,2,0,0,0-.54-1.44,1.83,1.83,0,0,0-1.42-.58,1.62,1.62,0,0,0-1.35.66,2.4,2.4,0,0,0-.52,1.55V52a.45.45,0,0,0,.1.31.38.38,0,0,0,.24.15,2,2,0,0,0,.37,0H24.1a.38.38,0,0,0,.22-.14.36.36,0,0,0,.1-.15.75.75,0,0,0,0-.24Z"/><path class="cls-1" d="M29.23,48.36V47.18h6.46v1.18H33.38a.29.29,0,0,0-.23.08.43.43,0,0,0-.06.26v8.23H31.74v-8a.83.83,0,0,0-.06-.41.29.29,0,0,0-.18-.11l-.24,0Z"/><path class="cls-1" d="M39.15,56.94V47.11h1.33v9.83Z"/><path class="cls-1" d="M45.63,53.53v3.41H44.54V50.35a3.21,3.21,0,0,1,.83-2.28,2.79,2.79,0,0,1,2.11-.89,2.7,2.7,0,0,1,2,.88,3,3,0,0,1,.82,2.07,2.63,2.63,0,0,1-.85,2.07,3.31,3.31,0,0,1-1.59.78c-.08,0-.11.05-.11.11a.51.51,0,0,0,.09.24,4.62,4.62,0,0,0,.27.41l2.32,3.18-1.32,0-2.84-3.75a2.33,2.33,0,0,0-.28-.36.31.31,0,0,0-.26-.06s-.08.06-.1.17a3.49,3.49,0,0,0,0,.35Zm1.9-5.22a1.67,1.67,0,0,0-1.26.55,1.78,1.78,0,0,0-.52,1.29,1.71,1.71,0,0,0,.51,1.26,1.73,1.73,0,0,0,1.29.51,1.44,1.44,0,0,0,1.17-.56,2,2,0,0,0,.46-1.31,1.74,1.74,0,0,0-.48-1.22A1.52,1.52,0,0,0,47.53,48.31Z"/><path class="cls-1" d="M13.24,61.53H11.58v0a.93.93,0,0,0,.23.64.89.89,0,0,0,.65.25,1,1,0,0,0,.7-.28l.06.06a1,1,0,0,1-.77.3.92.92,0,0,1-.69-.27,1,1,0,0,1,0-1.38.87.87,0,0,1,.67-.27.78.78,0,0,1,.83.85S13.25,61.52,13.24,61.53Zm-.82-.83a.82.82,0,0,0-.57.21.88.88,0,0,0-.27.55h1.58A.81.81,0,0,0,13,60.9.74.74,0,0,0,12.42,60.7Z"/><path class="cls-1" d="M15.41,60.68h.09v2.8h-.09V62a.88.88,0,0,1-.32.39.84.84,0,0,1-.49.15.81.81,0,0,1-.64-.28,1,1,0,0,1,0-1.36.81.81,0,0,1,.64-.28.84.84,0,0,1,.49.15.88.88,0,0,1,.32.39Zm-.8,1.78a.76.76,0,0,0,.57-.25.95.95,0,0,0,0-1.26.78.78,0,0,0-.58-.25A.76.76,0,0,0,14,61a.95.95,0,0,0,0,1.26A.78.78,0,0,0,14.61,62.46Z"/><path class="cls-1" d="M17.76,61.67v-1h.09v1a.91.91,0,0,1-.21.64.75.75,0,0,1-.59.23.72.72,0,0,1-.58-.23.87.87,0,0,1-.22-.64v-1h.09v1a.83.83,0,0,0,.19.58.75.75,0,0,0,1,0A.83.83,0,0,0,17.76,61.67Z"/><path class="cls-1" d="M18.75,60a.09.09,0,0,1-.1-.1.09.09,0,0,1,.1-.1.09.09,0,0,1,.1.1C18.85,60,18.82,60,18.75,60Zm0,2.47v-1.8h.09v1.8Z"/><path class="cls-1" d="M21.18,59.32h.09v3.16h-.09V62a.84.84,0,0,1-.33.39.86.86,0,0,1-1.12-.13,1,1,0,0,1,0-1.36.86.86,0,0,1,1.12-.13.84.84,0,0,1,.33.39Zm-.81,3.14a.79.79,0,0,0,.58-.25A1,1,0,0,0,21,61a.8.8,0,0,0-1.16,0,1,1,0,0,0,0,1.26A.79.79,0,0,0,20.37,62.46Z"/><path class="cls-1" d="M23.58,60.68h.09v1.8h-.09V62a.88.88,0,0,1-.32.39.86.86,0,0,1-.49.15.81.81,0,0,1-.64-.28,1,1,0,0,1,0-1.36.81.81,0,0,1,.64-.28.86.86,0,0,1,.49.15.88.88,0,0,1,.32.39Zm-.81,1.78a.78.78,0,0,0,.58-.25,1,1,0,0,0,0-1.26.79.79,0,0,0-1.15,0,.95.95,0,0,0,0,1.26A.76.76,0,0,0,22.77,62.46Z"/><path class="cls-1" d="M25.94,59.32H26v3.16h-.09V62a.88.88,0,0,1-.32.39.84.84,0,0,1-.49.15.81.81,0,0,1-.64-.28,1,1,0,0,1,0-1.36.81.81,0,0,1,.64-.28.84.84,0,0,1,.49.15.88.88,0,0,1,.32.39Zm-.81,3.14a.76.76,0,0,0,.58-.25.95.95,0,0,0,0-1.26.76.76,0,0,0-.57-.25.78.78,0,0,0-.58.25,1,1,0,0,0,0,1.26A.77.77,0,0,0,25.13,62.46Z"/><path class="cls-1" d="M29.55,61.53H27.88v0a.89.89,0,0,0,.24.64.85.85,0,0,0,.64.25,1,1,0,0,0,.7-.28l.06.06a1,1,0,0,1-.77.3.92.92,0,0,1-1-1,1,1,0,0,1,.26-.69.89.89,0,0,1,.67-.27.85.85,0,0,1,.6.22.82.82,0,0,1,.23.63Zm-.83-.83a.84.84,0,0,0-.57.21.88.88,0,0,0-.27.55h1.58a.81.81,0,0,0-.21-.55A.72.72,0,0,0,28.72,60.7Z"/><path class="cls-1" d="M30.24,61.49v1h-.09v-1a.93.93,0,0,1,.22-.63.86.86,0,0,1,1.19,0,.93.93,0,0,1,.22.63v1h-.09v-1a.84.84,0,0,0-.2-.57.74.74,0,0,0-1,0A.84.84,0,0,0,30.24,61.49Z"/><path class="cls-1" d="M35.25,61.53H33.59v0a.93.93,0,0,0,.23.64.89.89,0,0,0,.65.25,1,1,0,0,0,.7-.28l.06.06a1,1,0,0,1-.77.3,1,1,0,0,1-.7-1.65.87.87,0,0,1,.67-.27.78.78,0,0,1,.83.85S35.26,61.52,35.25,61.53Zm-.82-.83a.82.82,0,0,0-.57.21.88.88,0,0,0-.27.55h1.58A.81.81,0,0,0,35,60.9.74.74,0,0,0,34.43,60.7Z"/><path class="cls-1" d="M35.9,62.48V59.32H36v3.16Z"/><path class="cls-1" d="M40,60.62a.61.61,0,0,1,.49.21.83.83,0,0,1,.18.57v1.08h-.09V61.4a.78.78,0,0,0-.16-.51A.54.54,0,0,0,40,60.7a.59.59,0,0,0-.46.21.71.71,0,0,0-.18.49v1.08h-.09V61.4a.75.75,0,0,0-.17-.49.57.57,0,0,0-.45-.21.59.59,0,0,0-.44.2.76.76,0,0,0-.17.5v1.08h-.09V61.4a.83.83,0,0,1,.2-.56.63.63,0,0,1,.5-.22.73.73,0,0,1,.42.14.79.79,0,0,1,.25.4.69.69,0,0,1,.26-.4A.74.74,0,0,1,40,60.62Z"/><path class="cls-1" d="M42.86,61.67v-1H43v1a.91.91,0,0,1-.21.64.74.74,0,0,1-.59.23.73.73,0,0,1-.58-.23.91.91,0,0,1-.21-.64v-1h.09v1a.83.83,0,0,0,.19.58.64.64,0,0,0,.51.21.66.66,0,0,0,.52-.21A.83.83,0,0,0,42.86,61.67Z"/><path class="cls-1" d="M43.75,61.49v1h-.09v-1a.89.89,0,0,1,.23-.63.76.76,0,0,1,.59-.24.78.78,0,0,1,.59.24.93.93,0,0,1,.22.63v1H45.2v-1a.84.84,0,0,0-.2-.57.74.74,0,0,0-1,0A.84.84,0,0,0,43.75,61.49Z"/><path class="cls-1" d="M47.56,59.32h.09v3.16h-.09V62a.88.88,0,0,1-.32.39.81.81,0,0,1-.49.15.83.83,0,0,1-.64-.28,1,1,0,0,1,0-1.36.83.83,0,0,1,.64-.28.81.81,0,0,1,.49.15.88.88,0,0,1,.32.39Zm-.8,3.14a.79.79,0,0,0,.58-.25,1,1,0,0,0,0-1.26.8.8,0,0,0-1.16,0,1,1,0,0,0,0,1.26A.79.79,0,0,0,46.76,62.46Z"/><path class="cls-1" d="M49.2,62.54a.91.91,0,0,1-.68-.27,1,1,0,0,1,0-1.38,1,1,0,0,1,1.35,0,1,1,0,0,1,0,1.38A.9.9,0,0,1,49.2,62.54Zm-.61-.33a.86.86,0,0,0,1.21,0,.88.88,0,0,0,.24-.63A.85.85,0,0,0,49.8,61a.86.86,0,0,0-1.21,0,.85.85,0,0,0-.24.63A.88.88,0,0,0,48.59,62.21Z"/><path class="cls-2" d="M32.16,26.7l-1.3-1.29-1.3,1.29c.44.4.87.77,1.3,1.11C31.3,27.47,31.73,27.1,32.16,26.7Z"/><path class="cls-2" d="M27,22.08c-.21.25-.43.5-.64.76l-.21.25.1.12c.23.29.47.57.71.84l1-1-.94-1-.06.07Z"/><path class="cls-2" d="M27.83,25q.41.44.81.84l2.22-2.22h0l2.22,2.22c.27-.27.55-.55.82-.84l-3-3Z"/><path class="cls-2" d="M23.58,21.91l0,0-.45.43-.14.13-.22.19-.31.26-.18.14-.25.18-.16.12-.37.24-.14.08L21,23.9l-.11.06-.41.19-.12,0-.39.14-.06,0-.44.1-.11,0-.46.05a4.67,4.67,0,0,1-3.52-1.58L15,22.53l-.11-.15-.21-.29-.12-.18a2.69,2.69,0,0,1-.16-.29l0,0A6.89,6.89,0,0,0,14,23.31l.14.2,1,1h0a5.89,5.89,0,0,0,4,1.52,7.92,7.92,0,0,0,5.48-3.17h0c.11-.15.23-.28.34-.42-.3-.36-.62-.72-.94-1.07Q23.85,21.65,23.58,21.91Z"/><path class="cls-2" d="M38.58,32.5l2.63-2.63a9.35,9.35,0,0,1-5-2.6L34.86,26l-.67-.67a27.24,27.24,0,0,1-3.33,3.06h0a28.78,28.78,0,0,1-3.33-3.06l-.35.35h0l-1.63,1.63q-.32.32-.66.6c-.12.1-.25.19-.38.28s-.21.17-.32.24-.38.24-.57.35l-.16.1c-.24.13-.49.25-.74.36h0a9.37,9.37,0,0,1-2.19.66l2.63,2.63A10.89,10.89,0,0,0,38.58,32.5Z"/><path class="cls-2" d="M37.23,26.53a7.67,7.67,0,0,0,5.07,2.25l1.56-1.57-.3,0c-.12,0-.24,0-.36,0a6.26,6.26,0,0,1-.75,0l-.42,0-.15,0-.26,0-.22,0-.2,0L41,27.06l-.16,0-.28-.09-.13-.05-.3-.11L40,26.72l-.32-.14a.2.2,0,0,0-.08,0l-.34-.18-.06,0a3.24,3.24,0,0,1-.35-.21l0,0-.36-.24h0L38,25.58h0l-.38-.3h0a12.3,12.3,0,0,1-1.45-1.44h0L36,23.68l-.21-.26,0,.06c-.24.3-.49.59-.73.87l.42.42Z"/><path class="cls-2" d="M26.56,17.9h0l.12-.13L24.5,15.59a7.69,7.69,0,0,0-5.07-2.25l0,0-.05,0-.34,0a7.73,7.73,0,0,0-7.73,7.74,7.57,7.57,0,0,0,.27,2l.12.4,0,.1.09.22a6.14,6.14,0,0,0,.25.59,7.63,7.63,0,0,1,1.62-7.13,7.4,7.4,0,0,1,5.6-2.45,9.17,9.17,0,0,1,6.41,3.63l.21.25.05-.06Z"/><path class="cls-2" d="M28.7,20.24h0L28,21h0l0,0q.5.54,1,1.05l1-1.05-1-1A2.39,2.39,0,0,0,28.7,20.24Z"/><path class="cls-2" d="M18.88,18a4.21,4.21,0,0,0-3.2,1.46,5.38,5.38,0,0,0-1.09,1.58l.11.21a1.14,1.14,0,0,0,.1.19,2.07,2.07,0,0,0,.15.25l.1.17c.07.09.13.18.2.26a.64.64,0,0,0,.1.13,3.8,3.8,0,0,0,.33.37,4.17,4.17,0,0,0,3.2,1.45,3.27,3.27,0,0,0,.44,0l.09,0a3.2,3.2,0,0,0,.42-.1l.06,0,.37-.13.09,0,.4-.19a.31.31,0,0,1,.1,0l.35-.21.06,0,.39-.26.11-.08.37-.28.09-.08.3-.24.13-.12.33-.3.14-.14.24-.23.14-.13.33-.35C22.32,19.46,20.64,18.1,18.88,18Z"/><path class="cls-2" d="M25.33,22.11l.08-.09c.27-.33.54-.65.82-1q-.45-.51-.9-1l-.92,1C24.72,21.4,25,21.76,25.33,22.11Z"/><path class="cls-2" d="M14.24,20.05a2.29,2.29,0,0,0,.08.28l.06.2a5.63,5.63,0,0,1,1-1.35A4.64,4.64,0,0,1,18.9,17.6c1.9.08,3.66,1.5,5.22,3.15l.26-.29.68-.78-.36-.44a7.9,7.9,0,0,0-5.48-3.16,5.84,5.84,0,0,0-4,1.52l-1,1L14,18.8a7,7,0,0,0,.14,1Z"/><path class="cls-2" d="M27,18.07l-.24.29h0c-.16.18-.32.35-.47.54l-.1.13c.3.37.61.73.91,1.08l.94-1Z"/><path class="cls-2" d="M29.56,15.41l1.3,1.28,1.3-1.28c-.43-.39-.86-.76-1.3-1.1C30.43,14.65,30,15,29.56,15.41Z"/><path class="cls-2" d="M23.14,9.61l-2.57,2.58a9,9,0,0,1,4.82,2.5l2.14,2.14c.56-.6,1.12-1.15,1.67-1.66l.15-.13c.2-.18.4-.36.6-.52l.18-.16.73-.59h0l.75.6.18.15c.21.19.43.37.64.57l.11.1c.55.5,1.1,1,1.65,1.64l2.14-2.14a9,9,0,0,1,4.82-2.5L38.58,9.61A10.91,10.91,0,0,0,23.14,9.61Z"/><path class="cls-2" d="M23.16,7.85l-4.22,4.21a10,10,0,0,1,1.1.06L23.14,9A10.91,10.91,0,0,1,38.58,9l3.1,3.11a10.28,10.28,0,0,1,1.1-.06L38.55,7.84A10.89,10.89,0,0,0,23.16,7.85Z"/><path class="cls-2" d="M33.72,17c-.21-.23-.42-.45-.64-.66l-2.22,2.22h0l-2.22-2.22-.62.64-.19.2,3,3,3-3c-.06-.07-.12-.12-.18-.18Z"/><path class="cls-2" d="M42.84,18c-1.76.08-3.44,1.44-4.94,3l0,0,.25.26.14.15.3.28.09.1.4.36.11.09.3.25.14.12.28.21.14.1.31.21.12.07.42.25.07,0,.36.17.14.05.3.11L42,24l.31.07.14,0a3.27,3.27,0,0,0,.44,0,4.17,4.17,0,0,0,3.21-1.45h0q.21-.23.39-.45l.07-.09.29-.42c.12-.2.23-.41.33-.62a5.54,5.54,0,0,0-1.08-1.58A4.22,4.22,0,0,0,42.84,18Z"/><path class="cls-2" d="M23.16,6,16.8,12.34a9.56,9.56,0,0,1,1.5-.24l4.86-4.85a10.9,10.9,0,0,1,15.4,0l4.86,4.86a9.69,9.69,0,0,1,1.51.24L38.57,6A10.89,10.89,0,0,0,23.16,6Z"/><path class="cls-2" d="M25.89,23.42l-.19.24,0,0a9.17,9.17,0,0,1-6.41,3.63,6.7,6.7,0,0,1-1.41-.1l1.57,1.57a7.69,7.69,0,0,0,5.07-2.25l2.18-2.18c-.25-.28-.49-.57-.74-.87Z"/><path class="cls-2" d="M36.94,22.77l.07.09h0A7.9,7.9,0,0,0,42.51,26a5.89,5.89,0,0,0,4-1.52h0l1-1h0c.05-.06.09-.13.14-.2a6.48,6.48,0,0,0-.35-1.74,5.63,5.63,0,0,1-1,1.36h0a4.69,4.69,0,0,1-3.53,1.58l-.47-.05-.15,0-.32-.08-.16,0-.32-.11-.14-.06-.45-.2-.05,0-.39-.22-.16-.1-.28-.18-.17-.12-.28-.2L39.33,23a3.47,3.47,0,0,1-.37-.3l-.18-.16-.26-.23-.19-.19-.2-.19-.21-.21-.17-.18a.93.93,0,0,1-.14-.14c-.32.35-.64.71-.94,1.07l.27.33Z"/><path class="cls-2" d="M38.56,34.87a10.89,10.89,0,0,1-15.4,0L18.26,30a9.47,9.47,0,0,1-1.3-.19h0l-.16,0,6.39,6.38a10.89,10.89,0,0,0,15.41,0L45,29.75a9.24,9.24,0,0,1-1.49.23Z"/><path class="cls-2" d="M15.55,28a8,8,0,0,0,.91.39h0l.27.1L14.31,26a9.31,9.31,0,0,0,.55,1.53,6,6,0,0,0,.7.4Z"/><path class="cls-2" d="M13.55,24.72l-.14-.16a9.49,9.49,0,0,0,.43,1.27c-.07-.32-.13-.65-.17-1h0Z"/><path class="cls-2" d="M48.05,24.86c0,.32-.09.65-.16,1a9.66,9.66,0,0,0,.42-1.25c-.08.09-.16.19-.25.28Z"/><path class="cls-2" d="M34.92,22.33l-.22-.26L34.64,22c-.31.34-.62.68-.93,1l1,1c.24-.27.47-.55.71-.84l.1-.12-.2-.24Z"/><path class="cls-2" d="M48,22.71q.14-.29.24-.57h0a5.71,5.71,0,0,0,.28-1.08A6.21,6.21,0,0,0,48,19.39a6.68,6.68,0,0,1-.45,1.66A6.68,6.68,0,0,1,48,22.71Z"/><path class="cls-2" d="M46.2,28c.23-.12.45-.25.67-.39A9.27,9.27,0,0,0,47.41,26L45,28.43A7.22,7.22,0,0,0,46.21,28Z"/><path class="cls-2" d="M45.3,26.78c-.21.09-.43.17-.65.24h0l-1.76,1.77c.17,0,.34,0,.51,0a5.32,5.32,0,0,0,.8-.12l3.17-3.15a8.44,8.44,0,0,1-2,1.27Z"/><path class="cls-2" d="M32.81,20l-1.05,1,1.05,1.05c.33-.34.65-.69,1-1.05L33,20.25Z"/><path class="cls-2" d="M42.7,13.32a7.7,7.7,0,0,0-5.47,2.27l-2.18,2.18.73.86,0,.06.21-.25a9.19,9.19,0,0,1,6.41-3.63,7.42,7.42,0,0,1,5.61,2.45,7.66,7.66,0,0,1,1.62,7.12.25.25,0,0,1,0-.07,7.83,7.83,0,0,0,.72-3.25,7.75,7.75,0,0,0-7.74-7.74Z"/><path class="cls-2" d="M37.32,21.06c-.15-.17-.31-.34-.45-.51h0L36.39,20c-.3.36-.59.71-.89,1,.3.34.59.69.89,1.05C36.69,21.76,37,21.4,37.32,21.06Z"/><path class="cls-2" d="M37.54,20.67l.07.08c1.56-1.65,3.32-3.07,5.21-3.15a4.66,4.66,0,0,1,3.53,1.58,5.86,5.86,0,0,1,1,1.35,6.4,6.4,0,0,0,.35-1.73l-.15-.21-1-1a5.84,5.84,0,0,0-4-1.52A7.88,7.88,0,0,0,37,19.24l-.36.44.74.85Z"/><path class="cls-2" d="M18.26,28.76l.58,0L17.08,27a7.84,7.84,0,0,1-2.72-1.53l3.17,3.16a6,6,0,0,0,.74.11Z"/><path class="cls-2" d="M34.75,18.07l-1,1c.31.32.62.66.93,1,.31-.35.62-.71.92-1.08l-.1-.13C35.22,18.62,35,18.34,34.75,18.07Z"/><path class="cls-2" d="M42,30h0l-.31,0L38.58,33.1a10.89,10.89,0,0,1-15.44,0L20,30a10.49,10.49,0,0,1-1.12.05l4.28,4.27a10.88,10.88,0,0,0,15.39,0L42.84,30c-.27,0-.53,0-.8,0Z"/><path class="cls-2" d="M13.6,22.54l.06.12,0,0a7.18,7.18,0,0,1,.44-1.65.17.17,0,0,0,0-.05L14,20.7l-.06-.18c0-.11-.07-.22-.09-.33a.75.75,0,0,1,0-.16c0-.12-.06-.24-.08-.36h0c0-.09,0-.18,0-.28A5.76,5.76,0,0,0,13.18,21a5.51,5.51,0,0,0,.24,1A4.09,4.09,0,0,0,13.6,22.54Z"/><path class="cls-3" d="M23.16,7.25,18.3,12.1c.21,0,.43,0,.64,0l4.22-4.21a10.89,10.89,0,0,1,15.39,0l4.23,4.22c.22,0,.43,0,.64,0L38.56,7.24A10.9,10.9,0,0,0,23.16,7.25Z"/><path class="cls-3" d="M23.14,9,20,12.12l.53.07,2.57-2.58a10.91,10.91,0,0,1,15.44,0l2.57,2.58.53-.07L38.58,9A10.91,10.91,0,0,0,23.14,9Z"/><path class="cls-3" d="M19.43,13.34h-.07l.05,0Z"/><path class="cls-3" d="M42.89,28.79,41.73,30,42,30h0c.27,0,.53,0,.8,0h0l.63,0h0A9.24,9.24,0,0,0,45,29.75l1.1-1.1a7.69,7.69,0,0,0,.73-.86l.09-.22c-.22.14-.44.27-.67.39h0a7.22,7.22,0,0,1-1.19.48,5.8,5.8,0,0,1-.82.21,5.32,5.32,0,0,1-.8.12C43.23,28.78,43.06,28.78,42.89,28.79Z"/><path class="cls-3" d="M11.25,16.53a9,9,0,0,0,1.41,10.88A9.23,9.23,0,0,1,11.25,16.53Z"/><path class="cls-3" d="M32.54,15.19l-.11-.1c-.21-.2-.43-.38-.64-.57l-.18-.15-.75-.6h0l-.73.59-.18.16c-.2.16-.4.34-.6.52l-.15.13c-.55.51-1.11,1.06-1.67,1.66l.3.3.19-.2.62-.64,2.22,2.22h0l2.22-2.22c.22.21.43.43.64.66h0c.06.06.12.11.18.18l.29-.3C33.64,16.24,33.09,15.69,32.54,15.19Zm-1.68,1.5-1.3-1.28c.44-.39.87-.76,1.3-1.1.44.34.87.71,1.3,1.1Z"/><path class="cls-3" d="M14.57,18.16a5.08,5.08,0,0,0-.38.43l1-1A7.92,7.92,0,0,0,14.57,18.16Z"/><path class="cls-3" d="M23.16,6A10.89,10.89,0,0,1,38.57,6l6.36,6.35a9,9,0,0,1,4.25,2.47l-.11-.12L47,12.57h0L38.57,4.19a10.91,10.91,0,0,0-15.41,0l-8.38,8.38h0l-2.12,2.12-.11.12a8.92,8.92,0,0,1,4.25-2.47Z"/><path class="cls-3" d="M35.05,17.77l-3.29,3.29h0l1.05-1,.23.24.75.81c.29.31.57.63.85,1l.06.06.22.26.44.52.2.24,0,0c.26-.31.53-.64.81-1-.3-.36-.59-.71-.89-1.05h0l-.85-.95h0c-.31-.34-.62-.68-.93-1l1-1c.24.27.47.55.71.83l.1.13.27-.34,0-.06Z"/><path class="cls-3" d="M47.16,18.16c-.2-.2-.41-.39-.61-.56l1,1A5.08,5.08,0,0,0,47.16,18.16Z"/><path class="cls-3" d="M48.28,22.14q-.11.28-.24.57a5.2,5.2,0,0,1-.35.6c0,.07-.09.14-.14.2h0a5.2,5.2,0,0,1-.38.44c-.2.2-.41.38-.61.56h0a5.89,5.89,0,0,1-4,1.52A7.9,7.9,0,0,1,37,22.87h0l-.07-.09h0l-.27-.33-.76.9-.08.08.21.26.14.15h0a12.3,12.3,0,0,0,1.45,1.44h0l.38.3h0l.37.27h0l.36.24,0,0a3.24,3.24,0,0,0,.35.21l.06,0,.34.18a.2.2,0,0,1,.08,0l.32.14.11.05.3.11.13.05.28.09.16,0,.25.07.2,0,.22,0,.26,0,.15,0,.42,0a6.26,6.26,0,0,0,.75,0c.12,0,.24,0,.36,0l.3,0a7,7,0,0,0,.79-.19h0c.22-.07.44-.15.65-.24l.06,0a8.44,8.44,0,0,0,2-1.27h0c.23-.2.45-.4.68-.62a.57.57,0,0,1,0-.22,1.49,1.49,0,0,1,0,.21h0c.09-.09.17-.19.25-.28a8.59,8.59,0,0,0,.25-3.51,5.71,5.71,0,0,1-.28,1.08Z"/><path class="cls-3" d="M47.59,21.05A6.68,6.68,0,0,0,48,19.39c-.11-.2-.22-.4-.35-.59a6.4,6.4,0,0,1-.35,1.73A5,5,0,0,1,47.59,21.05Z"/><path class="cls-3" d="M50.47,16.53a9.21,9.21,0,0,1-1.4,10.88A9,9,0,0,0,50.47,16.53Z"/><path class="cls-3" d="M49.68,24.39a.2.2,0,0,1,0-.08.25.25,0,0,0,0,.07Z"/><path class="cls-3" d="M20,29.94l.53-.08h0a9.37,9.37,0,0,0,2.19-.66h0c.25-.11.5-.23.74-.36l.16-.1c.19-.11.38-.22.57-.35s.21-.16.32-.24.26-.18.38-.28.45-.39.66-.6l1.63-1.63h0l.35-.35c-.28-.31-.57-.62-.85-.94L24.5,26.53a7.69,7.69,0,0,1-5.07,2.25h0l-.41,0h-.18l-.58,0h0a6,6,0,0,1-.74-.11L18.88,30A10.49,10.49,0,0,0,20,30Z"/><path class="cls-1" d="M14.57,24c.2.2.4.38.61.56l-1-1A4.19,4.19,0,0,0,14.57,24Z"/><path class="cls-1" d="M17.08,27l1.76,1.77H19l.41,0h0l-1.57-1.57A7.38,7.38,0,0,1,17.08,27Z"/><path class="cls-1" d="M26.17,23.09h0l-.28.33h0l.05.06c.25.3.49.59.74.87s.57.63.85.94a28.78,28.78,0,0,0,3.33,3.06h0a27.24,27.24,0,0,0,3.33-3.06L33.9,25c-.27.29-.55.57-.82.84l-2.22-2.22h0l-2.22,2.22q-.41-.41-.81-.84h0a11.5,11.5,0,0,1-.85-.94c-.24-.27-.48-.55-.71-.84Zm4.69,2.32,1.3,1.29c-.43.4-.86.77-1.3,1.11-.43-.34-.86-.71-1.3-1.11Z"/><path class="cls-1" d="M41.21,29.87,38.58,32.5a10.89,10.89,0,0,1-15.44,0l-2.63-2.63h0l-.53.08h0l3.14,3.15a10.89,10.89,0,0,0,15.44,0L41.73,30l1.16-1.16L44.65,27a7,7,0,0,1-.79.19L42.3,28.78Z"/><path class="cls-1" d="M47.16,24a5.2,5.2,0,0,0,.38-.44h0l-1,1C46.75,24.34,47,24.16,47.16,24Z"/><polygon class="cls-1" points="46.55 24.52 46.55 24.52 46.55 24.52 46.55 24.52 46.55 24.52"/><path class="cls-1" d="M14.38,21.58c-.09-.17-.17-.35-.25-.53a7.18,7.18,0,0,0-.44,1.65,5.32,5.32,0,0,0,.35.61,6.89,6.89,0,0,1,.34-1.73Z"/><path class="cls-1" d="M48,22.71a6.68,6.68,0,0,0-.45-1.66,5,5,0,0,0-.25-.52,5.86,5.86,0,0,0-1-1.35,4.66,4.66,0,0,0-3.53-1.58c-1.89.08-3.65,1.5-5.21,3.15h0l.29.31c1.5-1.6,3.18-3,4.94-3a4.22,4.22,0,0,1,3.21,1.46,5.54,5.54,0,0,1,1.08,1.58,5.49,5.49,0,0,1,.21.51,6.48,6.48,0,0,1,.35,1.74A5.2,5.2,0,0,0,48,22.71Z"/><path class="cls-1" d="M24.12,20.75c-1.56-1.65-3.32-3.07-5.22-3.15a4.64,4.64,0,0,0-3.52,1.58,5.63,5.63,0,0,0-1,1.35,4.87,4.87,0,0,0,.21.53h0a5.38,5.38,0,0,1,1.09-1.58A4.21,4.21,0,0,1,18.88,18c1.76.08,3.44,1.44,4.95,3l.29.31c.32.35.64.71.94,1.07l.27-.33c-.3-.35-.61-.71-.92-1.05Z"/><path class="cls-1" d="M50.47,16.53c0-.08-.09-.16-.14-.24s-.18-.28-.28-.42-.17-.24-.26-.35-.18-.22-.27-.33l-.21-.25a1.59,1.59,0,0,1-.13-.13,9,9,0,0,0-4.25-2.47,9.69,9.69,0,0,0-1.51-.24c-.21,0-.42,0-.64,0a10.28,10.28,0,0,0-1.1.06l-.53.07a9,9,0,0,0-4.82,2.5l-2.14,2.14-.29.3-3,3-3-3-.3-.3-2.14-2.14a9,9,0,0,0-4.82-2.5L20,12.12a10,10,0,0,0-1.1-.06c-.21,0-.43,0-.64,0a9.56,9.56,0,0,0-1.5.24,8.92,8.92,0,0,0-4.25,2.47l-.13.13c-.08.08-.14.17-.21.25s-.19.21-.27.33a2.88,2.88,0,0,0-.26.35l-.29.42-.14.24a9.23,9.23,0,0,0,1.41,10.88l.15.17,2,2h0l8.38,8.38a10.89,10.89,0,0,0,15.41,0L47,29.54h0l2-2c.06,0,.1-.11.16-.17A9.21,9.21,0,0,0,50.47,16.53Zm-.75,7.78a.2.2,0,0,0,0,.08h0a7.66,7.66,0,0,0-1.62-7.12,7.42,7.42,0,0,0-5.61-2.45A9.19,9.19,0,0,0,36,18.44l-.21.25-.27.34c-.3.37-.61.73-.92,1.08h0l.85.95h0c.3-.34.59-.69.89-1l.28-.33.36-.44a7.88,7.88,0,0,1,5.48-3.16,5.84,5.84,0,0,1,4,1.52c.2.17.41.36.61.56a5.08,5.08,0,0,1,.38.43l.15.21c.13.19.24.39.35.59a6.21,6.21,0,0,1,.52,1.68,8.59,8.59,0,0,1-.25,3.51,9.66,9.66,0,0,1-.42,1.25c.07-.32.12-.65.16-1a1.49,1.49,0,0,0,0-.21.57.57,0,0,0,0,.22c-.23.22-.45.42-.68.62h0L44.2,28.64a5.8,5.8,0,0,0,.82-.21L47.41,26a9.27,9.27,0,0,1-.54,1.53l-.09.22a7.69,7.69,0,0,1-.73.86L45,29.75l-6.38,6.38a10.89,10.89,0,0,1-15.41,0l-6.39-6.38-1.1-1.1a7.62,7.62,0,0,1-.72-.86l-.09-.22A9.31,9.31,0,0,1,14.31,26l2.42,2.41L18.26,30l4.9,4.89a10.89,10.89,0,0,0,15.4,0L43.46,30h0l-.63,0h0l-4.29,4.27a10.88,10.88,0,0,1-15.39,0L18.88,30l-1.35-1.35-3.17-3.16-.69-.63c0,.32.1.65.17,1a9.49,9.49,0,0,1-.43-1.27A8.3,8.3,0,0,1,13.18,21a5.76,5.76,0,0,1,.51-1.65A5.08,5.08,0,0,1,14,18.8l.15-.21a5.08,5.08,0,0,1,.38-.43,7.92,7.92,0,0,1,.61-.56,5.84,5.84,0,0,1,4-1.52,7.9,7.9,0,0,1,5.48,3.16l.36.44.76-.9.07-.09-.21-.25a9.17,9.17,0,0,0-6.41-3.63,7.4,7.4,0,0,0-5.6,2.45,7.63,7.63,0,0,0-1.62,7.13,6.14,6.14,0,0,1-.25-.59l-.09-.22,0-.1-.12-.4a7.57,7.57,0,0,1-.27-2A7.73,7.73,0,0,1,19,13.32l.34,0h.07a7.69,7.69,0,0,1,5.07,2.25l2.18,2.18L30,21.06h0l-1,1.05q-.5-.51-1-1.05l-.85-.95c-.3-.35-.61-.71-.91-1.08l0,0-.82,1h0q.45.54.9,1l.85,1L28,23l-1,1,3-3c.21.2.46.47.89.9h0l.9-.9,3.29,3.29c.24-.28.49-.57.73-.87l0-.06.08-.08.76-.9c.3-.36.62-.72.94-1.07h0l-.29-.31h0c-.32.34-.63.7-.93,1.05s-.55.65-.81,1l0,0-.1.12c-.24.29-.47.57-.71.84l-1-1c.31-.32.62-.66.93-1-.28-.32-.56-.64-.85-1-.33.36-.65.71-1,1.05l-1.05-1.05h0l3.29-3.29,2.18-2.18a7.74,7.74,0,0,1,13.21,5.47A7.83,7.83,0,0,1,49.72,24.31Z"/><path class="cls-3" d="M13.73,19.67c0,.12,0,.24.08.36a.75.75,0,0,0,0,.16c0,.11.06.22.09.33l.06.18.11.3a.17.17,0,0,1,0,.05c.08.18.16.36.25.53h0l0,0a2.69,2.69,0,0,0,.16.29l.12.18.21.29.11.15.37.41a4.67,4.67,0,0,0,3.52,1.58l.46-.05.11,0,.44-.1.06,0,.39-.14.12,0,.41-.19L21,23.9l.32-.18.14-.08.37-.24.16-.12.25-.18.18-.14.31-.26.22-.19.14-.13.45-.43,0,0q.27-.26.54-.54l-.29-.31-.33.35-.14.13-.24.23-.14.14-.33.3-.13.12-.3.24-.09.08-.37.28-.11.08-.39.26-.06,0-.35.21a.31.31,0,0,0-.1,0l-.4.19-.09,0-.37.13-.06,0a3.2,3.2,0,0,1-.42.1l-.09,0a3.27,3.27,0,0,1-.44,0,4.17,4.17,0,0,1-3.2-1.45,3.8,3.8,0,0,1-.33-.37.64.64,0,0,1-.1-.13c-.07-.08-.13-.17-.2-.26l-.1-.17a2.07,2.07,0,0,1-.15-.25,1.14,1.14,0,0,1-.1-.19l-.11-.21h0a4.87,4.87,0,0,1-.21-.53l-.06-.2a2.29,2.29,0,0,1-.08-.28l-.06-.21a7,7,0,0,1-.14-1,5.08,5.08,0,0,0-.35.59c0,.1,0,.19,0,.28Z"/><path class="cls-3" d="M17.86,27.21a6.7,6.7,0,0,0,1.41.1,9.17,9.17,0,0,0,6.41-3.63l0,0,.19-.24h0l.28-.33h0l.21-.25c.21-.26.43-.51.64-.76h0l.06-.07-.85-1c-.28.31-.55.63-.82,1l-.08.09-.27.33c-.11.14-.23.27-.34.42h0A7.92,7.92,0,0,1,19.22,26a5.89,5.89,0,0,1-4-1.52h0c-.21-.18-.41-.36-.61-.56a4.19,4.19,0,0,1-.39-.45l-.14-.2a5.32,5.32,0,0,1-.35-.61l0,0-.06-.12a4.09,4.09,0,0,1-.18-.49,5.51,5.51,0,0,1-.24-1,8.3,8.3,0,0,0,.23,3.52l.14.16.12.14h0l.69.63A7.84,7.84,0,0,0,17.08,27,7.38,7.38,0,0,0,17.86,27.21Z"/><path class="cls-3" d="M16.93,29.78h0a9.47,9.47,0,0,0,1.3.19l-1.53-1.53-.27-.1h0a8,8,0,0,1-.91-.39h0a6,6,0,0,1-.7-.4l.09.22a7.62,7.62,0,0,0,.72.86l1.1,1.1.16,0Z"/><path class="cls-3" d="M27.83,25l3-3,3,3,.29.3.67.67,1.32,1.31a9.35,9.35,0,0,0,5,2.6l1.09-1.09a7.67,7.67,0,0,1-5.07-2.25l-1.76-1.76-.42-.42-3.29-3.29-.9.9h0c-.43-.43-.68-.7-.89-.9l-3,3a11.5,11.5,0,0,0,.85.94Z"/><path class="cls-3" d="M36.85,20.54h0c.14.17.3.34.45.51h0l.29.31h0a.93.93,0,0,0,.14.14l.17.18.21.21.2.19.19.19.26.23.18.16a3.47,3.47,0,0,0,.37.3l.15.13.28.2.17.12.28.18.16.1.39.22.05,0,.45.2.14.06.32.11.16,0,.32.08.15,0,.47.05a4.69,4.69,0,0,0,3.53-1.58h0a5.63,5.63,0,0,0,1-1.36,5.49,5.49,0,0,0-.21-.51c-.1.21-.21.42-.33.62l-.29.42-.07.09q-.18.22-.39.45h0a4.17,4.17,0,0,1-3.21,1.45,3.27,3.27,0,0,1-.44,0l-.14,0L42,24l-.15-.05-.3-.11-.14-.05L41,23.57l-.07,0-.42-.25-.12-.07L40.08,23l-.14-.1-.28-.21-.14-.12-.3-.25-.11-.09-.4-.36-.09-.1-.3-.28-.14-.15-.25-.26,0,0-.29-.31h0l-.07-.08-.13-.14-.74-.85-.28.33.46.53Z"/><path class="cls-3" d="M24.12,20.75l.29.31.92-1h0l.82-1,0,0,.1-.13c.15-.19.31-.36.47-.54h0l.24-.29,1,1-.94,1,.85.95,0,0h0l.74-.79h0a2.39,2.39,0,0,1,.22-.23l1,1h0l-3.29-3.29-.12.13h0l-.62.73-.05.06-.07.09-.76.9-.68.78Z"/></svg>