<svg id="Capa_1" data-name="Capa 1" xmlns="http://www.w3.org/2000/svg" viewBox="0 0 64 64"><defs><style>.cls-1{fill:#1d1d1b;}.cls-2{fill:none;}.cls-3{fill:gray;}</style></defs><title>64x64 px</title><path class="cls-1" d="M14.84,55.81V46.34h1.29v7.81a1.29,1.29,0,0,0,0,.39c0,.05.12.08.27.08H19.3v1.19Z"/><path class="cls-1" d="M23.89,53.24v2.58H22.72V49.45a3.11,3.11,0,0,1,.88-2.25,2.85,2.85,0,0,1,2.17-.92,2.92,2.92,0,0,1,2.17.93,3.1,3.1,0,0,1,.91,2.23v6.38H27.7V53.1a1.14,1.14,0,0,0,0-.28.32.32,0,0,0-.12-.2.54.54,0,0,0-.32-.08h-3a.54.54,0,0,0-.23.13.49.49,0,0,0-.12.38Zm3.76-2.57v-1.3A2,2,0,0,0,27.12,48a1.75,1.75,0,0,0-1.37-.57,1.58,1.58,0,0,0-1.32.64,2.41,2.41,0,0,0-.5,1.51V51a.45.45,0,0,0,.09.3.38.38,0,0,0,.24.15,1.86,1.86,0,0,0,.36,0H27.3a.39.39,0,0,0,.21-.13.56.56,0,0,0,.1-.15.75.75,0,0,0,0-.24Z"/><path class="cls-1" d="M32.28,47.49V46.34h6.28v1.15H36.32a.29.29,0,0,0-.23.08.38.38,0,0,0-.06.24v8H34.72V48a.81.81,0,0,0-.06-.4.42.42,0,0,0-.18-.11h-2.2Z"/><path class="cls-1" d="M41.92,55.82V46.28h1.29v9.54Z"/><path class="cls-1" d="M48.21,52.51v3.31H47.16v-6.4A3.17,3.17,0,0,1,48,47.2a2.7,2.7,0,0,1,2-.86,2.59,2.59,0,0,1,2,.86,2.83,2.83,0,0,1,.8,2,2.59,2.59,0,0,1-.83,2A3.34,3.34,0,0,1,50.4,52c-.07,0-.11,0-.11.1a.51.51,0,0,0,.09.24,4.33,4.33,0,0,0,.26.39L52.9,55.8l-1.29,0-2.76-3.64a2.12,2.12,0,0,0-.27-.35.29.29,0,0,0-.25-.06s-.08.06-.09.16a1.87,1.87,0,0,0,0,.34Zm1.85-5.07a1.62,1.62,0,0,0-1.23.53,1.77,1.77,0,0,0-.5,1.25,1.67,1.67,0,0,0,.49,1.23,1.7,1.7,0,0,0,1.26.49,1.42,1.42,0,0,0,1.14-.54,2,2,0,0,0,.44-1.27,1.71,1.71,0,0,0-.46-1.19A1.51,1.51,0,0,0,50.06,47.44Z"/><path class="cls-1" d="M16.75,60.29H15.13v0a.9.9,0,0,0,.23.62.85.85,0,0,0,.63.24.9.9,0,0,0,.68-.27l.06.06a1,1,0,0,1-.75.29.92.92,0,0,1-.67-.26.88.88,0,0,1-.26-.67.91.91,0,0,1,.25-.67A.87.87,0,0,1,16,59.4a.84.84,0,0,1,.59.21.86.86,0,0,1,.22.61A.15.15,0,0,1,16.75,60.29Zm-.8-.81a.76.76,0,0,0-.55.2.77.77,0,0,0-.26.53h1.53a.74.74,0,0,0-.21-.54A.69.69,0,0,0,16,59.48Z"/><path class="cls-1" d="M18.86,59.45H19v2.72h-.09V60.73a.83.83,0,0,1-.32.39.82.82,0,0,1-.47.14.8.8,0,0,1-.62-.27.89.89,0,0,1-.25-.66.93.93,0,0,1,.25-.67.86.86,0,0,1,1.41.27Zm-.78,1.73a.74.74,0,0,0,.56-.24.88.88,0,0,0,.22-.61.85.85,0,0,0-.22-.61.79.79,0,0,0-1.13,0,1,1,0,0,0,0,1.22A.75.75,0,0,0,18.08,61.18Z"/><path class="cls-1" d="M21.14,60.42v-1h.09v1A.88.88,0,0,1,21,61a.85.85,0,0,1-1.14,0,.88.88,0,0,1-.21-.62v-1h.09v1A.79.79,0,0,0,20,61a.65.65,0,0,0,.5.2A.69.69,0,0,0,21,61,.84.84,0,0,0,21.14,60.42Z"/><path class="cls-1" d="M22.1,58.8a.08.08,0,0,1-.09-.09c0-.07,0-.1.09-.1s.1,0,.1.1S22.17,58.8,22.1,58.8Zm0,2.41V59.45h.09v1.76Z"/><path class="cls-1" d="M24.46,58.14h.09v3.07h-.09v-.48a.81.81,0,0,1-.31.39.87.87,0,0,1-.48.14.8.8,0,0,1-.62-.27.89.89,0,0,1-.25-.66.93.93,0,0,1,.25-.67.82.82,0,0,1,.62-.26.87.87,0,0,1,.48.14.81.81,0,0,1,.31.39Zm-.79,3a.75.75,0,0,0,.57-.24.85.85,0,0,0,.22-.61.86.86,0,0,0-.22-.61.74.74,0,0,0-.56-.24.73.73,0,0,0-.56.24.92.92,0,0,0,0,1.22A.72.72,0,0,0,23.67,61.18Z"/><path class="cls-1" d="M26.79,59.45h.09v1.76h-.09v-.48a.81.81,0,0,1-.31.39.87.87,0,0,1-.48.14.83.83,0,0,1-.62-.27.92.92,0,0,1-.24-.66,1,1,0,0,1,.24-.67A.85.85,0,0,1,26,59.4a.87.87,0,0,1,.48.14.81.81,0,0,1,.31.39ZM26,61.18a.74.74,0,0,0,.56-.24.85.85,0,0,0,.23-.61.87.87,0,0,0-.23-.61.73.73,0,0,0-.56-.24.74.74,0,0,0-.56.24.92.92,0,0,0,0,1.22A.74.74,0,0,0,26,61.18Z"/><path class="cls-1" d="M29.09,58.14h.09v3.07h-.09v-.48a.83.83,0,0,1-.32.39.82.82,0,0,1-.47.14.8.8,0,0,1-.62-.27.89.89,0,0,1-.25-.66.93.93,0,0,1,.25-.67.86.86,0,0,1,1.41.27Zm-.79,3a.75.75,0,0,0,.57-.24.85.85,0,0,0,.22-.61.86.86,0,0,0-.22-.61.79.79,0,0,0-1.13,0,1,1,0,0,0,0,1.22A.74.74,0,0,0,28.3,61.18Z"/><path class="cls-1" d="M32.59,60.29H31v0a.9.9,0,0,0,.23.62.82.82,0,0,0,.63.24.91.91,0,0,0,.68-.27l.05.06a1,1,0,0,1-.74.29.94.94,0,0,1-.68-.26.92.92,0,0,1-.26-.67,1,1,0,0,1,.25-.67.9.9,0,0,1,.66-.26.79.79,0,0,1,.58.21.82.82,0,0,1,.22.61Zm-.8-.81a.76.76,0,0,0-.55.2.82.82,0,0,0-.27.53h1.54a.78.78,0,0,0-.21-.54A.69.69,0,0,0,31.79,59.48Z"/><path class="cls-1" d="M33.26,60.25v1h-.08v-1a.88.88,0,0,1,.21-.62.75.75,0,0,1,.58-.24.72.72,0,0,1,.57.24.88.88,0,0,1,.22.62v1h-.09v-1a.82.82,0,0,0-.19-.56.72.72,0,0,0-1,0A.78.78,0,0,0,33.26,60.25Z"/><path class="cls-1" d="M38.13,60.29H36.52v0a.85.85,0,0,0,.23.62.81.81,0,0,0,.62.24.9.9,0,0,0,.68-.27l.06.06a1,1,0,0,1-.75.29.92.92,0,0,1-.67-.26.88.88,0,0,1-.26-.67.91.91,0,0,1,.25-.67.89.89,0,0,1,.65-.26.75.75,0,0,1,.81.82A.15.15,0,0,1,38.13,60.29Zm-.8-.81a.76.76,0,0,0-.55.2.77.77,0,0,0-.26.53h1.53a.73.73,0,0,0-.2-.54A.71.71,0,0,0,37.33,59.48Z"/><path class="cls-1" d="M38.76,61.21V58.14h.09v3.07Z"/><path class="cls-1" d="M42.72,59.39a.6.6,0,0,1,.48.21.85.85,0,0,1,.17.56v1.05h-.09V60.16a.75.75,0,0,0-.15-.5.52.52,0,0,0-.42-.18.58.58,0,0,0-.44.19.71.71,0,0,0-.18.49v1.05H42V60.16a.74.74,0,0,0-.16-.49.54.54,0,0,0-.43-.19.53.53,0,0,0-.43.19.73.73,0,0,0-.17.49v1.05h-.09V60.16a.79.79,0,0,1,.2-.55.64.64,0,0,1,.48-.22.68.68,0,0,1,.41.14.69.69,0,0,1,.24.39.7.7,0,0,1,.25-.39A.73.73,0,0,1,42.72,59.39Z"/><path class="cls-1" d="M45.53,60.42v-1h.08v1a.92.92,0,0,1-.2.62.85.85,0,0,1-1.14,0,.88.88,0,0,1-.21-.62v-1h.09v1a.84.84,0,0,0,.18.56.68.68,0,0,0,.51.2.65.65,0,0,0,.5-.2A.84.84,0,0,0,45.53,60.42Z"/><path class="cls-1" d="M46.39,60.25v1H46.3v-1a.84.84,0,0,1,.22-.62.74.74,0,0,1,.58-.24.75.75,0,0,1,.57.24.88.88,0,0,1,.21.62v1h-.09v-1a.78.78,0,0,0-.19-.56.66.66,0,0,0-.5-.21.67.67,0,0,0-.52.21A.78.78,0,0,0,46.39,60.25Z"/><path class="cls-1" d="M50.09,58.14h.09v3.07h-.09v-.48a.81.81,0,0,1-.31.39.87.87,0,0,1-.48.14.81.81,0,0,1-.62-.27.93.93,0,0,1-.25-.66,1,1,0,0,1,.25-.67.84.84,0,0,1,.62-.26.87.87,0,0,1,.48.14.81.81,0,0,1,.31.39Zm-.78,3a.74.74,0,0,0,.56-.24.85.85,0,0,0,.23-.61.87.87,0,0,0-.23-.61.77.77,0,0,0-1.12,0,.92.92,0,0,0,0,1.22A.74.74,0,0,0,49.31,61.18Z"/><path class="cls-1" d="M51.68,61.26A.87.87,0,0,1,51,61a.9.9,0,0,1-.26-.67.92.92,0,0,1,1.56-.67.91.91,0,0,1,.25.67.93.93,0,0,1-.25.67A.89.89,0,0,1,51.68,61.26Zm-.59-.32a.83.83,0,0,0,1.17,0,.84.84,0,0,0,.24-.61.81.81,0,0,0-.24-.61.83.83,0,0,0-1.17,0,.8.8,0,0,0-.23.61A.83.83,0,0,0,51.09,60.94Z"/><path class="cls-2" d="M35.13,26.45l-1.26-1.26-1.26,1.26c.42.38.84.74,1.26,1.07C34.29,27.19,34.71,26.83,35.13,26.45Z"/><path class="cls-2" d="M30.14,22l-.63.73-.2.25.09.12q.34.42.69.81l1-1c-.31-.31-.61-.64-.91-1l-.06.07Z"/><path class="cls-2" d="M30.92,24.79l.79.81,2.16-2.15h0L36,25.6c.27-.26.53-.53.8-.81l-3-2.95Z"/><path class="cls-2" d="M26.8,21.8l0,0c-.15.15-.29.29-.44.42l-.14.13-.21.18-.3.25-.18.14-.24.17-.16.12-.36.24-.13.07-.31.18-.11.05-.4.19-.11,0-.38.13-.06,0-.43.1-.1,0-.45,0a4.53,4.53,0,0,1-3.42-1.54,4.48,4.48,0,0,1-.36-.4,1.71,1.71,0,0,1-.11-.14l-.2-.28L18,21.79c-.05-.09-.11-.18-.16-.28s0,0,0,0a6.59,6.59,0,0,0-.34,1.68c.05.06.09.13.14.2l1,1h0a5.67,5.67,0,0,0,3.93,1.48,7.66,7.66,0,0,0,5.32-3.07l0,0,.33-.41c-.29-.34-.6-.69-.91-1Z"/><path class="cls-2" d="M41.37,32.08l2.55-2.56A9.1,9.1,0,0,1,39,27l-1.28-1.28-.64-.65a28.16,28.16,0,0,1-3.24,3h0a26.6,26.6,0,0,1-3.24-3l-.34.35h0L28.71,27a8.6,8.6,0,0,1-.64.58l-.37.28-.31.23c-.18.12-.37.23-.56.34l-.15.1-.72.35h0a8.9,8.9,0,0,1-2.12.63l2.55,2.56A10.57,10.57,0,0,0,41.37,32.08Z"/><path class="cls-2" d="M40.05,26.28A7.44,7.44,0,0,0,45,28.46l1.52-1.52-.3,0-.35,0a5.77,5.77,0,0,1-.72,0,2.83,2.83,0,0,1-.41,0l-.15,0-.25,0-.21-.05-.2,0-.24-.06-.16,0-.27-.09-.13-.05-.29-.11-.1,0-.31-.14-.08,0L42,26.12l-.06,0c-.11-.07-.23-.13-.34-.21l0,0-.35-.23h0l-.36-.27h0l-.37-.29h0A11.53,11.53,0,0,1,39,23.66h0l-.13-.15-.2-.25-.05.06q-.36.43-.72.84l.41.41Z"/><path class="cls-2" d="M29.69,17.9h0l.11-.13-2.12-2.12a7.39,7.39,0,0,0-4.92-2.18l0,0,0,0-.33,0a7.48,7.48,0,0,0-7.25,9.47,2.64,2.64,0,0,0,.12.4l0,.09a1.8,1.8,0,0,0,.08.21,6.07,6.07,0,0,0,.24.59,7.41,7.41,0,0,1,1.58-6.93,7.14,7.14,0,0,1,5.44-2.38,8.88,8.88,0,0,1,6.23,3.52l.2.25.05-.06Z"/><path class="cls-2" d="M31.77,20.17h0c-.24.25-.48.5-.72.77h0l0,0q.48.53,1,1l1-1-1-1Z"/><path class="cls-2" d="M22.23,18a4,4,0,0,0-3.11,1.41A5.35,5.35,0,0,0,18.06,21c0,.07.07.14.1.2s.07.13.1.19l.15.24c0,.06.07.11.1.16l.19.26.1.12a3.73,3.73,0,0,0,.32.36,4,4,0,0,0,3.11,1.41,3,3,0,0,0,.42,0l.09,0a3,3,0,0,0,.41-.09l.06,0,.36-.13.08,0,.39-.19.1-.05.34-.19.06,0,.37-.25.12-.08.36-.27.09-.07.28-.24.13-.11.32-.3.14-.13.23-.23a1.59,1.59,0,0,0,.13-.13L27,21C25.57,19.42,23.94,18.09,22.23,18Z"/><path class="cls-2" d="M28.5,22l.07-.08c.26-.32.53-.63.8-.93q-.44-.49-.87-1-.43.51-.9,1C27.91,21.3,28.21,21.64,28.5,22Z"/><path class="cls-2" d="M17.72,20c0,.09.05.18.07.27s.05.13.07.19a5.49,5.49,0,0,1,1-1.31,4.48,4.48,0,0,1,3.42-1.53c1.84.08,3.55,1.45,5.07,3.05l.25-.27.66-.76c-.11-.15-.23-.28-.35-.43a7.66,7.66,0,0,0-5.32-3.07,5.67,5.67,0,0,0-3.93,1.48l-1,1-.15.21a6.51,6.51,0,0,0,.15,1A1.6,1.6,0,0,0,17.72,20Z"/><path class="cls-2" d="M30.09,18.06l-.23.28h0l-.46.53-.09.12c.29.36.59.71.89,1.05.3-.33.6-.65.91-1Z"/><path class="cls-2" d="M32.61,15.48l1.26,1.24,1.26-1.24c-.42-.38-.84-.74-1.26-1.07C33.45,14.74,33,15.1,32.61,15.48Z"/><path class="cls-2" d="M26.37,9.85l-2.5,2.5a8.71,8.71,0,0,1,4.68,2.43l2.08,2.08c.54-.58,1.09-1.12,1.63-1.61l.14-.13c.19-.18.39-.35.58-.51l.18-.15c.23-.2.47-.39.71-.57h0c.24.18.48.38.73.58l.17.15c.21.17.41.36.62.55l.11.09c.53.49,1.07,1,1.61,1.6l2.07-2.08a8.77,8.77,0,0,1,4.69-2.43l-2.5-2.5A10.59,10.59,0,0,0,26.37,9.85Z"/><path class="cls-2" d="M26.38,8.13l-4.1,4.09a9.79,9.79,0,0,1,1.08.07l3-3a10.59,10.59,0,0,1,15,0l3,3a9.61,9.61,0,0,1,1.07-.07L41.34,8.13A10.59,10.59,0,0,0,26.38,8.13Z"/><path class="cls-2" d="M36.65,17,36,16.33l-2.15,2.16h0l-2.16-2.16-.6.62-.19.2,2.95,2.94,3-2.94L36.65,17Z"/><path class="cls-2" d="M45.5,18c-1.7.07-3.34,1.4-4.8,2.95l0,0,.25.25.13.14.29.28.1.09.38.35.1.09.3.25.13.11.27.2.15.1.29.2.12.08.41.23.07,0,.35.16.13.05.29.1.15.05.3.07.13,0a3.28,3.28,0,0,0,.43,0,4,4,0,0,0,3.12-1.41h0a5.2,5.2,0,0,0,.38-.44l.07-.09c.1-.13.19-.26.28-.4a5,5,0,0,0,.32-.6,5.13,5.13,0,0,0-1.05-1.54A4,4,0,0,0,45.5,18Z"/><path class="cls-2" d="M26.38,6.32,20.21,12.5a8.89,8.89,0,0,1,1.46-.24l4.72-4.71a10.58,10.58,0,0,1,15,0l4.72,4.71a9.07,9.07,0,0,1,1.46.24L41.36,6.32A10.6,10.6,0,0,0,26.38,6.32Z"/><path class="cls-2" d="M29,23.26l-.19.23v0A8.88,8.88,0,0,1,22.61,27a6.27,6.27,0,0,1-1.37-.09l1.52,1.52a7.39,7.39,0,0,0,4.92-2.18l2.12-2.12-.71-.84Z"/><path class="cls-2" d="M39.77,22.63l.07.08v0a7.7,7.7,0,0,0,5.33,3.07,5.65,5.65,0,0,0,3.92-1.48h0l1-1h0a1.43,1.43,0,0,0,.14-.2,6.42,6.42,0,0,0-.33-1.68,5.56,5.56,0,0,1-1,1.31h0a4.53,4.53,0,0,1-3.42,1.54l-.46,0-.14,0-.32-.07-.16-.05L44.1,24,44,24a4.14,4.14,0,0,1-.43-.2l0,0-.39-.22L43,23.44l-.28-.18-.16-.12-.27-.2-.15-.11-.35-.3-.18-.15-.25-.23L41.12,22c-.07-.06-.13-.13-.19-.19l-.21-.2-.16-.17-.14-.14c-.31.34-.62.69-.91,1l.26.32Z"/><path class="cls-2" d="M41.35,34.38a10.58,10.58,0,0,1-15,0l-4.76-4.75a7.79,7.79,0,0,1-1.27-.19h0l-.15,0,6.2,6.2a10.6,10.6,0,0,0,15,0l6.2-6.2a8.91,8.91,0,0,1-1.45.22Z"/><path class="cls-2" d="M19,27.67a7.67,7.67,0,0,0,.89.38h0a2.67,2.67,0,0,0,.26.09L17.79,25.8a8.81,8.81,0,0,0,.53,1.49,6.61,6.61,0,0,0,.68.39Z"/><path class="cls-2" d="M17.05,24.52l-.14-.15a10.48,10.48,0,0,0,.42,1.23c-.07-.31-.12-.63-.16-.94h0Z"/><path class="cls-2" d="M50.57,24.66c0,.31-.09.63-.16.94a9.71,9.71,0,0,0,.41-1.22,3.33,3.33,0,0,1-.25.28Z"/><path class="cls-2" d="M37.81,22.2,37.59,22l-.05-.06c-.3.33-.61.66-.91,1l1,1q.34-.39.69-.81l.1-.12-.2-.24Z"/><path class="cls-2" d="M50.55,22.57c.09-.18.17-.37.24-.55h0A6.1,6.1,0,0,0,51.06,21a6.07,6.07,0,0,0-.51-1.63A6.79,6.79,0,0,1,50.12,21,6.28,6.28,0,0,1,50.55,22.57Z"/><path class="cls-2" d="M48.77,27.67c.22-.12.44-.24.65-.38A11,11,0,0,0,50,25.8l-2.33,2.33a8.28,8.28,0,0,0,1.16-.47Z"/><path class="cls-2" d="M47.89,26.52a5.87,5.87,0,0,1-.63.24h0l-1.71,1.71.49,0a5.19,5.19,0,0,0,.79-.12l3.07-3.06A7.93,7.93,0,0,1,48,26.5Z"/><path class="cls-2" d="M35.76,20l-1,1,1,1q.48-.49,1-1L36,20.18Z"/><path class="cls-2" d="M45.37,13.45a7.47,7.47,0,0,0-5.32,2.2l-2.12,2.12q.36.4.72.84l.05.06.2-.25a8.86,8.86,0,0,1,6.23-3.52,7.15,7.15,0,0,1,5.44,2.38,7.41,7.41,0,0,1,1.58,6.91l0-.07a7.39,7.39,0,0,0,.7-3.15,7.51,7.51,0,0,0-7.51-7.52Z"/><path class="cls-2" d="M40.14,21l-.44-.49v0h0L39.24,20q-.43.53-.87,1l.87,1C39.53,21.64,39.83,21.3,40.14,21Z"/><path class="cls-2" d="M40.35,20.59l.07.07c1.52-1.6,3.23-3,5.07-3.05a4.48,4.48,0,0,1,3.42,1.53,5.49,5.49,0,0,1,1,1.31,6.43,6.43,0,0,0,.33-1.67c0-.07-.09-.14-.14-.21l-1-1a5.65,5.65,0,0,0-3.92-1.48,7.7,7.7,0,0,0-5.33,3.07c-.11.15-.23.28-.34.43.23.27.47.55.72.82Z"/><path class="cls-2" d="M21.63,28.44a5.12,5.12,0,0,0,.56,0l-1.71-1.71a7.63,7.63,0,0,1-2.64-1.49l3.08,3.07c.23.05.47.08.71.11Z"/><path class="cls-2" d="M37.64,18.06l-1,1c.3.32.61.64.91,1,.3-.34.6-.69.89-1.05l-.1-.12C38.1,18.59,37.87,18.33,37.64,18.06Z"/><path class="cls-2" d="M44.73,29.62h0l-.3,0-3.06,3.07a10.59,10.59,0,0,1-15,0L23.31,29.6a7.81,7.81,0,0,1-1.08,0l4.15,4.15a10.59,10.59,0,0,0,15,0l4.16-4.15c-.26,0-.51,0-.77,0Z"/><path class="cls-2" d="M17.1,22.4l.06.12a.08.08,0,0,1,0,0,6.78,6.78,0,0,1,.44-1.6l0-.05c0-.1-.07-.2-.1-.29l-.06-.18-.09-.32c0-.05,0-.1,0-.15s-.05-.23-.07-.35h0a2.51,2.51,0,0,1,0-.27,5.34,5.34,0,0,0-.5,1.6,5.37,5.37,0,0,0,.23,1A3.8,3.8,0,0,0,17.1,22.4Z"/><path class="cls-3" d="M26.39,7.55l-4.72,4.71.61,0,4.1-4.09a10.59,10.59,0,0,1,15,0l4.11,4.09.62,0L41.35,7.55A10.58,10.58,0,0,0,26.39,7.55Z"/><path class="cls-3" d="M26.37,9.26l-3,3,.51.06,2.5-2.5a10.59,10.59,0,0,1,15,0l2.5,2.5.51-.06-3-3A10.59,10.59,0,0,0,26.37,9.26Z"/><path class="cls-3" d="M22.76,13.47H22.7l0,0Z"/><path class="cls-3" d="M45.55,28.47,44.43,29.6l.3,0h0c.26,0,.51,0,.77,0h0l.61,0h0a8.91,8.91,0,0,0,1.45-.22l1.07-1.07a8.07,8.07,0,0,0,.7-.83l.09-.22c-.21.14-.43.26-.65.38h0a8.28,8.28,0,0,1-1.16.47,7.62,7.62,0,0,1-.79.2,5.19,5.19,0,0,1-.79.12Z"/><path class="cls-3" d="M14.82,16.56a8.76,8.76,0,0,0,1.37,10.58A9,9,0,0,1,14.82,16.56Z"/><path class="cls-3" d="M35.5,15.26l-.11-.09c-.21-.19-.41-.38-.62-.55l-.17-.15c-.25-.2-.49-.4-.73-.58h0c-.24.18-.48.37-.71.57l-.18.15c-.19.16-.39.33-.58.51l-.14.13c-.54.49-1.09,1-1.63,1.61l.29.29.19-.2.6-.62,2.16,2.16h0L36,16.33l.63.64h0l.17.18.29-.29C36.57,16.29,36,15.75,35.5,15.26Zm-1.63,1.46-1.26-1.24c.42-.38.84-.74,1.26-1.07.42.33.84.69,1.26,1.07Z"/><path class="cls-3" d="M18,18.15a5,5,0,0,0-.37.42l1-1A5.89,5.89,0,0,0,18,18.15Z"/><path class="cls-3" d="M26.38,6.32a10.6,10.6,0,0,1,15,0l6.17,6.18a8.68,8.68,0,0,1,4.13,2.4l-.11-.12-2-2.06h0L41.36,4.58a10.6,10.6,0,0,0-15,0l-8.14,8.14h0l-2.06,2.06-.11.12a8.71,8.71,0,0,1,4.14-2.4Z"/><path class="cls-3" d="M37.93,17.77,34.74,21h0l1-1,.22.23.74.79c.27.3.55.6.82.92l.05.06.22.25.42.5.2.24,0,0,.79-.94-.87-1h0l-.83-.92h0c-.3-.33-.61-.65-.91-1l1-1c.23.27.46.53.69.81l.1.12.27-.32-.05-.06Q38.29,18.18,37.93,17.77Z"/><path class="cls-3" d="M49.7,18.15a7.31,7.31,0,0,0-.6-.54l1,1A5,5,0,0,0,49.7,18.15Z"/><path class="cls-3" d="M50.79,22c-.07.18-.15.37-.24.55a3.81,3.81,0,0,1-.34.58,1.43,1.43,0,0,1-.14.2h0a4.83,4.83,0,0,1-.37.42,7.31,7.31,0,0,1-.6.54h0a5.65,5.65,0,0,1-3.92,1.48,7.7,7.7,0,0,1-5.33-3.07v0l-.07-.08h0l-.26-.32c-.26.29-.5.59-.74.87l-.07.08.2.25.13.15h0a11.53,11.53,0,0,0,1.41,1.39h0l.37.29h0l.36.27h0l.35.23,0,0c.11.08.23.14.34.21l.06,0,.33.17.08,0,.31.14.1,0,.29.11.13.05.27.09.16,0,.24.06.2,0,.21.05.25,0,.15,0a2.83,2.83,0,0,0,.41,0,5.77,5.77,0,0,0,.72,0l.35,0,.3,0a7,7,0,0,0,.76-.18h0a5.87,5.87,0,0,0,.63-.24l.06,0a7.93,7.93,0,0,0,1.95-1.23h0c.22-.19.44-.39.66-.61a.75.75,0,0,1,0-.2c0,.06,0,.13,0,.2h0a3.33,3.33,0,0,0,.25-.28A8.27,8.27,0,0,0,51.06,21,6.1,6.1,0,0,1,50.79,22Z"/><path class="cls-3" d="M50.12,21a6.79,6.79,0,0,0,.43-1.62,4.65,4.65,0,0,0-.34-.56,6.43,6.43,0,0,1-.33,1.67Q50,20.71,50.12,21Z"/><path class="cls-3" d="M52.92,16.56a9,9,0,0,1-1.37,10.58A8.76,8.76,0,0,0,52.92,16.56Z"/><path class="cls-3" d="M52.14,24.21a.36.36,0,0,0,0-.09l0,.07Z"/><path class="cls-3" d="M23.3,29.59l.51-.07h0a8.9,8.9,0,0,0,2.12-.63h0l.72-.35.15-.1c.19-.11.38-.22.56-.34l.31-.23.37-.28a8.6,8.6,0,0,0,.64-.58l1.58-1.58h0l.34-.35c-.27-.29-.55-.59-.83-.91l-2.12,2.12a7.39,7.39,0,0,1-4.92,2.18h0l-.39,0h-.18a5.12,5.12,0,0,1-.56,0h0c-.24,0-.48-.06-.71-.11l1.31,1.31a7.81,7.81,0,0,0,1.08,0Z"/><path d="M18,23.78a5.89,5.89,0,0,0,.59.54l-1-1A3.89,3.89,0,0,0,18,23.78Z"/><path d="M20.48,26.76l1.71,1.71h.18l.39,0h0l-1.52-1.52C21,26.89,20.73,26.83,20.48,26.76Z"/><path d="M29.31,22.94h0a4,4,0,0,1-.26.32h0l.05.06.71.84c.28.32.56.62.83.91a26.6,26.6,0,0,0,3.24,3h0a28.16,28.16,0,0,0,3.24-3l-.29-.28c-.27.28-.53.55-.8.81l-2.15-2.15h0L31.71,25.6l-.79-.81h0c-.26-.27-.45-.45-.83-.91q-.35-.39-.69-.81Zm4.56,2.25,1.26,1.26c-.42.38-.84.74-1.26,1.07-.42-.33-.84-.69-1.26-1.07Z"/><path d="M43.92,29.52l-2.55,2.56a10.57,10.57,0,0,1-15,0l-2.55-2.56h0l-.51.07h0l3.06,3.07a10.59,10.59,0,0,0,15,0l3.06-3.07,1.12-1.13,1.71-1.71a7,7,0,0,1-.76.18L45,28.46Z"/><path d="M49.7,23.78a4.83,4.83,0,0,0,.37-.42h0l-1,1A7.31,7.31,0,0,0,49.7,23.78Z"/><polygon points="49.1 24.32 49.1 24.32 49.1 24.32 49.1 24.32 49.1 24.32"/><path d="M17.86,21.47a4,4,0,0,1-.24-.51,6.78,6.78,0,0,0-.44,1.6,5.66,5.66,0,0,0,.34.59,6.59,6.59,0,0,1,.34-1.68Z"/><path d="M50.55,22.57A6.28,6.28,0,0,0,50.12,21q-.1-.26-.24-.51a5.49,5.49,0,0,0-1-1.31,4.48,4.48,0,0,0-3.42-1.53c-1.84.08-3.55,1.45-5.07,3.05h0c.09.11.19.21.28.31,1.46-1.55,3.1-2.88,4.8-2.95a4,4,0,0,1,3.12,1.41A5.13,5.13,0,0,1,49.67,21a4.4,4.4,0,0,1,.21.5,6.42,6.42,0,0,1,.33,1.68A3.81,3.81,0,0,0,50.55,22.57Z"/><path d="M27.32,20.66c-1.52-1.6-3.23-3-5.07-3.05a4.48,4.48,0,0,0-3.42,1.53,5.49,5.49,0,0,0-1,1.31c.06.18.13.35.2.52h0a5.35,5.35,0,0,1,1.06-1.54A4,4,0,0,1,22.23,18c1.71.07,3.34,1.4,4.81,2.95l.28.3c.31.34.62.69.91,1L28.5,22c-.29-.34-.59-.68-.9-1Z"/><path d="M52.92,16.56l-.14-.22c-.08-.14-.18-.28-.27-.41l-.25-.35L52,15.26l-.2-.24-.13-.12a8.68,8.68,0,0,0-4.13-2.4,9.07,9.07,0,0,0-1.46-.24l-.62,0a9.61,9.61,0,0,0-1.07.07l-.51.06a8.77,8.77,0,0,0-4.69,2.43l-2.07,2.08-.29.29-3,2.94-2.95-2.94-.29-.29-2.08-2.08a8.71,8.71,0,0,0-4.68-2.43l-.51-.06a9.79,9.79,0,0,0-1.08-.07l-.61,0a8.89,8.89,0,0,0-1.46.24,8.71,8.71,0,0,0-4.14,2.4L16,15l-.2.24-.27.32c-.09.11-.17.23-.25.35l-.28.41-.13.22a9,9,0,0,0,1.37,10.58l.14.16,1.91,1.91h0l8.14,8.14a10.6,10.6,0,0,0,15,0l8.14-8.14h0l1.9-1.91c.06-.05.1-.11.15-.16A9,9,0,0,0,52.92,16.56Zm-.74,7.56a.36.36,0,0,1,0,.09v0a7.41,7.41,0,0,0-1.58-6.91,7.15,7.15,0,0,0-5.44-2.38,8.86,8.86,0,0,0-6.23,3.52l-.2.25-.27.32c-.29.36-.59.71-.89,1.05h0l.83.92h0q.43-.49.87-1l.27-.32c.11-.15.23-.28.34-.43a7.7,7.7,0,0,1,5.33-3.07,5.65,5.65,0,0,1,3.92,1.48,7.31,7.31,0,0,1,.6.54,5,5,0,0,1,.37.42c0,.07.1.14.14.21a4.65,4.65,0,0,1,.34.56A6.07,6.07,0,0,1,51.06,21a8.27,8.27,0,0,1-.24,3.41,9.71,9.71,0,0,1-.41,1.22c.07-.31.12-.63.16-.94,0-.07,0-.14,0-.2a.75.75,0,0,0,0,.2c-.22.22-.44.42-.66.61h0l-3.07,3.06a7.62,7.62,0,0,0,.79-.2L50,25.8a11,11,0,0,1-.53,1.49l-.09.22a8.07,8.07,0,0,1-.7.83l-1.07,1.07-6.2,6.2a10.6,10.6,0,0,1-15,0l-6.2-6.2-1.07-1.07a8.07,8.07,0,0,1-.7-.83l-.09-.22a8.81,8.81,0,0,1-.53-1.49l2.35,2.34,1.49,1.49,4.76,4.75a10.58,10.58,0,0,0,15,0l4.76-4.75h0l-.61,0h0L41.34,33.8a10.59,10.59,0,0,1-15,0l-4.15-4.15-1.31-1.31-3.08-3.07c-.23-.19-.45-.39-.67-.61,0,.31.09.63.16.94a10.48,10.48,0,0,1-.42-1.23A8.31,8.31,0,0,1,16.69,21a5.34,5.34,0,0,1,.5-1.6,4,4,0,0,1,.33-.57l.15-.21a5,5,0,0,1,.37-.42,5.89,5.89,0,0,1,.59-.54,5.67,5.67,0,0,1,3.93-1.48,7.66,7.66,0,0,1,5.32,3.07c.12.15.24.28.35.43l.74-.88.07-.08-.2-.25a8.88,8.88,0,0,0-6.23-3.52,7.14,7.14,0,0,0-5.44,2.38,7.41,7.41,0,0,0-1.58,6.93,6.07,6.07,0,0,1-.24-.59,1.8,1.8,0,0,1-.08-.21l0-.09a2.64,2.64,0,0,1-.12-.4,7.5,7.5,0,0,1,7.25-9.47l.33,0h.06a7.39,7.39,0,0,1,4.92,2.18l2.12,2.12L33,21h0l-1,1q-.48-.49-1-1c-.27-.3-.55-.61-.82-.93s-.6-.69-.89-1.05l0,0L28.5,20h0q.43.53.87,1c.27.31.55.62.83.92s.6.66.91,1l-1,1L33,21c.2.19.45.46.87.87h0l.87-.87,3.19,3.19q.36-.4.72-.84l.05-.06.07-.08c.24-.28.48-.58.74-.87s.6-.7.91-1h0l-.28-.3h0c-.31.33-.61.67-.9,1l-.79.94,0,0-.1.12q-.34.42-.69.81l-1-1c.3-.31.61-.64.91-1-.27-.32-.55-.62-.82-.92q-.48.53-1,1l-1-1h0l3.19-3.2,2.12-2.12A7.52,7.52,0,0,1,52.88,21,7.39,7.39,0,0,1,52.18,24.12Z"/><path class="cls-3" d="M17.23,19.62c0,.12,0,.23.07.35s0,.1,0,.15l.09.32.06.18c0,.09.07.19.1.29l0,.05a4,4,0,0,0,.24.51h0s0,0,0,0,.11.19.16.28l.12.18.2.28a1.71,1.71,0,0,0,.11.14,4.48,4.48,0,0,0,.36.4,4.53,4.53,0,0,0,3.42,1.54l.45,0,.1,0,.43-.1.06,0,.38-.13.11,0,.4-.19.11-.05.31-.18.13-.07.36-.24.16-.12.24-.17.18-.14.3-.25.21-.18.14-.13c.15-.13.29-.27.44-.42l0,0,.52-.53L27,21l-.33.33a1.59,1.59,0,0,1-.13.13l-.23.23-.14.13-.32.3-.13.11-.28.24-.09.07-.36.27-.12.08-.37.25-.06,0-.34.19-.1.05-.39.19-.08,0-.36.13-.06,0a3,3,0,0,1-.41.09l-.09,0a3,3,0,0,1-.42,0,4,4,0,0,1-3.11-1.41,3.73,3.73,0,0,1-.32-.36L18.7,22l-.19-.26c0-.05-.07-.1-.1-.16l-.15-.24c0-.06-.07-.12-.1-.19s-.06-.13-.1-.2h0c-.07-.17-.14-.34-.2-.52s-.05-.12-.07-.19-.05-.18-.07-.27a1.6,1.6,0,0,1,0-.21,6.51,6.51,0,0,1-.15-1,4,4,0,0,0-.33.57,2.51,2.51,0,0,0,0,.27Z"/><path class="cls-3" d="M21.24,26.94a6.27,6.27,0,0,0,1.37.09,8.88,8.88,0,0,0,6.23-3.52v0l.19-.23h0a4,4,0,0,0,.26-.32h0l.2-.25.63-.73h0l.06-.07c-.28-.3-.56-.61-.83-.92-.27.3-.54.61-.8.93L28.5,22l-.27.32-.33.41,0,0a7.66,7.66,0,0,1-5.32,3.07,5.67,5.67,0,0,1-3.93-1.48h0a5.89,5.89,0,0,1-.59-.54,3.89,3.89,0,0,1-.38-.43c-.05-.07-.09-.14-.14-.2a5.66,5.66,0,0,1-.34-.59.08.08,0,0,0,0,0l-.06-.12a3.8,3.8,0,0,1-.18-.47,5.37,5.37,0,0,1-.23-1,8.31,8.31,0,0,0,.22,3.42l.14.15.12.14h0c.22.22.44.42.67.61a7.63,7.63,0,0,0,2.64,1.49C20.73,26.83,21,26.89,21.24,26.94Z"/><path class="cls-3" d="M20.33,29.44h0a7.79,7.79,0,0,0,1.27.19l-1.49-1.49a2.67,2.67,0,0,1-.26-.09h0a7.67,7.67,0,0,1-.89-.38h0a6.61,6.61,0,0,1-.68-.39l.09.22a8.07,8.07,0,0,0,.7.83l1.07,1.07.15,0Z"/><path class="cls-3" d="M30.92,24.79l2.95-2.95,3,2.95.29.28.64.65L39,27a9.1,9.1,0,0,0,4.89,2.52L45,28.46a7.44,7.44,0,0,1-4.93-2.18l-1.71-1.71-.41-.41L34.74,21l-.87.87h0c-.42-.41-.67-.68-.87-.87l-2.91,2.9c.38.46.57.64.83.91Z"/><path class="cls-3" d="M39.69,20.46v0l.44.49h0l.28.3h0l.14.14.16.17.21.2c.06.06.12.13.19.19l.19.18.25.23.18.15.35.3.15.11.27.2.16.12.28.18.15.09.39.22,0,0A4.14,4.14,0,0,0,44,24l.14.05.31.11.16.05.32.07.14,0,.46,0a4.53,4.53,0,0,0,3.42-1.54h0a5.56,5.56,0,0,0,1-1.31,4.4,4.4,0,0,0-.21-.5,5,5,0,0,1-.32.6c-.09.14-.18.27-.28.4l-.07.09a5.2,5.2,0,0,1-.38.44h0a4,4,0,0,1-3.12,1.41,3.28,3.28,0,0,1-.43,0l-.13,0-.3-.07-.15-.05-.29-.1-.13-.05-.35-.16-.07,0-.41-.23-.12-.08-.29-.2-.15-.1-.27-.2-.13-.11L42,22.2l-.1-.09-.38-.35-.1-.09-.29-.28L41,21.25,40.73,21l0,0c-.09-.1-.19-.2-.28-.31h0l-.07-.07-.12-.14c-.25-.27-.49-.55-.72-.82l-.27.32.45.51Z"/><path class="cls-3" d="M27.32,20.66l.28.31q.46-.51.9-1h0l.79-.94,0,0,.09-.12.46-.53h0l.23-.28,1,1c-.31.32-.61.64-.91,1,.27.32.55.63.82.93l0,0h0c.24-.27.48-.52.72-.77h0L32,20l1,1h0l-3.2-3.2-.11.13h0l-.6.71-.05.06-.07.08-.74.88-.66.76Z"/></svg>