<?xml version="1.0" encoding="utf-8"?>
<!-- Generator: Adobe Illustrator 19.0.0, SVG Export Plug-In . SVG Version: 6.00 Build 0)  -->
<svg version="1.1" id="Capa_1" xmlns="http://www.w3.org/2000/svg" xmlns:xlink="http://www.w3.org/1999/xlink" x="0px" y="0px"
	 viewBox="0 0 595.3 841.9" style="enable-background:new 0 0 595.3 841.9;" xml:space="preserve">
<style type="text/css">
	.st0{fill:#AA8317;}
	.st1{fill:#514E4C;}
	.st2{font-family:'Quicksand-Light';}
	.st3{font-size:33.1672px;}
	.st4{font-size:15.1603px;}
</style>
<g id="XMLID_638_">
	<g id="XMLID_639_">
		
			<rect id="XMLID_1461_" x="330" y="68.4" transform="matrix(1 -2.550926e-003 2.550926e-003 1 -0.1927 0.8615)" class="st0" width="15.2" height="15.2"/>
		
			<rect id="XMLID_1460_" x="250.5" y="148.3" transform="matrix(1 -2.551002e-003 2.551002e-003 1 -0.3968 0.659)" class="st0" width="15.2" height="15.2"/>
		
			<rect id="XMLID_1459_" x="330.2" y="148.1" transform="matrix(2.595734e-003 1 -1 2.595734e-003 492.6346 -182.5346)" class="st0" width="15.2" height="15.2"/>
		
			<rect id="XMLID_1458_" x="250.3" y="68.6" transform="matrix(2.595809e-003 1 -1 2.595809e-003 333.4258 -181.9181)" class="st0" width="15.2" height="15.2"/>
		
			<rect id="XMLID_1457_" x="346.6" y="108.2" transform="matrix(0.7089 0.7053 -0.7053 0.7089 184.7978 -216.138)" class="st0" width="15.2" height="15.2"/>
		
			<rect id="XMLID_1456_" x="233.9" y="108.5" transform="matrix(0.7089 0.7053 -0.7053 0.7089 152.162 -136.5374)" class="st0" width="15.2" height="15.2"/>
		
			<rect id="XMLID_1455_" x="290.4" y="164.7" transform="matrix(-0.7053 0.7089 -0.7089 -0.7053 630.3394 82.5479)" class="st0" width="15.2" height="15.2"/>
		
			<rect id="XMLID_1454_" x="290.1" y="52" transform="matrix(-0.7052 0.709 -0.709 -0.7052 549.9252 -109.4782)" class="st0" width="15.2" height="15.2"/>
		
			<rect id="XMLID_1453_" x="342.3" y="86.7" transform="matrix(0.9245 0.3812 -0.3812 0.9245 62.3529 -126.2525)" class="st0" width="15.2" height="15.2"/>
		
			<rect id="XMLID_1452_" x="238.2" y="130" transform="matrix(0.9246 0.381 -0.381 0.9246 70.9754 -83.2919)" class="st0" width="15.2" height="15.2"/>
		
			<rect id="XMLID_1451_" x="311.9" y="160.4" transform="matrix(-0.3811 0.9245 -0.9245 -0.3811 596.5801 -63.4258)" class="st0" width="15.2" height="15.2"/>
		
			<rect id="XMLID_1450_" x="268.6" y="56.3" transform="matrix(-0.3811 0.9245 -0.9245 -0.3811 440.5645 -167.1029)" class="st0" width="15.2" height="15.2"/>
		
			<rect id="XMLID_1449_" x="342.4" y="129.8" transform="matrix(0.3842 0.9233 -0.9233 0.3842 342.4021 -238.4885)" class="st0" width="15.2" height="15.2"/>
		
			<rect id="XMLID_1448_" x="238.2" y="86.9" transform="matrix(0.3841 0.9233 -0.9233 0.3841 238.5645 -168.7312)" class="st0" width="15.2" height="15.2"/>
		
			<rect id="XMLID_1447_" x="268.8" y="160.5" transform="matrix(-0.9233 0.3842 -0.3842 -0.9233 596.1128 217.0204)" class="st0" width="15.2" height="15.2"/>
		
			<rect id="XMLID_1446_" x="311.8" y="56.3" transform="matrix(-0.9233 0.3842 -0.3842 -0.9233 638.7122 7.690384e-002)" class="st0" width="15.2" height="15.2"/>
		
			<rect id="XMLID_1445_" x="316" y="76.2" transform="matrix(0.9769 -0.2139 0.2139 0.9769 -9.8849 70.4514)" class="st0" width="9.4" height="9.4"/>
		
			<rect id="XMLID_1444_" x="270.2" y="145.2" transform="matrix(0.9769 -0.2139 0.2139 0.9769 -25.6916 62.2703)" class="st0" width="9.4" height="9.4"/>
		
			<rect id="XMLID_1443_" x="327.6" y="133.6" transform="matrix(0.2139 0.9768 -0.9768 0.2139 396.2526 -215.9077)" class="st0" width="9.4" height="9.4"/>
		
			<rect id="XMLID_1442_" x="258.6" y="87.8" transform="matrix(0.2138 0.9769 -0.9769 0.2138 297.4199 -184.4924)" class="st0" width="9.4" height="9.4"/>
		
			<rect id="XMLID_1441_" x="333.7" y="102.5" transform="matrix(0.842 0.5394 -0.5394 0.842 111.2608 -165.5828)" class="st0" width="9.4" height="9.4"/>
		
			<rect id="XMLID_1440_" x="252.6" y="118.9" transform="matrix(0.8421 0.5393 -0.5393 0.8421 107.2878 -119.2301)" class="st0" width="9.4" height="9.4"/>
		
			<rect id="XMLID_1439_" x="301.3" y="151.2" transform="matrix(-0.5394 0.8421 -0.8421 -0.5394 602.3827 -17.6309)" class="st0" width="9.4" height="9.4"/>
		
			<rect id="XMLID_1438_" x="284.9" y="70.1" transform="matrix(-0.5395 0.842 -0.842 -0.5395 508.8423 -128.6172)" class="st0" width="9.4" height="9.4"/>
		
			<rect id="XMLID_1437_" x="327.6" y="87.8" transform="matrix(0.9834 0.1812 -0.1812 0.9834 22.257 -58.6767)" class="st0" width="9.4" height="9.4"/>
		
			<rect id="XMLID_1436_" x="258.7" y="133.6" transform="matrix(0.9834 0.1813 -0.1813 0.9834 29.4373 -45.4509)" class="st0" width="9.4" height="9.4"/>
		
			<rect id="XMLID_1435_" x="316" y="145.1" transform="matrix(-0.1816 0.9834 -0.9834 -0.1816 526.3031 -138.3594)" class="st0" width="9.4" height="9.4"/>
		
			<rect id="XMLID_1434_" x="270.2" y="76.3" transform="matrix(-0.1814 0.9834 -0.9834 -0.1814 404.3393 -174.6875)" class="st0" width="9.4" height="9.4"/>
		
			<rect id="XMLID_1433_" x="333.7" y="118.8" transform="matrix(0.5673 0.8235 -0.8235 0.5673 248.1544 -225.1987)" class="st0" width="9.4" height="9.4"/>
		
			<rect id="XMLID_1432_" x="252.5" y="102.6" transform="matrix(0.5671 0.8236 -0.8236 0.5671 199.679 -165.445)" class="st0" width="9.4" height="9.4"/>
		
			<rect id="XMLID_1431_" x="285" y="151.3" transform="matrix(-0.8236 0.5672 -0.5672 -0.8236 616.6743 120.1099)" class="st0" width="9.4" height="9.4"/>
		
			<rect id="XMLID_1430_" x="301.3" y="70.1" transform="matrix(-0.8236 0.5672 -0.5672 -0.8236 600.3563 -37.0864)" class="st0" width="9.4" height="9.4"/>
		
			<rect id="XMLID_1429_" x="306.2" y="84.8" transform="matrix(0.9168 -0.3993 0.3993 0.9168 -9.3107 130.7235)" class="st0" width="5.8" height="5.8"/>
		
			<rect id="XMLID_1428_" x="283.4" y="140.1" transform="matrix(0.9169 -0.3992 0.3992 0.9169 -33.2877 126.1833)" class="st0" width="5.8" height="5.8"/>
		
			<rect id="XMLID_1427_" x="322.5" y="123.9" transform="matrix(0.3989 0.917 -0.917 0.3989 311.826 -222.1876)" class="st0" width="5.8" height="5.8"/>
		
			<rect id="XMLID_1426_" x="267.2" y="101.1" transform="matrix(0.3992 0.9169 -0.9169 0.3992 257.6128 -185.1472)" class="st0" width="5.8" height="5.8"/>
		
			<rect id="XMLID_1425_" x="322.4" y="101" transform="matrix(0.9306 0.366 -0.366 0.9306 60.5861 -111.8662)" class="st0" width="5.8" height="5.8"/>
		
			<rect id="XMLID_1424_" x="267.2" y="124" transform="matrix(0.9306 0.3661 -0.3661 0.9306 65.2112 -90.0937)" class="st0" width="5.8" height="5.8"/>
		
			<rect id="XMLID_1423_" x="306.3" y="140.1" transform="matrix(-0.3658 0.9307 -0.9307 -0.3658 555.4106 -92.5433)" class="st0" width="5.8" height="5.8"/>
		
			<rect id="XMLID_1419_" x="283.3" y="84.9" transform="matrix(-0.3659 0.9307 -0.9307 -0.3659 472.6151 -146.5111)" class="st0" width="5.8" height="5.8"/>
		
			<rect id="XMLID_1401_" x="316.1" y="91.4" transform="matrix(0.9999 -1.193393e-002 1.193393e-002 0.9999 -1.1026 3.8131)" class="st0" width="5.8" height="5.8"/>
		
			<rect id="XMLID_1400_" x="273.6" y="133.5" transform="matrix(0.9999 -1.181937e-002 1.181937e-002 0.9999 -1.5932 3.2776)" class="st0" width="5.8" height="5.8"/>
		
			<rect id="XMLID_1399_" x="315.9" y="133.7" transform="matrix(1.170731e-002 0.9999 -0.9999 1.170731e-002 451.6465 -183.7807)" class="st0" width="5.8" height="5.8"/>
		
			<rect id="XMLID_1398_" x="273.8" y="91.2" transform="matrix(1.182366e-002 0.9999 -0.9999 1.182366e-002 367.5226 -183.6152)" class="st0" width="5.8" height="5.8"/>
		
			<rect id="XMLID_1397_" x="324.7" y="112.6" transform="matrix(0.7155 0.6987 -0.6987 0.7155 173.9061 -196.0461)" class="st0" width="5.8" height="5.8"/>
		
			<rect id="XMLID_1396_" x="264.9" y="112.4" transform="matrix(0.7155 0.6986 -0.6986 0.7155 156.709 -154.3134)" class="st0" width="5.8" height="5.8"/>
		
			<rect id="XMLID_1395_" x="294.7" y="142.4" transform="matrix(-0.6986 0.7155 -0.7155 -0.6986 609.4781 33.8119)" class="st0" width="5.8" height="5.8"/>
		
			<rect id="XMLID_1394_" x="294.9" y="82.6" transform="matrix(-0.6985 0.7156 -0.7156 -0.6985 567.0529 -67.9682)" class="st0" width="5.8" height="5.8"/>
		
			<rect id="XMLID_1393_" x="300.2" y="93.1" transform="matrix(0.5589 0.8292 -0.8292 0.5589 211.9067 -208.5273)" class="st0" width="3.6" height="3.6"/>
		
			<rect id="XMLID_1392_" x="292" y="135.2" transform="matrix(0.5589 0.8292 -0.8292 0.5589 243.1768 -183.2097)" class="st0" width="3.6" height="3.6"/>
		
			<rect id="XMLID_1391_" x="317.1" y="118.2" transform="matrix(-0.8293 0.5588 -0.5588 -0.8293 650.433 41.3578)" class="st0" width="3.6" height="3.6"/>
		
			<rect id="XMLID_1390_" x="275.1" y="110.1" transform="matrix(-0.8292 0.559 -0.559 -0.8292 568.9375 49.8642)" class="st0" width="3.6" height="3.6"/>
		
			<rect id="XMLID_1389_" x="313.8" y="102.2" transform="matrix(-0.191 0.9816 -0.9816 -0.191 477.9507 -186.0045)" class="st0" width="3.6" height="3.6"/>
		
			<rect id="XMLID_1273_" x="278.3" y="126.1" transform="matrix(-0.191 0.9816 -0.9816 -0.191 459.195 -122.6073)" class="st0" width="3.6" height="3.6"/>
		
			<rect id="XMLID_1272_" x="308.1" y="131.9" transform="matrix(-0.9816 -0.1907 0.1907 -0.9816 588.5224 324.0356)" class="st0" width="3.6" height="3.6"/>
		
			<rect id="XMLID_1268_" x="284.1" y="96.4" transform="matrix(-0.9816 -0.1907 0.1907 -0.9816 547.8164 249.0962)" class="st0" width="3.6" height="3.6"/>
		
			<rect id="XMLID_640_" x="307.9" y="96.3" transform="matrix(0.1994 0.9799 -0.9799 0.1994 344.0211 -224.9505)" class="st0" width="3.6" height="3.6"/>
		
			<rect id="XMLID_641_" x="284.3" y="132" transform="matrix(0.1994 0.9799 -0.9799 0.1994 360.1294 -173.1972)" class="st0" width="3.6" height="3.6"/>
		
			<rect id="XMLID_642_" x="314" y="126" transform="matrix(-0.9799 0.1997 -0.1997 -0.9799 650.6364 189.8788)" class="st0" width="3.6" height="3.6"/>
		
			<rect id="XMLID_643_" x="278.2" y="102.3" transform="matrix(-0.9799 0.1996 -0.1996 -0.9799 575.1649 150.2814)" class="st0" width="3.6" height="3.6"/>
		
			<rect id="XMLID_644_" x="317.1" y="109.9" transform="matrix(-0.5516 0.8341 -0.8341 -0.5516 587.8827 -92.7135)" class="st0" width="3.6" height="3.6"/>
		
			<rect id="XMLID_645_" x="275.1" y="118.4" transform="matrix(-0.5522 0.8337 -0.8337 -0.5522 530.0203 -44.2328)" class="st0" width="3.6" height="3.6"/>
		
			<rect id="XMLID_648_" x="300.4" y="135.1" transform="matrix(-0.8342 -0.5515 0.5515 -0.8342 478.716 417.7756)" class="st0" width="3.6" height="3.6"/>
		
			<rect id="XMLID_649_" x="291.8" y="93.2" transform="matrix(-0.834 -0.5518 0.5518 -0.834 486.0489 336.1473)" class="st0" width="3.6" height="3.6"/>
		
			<rect id="XMLID_650_" x="296.7" y="99.4" transform="matrix(0.704 -0.7102 0.7102 0.704 16.8165 241.257)" class="st0" width="2.2" height="2.2"/>
		
			<rect id="XMLID_685_" x="296.9" y="130" transform="matrix(0.7042 -0.71 0.71 0.7042 -4.9033 250.3458)" class="st0" width="2.2" height="2.2"/>
		
			<rect id="XMLID_686_" x="312.1" y="114.6" transform="matrix(0.7108 0.7034 -0.7034 0.7108 171.9623 -186.8598)" class="st0" width="2.2" height="2.2"/>
		
			<rect id="XMLID_687_" x="281.5" y="114.7" transform="matrix(0.7099 0.7043 -0.7043 0.7099 163.5618 -165.444)" class="st0" width="2.2" height="2.2"/>
		
			<rect id="XMLID_688_" x="307.6" y="103.8" transform="matrix(1 -4.364436e-003 4.364436e-003 1 -0.4548 1.3482)" class="st0" width="2.2" height="2.2"/>
		
			<rect id="XMLID_689_" x="286" y="125.5" transform="matrix(1 -4.364436e-003 4.364436e-003 1 -0.5499 1.2544)" class="st0" width="2.2" height="2.2"/>
		
			<rect id="XMLID_690_" x="307.7" y="125.4" transform="matrix(-1 4.364436e-003 -4.364436e-003 -1 618.1082 251.7069)" class="st0" width="2.2" height="2.2"/>
		
			<rect id="XMLID_691_" x="285.9" y="103.9" transform="matrix(4.364436e-003 1 -1 4.364436e-003 390.7759 -182.5184)" class="st0" width="2.2" height="2.2"/>
		
			<rect id="XMLID_692_" x="302.7" y="100.5" transform="matrix(0.9237 -0.3831 0.3831 0.9237 -15.7542 124.1273)" class="st0" width="2.2" height="2.2"/>
		
			<rect id="XMLID_693_" x="291" y="128.8" transform="matrix(0.9239 -0.3826 0.3826 0.9239 -27.4756 121.6216)" class="st0" width="2.2" height="2.2"/>
		
			<rect id="XMLID_694_" x="311" y="120.5" transform="matrix(0.3828 0.9238 -0.9238 0.3828 304.9381 -213.2274)" class="st0" width="2.2" height="2.2"/>
		
			<rect id="XMLID_695_" x="282.7" y="108.8" transform="matrix(0.3826 0.9239 -0.9239 0.3826 276.7286 -194.328)" class="st0" width="2.2" height="2.2"/>
		
			<rect id="XMLID_697_" x="310.9" y="108.8" transform="matrix(0.924 0.3825 -0.3825 0.924 65.7593 -110.9954)" class="st0" width="2.2" height="2.2"/>
		
			<rect id="XMLID_698_" x="282.7" y="120.5" transform="matrix(0.9241 0.3822 -0.3822 0.9241 68.0312 -99.2319)" class="st0" width="2.2" height="2.2"/>
		
			<rect id="XMLID_699_" x="302.7" y="128.8" transform="matrix(-0.3823 0.924 -0.924 -0.3823 539.9354 -101.1436)" class="st0" width="2.2" height="2.2"/>
		
			<rect id="XMLID_700_" x="291" y="100.5" transform="matrix(-0.383 0.9238 -0.9238 -0.383 497.7743 -129.2467)" class="st0" width="2.2" height="2.2"/>
	</g>
	<text id="XMLID_701_" transform="matrix(1 0 0 1 146.6586 221.0627)" class="st1 st2 st3">Espacios Armónicos</text>
	<text id="XMLID_702_" transform="matrix(1 0 0 1 206.802 241.1149)"><tspan x="0" y="0" class="st1 st2 st4">Almacenamien</tspan><tspan x="103.6" y="0" class="st1 st2 st4">t</tspan><tspan x="108.3" y="0" class="st1 st2 st4">o mo</tspan><tspan x="144" y="0" class="st1 st2 st4">d</tspan><tspan x="153.3" y="0" class="st1 st2 st4">ular</tspan></text>
</g>
</svg>
